<svg width="340" height="251" viewBox="0 0 340 251" fill="none" xmlns="http://www.w3.org/2000/svg">
<rect x="14" y="29" width="312" height="31" rx="3" fill="white"/>
<rect x="12.25" y="27.25" width="315.5" height="34.5" rx="4.75" stroke="#29A5FF" stroke-opacity="0.2" stroke-width="3.5"/>
<g filter="url(#filter0_d)">
<rect x="10" y="82" width="320" height="159" rx="8" fill="#F7F7F7"/>
</g>
<rect x="20.35" y="110.35" width="299.3" height="120.3" rx="5.65" fill="white" fill-opacity="0.78" stroke="#D8D8D8" stroke-width="0.7"/>
<line x1="20" y1="150.65" x2="320" y2="150.65" stroke="#D8D8D8" stroke-width="0.7"/>
<line x1="20" y1="190.65" x2="320" y2="190.65" stroke="#D8D8D8" stroke-width="0.7"/>
<path d="M33.5284 128.406V127.273H40.2827V128.406H37.5597V136H36.2472V128.406H33.5284ZM41.6729 136V129.455H42.9471V136H41.6729ZM42.3164 128.445C42.0948 128.445 41.9045 128.371 41.7454 128.223C41.5891 128.072 41.511 127.893 41.511 127.686C41.511 127.476 41.5891 127.297 41.7454 127.149C41.9045 126.999 42.0948 126.923 42.3164 126.923C42.5352 126.923 42.7241 126.999 42.8832 127.149C43.0423 127.297 43.1218 127.476 43.1218 127.686C43.1218 127.893 43.0423 128.072 42.8832 128.223C42.7241 128.371 42.5352 128.445 42.3164 128.445ZM44.6612 136V129.455H45.8842V130.52H45.9652C46.1016 130.159 46.3246 129.878 46.6342 129.676C46.9439 129.472 47.3146 129.369 47.7464 129.369C48.1839 129.369 48.5504 129.472 48.8459 129.676C49.1442 129.881 49.3643 130.162 49.5064 130.52H49.5746C49.7337 130.17 49.9822 129.892 50.3203 129.685C50.6612 129.474 51.0675 129.369 51.5391 129.369C52.1328 129.369 52.6172 129.557 52.9922 129.932C53.37 130.304 53.5589 130.864 53.5589 131.611V136H52.2848V131.73C52.2848 131.287 52.1641 130.966 51.9226 130.767C51.6839 130.568 51.3956 130.469 51.0575 130.469C50.6428 130.469 50.3203 130.597 50.0902 130.852C49.8601 131.108 49.745 131.433 49.745 131.828V136H48.4751V131.649C48.4751 131.294 48.3643 131.009 48.1428 130.793C47.9212 130.577 47.6328 130.469 47.2777 130.469C46.9169 130.469 46.603 130.608 46.3359 130.886C46.0689 131.165 45.9354 131.524 45.9354 131.964V136H44.6612ZM58.0877 136.132C57.4457 136.132 56.8917 135.993 56.4258 135.714C55.9599 135.436 55.6005 135.045 55.3477 134.543C55.0977 134.037 54.9727 133.446 54.9727 132.77C54.9727 132.099 55.0977 131.509 55.3477 130.997C55.6005 130.486 55.9528 130.087 56.4045 129.8C56.859 129.513 57.3903 129.369 57.9982 129.369C58.4925 129.369 58.9599 129.48 59.4002 129.702C59.8434 129.92 60.2028 130.271 60.4783 130.754C60.7567 131.234 60.896 131.869 60.896 132.659V133.111H56.2425C56.2596 133.741 56.4371 134.227 56.7752 134.568C57.1133 134.909 57.555 135.08 58.1005 135.08C58.4641 135.08 58.7781 135.001 59.0423 134.845C59.3065 134.689 59.4954 134.456 59.609 134.146L60.815 134.364C60.6701 134.895 60.3576 135.322 59.8775 135.646C59.3974 135.97 58.8008 136.132 58.0877 136.132ZM56.2468 132.156H59.6474C59.6445 131.656 59.494 131.243 59.1957 130.916C58.8974 130.587 58.5011 130.422 58.0067 130.422C57.663 130.422 57.3619 130.503 57.1033 130.665C56.8477 130.824 56.6445 131.036 56.494 131.3C56.3462 131.561 56.2638 131.847 56.2468 132.156ZM68.5408 129.455V130.477H67.1985V134.078C67.1985 134.447 67.2766 134.686 67.4329 134.794C67.592 134.899 67.7752 134.952 67.9826 134.952C68.0849 134.952 68.1744 134.945 68.2511 134.93C68.3278 134.916 68.3874 134.905 68.43 134.896L68.6602 135.949C68.5863 135.977 68.4798 136.006 68.3406 136.034C68.2042 136.065 68.0352 136.082 67.8335 136.085C67.4982 136.091 67.1843 136.031 66.8917 135.906C66.6019 135.781 66.3675 135.588 66.1886 135.327C66.0124 135.065 65.9244 134.737 65.9244 134.342V130.477H64.9656V129.455H65.9244V127.886H67.1985V129.455H68.5408ZM72.6371 136.132C72.0234 136.132 71.4879 135.991 71.0305 135.71C70.5732 135.429 70.218 135.036 69.9652 134.53C69.7124 134.021 69.5859 133.43 69.5859 132.757C69.5859 132.078 69.7124 131.484 69.9652 130.976C70.218 130.467 70.5732 130.072 71.0305 129.791C71.4879 129.51 72.0234 129.369 72.6371 129.369C73.2536 129.369 73.7891 129.51 74.2436 129.791C74.701 130.072 75.0561 130.467 75.3089 130.976C75.5618 131.484 75.6882 132.078 75.6882 132.757C75.6882 133.43 75.5618 134.021 75.3089 134.53C75.0561 135.036 74.701 135.429 74.2436 135.71C73.7891 135.991 73.2536 136.132 72.6371 136.132ZM72.6413 135.062C73.0419 135.062 73.3714 134.957 73.63 134.747C73.8913 134.537 74.0845 134.257 74.2095 133.908C74.3374 133.555 74.4013 133.17 74.4013 132.753C74.4013 132.335 74.3374 131.95 74.2095 131.598C74.0845 131.246 73.8913 130.964 73.63 130.754C73.3714 130.541 73.0419 130.435 72.6413 130.435C72.2408 130.435 71.9098 130.541 71.6484 130.754C71.3871 130.964 71.1925 131.246 71.0646 131.598C70.9368 131.95 70.8729 132.335 70.8729 132.753C70.8729 133.17 70.9368 133.555 71.0646 133.908C71.1925 134.257 71.3871 134.537 71.6484 134.747C71.9098 134.957 72.2408 135.062 72.6413 135.062ZM83.0433 136.132C82.4098 136.132 81.8643 135.989 81.407 135.702C80.9524 135.412 80.603 135.013 80.3587 134.504C80.1143 133.996 79.9922 133.413 79.9922 132.757C79.9922 132.089 80.1172 131.501 80.3672 130.993C80.6172 130.484 80.9695 130.087 81.424 129.8C81.8814 129.513 82.4169 129.369 83.0305 129.369C83.5277 129.369 83.9709 129.462 84.3601 129.646C84.7493 129.828 85.0632 130.084 85.3018 130.413C85.5433 130.743 85.6868 131.128 85.7322 131.568H84.4922C84.424 131.261 84.2678 130.997 84.0234 130.776C83.782 130.554 83.4581 130.443 83.0518 130.443C82.5206 130.443 82.0916 130.649 81.7649 131.061C81.4411 131.47 81.2791 132.026 81.2791 132.727C81.2791 133.44 81.4396 134.007 81.7607 134.428C82.0817 134.845 82.5121 135.054 83.0518 135.054C83.4155 135.054 83.7266 134.955 83.9851 134.756C84.2436 134.557 84.4126 134.281 84.4922 133.929H85.7322C85.6868 134.352 85.549 134.73 85.3189 135.062C85.0888 135.395 84.7805 135.656 84.3942 135.847C84.0107 136.037 83.5604 136.132 83.0433 136.132ZM87.0948 136V129.455H88.3263V130.494H88.3945C88.5138 130.142 88.7241 129.865 89.0252 129.663C89.3292 129.459 89.6729 129.357 90.0565 129.357C90.1388 129.357 90.234 129.359 90.342 129.365C90.4499 129.371 90.5352 129.378 90.5977 129.386V130.605C90.5465 130.591 90.4556 130.575 90.3249 130.558C90.1971 130.538 90.0664 130.528 89.9329 130.528C89.4812 130.528 89.1076 130.668 88.8121 130.946C88.5167 131.222 88.369 131.574 88.369 132.003V136H87.0948ZM93.5465 136.145C93.1317 136.145 92.7567 136.068 92.4215 135.915C92.0891 135.761 91.8249 135.537 91.6289 135.241C91.4329 134.943 91.3349 134.58 91.3349 134.151C91.3349 133.778 91.4059 133.473 91.5479 133.234C91.6928 132.996 91.8846 132.807 92.1232 132.668C92.3647 132.528 92.6346 132.425 92.9329 132.357C93.2312 132.286 93.5352 132.232 93.8448 132.195C94.2369 132.149 94.5536 132.112 94.7951 132.084C95.0394 132.053 95.217 132.003 95.3278 131.935C95.4414 131.866 95.4982 131.756 95.4982 131.602V131.572C95.4982 131.2 95.3931 130.912 95.1829 130.707C94.9755 130.503 94.6658 130.401 94.2539 130.401C93.8249 130.401 93.4869 130.494 93.2397 130.682C92.9954 130.869 92.8263 131.08 92.7326 131.312L91.5352 131.04C91.7482 130.443 92.1033 130.016 92.6005 129.757C93.1005 129.499 93.646 129.369 94.2369 129.369C94.4982 129.369 94.7752 129.401 95.0678 129.463C95.3604 129.523 95.636 129.635 95.8945 129.8C96.1559 129.962 96.3675 130.192 96.5295 130.49C96.6942 130.788 96.7766 131.176 96.7766 131.653V136H95.5323V135.105H95.4812C95.359 135.349 95.1417 135.584 94.8292 135.808C94.5167 136.033 94.0891 136.145 93.5465 136.145ZM93.8235 135.122C94.1786 135.122 94.4812 135.053 94.7312 134.913C94.9812 134.774 95.1715 134.592 95.3022 134.368C95.4357 134.141 95.5025 133.898 95.5025 133.639V132.795C95.4428 132.855 95.3121 132.908 95.1104 132.953C94.9087 132.999 94.6957 133.037 94.4712 133.068C94.2468 133.099 94.065 133.125 93.9258 133.145C93.5565 133.193 93.2397 133.291 92.9755 133.439C92.7141 133.584 92.5835 133.827 92.5835 134.168C92.5835 134.483 92.6999 134.722 92.9329 134.884C93.1658 135.043 93.4627 135.122 93.8235 135.122ZM101.231 136.132C100.597 136.132 100.052 135.989 99.5945 135.702C99.1399 135.412 98.7905 135.013 98.5462 134.504C98.3018 133.996 98.1797 133.413 98.1797 132.757C98.1797 132.089 98.3047 131.501 98.5547 130.993C98.8047 130.484 99.157 130.087 99.6115 129.8C100.069 129.513 100.604 129.369 101.218 129.369C101.715 129.369 102.158 129.462 102.548 129.646C102.937 129.828 103.251 130.084 103.489 130.413C103.731 130.743 103.874 131.128 103.92 131.568H102.68C102.612 131.261 102.455 130.997 102.211 130.776C101.969 130.554 101.646 130.443 101.239 130.443C100.708 130.443 100.279 130.649 99.9524 131.061C99.6286 131.47 99.4666 132.026 99.4666 132.727C99.4666 133.44 99.6271 134.007 99.9482 134.428C100.269 134.845 100.7 135.054 101.239 135.054C101.603 135.054 101.914 134.955 102.173 134.756C102.431 134.557 102.6 134.281 102.68 133.929H103.92C103.874 134.352 103.737 134.73 103.506 135.062C103.276 135.395 102.968 135.656 102.582 135.847C102.198 136.037 101.748 136.132 101.231 136.132ZM105.282 136V127.273H106.556V132.224H106.667L109.275 129.455H110.801L108.15 132.263L110.98 136H109.416L107.191 133.043L106.556 133.678V136H105.282ZM115.24 136V127.273H118.351C119.027 127.273 119.588 127.396 120.034 127.643C120.483 127.891 120.818 128.227 121.04 128.653C121.261 129.08 121.372 129.561 121.372 130.098C121.372 130.635 121.26 131.118 121.036 131.547C120.814 131.973 120.479 132.311 120.03 132.561C119.584 132.808 119.023 132.932 118.347 132.932H116.557V136H115.24ZM116.557 131.815H118.227C118.872 131.815 119.337 131.653 119.621 131.33C119.905 131.003 120.047 130.592 120.047 130.098C120.047 129.604 119.903 129.197 119.616 128.879C119.332 128.561 118.864 128.402 118.21 128.402H116.557V131.815ZM124.66 136.145C124.245 136.145 123.87 136.068 123.535 135.915C123.202 135.761 122.938 135.537 122.742 135.241C122.546 134.943 122.448 134.58 122.448 134.151C122.448 133.778 122.519 133.473 122.661 133.234C122.806 132.996 122.998 132.807 123.237 132.668C123.478 132.528 123.748 132.425 124.046 132.357C124.344 132.286 124.648 132.232 124.958 132.195C125.35 132.149 125.667 132.112 125.908 132.084C126.153 132.053 126.33 132.003 126.441 131.935C126.555 131.866 126.612 131.756 126.612 131.602V131.572C126.612 131.2 126.506 130.912 126.296 130.707C126.089 130.503 125.779 130.401 125.367 130.401C124.938 130.401 124.6 130.494 124.353 130.682C124.109 130.869 123.94 131.08 123.846 131.312L122.648 131.04C122.862 130.443 123.217 130.016 123.714 129.757C124.214 129.499 124.759 129.369 125.35 129.369C125.612 129.369 125.888 129.401 126.181 129.463C126.474 129.523 126.749 129.635 127.008 129.8C127.269 129.962 127.481 130.192 127.643 130.49C127.808 130.788 127.89 131.176 127.89 131.653V136H126.646V135.105H126.594C126.472 135.349 126.255 135.584 125.942 135.808C125.63 136.033 125.202 136.145 124.66 136.145ZM124.937 135.122C125.292 135.122 125.594 135.053 125.844 134.913C126.094 134.774 126.285 134.592 126.415 134.368C126.549 134.141 126.616 133.898 126.616 133.639V132.795C126.556 132.855 126.425 132.908 126.224 132.953C126.022 132.999 125.809 133.037 125.585 133.068C125.36 133.099 125.178 133.125 125.039 133.145C124.67 133.193 124.353 133.291 124.089 133.439C123.827 133.584 123.697 133.827 123.697 134.168C123.697 134.483 123.813 134.722 124.046 134.884C124.279 135.043 124.576 135.122 124.937 135.122ZM134.492 131.053L133.337 131.257C133.263 131.038 133.125 130.838 132.924 130.656C132.725 130.472 132.426 130.379 132.029 130.379C131.668 130.379 131.365 130.46 131.121 130.622C130.88 130.781 130.76 130.987 130.763 131.24C130.76 131.462 130.84 131.639 131.002 131.773C131.167 131.903 131.429 132.011 131.79 132.097L132.83 132.335C134.023 132.611 134.62 133.202 134.62 134.108C134.62 134.503 134.506 134.852 134.279 135.156C134.054 135.46 133.74 135.699 133.337 135.872C132.936 136.045 132.472 136.132 131.944 136.132C131.208 136.132 130.61 135.976 130.15 135.663C129.689 135.348 129.405 134.901 129.297 134.321L130.529 134.134C130.682 134.781 131.151 135.105 131.935 135.105C132.353 135.105 132.686 135.018 132.936 134.845C133.186 134.669 133.311 134.455 133.311 134.202C133.311 133.784 133.003 133.507 132.387 133.371L131.279 133.128C130.665 132.991 130.213 132.77 129.924 132.463C129.634 132.156 129.489 131.771 129.489 131.308C129.489 130.922 129.597 130.584 129.813 130.294C130.029 130.001 130.327 129.774 130.708 129.612C131.088 129.45 131.525 129.369 132.016 129.369C132.723 129.369 133.28 129.523 133.686 129.83C134.093 130.136 134.361 130.544 134.492 131.053ZM140.925 131.053L139.771 131.257C139.697 131.038 139.559 130.838 139.357 130.656C139.158 130.472 138.86 130.379 138.462 130.379C138.102 130.379 137.799 130.46 137.555 130.622C137.313 130.781 137.194 130.987 137.197 131.24C137.194 131.462 137.273 131.639 137.435 131.773C137.6 131.903 137.863 132.011 138.224 132.097L139.263 132.335C140.457 132.611 141.053 133.202 141.053 134.108C141.053 134.503 140.94 134.852 140.712 135.156C140.488 135.46 140.174 135.699 139.771 135.872C139.37 136.045 138.906 136.132 138.377 136.132C137.641 136.132 137.043 135.976 136.583 135.663C136.123 135.348 135.839 134.901 135.731 134.321L136.962 134.134C137.116 134.781 137.585 135.105 138.369 135.105C138.786 135.105 139.12 135.018 139.37 134.845C139.62 134.669 139.745 134.455 139.745 134.202C139.745 133.784 139.437 133.507 138.82 133.371L137.712 133.128C137.099 132.991 136.647 132.77 136.357 132.463C136.067 132.156 135.923 131.771 135.923 131.308C135.923 130.922 136.031 130.584 136.246 130.294C136.462 130.001 136.761 129.774 137.141 129.612C137.522 129.45 137.958 129.369 138.45 129.369C139.157 129.369 139.714 129.523 140.12 129.83C140.526 130.136 140.795 130.544 140.925 131.053ZM143.873 136L141.947 129.455H143.264L144.547 134.261H144.61L145.897 129.455H147.214L148.493 134.24H148.556L149.831 129.455H151.147L149.225 136H147.926L146.596 131.274H146.498L145.169 136H143.873ZM154.914 136.132C154.301 136.132 153.765 135.991 153.308 135.71C152.85 135.429 152.495 135.036 152.243 134.53C151.99 134.021 151.863 133.43 151.863 132.757C151.863 132.078 151.99 131.484 152.243 130.976C152.495 130.467 152.85 130.072 153.308 129.791C153.765 129.51 154.301 129.369 154.914 129.369C155.531 129.369 156.066 129.51 156.521 129.791C156.978 130.072 157.333 130.467 157.586 130.976C157.839 131.484 157.966 132.078 157.966 132.757C157.966 133.43 157.839 134.021 157.586 134.53C157.333 135.036 156.978 135.429 156.521 135.71C156.066 135.991 155.531 136.132 154.914 136.132ZM154.919 135.062C155.319 135.062 155.649 134.957 155.907 134.747C156.169 134.537 156.362 134.257 156.487 133.908C156.615 133.555 156.679 133.17 156.679 132.753C156.679 132.335 156.615 131.95 156.487 131.598C156.362 131.246 156.169 130.964 155.907 130.754C155.649 130.541 155.319 130.435 154.919 130.435C154.518 130.435 154.187 130.541 153.926 130.754C153.664 130.964 153.47 131.246 153.342 131.598C153.214 131.95 153.15 132.335 153.15 132.753C153.15 133.17 153.214 133.555 153.342 133.908C153.47 134.257 153.664 134.537 153.926 134.747C154.187 134.957 154.518 135.062 154.919 135.062ZM159.388 136V129.455H160.619V130.494H160.688C160.807 130.142 161.017 129.865 161.318 129.663C161.622 129.459 161.966 129.357 162.349 129.357C162.432 129.357 162.527 129.359 162.635 129.365C162.743 129.371 162.828 129.378 162.891 129.386V130.605C162.839 130.591 162.749 130.575 162.618 130.558C162.49 130.538 162.359 130.528 162.226 130.528C161.774 130.528 161.401 130.668 161.105 130.946C160.81 131.222 160.662 131.574 160.662 132.003V136H159.388ZM166.209 136.128C165.681 136.128 165.211 135.993 164.799 135.723C164.387 135.453 164.063 135.065 163.827 134.56C163.591 134.051 163.473 133.445 163.473 132.74C163.473 132.033 163.591 131.428 163.827 130.925C164.066 130.422 164.392 130.037 164.807 129.77C165.222 129.503 165.692 129.369 166.218 129.369C166.624 129.369 166.951 129.438 167.198 129.574C167.448 129.707 167.641 129.864 167.777 130.043C167.917 130.222 168.025 130.379 168.101 130.516H168.178V127.273H169.452V136H168.208V134.982H168.101C168.025 135.121 167.914 135.28 167.769 135.459C167.627 135.638 167.431 135.794 167.181 135.928C166.931 136.061 166.607 136.128 166.209 136.128ZM166.49 135.041C167.042 135.041 167.463 134.828 167.756 134.402C168.051 133.973 168.199 133.415 168.199 132.727C168.199 132.043 168.053 131.493 167.76 131.078C167.471 130.661 167.047 130.452 166.49 130.452C166.107 130.452 165.787 130.551 165.532 130.75C165.276 130.949 165.083 131.22 164.952 131.564C164.824 131.905 164.76 132.293 164.76 132.727C164.76 133.165 164.826 133.558 164.956 133.908C165.087 134.257 165.28 134.534 165.536 134.739C165.794 134.94 166.113 135.041 166.49 135.041Z" fill="#979797"/>
<path d="M182.886 136.119C182.5 136.116 182.118 136.047 181.74 135.911C181.362 135.771 181.02 135.543 180.713 135.224C180.406 134.906 180.161 134.479 179.976 133.942C179.794 133.405 179.703 132.734 179.703 131.93C179.703 130.911 179.837 130.044 180.104 129.331C180.371 128.615 180.75 128.07 181.241 127.695C181.736 127.32 182.321 127.132 182.997 127.132C183.517 127.132 183.979 127.236 184.382 127.443C184.786 127.648 185.114 127.932 185.366 128.295C185.619 128.656 185.778 129.071 185.844 129.54H184.544C184.456 129.168 184.281 128.866 184.02 128.636C183.759 128.403 183.418 128.287 182.997 128.287C182.358 128.287 181.859 128.565 181.501 129.122C181.146 129.679 180.967 130.459 180.964 131.462H181.028C181.253 131.092 181.554 130.804 181.932 130.597C182.312 130.386 182.733 130.281 183.193 130.281C183.699 130.281 184.158 130.405 184.57 130.652C184.982 130.896 185.31 131.234 185.554 131.666C185.798 132.098 185.919 132.592 185.916 133.149C185.919 133.706 185.794 134.21 185.541 134.662C185.288 135.114 184.935 135.472 184.48 135.736C184.026 135.997 183.494 136.125 182.886 136.119ZM182.882 135.011C183.214 135.011 183.513 134.929 183.777 134.764C184.044 134.599 184.254 134.378 184.408 134.099C184.564 133.821 184.641 133.51 184.638 133.166C184.641 132.828 184.567 132.523 184.416 132.25C184.266 131.974 184.06 131.756 183.798 131.594C183.54 131.432 183.244 131.351 182.912 131.351C182.577 131.351 182.274 131.436 182.004 131.607C181.737 131.774 181.524 131.997 181.365 132.276C181.209 132.551 181.129 132.852 181.126 133.179C181.126 133.506 181.202 133.808 181.352 134.087C181.506 134.365 181.714 134.589 181.979 134.76C182.243 134.928 182.544 135.011 182.882 135.011ZM191.467 138.438C191.276 138.438 191.103 138.423 190.947 138.395C190.79 138.366 190.674 138.334 190.597 138.297L190.904 137.253C191.254 137.349 191.546 137.357 191.782 137.274C192.021 137.195 192.221 136.943 192.383 136.52L192.54 136.085L190.146 129.455H191.509L193.167 134.534H193.235L194.893 129.455L196.269 129.467L193.563 136.874C193.376 137.379 193.11 137.766 192.766 138.033C192.425 138.303 191.992 138.438 191.467 138.438ZM200.056 136.132C199.414 136.132 198.86 135.993 198.395 135.714C197.929 135.436 197.569 135.045 197.316 134.543C197.066 134.037 196.941 133.446 196.941 132.77C196.941 132.099 197.066 131.509 197.316 130.997C197.569 130.486 197.922 130.087 198.373 129.8C198.828 129.513 199.359 129.369 199.967 129.369C200.461 129.369 200.929 129.48 201.369 129.702C201.812 129.92 202.172 130.271 202.447 130.754C202.725 131.234 202.865 131.869 202.865 132.659V133.111H198.211C198.228 133.741 198.406 134.227 198.744 134.568C199.082 134.909 199.524 135.08 200.069 135.08C200.433 135.08 200.747 135.001 201.011 134.845C201.275 134.689 201.464 134.456 201.578 134.146L202.784 134.364C202.639 134.895 202.326 135.322 201.846 135.646C201.366 135.97 200.77 136.132 200.056 136.132ZM198.216 132.156H201.616C201.613 131.656 201.463 131.243 201.164 130.916C200.866 130.587 200.47 130.422 199.975 130.422C199.632 130.422 199.331 130.503 199.072 130.665C198.816 130.824 198.613 131.036 198.463 131.3C198.315 131.561 198.233 131.847 198.216 132.156ZM206.183 136.145C205.768 136.145 205.393 136.068 205.058 135.915C204.726 135.761 204.462 135.537 204.266 135.241C204.07 134.943 203.972 134.58 203.972 134.151C203.972 133.778 204.043 133.473 204.185 133.234C204.33 132.996 204.521 132.807 204.76 132.668C205.001 132.528 205.271 132.425 205.57 132.357C205.868 132.286 206.172 132.232 206.482 132.195C206.874 132.149 207.19 132.112 207.432 132.084C207.676 132.053 207.854 132.003 207.964 131.935C208.078 131.866 208.135 131.756 208.135 131.602V131.572C208.135 131.2 208.03 130.912 207.82 130.707C207.612 130.503 207.303 130.401 206.891 130.401C206.462 130.401 206.124 130.494 205.876 130.682C205.632 130.869 205.463 131.08 205.369 131.312L204.172 131.04C204.385 130.443 204.74 130.016 205.237 129.757C205.737 129.499 206.283 129.369 206.874 129.369C207.135 129.369 207.412 129.401 207.705 129.463C207.997 129.523 208.273 129.635 208.531 129.8C208.793 129.962 209.004 130.192 209.166 130.49C209.331 130.788 209.413 131.176 209.413 131.653V136H208.169V135.105H208.118C207.996 135.349 207.778 135.584 207.466 135.808C207.153 136.033 206.726 136.145 206.183 136.145ZM206.46 135.122C206.815 135.122 207.118 135.053 207.368 134.913C207.618 134.774 207.808 134.592 207.939 134.368C208.072 134.141 208.139 133.898 208.139 133.639V132.795C208.08 132.855 207.949 132.908 207.747 132.953C207.545 132.999 207.332 133.037 207.108 133.068C206.884 133.099 206.702 133.125 206.562 133.145C206.193 133.193 205.876 133.291 205.612 133.439C205.351 133.584 205.22 133.827 205.22 134.168C205.22 134.483 205.337 134.722 205.57 134.884C205.803 135.043 206.099 135.122 206.46 135.122ZM211.11 136V129.455H212.342V130.494H212.41C212.529 130.142 212.74 129.865 213.041 129.663C213.345 129.459 213.689 129.357 214.072 129.357C214.154 129.357 214.25 129.359 214.358 129.365C214.466 129.371 214.551 129.378 214.613 129.386V130.605C214.562 130.591 214.471 130.575 214.341 130.558C214.213 130.538 214.082 130.528 213.949 130.528C213.497 130.528 213.123 130.668 212.828 130.946C212.532 131.222 212.385 131.574 212.385 132.003V136H211.11ZM220.621 131.053L219.466 131.257C219.392 131.038 219.254 130.838 219.053 130.656C218.854 130.472 218.555 130.379 218.158 130.379C217.797 130.379 217.494 130.46 217.25 130.622C217.009 130.781 216.889 130.987 216.892 131.24C216.889 131.462 216.969 131.639 217.131 131.773C217.295 131.903 217.558 132.011 217.919 132.097L218.959 132.335C220.152 132.611 220.749 133.202 220.749 134.108C220.749 134.503 220.635 134.852 220.408 135.156C220.183 135.46 219.869 135.699 219.466 135.872C219.065 136.045 218.601 136.132 218.072 136.132C217.337 136.132 216.739 135.976 216.278 135.663C215.818 135.348 215.534 134.901 215.426 134.321L216.658 134.134C216.811 134.781 217.28 135.105 218.064 135.105C218.482 135.105 218.815 135.018 219.065 134.845C219.315 134.669 219.44 134.455 219.44 134.202C219.44 133.784 219.132 133.507 218.516 133.371L217.408 133.128C216.794 132.991 216.342 132.77 216.053 132.463C215.763 132.156 215.618 131.771 215.618 131.308C215.618 130.922 215.726 130.584 215.942 130.294C216.158 130.001 216.456 129.774 216.837 129.612C217.217 129.45 217.653 129.369 218.145 129.369C218.852 129.369 219.409 129.523 219.815 129.83C220.222 130.136 220.49 130.544 220.621 131.053ZM223.807 134.807L223.743 135.271C223.701 135.612 223.63 135.967 223.53 136.337C223.431 136.709 223.327 137.054 223.219 137.372C223.111 137.69 223.023 137.943 222.955 138.131H222.051C222.091 137.955 222.142 137.716 222.205 137.415C222.27 137.116 222.334 136.783 222.397 136.413C222.459 136.044 222.506 135.668 222.537 135.284L222.58 134.807H223.807ZM231.936 127.273V136H230.615V128.594H230.564L228.475 129.957V128.696L230.653 127.273H231.936ZM237.608 127.273V136H236.287V128.594H236.235L234.147 129.957V128.696L236.325 127.273H237.608ZM243.161 136V129.455H244.384V130.52H244.465C244.602 130.159 244.825 129.878 245.134 129.676C245.444 129.472 245.815 129.369 246.246 129.369C246.684 129.369 247.05 129.472 247.346 129.676C247.644 129.881 247.864 130.162 248.006 130.52H248.075C248.234 130.17 248.482 129.892 248.82 129.685C249.161 129.474 249.567 129.369 250.039 129.369C250.633 129.369 251.117 129.557 251.492 129.932C251.87 130.304 252.059 130.864 252.059 131.611V136H250.785V131.73C250.785 131.287 250.664 130.966 250.423 130.767C250.184 130.568 249.896 130.469 249.558 130.469C249.143 130.469 248.82 130.597 248.59 130.852C248.36 131.108 248.245 131.433 248.245 131.828V136H246.975V131.649C246.975 131.294 246.864 131.009 246.643 130.793C246.421 130.577 246.133 130.469 245.778 130.469C245.417 130.469 245.103 130.608 244.836 130.886C244.569 131.165 244.435 131.524 244.435 131.964V136H243.161ZM256.524 136.132C255.91 136.132 255.375 135.991 254.917 135.71C254.46 135.429 254.105 135.036 253.852 134.53C253.599 134.021 253.473 133.43 253.473 132.757C253.473 132.078 253.599 131.484 253.852 130.976C254.105 130.467 254.46 130.072 254.917 129.791C255.375 129.51 255.91 129.369 256.524 129.369C257.14 129.369 257.676 129.51 258.13 129.791C258.588 130.072 258.943 130.467 259.196 130.976C259.449 131.484 259.575 132.078 259.575 132.757C259.575 133.43 259.449 134.021 259.196 134.53C258.943 135.036 258.588 135.429 258.13 135.71C257.676 135.991 257.14 136.132 256.524 136.132ZM256.528 135.062C256.929 135.062 257.258 134.957 257.517 134.747C257.778 134.537 257.971 134.257 258.096 133.908C258.224 133.555 258.288 133.17 258.288 132.753C258.288 132.335 258.224 131.95 258.096 131.598C257.971 131.246 257.778 130.964 257.517 130.754C257.258 130.541 256.929 130.435 256.528 130.435C256.127 130.435 255.797 130.541 255.535 130.754C255.274 130.964 255.079 131.246 254.951 131.598C254.824 131.95 254.76 132.335 254.76 132.753C254.76 133.17 254.824 133.555 254.951 133.908C255.079 134.257 255.274 134.537 255.535 134.747C255.797 134.957 256.127 135.062 256.528 135.062ZM262.271 132.114V136H260.997V129.455H262.22V130.52H262.301C262.452 130.173 262.688 129.895 263.009 129.685C263.332 129.474 263.74 129.369 264.232 129.369C264.902 129.369 265.44 129.578 265.847 129.996C266.256 130.413 266.46 131.027 266.46 131.837V136H265.186V131.99C265.186 131.516 265.063 131.145 264.815 130.878C264.568 130.608 264.229 130.473 263.797 130.473C263.354 130.473 262.989 130.616 262.702 130.903C262.415 131.187 262.271 131.591 262.271 132.114ZM271.224 129.455V130.477H269.882V134.078C269.882 134.447 269.96 134.686 270.116 134.794C270.276 134.899 270.459 134.952 270.666 134.952C270.768 134.952 270.858 134.945 270.935 134.93C271.011 134.916 271.071 134.905 271.114 134.896L271.344 135.949C271.27 135.977 271.163 136.006 271.024 136.034C270.888 136.065 270.719 136.082 270.517 136.085C270.182 136.091 269.868 136.031 269.575 135.906C269.286 135.781 269.051 135.588 268.872 135.327C268.696 135.065 268.608 134.737 268.608 134.342V130.477H267.649V129.455H268.608V127.886H269.882V129.455H271.224ZM274.049 132.114V136H272.775V127.273H274.032V130.52H274.113C274.266 130.165 274.5 129.885 274.816 129.68C275.131 129.473 275.543 129.369 276.051 129.369C276.725 129.369 277.266 129.577 277.675 129.991C278.087 130.406 278.293 131.021 278.293 131.837V136H277.019V131.99C277.019 131.51 276.895 131.138 276.648 130.874C276.401 130.607 276.057 130.473 275.617 130.473C275.162 130.473 274.787 130.616 274.492 130.903C274.196 131.187 274.049 131.591 274.049 132.114ZM284.898 131.053L283.743 131.257C283.669 131.038 283.532 130.838 283.33 130.656C283.131 130.472 282.833 130.379 282.435 130.379C282.074 130.379 281.772 130.46 281.527 130.622C281.286 130.781 281.167 130.987 281.169 131.24C281.167 131.462 281.246 131.639 281.408 131.773C281.573 131.903 281.836 132.011 282.196 132.097L283.236 132.335C284.429 132.611 285.026 133.202 285.026 134.108C285.026 134.503 284.912 134.852 284.685 135.156C284.461 135.46 284.147 135.699 283.743 135.872C283.343 136.045 282.878 136.132 282.35 136.132C281.614 136.132 281.016 135.976 280.556 135.663C280.096 135.348 279.811 134.901 279.703 134.321L280.935 134.134C281.088 134.781 281.557 135.105 282.341 135.105C282.759 135.105 283.093 135.018 283.343 134.845C283.593 134.669 283.718 134.455 283.718 134.202C283.718 133.784 283.409 133.507 282.793 133.371L281.685 133.128C281.071 132.991 280.62 132.77 280.33 132.463C280.04 132.156 279.895 131.771 279.895 131.308C279.895 130.922 280.003 130.584 280.219 130.294C280.435 130.001 280.733 129.774 281.114 129.612C281.495 129.45 281.931 129.369 282.422 129.369C283.13 129.369 283.686 129.523 284.093 129.83C284.499 130.136 284.767 130.544 284.898 131.053Z" fill="#4D4D4D"/>
<path d="M127.151 167.273V176H125.83V168.594H125.778L123.69 169.957V168.696L125.868 167.273H127.151ZM132.704 176V169.455H133.978V176H132.704ZM133.348 168.445C133.126 168.445 132.936 168.371 132.777 168.223C132.62 168.072 132.542 167.893 132.542 167.686C132.542 167.476 132.62 167.297 132.777 167.149C132.936 166.999 133.126 166.923 133.348 166.923C133.566 166.923 133.755 166.999 133.914 167.149C134.074 167.297 134.153 167.476 134.153 167.686C134.153 167.893 134.074 168.072 133.914 168.223C133.755 168.371 133.566 168.445 133.348 168.445ZM136.967 172.114V176H135.692V169.455H136.915V170.52H136.996C137.147 170.173 137.383 169.895 137.704 169.685C138.028 169.474 138.435 169.369 138.927 169.369C139.597 169.369 140.136 169.578 140.542 169.996C140.951 170.413 141.156 171.027 141.156 171.837V176H139.881V171.99C139.881 171.516 139.758 171.145 139.511 170.878C139.263 170.608 138.924 170.473 138.492 170.473C138.049 170.473 137.684 170.616 137.397 170.903C137.11 171.187 136.967 171.591 136.967 172.114ZM146.023 176V175.045L148.976 171.986C149.289 171.653 149.549 171.362 149.756 171.112C149.963 170.859 150.118 170.619 150.221 170.392C150.323 170.165 150.374 169.923 150.374 169.668C150.374 169.233 150.225 168.889 149.926 168.636C149.628 168.381 149.257 168.253 148.814 168.253C148.343 168.253 147.966 168.395 147.685 168.679C147.407 168.96 147.269 169.335 147.272 169.804H146.015C146.015 169.273 146.137 168.808 146.381 168.411C146.625 168.013 146.961 167.705 147.387 167.486C147.813 167.264 148.297 167.153 148.84 167.153C149.388 167.153 149.871 167.263 150.289 167.482C150.709 167.697 151.037 167.993 151.273 168.368C151.509 168.74 151.627 169.161 151.627 169.629C151.627 169.953 151.566 170.27 151.444 170.58C151.324 170.889 151.115 171.234 150.817 171.615C150.522 171.993 150.107 172.452 149.573 172.991L147.838 174.807V174.871H151.767V176H146.023ZM154.363 171.636V167.418H154.324L153.007 168.278V167.303L154.384 166.403H155.368V171.636H154.363ZM156.899 171.636V170.878L158.923 169.143C159.202 168.902 159.415 168.695 159.562 168.521C159.71 168.345 159.784 168.151 159.784 167.938C159.784 167.699 159.69 167.511 159.503 167.375C159.318 167.236 159.089 167.166 158.817 167.166C158.527 167.166 158.294 167.241 158.118 167.392C157.942 167.543 157.854 167.744 157.854 167.997H156.844C156.844 167.491 157.03 167.088 157.402 166.787C157.774 166.486 158.251 166.335 158.834 166.335C159.419 166.335 159.891 166.487 160.249 166.791C160.609 167.095 160.79 167.472 160.79 167.92C160.79 168.278 160.679 168.604 160.457 168.896C160.239 169.186 159.888 169.523 159.405 169.906L158.416 170.741V170.78H160.913V171.636H156.899ZM165.423 178.455V169.455H166.667V170.516H166.774C166.85 170.379 166.957 170.222 167.093 170.043C167.233 169.864 167.426 169.707 167.673 169.574C167.923 169.438 168.25 169.369 168.653 169.369C169.181 169.369 169.652 169.503 170.064 169.77C170.478 170.037 170.805 170.422 171.044 170.925C171.282 171.428 171.402 172.033 171.402 172.74C171.402 173.445 171.284 174.051 171.048 174.56C170.812 175.065 170.488 175.453 170.076 175.723C169.664 175.993 169.194 176.128 168.666 176.128C168.268 176.128 167.944 176.061 167.694 175.928C167.444 175.794 167.247 175.638 167.102 175.459C166.96 175.28 166.85 175.121 166.774 174.982H166.697V178.455H165.423ZM166.672 172.727C166.672 173.415 166.819 173.973 167.115 174.402C167.41 174.828 167.832 175.041 168.38 175.041C168.761 175.041 169.079 174.94 169.335 174.739C169.593 174.534 169.788 174.257 169.919 173.908C170.049 173.558 170.115 173.165 170.115 172.727C170.115 172.293 170.049 171.905 169.919 171.564C169.791 171.22 169.599 170.949 169.343 170.75C169.088 170.551 168.767 170.452 168.38 170.452C167.824 170.452 167.399 170.661 167.106 171.078C166.816 171.493 166.672 172.043 166.672 172.727ZM175.65 176.132C175.008 176.132 174.454 175.993 173.988 175.714C173.522 175.436 173.163 175.045 172.91 174.543C172.66 174.037 172.535 173.446 172.535 172.77C172.535 172.099 172.66 171.509 172.91 170.997C173.163 170.486 173.515 170.087 173.967 169.8C174.422 169.513 174.953 169.369 175.561 169.369C176.055 169.369 176.522 169.48 176.963 169.702C177.406 169.92 177.765 170.271 178.041 170.754C178.319 171.234 178.458 171.869 178.458 172.659V173.111H173.805C173.822 173.741 174 174.227 174.338 174.568C174.676 174.909 175.118 175.08 175.663 175.08C176.027 175.08 176.341 175.001 176.605 174.845C176.869 174.689 177.058 174.456 177.172 174.146L178.377 174.364C178.233 174.895 177.92 175.322 177.44 175.646C176.96 175.97 176.363 176.132 175.65 176.132ZM173.809 172.156H177.21C177.207 171.656 177.056 171.243 176.758 170.916C176.46 170.587 176.064 170.422 175.569 170.422C175.225 170.422 174.924 170.503 174.666 170.665C174.41 170.824 174.207 171.036 174.056 171.3C173.909 171.561 173.826 171.847 173.809 172.156ZM182.629 176.132C182.016 176.132 181.48 175.991 181.023 175.71C180.565 175.429 180.21 175.036 179.957 174.53C179.705 174.021 179.578 173.43 179.578 172.757C179.578 172.078 179.705 171.484 179.957 170.976C180.21 170.467 180.565 170.072 181.023 169.791C181.48 169.51 182.016 169.369 182.629 169.369C183.246 169.369 183.781 169.51 184.236 169.791C184.693 170.072 185.048 170.467 185.301 170.976C185.554 171.484 185.68 172.078 185.68 172.757C185.68 173.43 185.554 174.021 185.301 174.53C185.048 175.036 184.693 175.429 184.236 175.71C183.781 175.991 183.246 176.132 182.629 176.132ZM182.634 175.062C183.034 175.062 183.364 174.957 183.622 174.747C183.884 174.537 184.077 174.257 184.202 173.908C184.33 173.555 184.393 173.17 184.393 172.753C184.393 172.335 184.33 171.95 184.202 171.598C184.077 171.246 183.884 170.964 183.622 170.754C183.364 170.541 183.034 170.435 182.634 170.435C182.233 170.435 181.902 170.541 181.641 170.754C181.379 170.964 181.185 171.246 181.057 171.598C180.929 171.95 180.865 172.335 180.865 172.753C180.865 173.17 180.929 173.555 181.057 173.908C181.185 174.257 181.379 174.537 181.641 174.747C181.902 174.957 182.233 175.062 182.634 175.062ZM187.103 178.455V169.455H188.347V170.516H188.453C188.53 170.379 188.637 170.222 188.773 170.043C188.912 169.864 189.105 169.707 189.353 169.574C189.603 169.438 189.929 169.369 190.333 169.369C190.861 169.369 191.331 169.503 191.743 169.77C192.158 170.037 192.485 170.422 192.723 170.925C192.962 171.428 193.081 172.033 193.081 172.74C193.081 173.445 192.963 174.051 192.728 174.56C192.492 175.065 192.168 175.453 191.756 175.723C191.344 175.993 190.874 176.128 190.346 176.128C189.948 176.128 189.624 176.061 189.374 175.928C189.124 175.794 188.926 175.638 188.782 175.459C188.64 175.28 188.53 175.121 188.453 174.982H188.377V178.455H187.103ZM188.351 172.727C188.351 173.415 188.499 173.973 188.794 174.402C189.09 174.828 189.512 175.041 190.06 175.041C190.441 175.041 190.759 174.94 191.015 174.739C191.273 174.534 191.468 174.257 191.598 173.908C191.729 173.558 191.794 173.165 191.794 172.727C191.794 172.293 191.729 171.905 191.598 171.564C191.471 171.22 191.279 170.949 191.023 170.75C190.767 170.551 190.446 170.452 190.06 170.452C189.503 170.452 189.078 170.661 188.786 171.078C188.496 171.493 188.351 172.043 188.351 172.727ZM195.783 167.273V176H194.509V167.273H195.783ZM200.318 176.132C199.676 176.132 199.122 175.993 198.656 175.714C198.19 175.436 197.831 175.045 197.578 174.543C197.328 174.037 197.203 173.446 197.203 172.77C197.203 172.099 197.328 171.509 197.578 170.997C197.831 170.486 198.183 170.087 198.635 169.8C199.089 169.513 199.621 169.369 200.229 169.369C200.723 169.369 201.19 169.48 201.631 169.702C202.074 169.92 202.433 170.271 202.709 170.754C202.987 171.234 203.126 171.869 203.126 172.659V173.111H198.473C198.49 173.741 198.668 174.227 199.006 174.568C199.344 174.909 199.786 175.08 200.331 175.08C200.695 175.08 201.009 175.001 201.273 174.845C201.537 174.689 201.726 174.456 201.839 174.146L203.045 174.364C202.901 174.895 202.588 175.322 202.108 175.646C201.628 175.97 201.031 176.132 200.318 176.132ZM198.477 172.156H201.878C201.875 171.656 201.724 171.243 201.426 170.916C201.128 170.587 200.732 170.422 200.237 170.422C199.893 170.422 199.592 170.503 199.334 170.665C199.078 170.824 198.875 171.036 198.724 171.3C198.577 171.561 198.494 171.847 198.477 172.156Z" fill="#4D4D4D"/>
<path d="M41.2074 170.111H39.8778C39.7699 169.545 39.5043 169.112 39.081 168.811C38.6605 168.507 38.1719 168.355 37.6151 168.355C37.1151 168.355 36.6662 168.482 36.2685 168.734C35.8707 168.987 35.5568 169.358 35.3267 169.847C35.0994 170.332 34.9858 170.929 34.9858 171.636C34.9858 172.347 35.1009 172.946 35.331 173.435C35.5611 173.923 35.8736 174.293 36.2685 174.543C36.6662 174.793 37.1136 174.918 37.6108 174.918C38.1619 174.918 38.6491 174.768 39.0724 174.47C39.4957 174.172 39.7642 173.744 39.8778 173.188L41.2074 173.192C41.1136 173.766 40.9034 174.273 40.5767 174.713C40.25 175.153 39.8324 175.499 39.3239 175.749C38.8153 175.996 38.2415 176.119 37.6023 176.119C36.8466 176.119 36.1733 175.94 35.5824 175.582C34.9915 175.222 34.5256 174.706 34.1847 174.036C33.8466 173.365 33.6776 172.565 33.6776 171.636C33.6776 170.705 33.848 169.905 34.1889 169.237C34.5298 168.567 34.9957 168.053 35.5866 167.695C36.1776 167.334 36.8494 167.153 37.6023 167.153C38.2188 167.153 38.7798 167.27 39.2855 167.503C39.794 167.736 40.2159 168.074 40.5511 168.517C40.8892 168.957 41.108 169.489 41.2074 170.111ZM45.4379 176.132C44.8242 176.132 44.2887 175.991 43.8313 175.71C43.3739 175.429 43.0188 175.036 42.766 174.53C42.5131 174.021 42.3867 173.43 42.3867 172.757C42.3867 172.078 42.5131 171.484 42.766 170.976C43.0188 170.467 43.3739 170.072 43.8313 169.791C44.2887 169.51 44.8242 169.369 45.4379 169.369C46.0543 169.369 46.5898 169.51 47.0444 169.791C47.5018 170.072 47.8569 170.467 48.1097 170.976C48.3626 171.484 48.489 172.078 48.489 172.757C48.489 173.43 48.3626 174.021 48.1097 174.53C47.8569 175.036 47.5018 175.429 47.0444 175.71C46.5898 175.991 46.0543 176.132 45.4379 176.132ZM45.4421 175.062C45.8427 175.062 46.1722 174.957 46.4308 174.747C46.6921 174.537 46.8853 174.257 47.0103 173.908C47.1381 173.555 47.2021 173.17 47.2021 172.753C47.2021 172.335 47.1381 171.95 47.0103 171.598C46.8853 171.246 46.6921 170.964 46.4308 170.754C46.1722 170.541 45.8427 170.435 45.4421 170.435C45.0415 170.435 44.7106 170.541 44.4492 170.754C44.1879 170.964 43.9933 171.246 43.8654 171.598C43.7376 171.95 43.6737 172.335 43.6737 172.753C43.6737 173.17 43.7376 173.555 43.8654 173.908C43.9933 174.257 44.1879 174.537 44.4492 174.747C44.7106 174.957 45.0415 175.062 45.4421 175.062ZM49.9112 176V169.455H51.1342V170.52H51.2152C51.3516 170.159 51.5746 169.878 51.8842 169.676C52.1939 169.472 52.5646 169.369 52.9964 169.369C53.4339 169.369 53.8004 169.472 54.0959 169.676C54.3942 169.881 54.6143 170.162 54.7564 170.52H54.8246C54.9837 170.17 55.2322 169.892 55.5703 169.685C55.9112 169.474 56.3175 169.369 56.7891 169.369C57.3828 169.369 57.8672 169.557 58.2422 169.932C58.62 170.304 58.8089 170.864 58.8089 171.611V176H57.5348V171.73C57.5348 171.287 57.4141 170.966 57.1726 170.767C56.9339 170.568 56.6456 170.469 56.3075 170.469C55.8928 170.469 55.5703 170.597 55.3402 170.852C55.1101 171.108 54.995 171.433 54.995 171.828V176H53.7251V171.649C53.7251 171.294 53.6143 171.009 53.3928 170.793C53.1712 170.577 52.8828 170.469 52.5277 170.469C52.1669 170.469 51.853 170.608 51.5859 170.886C51.3189 171.165 51.1854 171.524 51.1854 171.964V176H49.9112ZM60.5167 176V169.455H61.7397V170.52H61.8207C61.957 170.159 62.18 169.878 62.4897 169.676C62.7994 169.472 63.1701 169.369 63.6019 169.369C64.0394 169.369 64.4059 169.472 64.7013 169.676C64.9996 169.881 65.2198 170.162 65.3619 170.52H65.43C65.5891 170.17 65.8377 169.892 66.1758 169.685C66.5167 169.474 66.9229 169.369 67.3945 169.369C67.9883 169.369 68.4727 169.557 68.8477 169.932C69.2255 170.304 69.4144 170.864 69.4144 171.611V176H68.1403V171.73C68.1403 171.287 68.0195 170.966 67.7781 170.767C67.5394 170.568 67.2511 170.469 66.913 170.469C66.4982 170.469 66.1758 170.597 65.9457 170.852C65.7156 171.108 65.6005 171.433 65.6005 171.828V176H64.3306V171.649C64.3306 171.294 64.2198 171.009 63.9982 170.793C63.7766 170.577 63.4883 170.469 63.1332 170.469C62.7724 170.469 62.4585 170.608 62.1914 170.886C61.9244 171.165 61.7908 171.524 61.7908 171.964V176H60.5167ZM73.8793 176.132C73.2656 176.132 72.7301 175.991 72.2727 175.71C71.8153 175.429 71.4602 175.036 71.2074 174.53C70.9545 174.021 70.8281 173.43 70.8281 172.757C70.8281 172.078 70.9545 171.484 71.2074 170.976C71.4602 170.467 71.8153 170.072 72.2727 169.791C72.7301 169.51 73.2656 169.369 73.8793 169.369C74.4957 169.369 75.0313 169.51 75.4858 169.791C75.9432 170.072 76.2983 170.467 76.5511 170.976C76.804 171.484 76.9304 172.078 76.9304 172.757C76.9304 173.43 76.804 174.021 76.5511 174.53C76.2983 175.036 75.9432 175.429 75.4858 175.71C75.0313 175.991 74.4957 176.132 73.8793 176.132ZM73.8835 175.062C74.2841 175.062 74.6136 174.957 74.8722 174.747C75.1335 174.537 75.3267 174.257 75.4517 173.908C75.5795 173.555 75.6435 173.17 75.6435 172.753C75.6435 172.335 75.5795 171.95 75.4517 171.598C75.3267 171.246 75.1335 170.964 74.8722 170.754C74.6136 170.541 74.2841 170.435 73.8835 170.435C73.483 170.435 73.152 170.541 72.8906 170.754C72.6293 170.964 72.4347 171.246 72.3068 171.598C72.179 171.95 72.1151 172.335 72.1151 172.753C72.1151 173.17 72.179 173.555 72.3068 173.908C72.4347 174.257 72.6293 174.537 72.8906 174.747C73.152 174.957 73.483 175.062 73.8835 175.062ZM79.6268 172.114V176H78.3526V169.455H79.5756V170.52H79.6566C79.8072 170.173 80.043 169.895 80.364 169.685C80.6879 169.474 81.0955 169.369 81.587 169.369C82.2575 169.369 82.7958 169.578 83.2021 169.996C83.6112 170.413 83.8157 171.027 83.8157 171.837V176H82.5415V171.99C82.5415 171.516 82.418 171.145 82.1708 170.878C81.9237 170.608 81.5842 170.473 81.1523 170.473C80.7092 170.473 80.3441 170.616 80.0572 170.903C79.7702 171.187 79.6268 171.591 79.6268 172.114ZM86.7987 172.114V176H85.5245V169.455H86.7475V170.52H86.8285C86.979 170.173 87.2148 169.895 87.5359 169.685C87.8597 169.474 88.2674 169.369 88.7589 169.369C89.4293 169.369 89.9677 169.578 90.3739 169.996C90.783 170.413 90.9876 171.027 90.9876 171.837V176H89.7134V171.99C89.7134 171.516 89.5898 171.145 89.3427 170.878C89.0955 170.608 88.756 170.473 88.3242 170.473C87.881 170.473 87.516 170.616 87.229 170.903C86.9421 171.187 86.7987 171.591 86.7987 172.114ZM95.5174 176.132C94.8754 176.132 94.3214 175.993 93.8555 175.714C93.3896 175.436 93.0302 175.045 92.7773 174.543C92.5273 174.037 92.4023 173.446 92.4023 172.77C92.4023 172.099 92.5273 171.509 92.7773 170.997C93.0302 170.486 93.3825 170.087 93.8342 169.8C94.2887 169.513 94.82 169.369 95.4279 169.369C95.9222 169.369 96.3896 169.48 96.8299 169.702C97.2731 169.92 97.6325 170.271 97.908 170.754C98.1864 171.234 98.3256 171.869 98.3256 172.659V173.111H93.6722C93.6893 173.741 93.8668 174.227 94.2049 174.568C94.543 174.909 94.9847 175.08 95.5302 175.08C95.8938 175.08 96.2077 175.001 96.4719 174.845C96.7362 174.689 96.9251 174.456 97.0387 174.146L98.2447 174.364C98.0998 174.895 97.7873 175.322 97.3072 175.646C96.8271 175.97 96.2305 176.132 95.5174 176.132ZM93.6765 172.156H97.0771C97.0742 171.656 96.9237 171.243 96.6254 170.916C96.3271 170.587 95.9308 170.422 95.4364 170.422C95.0927 170.422 94.7915 170.503 94.533 170.665C94.2773 170.824 94.0742 171.036 93.9237 171.3C93.7759 171.561 93.6935 171.847 93.6765 172.156ZM104.644 171.053L103.489 171.257C103.415 171.038 103.278 170.838 103.076 170.656C102.877 170.472 102.579 170.379 102.181 170.379C101.82 170.379 101.518 170.46 101.273 170.622C101.032 170.781 100.913 170.987 100.915 171.24C100.913 171.462 100.992 171.639 101.154 171.773C101.319 171.903 101.582 172.011 101.942 172.097L102.982 172.335C104.175 172.611 104.772 173.202 104.772 174.108C104.772 174.503 104.658 174.852 104.431 175.156C104.207 175.46 103.893 175.699 103.489 175.872C103.089 176.045 102.624 176.132 102.096 176.132C101.36 176.132 100.762 175.976 100.302 175.663C99.8416 175.348 99.5575 174.901 99.4496 174.321L100.681 174.134C100.835 174.781 101.303 175.105 102.087 175.105C102.505 175.105 102.839 175.018 103.089 174.845C103.339 174.669 103.464 174.455 103.464 174.202C103.464 173.784 103.156 173.507 102.539 173.371L101.431 173.128C100.817 172.991 100.366 172.77 100.076 172.463C99.7862 172.156 99.6413 171.771 99.6413 171.308C99.6413 170.922 99.7493 170.584 99.9652 170.294C100.181 170.001 100.479 169.774 100.86 169.612C101.241 169.45 101.677 169.369 102.168 169.369C102.876 169.369 103.433 169.523 103.839 169.83C104.245 170.136 104.513 170.544 104.644 171.053ZM111.078 171.053L109.923 171.257C109.849 171.038 109.711 170.838 109.51 170.656C109.311 170.472 109.012 170.379 108.615 170.379C108.254 170.379 107.951 170.46 107.707 170.622C107.466 170.781 107.346 170.987 107.349 171.24C107.346 171.462 107.426 171.639 107.588 171.773C107.752 171.903 108.015 172.011 108.376 172.097L109.416 172.335C110.609 172.611 111.206 173.202 111.206 174.108C111.206 174.503 111.092 174.852 110.865 175.156C110.64 175.46 110.326 175.699 109.923 175.872C109.522 176.045 109.058 176.132 108.529 176.132C107.794 176.132 107.196 175.976 106.735 175.663C106.275 175.348 105.991 174.901 105.883 174.321L107.115 174.134C107.268 174.781 107.737 175.105 108.521 175.105C108.939 175.105 109.272 175.018 109.522 174.845C109.772 174.669 109.897 174.455 109.897 174.202C109.897 173.784 109.589 173.507 108.973 173.371L107.865 173.128C107.251 172.991 106.799 172.77 106.51 172.463C106.22 172.156 106.075 171.771 106.075 171.308C106.075 170.922 106.183 170.584 106.399 170.294C106.615 170.001 106.913 169.774 107.294 169.612C107.674 169.45 108.11 169.369 108.602 169.369C109.309 169.369 109.866 169.523 110.272 169.83C110.679 170.136 110.947 170.544 111.078 171.053Z" fill="#979797"/>
<rect x="34" y="204" width="271" height="13" rx="2" fill="#F5F5F5"/>
<path d="M34 206C34 204.895 34.8954 204 36 204H248V217H36C34.8954 217 34 216.105 34 215V206Z" fill="#82D881"/>
<path d="M29.1122 47.5455L29.2067 45.4474L27.4368 46.5859L26.8949 45.6413L28.7741 44.6818L26.8949 43.7223L27.4368 42.7777L29.2067 43.9162L29.1122 41.8182H30.1911L30.0966 43.9162L31.8665 42.7777L32.4084 43.7223L30.5291 44.6818L32.4084 45.6413L31.8665 46.5859L30.0966 45.4474L30.1911 47.5455H29.1122ZM36.413 47.5455L36.5075 45.4474L34.7376 46.5859L34.1957 45.6413L36.0749 44.6818L34.1957 43.7223L34.7376 42.7777L36.5075 43.9162L36.413 41.8182H37.4918L37.3974 43.9162L39.1673 42.7777L39.7092 43.7223L37.8299 44.6818L39.7092 45.6413L39.1673 46.5859L37.3974 45.4474L37.4918 47.5455H36.413ZM43.7138 47.5455L43.8082 45.4474L42.0384 46.5859L41.4964 45.6413L43.3757 44.6818L41.4964 43.7223L42.0384 42.7777L43.8082 43.9162L43.7138 41.8182H44.7926L44.6982 43.9162L46.468 42.7777L47.0099 43.7223L45.1307 44.6818L47.0099 45.6413L46.468 46.5859L44.6982 45.4474L44.7926 47.5455H43.7138ZM51.0146 47.5455L51.109 45.4474L49.3391 46.5859L48.7972 45.6413L50.6765 44.6818L48.7972 43.7223L49.3391 42.7777L51.109 43.9162L51.0146 41.8182H52.0934L51.9989 43.9162L53.7688 42.7777L54.3107 43.7223L52.4315 44.6818L54.3107 45.6413L53.7688 46.5859L51.9989 45.4474L52.0934 47.5455H51.0146ZM58.3153 47.5455L58.4098 45.4474L56.6399 46.5859L56.098 45.6413L57.9773 44.6818L56.098 43.7223L56.6399 42.7777L58.4098 43.9162L58.3153 41.8182H59.3942L59.2997 43.9162L61.0696 42.7777L61.6115 43.7223L59.7322 44.6818L61.6115 45.6413L61.0696 46.5859L59.2997 45.4474L59.3942 47.5455H58.3153ZM65.6161 47.5455L65.7106 45.4474L63.9407 46.5859L63.3988 45.6413L65.2781 44.6818L63.3988 43.7223L63.9407 42.7777L65.7106 43.9162L65.6161 41.8182H66.695L66.6005 43.9162L68.3704 42.7777L68.9123 43.7223L67.033 44.6818L68.9123 45.6413L68.3704 46.5859L66.6005 45.4474L66.695 47.5455H65.6161ZM72.9169 47.5455L73.0114 45.4474L71.2415 46.5859L70.6996 45.6413L72.5788 44.6818L70.6996 43.7223L71.2415 42.7777L73.0114 43.9162L72.9169 41.8182H73.9957L73.9013 43.9162L75.6712 42.7777L76.2131 43.7223L74.3338 44.6818L76.2131 45.6413L75.6712 46.5859L73.9013 45.4474L73.9957 47.5455H72.9169ZM80.2177 47.5455L80.3121 45.4474L78.5423 46.5859L78.0004 45.6413L79.8796 44.6818L78.0004 43.7223L78.5423 42.7777L80.3121 43.9162L80.2177 41.8182H81.2965L81.2021 43.9162L82.9719 42.7777L83.5138 43.7223L81.6346 44.6818L83.5138 45.6413L82.9719 46.5859L81.2021 45.4474L81.2965 47.5455H80.2177ZM87.5185 47.5455L87.6129 45.4474L85.843 46.5859L85.3011 45.6413L87.1804 44.6818L85.3011 43.7223L85.843 42.7777L87.6129 43.9162L87.5185 41.8182H88.5973L88.5028 43.9162L90.2727 42.7777L90.8146 43.7223L88.9354 44.6818L90.8146 45.6413L90.2727 46.5859L88.5028 45.4474L88.5973 47.5455H87.5185ZM94.8192 47.5455L94.9137 45.4474L93.1438 46.5859L92.6019 45.6413L94.4812 44.6818L92.6019 43.7223L93.1438 42.7777L94.9137 43.9162L94.8192 41.8182H95.8981L95.8036 43.9162L97.5735 42.7777L98.1154 43.7223L96.2362 44.6818L98.1154 45.6413L97.5735 46.5859L95.8036 45.4474L95.8981 47.5455H94.8192ZM102.12 47.5455L102.214 45.4474L100.445 46.5859L99.9027 45.6413L101.782 44.6818L99.9027 43.7223L100.445 42.7777L102.214 43.9162L102.12 41.8182H103.199L103.104 43.9162L104.874 42.7777L105.416 43.7223L103.537 44.6818L105.416 45.6413L104.874 46.5859L103.104 45.4474L103.199 47.5455H102.12ZM109.421 47.5455L109.515 45.4474L107.745 46.5859L107.203 45.6413L109.083 44.6818L107.203 43.7223L107.745 42.7777L109.515 43.9162L109.421 41.8182H110.5L110.405 43.9162L112.175 42.7777L112.717 43.7223L110.838 44.6818L112.717 45.6413L112.175 46.5859L110.405 45.4474L110.5 47.5455H109.421ZM116.722 47.5455L116.816 45.4474L115.046 46.5859L114.504 45.6413L116.384 44.6818L114.504 43.7223L115.046 42.7777L116.816 43.9162L116.722 41.8182H117.8L117.706 43.9162L119.476 42.7777L120.018 43.7223L118.138 44.6818L120.018 45.6413L119.476 46.5859L117.706 45.4474L117.8 47.5455H116.722ZM124.022 47.5455L124.117 45.4474L122.347 46.5859L121.805 45.6413L123.684 44.6818L121.805 43.7223L122.347 42.7777L124.117 43.9162L124.022 41.8182H125.101L125.007 43.9162L126.777 42.7777L127.319 43.7223L125.439 44.6818L127.319 45.6413L126.777 46.5859L125.007 45.4474L125.101 47.5455H124.022ZM131.323 47.5455L131.418 45.4474L129.648 46.5859L129.106 45.6413L130.985 44.6818L129.106 43.7223L129.648 42.7777L131.418 43.9162L131.323 41.8182H132.402L132.308 43.9162L134.077 42.7777L134.619 43.7223L132.74 44.6818L134.619 45.6413L134.077 46.5859L132.308 45.4474L132.402 47.5455H131.323ZM138.624 47.5455L138.718 45.4474L136.949 46.5859L136.407 45.6413L138.286 44.6818L136.407 43.7223L136.949 42.7777L138.718 43.9162L138.624 41.8182H139.703L139.608 43.9162L141.378 42.7777L141.92 43.7223L140.041 44.6818L141.92 45.6413L141.378 46.5859L139.608 45.4474L139.703 47.5455H138.624ZM145.925 47.5455L146.019 45.4474L144.249 46.5859L143.707 45.6413L145.587 44.6818L143.707 43.7223L144.249 42.7777L146.019 43.9162L145.925 41.8182H147.004L146.909 43.9162L148.679 42.7777L149.221 43.7223L147.342 44.6818L149.221 45.6413L148.679 46.5859L146.909 45.4474L147.004 47.5455H145.925ZM153.225 47.5455L153.32 45.4474L151.55 46.5859L151.008 45.6413L152.887 44.6818L151.008 43.7223L151.55 42.7777L153.32 43.9162L153.225 41.8182H154.304L154.21 43.9162L155.98 42.7777L156.522 43.7223L154.642 44.6818L156.522 45.6413L155.98 46.5859L154.21 45.4474L154.304 47.5455H153.225Z" fill="black" fill-opacity="0.54"/>
<path d="M299.5 38C295.182 38 291.494 40.6953 290 44.5C291.494 48.3047 295.182 51 299.5 51C303.818 51 307.506 48.3047 309 44.5C307.506 40.6953 303.818 38 299.5 38ZM299.5 48.8333C297.116 48.8333 295.182 46.892 295.182 44.5C295.182 42.108 297.116 40.1667 299.5 40.1667C301.884 40.1667 303.818 42.108 303.818 44.5C303.818 46.892 301.884 48.8333 299.5 48.8333ZM299.5 41.9C298.066 41.9 296.909 43.0613 296.909 44.5C296.909 45.9387 298.066 47.1 299.5 47.1C300.934 47.1 302.091 45.9387 302.091 44.5C302.091 43.0613 300.934 41.9 299.5 41.9Z" fill="#A3A3A3" fill-opacity="0.58"/>
<path d="M302.897 96.4944L307.712 91.6796C307.891 91.4941 307.99 91.2455 307.988 90.9876C307.986 90.7296 307.882 90.4828 307.7 90.3004C307.517 90.118 307.271 90.0145 307.013 90.0122C306.755 90.01 306.506 90.1092 306.321 90.2884L301.506 95.1032L296.691 90.2884C296.6 90.197 296.491 90.1244 296.372 90.075C296.253 90.0255 296.125 90 295.996 90C295.866 90 295.738 90.0255 295.619 90.075C295.5 90.1244 295.391 90.197 295.3 90.2884C295.209 90.3797 295.136 90.4881 295.087 90.6075C295.037 90.7269 295.012 90.8548 295.012 90.984C295.012 91.1132 295.037 91.2412 295.087 91.3605C295.136 91.4799 295.209 91.5883 295.3 91.6796L300.115 96.4944L295.289 101.321C295.151 101.458 295.057 101.633 295.019 101.824C294.981 102.015 295 102.213 295.075 102.393C295.149 102.573 295.276 102.727 295.438 102.835C295.6 102.943 295.79 103 295.985 103C296.237 103 296.488 102.904 296.681 102.712L301.506 97.8857L306.321 102.7C306.412 102.792 306.52 102.865 306.64 102.914C306.759 102.963 306.887 102.989 307.016 102.989C307.211 102.989 307.401 102.931 307.563 102.823C307.725 102.715 307.851 102.561 307.925 102.381C308 102.202 308.019 102.004 307.981 101.813C307.943 101.622 307.85 101.447 307.712 101.309L302.897 96.4944Z" fill="#DD2E44" fill-opacity="0.75"/>
<defs>
<filter id="filter0_d" x="2" y="76" width="336" height="175" filterUnits="userSpaceOnUse" color-interpolation-filters="sRGB">
<feFlood flood-opacity="0" result="BackgroundImageFix"/>
<feColorMatrix in="SourceAlpha" type="matrix" values="0 0 0 0 0 0 0 0 0 0 0 0 0 0 0 0 0 0 127 0"/>
<feOffset dy="2"/>
<feGaussianBlur stdDeviation="4"/>
<feColorMatrix type="matrix" values="0 0 0 0 0 0 0 0 0 0 0 0 0 0 0 0 0 0 0.25 0"/>
<feBlend mode="normal" in2="BackgroundImageFix" result="effect1_dropShadow"/>
<feBlend mode="normal" in="SourceGraphic" in2="effect1_dropShadow" result="shape"/>
</filter>
</defs>
</svg>
