<svg id="Layer_1" data-name="Layer 1" xmlns="http://www.w3.org/2000/svg" viewBox="0 0 1123.61 345.77"><defs><style>.cls-1,.cls-2,.cls-3,.cls-4,.cls-5,.cls-6,.cls-7{fill:none;stroke-linecap:round;stroke-miterlimit:10;}.cls-1,.cls-2,.cls-6{stroke:#89dce0;}.cls-1{stroke-width:0.53px;}.cls-2,.cls-3{stroke-width:0.51px;}.cls-3{stroke:#c3dbea;}.cls-4{stroke:#d0eaea;}.cls-4,.cls-5{stroke-width:0.35px;}.cls-5{stroke:#c1c1d6;}.cls-6{stroke-width:0.43px;}.cls-7{stroke:#8ab2dd;stroke-width:0.54px;}.cls-14,.cls-8{fill:#c1d9ea;}.cls-15,.cls-9{fill:#c1c1d6;}.cls-10,.cls-16{fill:#dce8ef;}.cls-11,.cls-17{fill:#80d5e8;}.cls-12,.cls-18{fill:#f2f6f9;}.cls-13,.cls-14,.cls-15,.cls-16,.cls-17,.cls-18{opacity:0.57;}</style></defs><title>bg</title><polygon class="cls-1" points="84.04 31.97 84.04 34.53 86.26 35.81 88.47 34.53 88.47 31.97 86.26 30.69 84.04 31.97"/><line class="cls-1" x1="86.26" y1="25.61" x2="86.26" y2="30.69"/><line class="cls-1" x1="79.64" y1="29.43" x2="84.04" y2="31.97"/><line class="cls-1" x1="79.64" y1="37.07" x2="84.04" y2="34.53"/><line class="cls-1" x1="86.26" y1="40.89" x2="86.26" y2="35.81"/><line class="cls-1" x1="92.87" y1="37.07" x2="88.47" y2="34.53"/><line class="cls-1" x1="92.87" y1="29.43" x2="88.47" y2="31.97"/><line class="cls-1" x1="83.61" y1="26.88" x2="86.26" y2="29.42"/><line class="cls-1" x1="85.2" y1="26.27" x2="86.26" y2="27.3"/><line class="cls-1" x1="88.9" y1="26.88" x2="86.26" y2="29.42"/><line class="cls-1" x1="87.31" y1="26.27" x2="86.26" y2="27.3"/><line class="cls-1" x1="79.42" y1="32.35" x2="82.94" y2="31.33"/><line class="cls-1" x1="79.68" y1="30.68" x2="81.1" y2="30.28"/><line class="cls-1" x1="82.06" y1="27.77" x2="82.94" y2="31.33"/><line class="cls-1" x1="80.74" y1="28.84" x2="81.1" y2="30.28"/><line class="cls-1" x1="82.06" y1="38.73" x2="82.94" y2="35.17"/><line class="cls-1" x1="80.74" y1="37.66" x2="81.1" y2="36.22"/><line class="cls-1" x1="79.42" y1="34.15" x2="82.94" y2="35.17"/><line class="cls-1" x1="79.68" y1="35.82" x2="81.1" y2="36.22"/><line class="cls-1" x1="88.9" y1="39.62" x2="86.26" y2="37.08"/><line class="cls-1" x1="87.31" y1="40.23" x2="86.26" y2="39.2"/><line class="cls-1" x1="83.61" y1="39.62" x2="86.26" y2="37.08"/><line class="cls-1" x1="85.2" y1="40.23" x2="86.26" y2="39.2"/><line class="cls-1" x1="93.1" y1="34.15" x2="89.58" y2="35.17"/><line class="cls-1" x1="92.83" y1="35.82" x2="91.41" y2="36.22"/><line class="cls-1" x1="90.45" y1="38.73" x2="89.58" y2="35.17"/><line class="cls-1" x1="91.77" y1="37.66" x2="91.41" y2="36.22"/><line class="cls-1" x1="90.45" y1="27.77" x2="89.58" y2="31.33"/><line class="cls-1" x1="91.77" y1="28.84" x2="91.41" y2="30.28"/><line class="cls-1" x1="93.1" y1="32.35" x2="89.58" y2="31.33"/><line class="cls-1" x1="92.83" y1="30.68" x2="91.41" y2="30.28"/><polygon class="cls-2" points="633.84 130.84 633.84 133.29 635.96 134.51 638.09 133.29 638.09 130.84 635.96 129.61 633.84 130.84"/><line class="cls-2" x1="635.96" y1="124.75" x2="635.96" y2="129.61"/><line class="cls-2" x1="629.63" y1="128.41" x2="633.84" y2="130.84"/><line class="cls-2" x1="629.63" y1="135.72" x2="633.84" y2="133.29"/><line class="cls-2" x1="635.96" y1="139.37" x2="635.96" y2="134.51"/><line class="cls-2" x1="642.29" y1="135.72" x2="638.09" y2="133.29"/><line class="cls-2" x1="642.29" y1="128.41" x2="638.09" y2="130.84"/><line class="cls-2" x1="633.43" y1="125.97" x2="635.96" y2="128.39"/><line class="cls-2" x1="634.95" y1="125.38" x2="635.96" y2="126.37"/><line class="cls-2" x1="638.49" y1="125.97" x2="635.96" y2="128.39"/><line class="cls-2" x1="636.98" y1="125.38" x2="635.96" y2="126.37"/><line class="cls-2" x1="629.42" y1="131.21" x2="632.79" y2="130.23"/><line class="cls-2" x1="629.67" y1="129.6" x2="631.04" y2="129.22"/><line class="cls-2" x1="631.95" y1="126.82" x2="632.79" y2="130.23"/><line class="cls-2" x1="630.69" y1="127.85" x2="631.04" y2="129.22"/><line class="cls-2" x1="631.95" y1="137.3" x2="632.79" y2="133.9"/><line class="cls-2" x1="630.69" y1="136.28" x2="631.04" y2="134.91"/><line class="cls-2" x1="629.42" y1="132.92" x2="632.79" y2="133.9"/><line class="cls-2" x1="629.67" y1="134.53" x2="631.04" y2="134.91"/><line class="cls-2" x1="638.49" y1="138.16" x2="635.96" y2="135.73"/><line class="cls-2" x1="636.98" y1="138.74" x2="635.96" y2="137.75"/><line class="cls-2" x1="633.43" y1="138.16" x2="635.96" y2="135.73"/><line class="cls-2" x1="634.95" y1="138.74" x2="635.96" y2="137.75"/><line class="cls-2" x1="642.51" y1="132.92" x2="639.14" y2="133.9"/><line class="cls-2" x1="642.25" y1="134.53" x2="640.89" y2="134.91"/><line class="cls-2" x1="639.98" y1="137.3" x2="639.14" y2="133.9"/><line class="cls-2" x1="641.24" y1="136.28" x2="640.89" y2="134.91"/><line class="cls-2" x1="639.98" y1="126.82" x2="639.14" y2="130.23"/><line class="cls-2" x1="641.24" y1="127.85" x2="640.89" y2="129.22"/><line class="cls-2" x1="642.51" y1="131.21" x2="639.14" y2="130.23"/><line class="cls-2" x1="642.25" y1="129.6" x2="640.89" y2="129.22"/><polygon class="cls-2" points="440.85 48.83 440.85 51.27 442.97 52.5 445.1 51.27 445.1 48.83 442.97 47.6 440.85 48.83"/><line class="cls-2" x1="442.97" y1="42.74" x2="442.97" y2="47.6"/><line class="cls-2" x1="436.64" y1="46.39" x2="440.85" y2="48.82"/><line class="cls-2" x1="436.64" y1="53.71" x2="440.85" y2="51.28"/><line class="cls-2" x1="442.97" y1="57.36" x2="442.97" y2="52.5"/><line class="cls-2" x1="449.31" y1="53.71" x2="445.1" y2="51.28"/><line class="cls-2" x1="449.31" y1="46.39" x2="445.1" y2="48.82"/><line class="cls-2" x1="440.44" y1="43.95" x2="442.97" y2="46.38"/><line class="cls-2" x1="441.96" y1="43.37" x2="442.97" y2="44.36"/><line class="cls-2" x1="445.5" y1="43.95" x2="442.97" y2="46.38"/><line class="cls-2" x1="443.99" y1="43.37" x2="442.97" y2="44.36"/><line class="cls-2" x1="436.43" y1="49.19" x2="439.8" y2="48.22"/><line class="cls-2" x1="436.69" y1="47.59" x2="438.05" y2="47.2"/><line class="cls-2" x1="438.96" y1="44.81" x2="439.8" y2="48.22"/><line class="cls-2" x1="437.7" y1="45.83" x2="438.05" y2="47.2"/><line class="cls-2" x1="438.96" y1="55.29" x2="439.8" y2="51.88"/><line class="cls-2" x1="437.7" y1="54.27" x2="438.05" y2="52.9"/><line class="cls-2" x1="436.43" y1="50.91" x2="439.8" y2="51.88"/><line class="cls-2" x1="436.69" y1="52.51" x2="438.05" y2="52.9"/><line class="cls-2" x1="445.5" y1="56.15" x2="442.97" y2="53.72"/><line class="cls-2" x1="443.99" y1="56.73" x2="442.97" y2="55.74"/><line class="cls-2" x1="440.44" y1="56.15" x2="442.97" y2="53.72"/><line class="cls-2" x1="441.96" y1="56.73" x2="442.97" y2="55.74"/><line class="cls-2" x1="449.52" y1="50.91" x2="446.15" y2="51.88"/><line class="cls-2" x1="449.26" y1="52.51" x2="447.9" y2="52.9"/><line class="cls-2" x1="446.99" y1="55.29" x2="446.15" y2="51.88"/><line class="cls-2" x1="448.25" y1="54.27" x2="447.9" y2="52.9"/><line class="cls-2" x1="446.99" y1="44.81" x2="446.15" y2="48.22"/><line class="cls-2" x1="448.25" y1="45.83" x2="447.9" y2="47.2"/><line class="cls-2" x1="449.52" y1="49.19" x2="446.15" y2="48.22"/><line class="cls-2" x1="449.26" y1="47.59" x2="447.9" y2="47.2"/><polygon class="cls-3" points="340.49 116.22 340.49 118.67 342.62 119.89 344.74 118.67 344.74 116.22 342.62 114.99 340.49 116.22"/><line class="cls-3" x1="342.62" y1="110.13" x2="342.62" y2="114.99"/><line class="cls-3" x1="336.29" y1="113.79" x2="340.49" y2="116.22"/><line class="cls-3" x1="336.29" y1="121.1" x2="340.49" y2="118.67"/><line class="cls-3" x1="342.62" y1="124.75" x2="342.62" y2="119.89"/><line class="cls-3" x1="348.95" y1="121.1" x2="344.74" y2="118.67"/><line class="cls-3" x1="348.95" y1="113.79" x2="344.74" y2="116.22"/><line class="cls-3" x1="340.09" y1="111.35" x2="342.62" y2="113.77"/><line class="cls-3" x1="341.6" y1="110.76" x2="342.62" y2="111.75"/><line class="cls-3" x1="345.15" y1="111.35" x2="342.62" y2="113.77"/><line class="cls-3" x1="343.63" y1="110.76" x2="342.62" y2="111.75"/><line class="cls-3" x1="336.07" y1="116.58" x2="339.44" y2="115.61"/><line class="cls-3" x1="336.33" y1="114.98" x2="337.69" y2="114.6"/><line class="cls-3" x1="338.6" y1="112.2" x2="339.44" y2="115.61"/><line class="cls-3" x1="337.34" y1="113.23" x2="337.69" y2="114.6"/><line class="cls-3" x1="338.6" y1="122.68" x2="339.44" y2="119.28"/><line class="cls-3" x1="337.34" y1="121.66" x2="337.69" y2="120.29"/><line class="cls-3" x1="336.07" y1="118.3" x2="339.44" y2="119.28"/><line class="cls-3" x1="336.33" y1="119.9" x2="337.69" y2="120.29"/><line class="cls-3" x1="345.15" y1="123.54" x2="342.62" y2="121.11"/><line class="cls-3" x1="343.63" y1="124.12" x2="342.62" y2="123.13"/><line class="cls-3" x1="340.09" y1="123.54" x2="342.62" y2="121.11"/><line class="cls-3" x1="341.6" y1="124.12" x2="342.62" y2="123.13"/><line class="cls-3" x1="349.16" y1="118.3" x2="345.79" y2="119.28"/><line class="cls-3" x1="348.91" y1="119.9" x2="347.54" y2="120.29"/><line class="cls-3" x1="346.63" y1="122.68" x2="345.79" y2="119.28"/><line class="cls-3" x1="347.89" y1="121.66" x2="347.54" y2="120.29"/><line class="cls-3" x1="346.63" y1="112.2" x2="345.79" y2="115.61"/><line class="cls-3" x1="347.89" y1="113.23" x2="347.54" y2="114.6"/><line class="cls-3" x1="349.16" y1="116.58" x2="345.79" y2="115.61"/><line class="cls-3" x1="348.91" y1="114.98" x2="347.54" y2="114.6"/><polygon class="cls-4" points="313.73 32.67 313.73 34.36 315.2 35.21 316.66 34.36 316.66 32.67 315.2 31.82 313.73 32.67"/><line class="cls-4" x1="315.2" y1="28.47" x2="315.2" y2="31.83"/><line class="cls-4" x1="310.83" y1="30.99" x2="313.73" y2="32.67"/><line class="cls-4" x1="310.83" y1="36.04" x2="313.73" y2="34.36"/><line class="cls-4" x1="315.2" y1="38.56" x2="315.2" y2="35.21"/><line class="cls-4" x1="319.57" y1="36.04" x2="316.66" y2="34.36"/><line class="cls-4" x1="319.57" y1="30.99" x2="316.66" y2="32.67"/><line class="cls-4" x1="313.45" y1="29.31" x2="315.2" y2="30.99"/><line class="cls-4" x1="314.5" y1="28.91" x2="315.2" y2="29.59"/><line class="cls-4" x1="316.94" y1="29.31" x2="315.2" y2="30.99"/><line class="cls-4" x1="315.89" y1="28.91" x2="315.2" y2="29.59"/><line class="cls-4" x1="310.68" y1="32.93" x2="313" y2="32.25"/><line class="cls-4" x1="310.85" y1="31.82" x2="311.79" y2="31.55"/><line class="cls-4" x1="312.42" y1="29.9" x2="313" y2="32.25"/><line class="cls-4" x1="311.55" y1="30.61" x2="311.79" y2="31.55"/><line class="cls-4" x1="312.42" y1="37.13" x2="313" y2="34.78"/><line class="cls-4" x1="311.55" y1="36.43" x2="311.79" y2="35.48"/><line class="cls-4" x1="310.68" y1="34.11" x2="313" y2="34.78"/><line class="cls-4" x1="310.85" y1="35.22" x2="311.79" y2="35.48"/><line class="cls-4" x1="316.94" y1="37.73" x2="315.2" y2="36.05"/><line class="cls-4" x1="315.89" y1="38.13" x2="315.2" y2="37.45"/><line class="cls-4" x1="313.45" y1="37.73" x2="315.2" y2="36.05"/><line class="cls-4" x1="314.5" y1="38.13" x2="315.2" y2="37.45"/><line class="cls-4" x1="319.71" y1="34.11" x2="317.39" y2="34.78"/><line class="cls-4" x1="319.54" y1="35.22" x2="318.6" y2="35.48"/><line class="cls-4" x1="317.97" y1="37.13" x2="317.39" y2="34.78"/><line class="cls-4" x1="318.84" y1="36.43" x2="318.6" y2="35.48"/><line class="cls-4" x1="317.97" y1="29.9" x2="317.39" y2="32.25"/><line class="cls-4" x1="318.84" y1="30.61" x2="318.6" y2="31.55"/><line class="cls-4" x1="319.71" y1="32.93" x2="317.39" y2="32.25"/><line class="cls-4" x1="319.54" y1="31.82" x2="318.6" y2="31.55"/><polygon class="cls-5" points="606.93 16.05 606.93 17.74 608.4 18.59 609.87 17.74 609.87 16.05 608.4 15.21 606.93 16.05"/><line class="cls-5" x1="608.4" y1="11.85" x2="608.4" y2="15.21"/><line class="cls-5" x1="604.03" y1="14.37" x2="606.93" y2="16.05"/><line class="cls-5" x1="604.03" y1="19.42" x2="606.93" y2="17.74"/><line class="cls-5" x1="608.4" y1="21.94" x2="608.4" y2="18.59"/><line class="cls-5" x1="612.77" y1="19.42" x2="609.86" y2="17.74"/><line class="cls-5" x1="612.77" y1="14.37" x2="609.86" y2="16.05"/><line class="cls-5" x1="606.65" y1="12.69" x2="608.4" y2="14.37"/><line class="cls-5" x1="607.7" y1="12.29" x2="608.4" y2="12.97"/><line class="cls-5" x1="610.15" y1="12.69" x2="608.4" y2="14.37"/><line class="cls-5" x1="609.1" y1="12.29" x2="608.4" y2="12.97"/><line class="cls-5" x1="603.88" y1="16.31" x2="606.21" y2="15.63"/><line class="cls-5" x1="604.06" y1="15.2" x2="605" y2="14.93"/><line class="cls-5" x1="605.63" y1="13.28" x2="606.21" y2="15.63"/><line class="cls-5" x1="604.76" y1="13.99" x2="605" y2="14.93"/><line class="cls-5" x1="605.63" y1="20.51" x2="606.21" y2="18.16"/><line class="cls-5" x1="604.76" y1="19.81" x2="605" y2="18.86"/><line class="cls-5" x1="603.88" y1="17.49" x2="606.21" y2="18.16"/><line class="cls-5" x1="604.06" y1="18.6" x2="605" y2="18.86"/><line class="cls-5" x1="610.15" y1="21.11" x2="608.4" y2="19.43"/><line class="cls-5" x1="609.1" y1="21.51" x2="608.4" y2="20.83"/><line class="cls-5" x1="606.65" y1="21.11" x2="608.4" y2="19.43"/><line class="cls-5" x1="607.7" y1="21.51" x2="608.4" y2="20.83"/><line class="cls-5" x1="612.92" y1="17.49" x2="610.59" y2="18.16"/><line class="cls-5" x1="612.74" y1="18.6" x2="611.8" y2="18.86"/><line class="cls-5" x1="611.17" y1="20.51" x2="610.59" y2="18.16"/><line class="cls-5" x1="612.04" y1="19.81" x2="611.8" y2="18.86"/><line class="cls-5" x1="611.17" y1="13.28" x2="610.59" y2="15.63"/><line class="cls-5" x1="612.04" y1="13.99" x2="611.8" y2="14.93"/><line class="cls-5" x1="612.92" y1="16.31" x2="610.59" y2="15.63"/><line class="cls-5" x1="612.74" y1="15.2" x2="611.8" y2="14.93"/><polygon class="cls-6" points="198.3 44.85 197.69 46.85 199.12 48.38 201.16 47.91 201.77 45.91 200.34 44.38 198.3 44.85"/><line class="cls-6" x1="201.55" y1="40.41" x2="200.34" y2="44.38"/><line class="cls-6" x1="195.47" y1="41.81" x2="198.3" y2="44.85"/><line class="cls-6" x1="193.65" y1="47.79" x2="197.69" y2="46.85"/><line class="cls-6" x1="197.91" y1="52.35" x2="199.12" y2="48.38"/><line class="cls-6" x1="203.99" y1="50.94" x2="201.16" y2="47.91"/><line class="cls-6" x1="205.81" y1="44.97" x2="201.77" y2="45.9"/><line class="cls-6" x1="199.18" y1="40.77" x2="200.64" y2="43.38"/><line class="cls-6" x1="200.56" y1="40.67" x2="201.15" y2="41.73"/><line class="cls-6" x1="203.31" y1="42.03" x2="200.64" y2="43.38"/><line class="cls-6" x1="202.22" y1="41.17" x2="201.15" y2="41.73"/><line class="cls-6" x1="194.6" y1="44.05" x2="197.59" y2="44.09"/><line class="cls-6" x1="195.2" y1="42.8" x2="196.41" y2="42.83"/><line class="cls-6" x1="197.75" y1="41.1" x2="197.59" y2="44.09"/><line class="cls-6" x1="196.47" y1="41.62" x2="196.41" y2="42.83"/><line class="cls-6" x1="195.14" y1="49.66" x2="196.68" y2="47.08"/><line class="cls-6" x1="194.37" y1="48.51" x2="194.99" y2="47.47"/><line class="cls-6" x1="194.17" y1="45.45" x2="196.68" y2="47.08"/><line class="cls-6" x1="193.98" y1="46.82" x2="194.99" y2="47.47"/><line class="cls-6" x1="200.28" y1="51.99" x2="198.81" y2="49.37"/><line class="cls-6" x1="198.89" y1="52.08" x2="198.31" y2="51.03"/><line class="cls-6" x1="196.14" y1="50.73" x2="198.81" y2="49.37"/><line class="cls-6" x1="197.24" y1="51.58" x2="198.31" y2="51.03"/><line class="cls-6" x1="204.86" y1="48.71" x2="201.87" y2="48.67"/><line class="cls-6" x1="204.25" y1="49.96" x2="203.05" y2="49.93"/><line class="cls-6" x1="201.7" y1="51.66" x2="201.87" y2="48.67"/><line class="cls-6" x1="202.99" y1="51.13" x2="203.05" y2="49.93"/><line class="cls-6" x1="204.31" y1="43.1" x2="202.78" y2="45.67"/><line class="cls-6" x1="205.09" y1="44.25" x2="204.46" y2="45.28"/><line class="cls-6" x1="205.29" y1="47.31" x2="202.78" y2="45.67"/><line class="cls-6" x1="205.48" y1="45.93" x2="204.46" y2="45.28"/><polygon class="cls-7" points="123.67 77.21 122.06 79.26 123.04 81.68 125.63 82.04 127.23 79.99 126.25 77.57 123.67 77.21"/><line class="cls-7" x1="129.43" y1="73.49" x2="126.25" y2="77.57"/><line class="cls-7" x1="121.73" y1="72.41" x2="123.67" y2="77.21"/><line class="cls-7" x1="116.94" y1="78.55" x2="122.06" y2="79.26"/><line class="cls-7" x1="119.86" y1="85.76" x2="123.04" y2="81.68"/><line class="cls-7" x1="127.57" y1="86.84" x2="125.62" y2="82.04"/><line class="cls-7" x1="132.35" y1="80.7" x2="127.23" y2="79.99"/><line class="cls-7" x1="126.52" y1="72.85" x2="127.05" y2="76.55"/><line class="cls-7" x1="128.17" y1="73.36" x2="128.37" y2="74.85"/><line class="cls-7" x1="130.76" y1="76.17" x2="127.05" y2="76.55"/><line class="cls-7" x1="129.87" y1="74.68" x2="128.37" y2="74.85"/><line class="cls-7" x1="119.72" y1="74.62" x2="123.18" y2="76.01"/><line class="cls-7" x1="120.98" y1="73.44" x2="122.37" y2="74.01"/><line class="cls-7" x1="124.71" y1="72.6" x2="123.18" y2="76.01"/><line class="cls-7" x1="122.98" y1="72.63" x2="122.37" y2="74.01"/><line class="cls-7" x1="117.84" y1="81.39" x2="120.78" y2="79.08"/><line class="cls-7" x1="117.46" y1="79.71" x2="118.65" y2="78.79"/><line class="cls-7" x1="118.59" y1="76.06" x2="120.78" y2="79.08"/><line class="cls-7" x1="117.75" y1="77.57" x2="118.65" y2="78.79"/><line class="cls-7" x1="122.78" y1="86.4" x2="122.24" y2="82.7"/><line class="cls-7" x1="121.12" y1="85.89" x2="120.92" y2="84.4"/><line class="cls-7" x1="118.53" y1="83.08" x2="122.24" y2="82.7"/><line class="cls-7" x1="119.42" y1="84.57" x2="120.92" y2="84.4"/><line class="cls-7" x1="129.58" y1="84.63" x2="126.11" y2="83.25"/><line class="cls-7" x1="128.31" y1="85.81" x2="126.92" y2="85.24"/><line class="cls-7" x1="124.58" y1="86.65" x2="126.11" y2="83.25"/><line class="cls-7" x1="126.31" y1="86.62" x2="126.92" y2="85.24"/><line class="cls-7" x1="131.45" y1="77.86" x2="128.51" y2="80.17"/><line class="cls-7" x1="131.84" y1="79.54" x2="130.65" y2="80.47"/><line class="cls-7" x1="130.7" y1="83.19" x2="128.51" y2="80.17"/><line class="cls-7" x1="131.54" y1="81.68" x2="130.65" y2="80.47"/><circle class="cls-8" cx="263.78" cy="11.43" r="1.44"/><circle class="cls-9" cx="78.07" cy="112.45" r="2.32"/><circle class="cls-9" cx="425.72" cy="15.21" r="1.68"/><circle class="cls-9" cx="530.78" cy="62.64" r="1.54"/><circle class="cls-9" cx="654.34" cy="2.5" r="2.5"/><circle class="cls-10" cx="547.21" cy="6.25" r="1.25"/><circle class="cls-11" cx="275.72" cy="78.6" r="1.03"/><circle class="cls-9" cx="449.72" cy="120.68" r="1.89"/><circle class="cls-12" cx="629.68" cy="79.62" r="2.05"/><g class="cls-13"><polygon class="cls-1" points="442.35 238.11 442.35 240.67 444.56 241.95 446.78 240.67 446.78 238.11 444.56 236.83 442.35 238.11"/><line class="cls-1" x1="444.56" y1="231.75" x2="444.56" y2="236.83"/><line class="cls-1" x1="437.95" y1="235.57" x2="442.35" y2="238.11"/><line class="cls-1" x1="437.95" y1="243.21" x2="442.35" y2="240.67"/><line class="cls-1" x1="444.56" y1="247.03" x2="444.56" y2="241.95"/><line class="cls-1" x1="451.18" y1="243.21" x2="446.78" y2="240.67"/><line class="cls-1" x1="451.18" y1="235.57" x2="446.78" y2="238.11"/><line class="cls-1" x1="441.92" y1="233.02" x2="444.56" y2="235.56"/><line class="cls-1" x1="443.51" y1="232.41" x2="444.56" y2="233.44"/><line class="cls-1" x1="447.21" y1="233.02" x2="444.56" y2="235.56"/><line class="cls-1" x1="445.62" y1="232.41" x2="444.56" y2="233.44"/><line class="cls-1" x1="437.72" y1="238.49" x2="441.24" y2="237.47"/><line class="cls-1" x1="437.99" y1="236.82" x2="439.41" y2="236.41"/><line class="cls-1" x1="440.37" y1="233.91" x2="441.24" y2="237.47"/><line class="cls-1" x1="439.05" y1="234.98" x2="439.41" y2="236.41"/><line class="cls-1" x1="440.37" y1="244.87" x2="441.24" y2="241.31"/><line class="cls-1" x1="439.05" y1="243.8" x2="439.41" y2="242.36"/><line class="cls-1" x1="437.72" y1="240.29" x2="441.24" y2="241.31"/><line class="cls-1" x1="437.99" y1="241.96" x2="439.41" y2="242.36"/><line class="cls-1" x1="447.21" y1="245.76" x2="444.56" y2="243.22"/><line class="cls-1" x1="445.62" y1="246.37" x2="444.56" y2="245.34"/><line class="cls-1" x1="441.92" y1="245.76" x2="444.56" y2="243.22"/><line class="cls-1" x1="443.51" y1="246.37" x2="444.56" y2="245.34"/><line class="cls-1" x1="451.4" y1="240.29" x2="447.88" y2="241.31"/><line class="cls-1" x1="451.14" y1="241.96" x2="449.72" y2="242.36"/><line class="cls-1" x1="448.76" y1="244.87" x2="447.88" y2="241.31"/><line class="cls-1" x1="450.08" y1="243.8" x2="449.72" y2="242.36"/><line class="cls-1" x1="448.76" y1="233.91" x2="447.88" y2="237.47"/><line class="cls-1" x1="450.08" y1="234.98" x2="449.72" y2="236.41"/><line class="cls-1" x1="451.4" y1="238.49" x2="447.88" y2="237.47"/><line class="cls-1" x1="451.14" y1="236.82" x2="449.72" y2="236.41"/></g><g class="cls-13"><polygon class="cls-2" points="992.15 336.98 992.15 339.43 994.27 340.65 996.39 339.43 996.39 336.98 994.27 335.75 992.15 336.98"/><line class="cls-2" x1="994.27" y1="330.89" x2="994.27" y2="335.75"/><line class="cls-2" x1="987.94" y1="334.55" x2="992.15" y2="336.98"/><line class="cls-2" x1="987.94" y1="341.86" x2="992.15" y2="339.43"/><line class="cls-2" x1="994.27" y1="345.51" x2="994.27" y2="340.65"/><line class="cls-2" x1="1000.6" y1="341.86" x2="996.39" y2="339.43"/><line class="cls-2" x1="1000.6" y1="334.55" x2="996.39" y2="336.98"/><line class="cls-2" x1="991.74" y1="332.11" x2="994.27" y2="334.53"/><line class="cls-2" x1="993.26" y1="331.52" x2="994.27" y2="332.51"/><line class="cls-2" x1="996.8" y1="332.11" x2="994.27" y2="334.53"/><line class="cls-2" x1="995.28" y1="331.52" x2="994.27" y2="332.51"/><line class="cls-2" x1="987.73" y1="337.35" x2="991.1" y2="336.37"/><line class="cls-2" x1="987.98" y1="335.74" x2="989.34" y2="335.36"/><line class="cls-2" x1="990.26" y1="332.96" x2="991.1" y2="336.37"/><line class="cls-2" x1="988.99" y1="333.99" x2="989.34" y2="335.36"/><line class="cls-2" x1="990.26" y1="343.44" x2="991.1" y2="340.04"/><line class="cls-2" x1="988.99" y1="342.42" x2="989.34" y2="341.05"/><line class="cls-2" x1="987.73" y1="339.06" x2="991.1" y2="340.04"/><line class="cls-2" x1="987.98" y1="340.67" x2="989.34" y2="341.05"/><line class="cls-2" x1="996.8" y1="344.3" x2="994.27" y2="341.87"/><line class="cls-2" x1="995.28" y1="344.88" x2="994.27" y2="343.89"/><line class="cls-2" x1="991.74" y1="344.3" x2="994.27" y2="341.87"/><line class="cls-2" x1="993.26" y1="344.88" x2="994.27" y2="343.89"/><line class="cls-2" x1="1000.82" y1="339.06" x2="997.45" y2="340.04"/><line class="cls-2" x1="1000.56" y1="340.67" x2="999.2" y2="341.05"/><line class="cls-2" x1="998.29" y1="343.44" x2="997.45" y2="340.04"/><line class="cls-2" x1="999.55" y1="342.42" x2="999.2" y2="341.05"/><line class="cls-2" x1="998.29" y1="332.96" x2="997.45" y2="336.37"/><line class="cls-2" x1="999.55" y1="333.99" x2="999.2" y2="335.36"/><line class="cls-2" x1="1000.82" y1="337.35" x2="997.45" y2="336.37"/><line class="cls-2" x1="1000.56" y1="335.74" x2="999.2" y2="335.36"/></g><g class="cls-13"><polygon class="cls-2" points="799.16 254.96 799.16 257.42 801.28 258.64 803.4 257.42 803.4 254.96 801.28 253.74 799.16 254.96"/><line class="cls-2" x1="801.28" y1="248.88" x2="801.28" y2="253.74"/><line class="cls-2" x1="794.95" y1="252.53" x2="799.16" y2="254.96"/><line class="cls-2" x1="794.95" y1="259.84" x2="799.16" y2="257.42"/><line class="cls-2" x1="801.28" y1="263.5" x2="801.28" y2="258.64"/><line class="cls-2" x1="807.61" y1="259.84" x2="803.4" y2="257.42"/><line class="cls-2" x1="807.61" y1="252.53" x2="803.4" y2="254.96"/><line class="cls-2" x1="798.75" y1="250.09" x2="801.28" y2="252.52"/><line class="cls-2" x1="800.27" y1="249.51" x2="801.28" y2="250.5"/><line class="cls-2" x1="803.81" y1="250.09" x2="801.28" y2="252.52"/><line class="cls-2" x1="802.29" y1="249.51" x2="801.28" y2="250.5"/><line class="cls-2" x1="794.74" y1="255.33" x2="798.11" y2="254.36"/><line class="cls-2" x1="794.99" y1="253.73" x2="796.35" y2="253.34"/><line class="cls-2" x1="797.27" y1="250.95" x2="798.11" y2="254.36"/><line class="cls-2" x1="796" y1="251.97" x2="796.35" y2="253.34"/><line class="cls-2" x1="797.27" y1="261.43" x2="798.11" y2="258.02"/><line class="cls-2" x1="796" y1="260.4" x2="796.35" y2="259.04"/><line class="cls-2" x1="794.74" y1="257.05" x2="798.11" y2="258.02"/><line class="cls-2" x1="794.99" y1="258.65" x2="796.35" y2="259.04"/><line class="cls-2" x1="803.81" y1="262.29" x2="801.28" y2="259.86"/><line class="cls-2" x1="802.29" y1="262.87" x2="801.28" y2="261.88"/><line class="cls-2" x1="798.75" y1="262.29" x2="801.28" y2="259.86"/><line class="cls-2" x1="800.27" y1="262.87" x2="801.28" y2="261.88"/><line class="cls-2" x1="807.83" y1="257.05" x2="804.46" y2="258.02"/><line class="cls-2" x1="807.57" y1="258.65" x2="806.21" y2="259.04"/><line class="cls-2" x1="805.3" y1="261.43" x2="804.46" y2="258.02"/><line class="cls-2" x1="806.56" y1="260.4" x2="806.21" y2="259.04"/><line class="cls-2" x1="805.3" y1="250.95" x2="804.46" y2="254.36"/><line class="cls-2" x1="806.56" y1="251.97" x2="806.21" y2="253.34"/><line class="cls-2" x1="807.83" y1="255.33" x2="804.46" y2="254.36"/><line class="cls-2" x1="807.57" y1="253.73" x2="806.21" y2="253.34"/></g><g class="cls-13"><polygon class="cls-3" points="698.8 322.36 698.8 324.81 700.92 326.03 703.05 324.81 703.05 322.36 700.92 321.13 698.8 322.36"/><line class="cls-3" x1="700.92" y1="316.27" x2="700.92" y2="321.13"/><line class="cls-3" x1="694.59" y1="319.93" x2="698.8" y2="322.36"/><line class="cls-3" x1="694.59" y1="327.24" x2="698.8" y2="324.81"/><line class="cls-3" x1="700.92" y1="330.89" x2="700.92" y2="326.03"/><line class="cls-3" x1="707.25" y1="327.24" x2="703.05" y2="324.81"/><line class="cls-3" x1="707.25" y1="319.93" x2="703.05" y2="322.36"/><line class="cls-3" x1="698.39" y1="317.49" x2="700.92" y2="319.91"/><line class="cls-3" x1="699.91" y1="316.9" x2="700.92" y2="317.89"/><line class="cls-3" x1="703.45" y1="317.49" x2="700.92" y2="319.91"/><line class="cls-3" x1="701.94" y1="316.9" x2="700.92" y2="317.89"/><line class="cls-3" x1="694.38" y1="322.72" x2="697.75" y2="321.75"/><line class="cls-3" x1="694.63" y1="321.12" x2="695.99" y2="320.74"/><line class="cls-3" x1="696.91" y1="318.34" x2="697.75" y2="321.75"/><line class="cls-3" x1="695.65" y1="319.37" x2="695.99" y2="320.74"/><line class="cls-3" x1="696.91" y1="328.82" x2="697.75" y2="325.42"/><line class="cls-3" x1="695.65" y1="327.8" x2="695.99" y2="326.43"/><line class="cls-3" x1="694.38" y1="324.44" x2="697.75" y2="325.42"/><line class="cls-3" x1="694.63" y1="326.04" x2="695.99" y2="326.43"/><line class="cls-3" x1="703.45" y1="329.68" x2="700.92" y2="327.25"/><line class="cls-3" x1="701.94" y1="330.26" x2="700.92" y2="329.27"/><line class="cls-3" x1="698.39" y1="329.68" x2="700.92" y2="327.25"/><line class="cls-3" x1="699.91" y1="330.26" x2="700.92" y2="329.27"/><line class="cls-3" x1="707.47" y1="324.44" x2="704.1" y2="325.42"/><line class="cls-3" x1="707.21" y1="326.04" x2="705.85" y2="326.43"/><line class="cls-3" x1="704.94" y1="328.82" x2="704.1" y2="325.42"/><line class="cls-3" x1="706.2" y1="327.8" x2="705.85" y2="326.43"/><line class="cls-3" x1="704.94" y1="318.34" x2="704.1" y2="321.75"/><line class="cls-3" x1="706.2" y1="319.37" x2="705.85" y2="320.74"/><line class="cls-3" x1="707.47" y1="322.72" x2="704.1" y2="321.75"/><line class="cls-3" x1="707.21" y1="321.12" x2="705.85" y2="320.74"/></g><g class="cls-13"><polygon class="cls-4" points="672.04 238.81 672.04 240.5 673.5 241.35 674.97 240.5 674.97 238.81 673.5 237.97 672.04 238.81"/><line class="cls-4" x1="673.5" y1="234.61" x2="673.5" y2="237.97"/><line class="cls-4" x1="669.13" y1="237.13" x2="672.04" y2="238.81"/><line class="cls-4" x1="669.13" y1="242.18" x2="672.04" y2="240.5"/><line class="cls-4" x1="673.5" y1="244.7" x2="673.5" y2="241.35"/><line class="cls-4" x1="677.88" y1="242.18" x2="674.97" y2="240.5"/><line class="cls-4" x1="677.88" y1="237.13" x2="674.97" y2="238.81"/><line class="cls-4" x1="671.76" y1="235.45" x2="673.5" y2="237.12"/><line class="cls-4" x1="672.81" y1="235.05" x2="673.5" y2="235.73"/><line class="cls-4" x1="675.25" y1="235.45" x2="673.5" y2="237.12"/><line class="cls-4" x1="674.2" y1="235.05" x2="673.5" y2="235.73"/><line class="cls-4" x1="668.99" y1="239.07" x2="671.31" y2="238.39"/><line class="cls-4" x1="669.16" y1="237.96" x2="670.1" y2="237.69"/><line class="cls-4" x1="670.73" y1="236.04" x2="671.31" y2="238.39"/><line class="cls-4" x1="669.86" y1="236.75" x2="670.1" y2="237.69"/><line class="cls-4" x1="670.73" y1="243.27" x2="671.31" y2="240.92"/><line class="cls-4" x1="669.86" y1="242.57" x2="670.1" y2="241.62"/><line class="cls-4" x1="668.99" y1="240.25" x2="671.31" y2="240.92"/><line class="cls-4" x1="669.16" y1="241.36" x2="670.1" y2="241.62"/><line class="cls-4" x1="675.25" y1="243.87" x2="673.5" y2="242.19"/><line class="cls-4" x1="674.2" y1="244.27" x2="673.5" y2="243.59"/><line class="cls-4" x1="671.76" y1="243.87" x2="673.5" y2="242.19"/><line class="cls-4" x1="672.81" y1="244.27" x2="673.5" y2="243.59"/><line class="cls-4" x1="678.02" y1="240.25" x2="675.7" y2="240.92"/><line class="cls-4" x1="677.85" y1="241.36" x2="676.91" y2="241.62"/><line class="cls-4" x1="676.28" y1="243.27" x2="675.7" y2="240.92"/><line class="cls-4" x1="677.15" y1="242.57" x2="676.91" y2="241.62"/><line class="cls-4" x1="676.28" y1="236.04" x2="675.7" y2="238.39"/><line class="cls-4" x1="677.15" y1="236.75" x2="676.91" y2="237.69"/><line class="cls-4" x1="678.02" y1="239.07" x2="675.7" y2="238.39"/><line class="cls-4" x1="677.85" y1="237.96" x2="676.91" y2="237.69"/></g><g class="cls-13"><polygon class="cls-5" points="965.24 222.19 965.24 223.88 966.71 224.73 968.17 223.88 968.17 222.19 966.71 221.35 965.24 222.19"/><line class="cls-5" x1="966.71" y1="217.99" x2="966.71" y2="221.35"/><line class="cls-5" x1="962.34" y1="220.51" x2="965.24" y2="222.19"/><line class="cls-5" x1="962.34" y1="225.56" x2="965.24" y2="223.88"/><line class="cls-5" x1="966.71" y1="228.08" x2="966.71" y2="224.73"/><line class="cls-5" x1="971.08" y1="225.56" x2="968.17" y2="223.88"/><line class="cls-5" x1="971.08" y1="220.51" x2="968.17" y2="222.19"/><line class="cls-5" x1="964.96" y1="218.83" x2="966.71" y2="220.51"/><line class="cls-5" x1="966.01" y1="218.43" x2="966.71" y2="219.11"/><line class="cls-5" x1="968.45" y1="218.83" x2="966.71" y2="220.51"/><line class="cls-5" x1="967.41" y1="218.43" x2="966.71" y2="219.11"/><line class="cls-5" x1="962.19" y1="222.45" x2="964.51" y2="221.77"/><line class="cls-5" x1="962.37" y1="221.34" x2="963.3" y2="221.07"/><line class="cls-5" x1="963.94" y1="219.42" x2="964.51" y2="221.77"/><line class="cls-5" x1="963.06" y1="220.13" x2="963.3" y2="221.07"/><line class="cls-5" x1="963.94" y1="226.65" x2="964.51" y2="224.3"/><line class="cls-5" x1="963.06" y1="225.95" x2="963.3" y2="225"/><line class="cls-5" x1="962.19" y1="223.63" x2="964.51" y2="224.3"/><line class="cls-5" x1="962.37" y1="224.74" x2="963.3" y2="225"/><line class="cls-5" x1="968.45" y1="227.25" x2="966.71" y2="225.57"/><line class="cls-5" x1="967.41" y1="227.65" x2="966.71" y2="226.97"/><line class="cls-5" x1="964.96" y1="227.25" x2="966.71" y2="225.57"/><line class="cls-5" x1="966.01" y1="227.65" x2="966.71" y2="226.97"/><line class="cls-5" x1="971.23" y1="223.63" x2="968.9" y2="224.3"/><line class="cls-5" x1="971.05" y1="224.74" x2="970.11" y2="225"/><line class="cls-5" x1="969.48" y1="226.65" x2="968.9" y2="224.3"/><line class="cls-5" x1="970.35" y1="225.95" x2="970.11" y2="225"/><line class="cls-5" x1="969.48" y1="219.42" x2="968.9" y2="221.77"/><line class="cls-5" x1="970.35" y1="220.13" x2="970.11" y2="221.07"/><line class="cls-5" x1="971.23" y1="222.45" x2="968.9" y2="221.77"/><line class="cls-5" x1="971.05" y1="221.34" x2="970.11" y2="221.07"/></g><g class="cls-13"><polygon class="cls-6" points="556.61 250.99 556 252.99 557.43 254.52 559.47 254.05 560.08 252.04 558.65 250.51 556.61 250.99"/><line class="cls-6" x1="559.86" y1="246.55" x2="558.65" y2="250.52"/><line class="cls-6" x1="553.78" y1="247.95" x2="556.61" y2="250.99"/><line class="cls-6" x1="551.95" y1="253.93" x2="556" y2="252.99"/><line class="cls-6" x1="556.22" y1="258.49" x2="557.43" y2="254.52"/><line class="cls-6" x1="562.3" y1="257.08" x2="559.46" y2="254.05"/><line class="cls-6" x1="564.12" y1="251.11" x2="560.07" y2="252.04"/><line class="cls-6" x1="557.49" y1="246.91" x2="558.95" y2="249.52"/><line class="cls-6" x1="558.87" y1="246.81" x2="559.45" y2="247.87"/><line class="cls-6" x1="561.62" y1="248.17" x2="558.95" y2="249.52"/><line class="cls-6" x1="560.53" y1="247.31" x2="559.45" y2="247.87"/><line class="cls-6" x1="552.9" y1="250.19" x2="555.9" y2="250.23"/><line class="cls-6" x1="553.51" y1="248.94" x2="554.72" y2="248.97"/><line class="cls-6" x1="556.06" y1="247.24" x2="555.9" y2="250.23"/><line class="cls-6" x1="554.78" y1="247.76" x2="554.72" y2="248.97"/><line class="cls-6" x1="553.45" y1="255.8" x2="554.98" y2="253.22"/><line class="cls-6" x1="552.68" y1="254.65" x2="553.3" y2="253.61"/><line class="cls-6" x1="552.48" y1="251.59" x2="554.98" y2="253.22"/><line class="cls-6" x1="552.29" y1="252.96" x2="553.3" y2="253.61"/><line class="cls-6" x1="558.58" y1="258.13" x2="557.12" y2="255.51"/><line class="cls-6" x1="557.2" y1="258.22" x2="556.62" y2="257.17"/><line class="cls-6" x1="554.45" y1="256.87" x2="557.12" y2="255.51"/><line class="cls-6" x1="555.55" y1="257.72" x2="556.62" y2="257.17"/><line class="cls-6" x1="563.17" y1="254.85" x2="560.17" y2="254.81"/><line class="cls-6" x1="562.56" y1="256.09" x2="561.35" y2="256.07"/><line class="cls-6" x1="560.01" y1="257.8" x2="560.17" y2="254.81"/><line class="cls-6" x1="561.3" y1="257.27" x2="561.35" y2="256.07"/><line class="cls-6" x1="562.62" y1="249.24" x2="561.09" y2="251.81"/><line class="cls-6" x1="563.4" y1="250.39" x2="562.77" y2="251.42"/><line class="cls-6" x1="563.6" y1="253.45" x2="561.09" y2="251.81"/><line class="cls-6" x1="563.79" y1="252.07" x2="562.77" y2="251.42"/></g><g class="cls-13"><polygon class="cls-7" points="481.98 283.35 480.37 285.4 481.35 287.82 483.93 288.18 485.54 286.13 484.56 283.71 481.98 283.35"/><line class="cls-7" x1="487.74" y1="279.63" x2="484.56" y2="283.71"/><line class="cls-7" x1="480.03" y1="278.55" x2="481.98" y2="283.35"/><line class="cls-7" x1="475.25" y1="284.69" x2="480.37" y2="285.4"/><line class="cls-7" x1="478.17" y1="291.9" x2="481.35" y2="287.82"/><line class="cls-7" x1="485.87" y1="292.98" x2="483.93" y2="288.18"/><line class="cls-7" x1="490.66" y1="286.84" x2="485.54" y2="286.13"/><line class="cls-7" x1="484.82" y1="278.99" x2="485.36" y2="282.69"/><line class="cls-7" x1="486.48" y1="279.5" x2="486.68" y2="280.99"/><line class="cls-7" x1="489.07" y1="282.31" x2="485.36" y2="282.69"/><line class="cls-7" x1="488.18" y1="280.82" x2="486.68" y2="280.99"/><line class="cls-7" x1="478.02" y1="280.76" x2="481.49" y2="282.15"/><line class="cls-7" x1="479.29" y1="279.58" x2="480.68" y2="280.15"/><line class="cls-7" x1="483.02" y1="278.74" x2="481.49" y2="282.15"/><line class="cls-7" x1="481.29" y1="278.77" x2="480.68" y2="280.15"/><line class="cls-7" x1="476.15" y1="287.53" x2="479.09" y2="285.22"/><line class="cls-7" x1="475.76" y1="285.85" x2="476.95" y2="284.92"/><line class="cls-7" x1="476.9" y1="282.2" x2="479.09" y2="285.22"/><line class="cls-7" x1="476.06" y1="283.71" x2="476.95" y2="284.92"/><line class="cls-7" x1="481.08" y1="292.54" x2="480.55" y2="288.84"/><line class="cls-7" x1="479.43" y1="292.03" x2="479.23" y2="290.54"/><line class="cls-7" x1="476.84" y1="289.22" x2="480.55" y2="288.84"/><line class="cls-7" x1="477.73" y1="290.71" x2="479.23" y2="290.54"/><line class="cls-7" x1="487.88" y1="290.77" x2="484.42" y2="289.39"/><line class="cls-7" x1="486.62" y1="291.95" x2="485.23" y2="291.38"/><line class="cls-7" x1="482.89" y1="292.79" x2="484.42" y2="289.39"/><line class="cls-7" x1="484.62" y1="292.76" x2="485.23" y2="291.38"/><line class="cls-7" x1="489.76" y1="284" x2="486.82" y2="286.31"/><line class="cls-7" x1="490.14" y1="285.68" x2="488.95" y2="286.61"/><line class="cls-7" x1="489.01" y1="289.33" x2="486.82" y2="286.31"/><line class="cls-7" x1="489.85" y1="287.82" x2="488.95" y2="286.61"/></g><circle class="cls-14" cx="622.08" cy="217.57" r="1.44"/><circle class="cls-15" cx="436.38" cy="318.59" r="2.32"/><circle class="cls-15" cx="784.02" cy="221.35" r="1.68"/><circle class="cls-15" cx="889.09" cy="268.78" r="1.54"/><circle class="cls-15" cx="1012.65" cy="208.64" r="2.5"/><circle class="cls-16" cx="905.52" cy="212.39" r="1.25"/><circle class="cls-17" cx="634.03" cy="284.74" r="1.03"/><circle class="cls-15" cx="808.03" cy="326.82" r="1.89"/><circle class="cls-18" cx="987.99" cy="285.76" r="2.05"/><polygon class="cls-1" points="550.8 46.22 550.8 48.78 553.02 50.06 555.24 48.78 555.24 46.22 553.02 44.94 550.8 46.22"/><line class="cls-1" x1="553.02" y1="39.86" x2="553.02" y2="44.94"/><line class="cls-1" x1="546.4" y1="43.68" x2="550.8" y2="46.22"/><line class="cls-1" x1="546.4" y1="51.32" x2="550.8" y2="48.78"/><line class="cls-1" x1="553.02" y1="55.14" x2="553.02" y2="50.06"/><line class="cls-1" x1="559.64" y1="51.32" x2="555.24" y2="48.78"/><line class="cls-1" x1="559.64" y1="43.68" x2="555.24" y2="46.22"/><line class="cls-1" x1="550.38" y1="41.13" x2="553.02" y2="43.67"/><line class="cls-1" x1="551.96" y1="40.52" x2="553.02" y2="41.55"/><line class="cls-1" x1="555.67" y1="41.13" x2="553.02" y2="43.67"/><line class="cls-1" x1="554.08" y1="40.52" x2="553.02" y2="41.55"/><line class="cls-1" x1="546.18" y1="46.61" x2="549.7" y2="45.58"/><line class="cls-1" x1="546.45" y1="44.93" x2="547.87" y2="44.53"/><line class="cls-1" x1="548.83" y1="42.03" x2="549.7" y2="45.58"/><line class="cls-1" x1="547.51" y1="43.1" x2="547.87" y2="44.53"/><line class="cls-1" x1="548.83" y1="52.98" x2="549.7" y2="49.42"/><line class="cls-1" x1="547.51" y1="51.91" x2="547.87" y2="50.48"/><line class="cls-1" x1="546.18" y1="48.4" x2="549.7" y2="49.42"/><line class="cls-1" x1="546.45" y1="50.08" x2="547.87" y2="50.48"/><line class="cls-1" x1="555.67" y1="53.87" x2="553.02" y2="51.34"/><line class="cls-1" x1="554.08" y1="54.48" x2="553.02" y2="53.45"/><line class="cls-1" x1="550.38" y1="53.87" x2="553.02" y2="51.34"/><line class="cls-1" x1="551.96" y1="54.48" x2="553.02" y2="53.45"/><line class="cls-1" x1="559.86" y1="48.4" x2="556.34" y2="49.42"/><line class="cls-1" x1="559.6" y1="50.08" x2="558.17" y2="50.48"/><line class="cls-1" x1="557.22" y1="52.98" x2="556.34" y2="49.42"/><line class="cls-1" x1="558.54" y1="51.91" x2="558.17" y2="50.48"/><line class="cls-1" x1="557.22" y1="42.03" x2="556.34" y2="45.58"/><line class="cls-1" x1="558.54" y1="43.1" x2="558.17" y2="44.53"/><line class="cls-1" x1="559.86" y1="46.61" x2="556.34" y2="45.58"/><line class="cls-1" x1="559.6" y1="44.93" x2="558.17" y2="44.53"/><polygon class="cls-2" points="1100.61 145.09 1100.61 147.54 1102.73 148.76 1104.85 147.54 1104.85 145.09 1102.73 143.86 1100.61 145.09"/><line class="cls-2" x1="1102.73" y1="139" x2="1102.73" y2="143.86"/><line class="cls-2" x1="1096.4" y1="142.66" x2="1100.61" y2="145.09"/><line class="cls-2" x1="1096.4" y1="149.97" x2="1100.61" y2="147.54"/><line class="cls-2" x1="1102.73" y1="153.62" x2="1102.73" y2="148.77"/><line class="cls-2" x1="1109.06" y1="149.97" x2="1104.85" y2="147.54"/><line class="cls-2" x1="1109.06" y1="142.66" x2="1104.85" y2="145.09"/><line class="cls-2" x1="1100.2" y1="140.22" x2="1102.73" y2="142.65"/><line class="cls-2" x1="1101.72" y1="139.64" x2="1102.73" y2="140.62"/><line class="cls-2" x1="1105.26" y1="140.22" x2="1102.73" y2="142.65"/><line class="cls-2" x1="1103.74" y1="139.64" x2="1102.73" y2="140.62"/><line class="cls-2" x1="1096.19" y1="145.46" x2="1099.55" y2="144.48"/><line class="cls-2" x1="1096.44" y1="143.85" x2="1097.8" y2="143.47"/><line class="cls-2" x1="1098.72" y1="141.08" x2="1099.55" y2="144.48"/><line class="cls-2" x1="1097.45" y1="142.1" x2="1097.8" y2="143.47"/><line class="cls-2" x1="1098.72" y1="151.55" x2="1099.55" y2="148.15"/><line class="cls-2" x1="1097.45" y1="150.53" x2="1097.8" y2="149.16"/><line class="cls-2" x1="1096.19" y1="147.17" x2="1099.55" y2="148.15"/><line class="cls-2" x1="1096.44" y1="148.78" x2="1097.8" y2="149.16"/><line class="cls-2" x1="1105.26" y1="152.41" x2="1102.73" y2="149.98"/><line class="cls-2" x1="1103.74" y1="152.99" x2="1102.73" y2="152.01"/><line class="cls-2" x1="1100.2" y1="152.41" x2="1102.73" y2="149.98"/><line class="cls-2" x1="1101.72" y1="152.99" x2="1102.73" y2="152.01"/><line class="cls-2" x1="1109.27" y1="147.17" x2="1105.91" y2="148.15"/><line class="cls-2" x1="1109.02" y1="148.78" x2="1107.66" y2="149.16"/><line class="cls-2" x1="1106.74" y1="151.55" x2="1105.91" y2="148.15"/><line class="cls-2" x1="1108.01" y1="150.53" x2="1107.66" y2="149.16"/><line class="cls-2" x1="1106.74" y1="141.08" x2="1105.91" y2="144.48"/><line class="cls-2" x1="1108.01" y1="142.1" x2="1107.66" y2="143.47"/><line class="cls-2" x1="1109.27" y1="145.46" x2="1105.91" y2="144.48"/><line class="cls-2" x1="1109.02" y1="143.85" x2="1107.66" y2="143.47"/><polygon class="cls-2" points="907.62 63.08 907.62 65.53 909.74 66.75 911.86 65.53 911.86 63.08 909.74 61.85 907.62 63.08"/><line class="cls-2" x1="909.74" y1="56.99" x2="909.74" y2="61.85"/><line class="cls-2" x1="903.41" y1="60.65" x2="907.62" y2="63.08"/><line class="cls-2" x1="903.41" y1="67.96" x2="907.62" y2="65.53"/><line class="cls-2" x1="909.74" y1="71.61" x2="909.74" y2="66.75"/><line class="cls-2" x1="916.07" y1="67.96" x2="911.86" y2="65.53"/><line class="cls-2" x1="916.07" y1="60.65" x2="911.86" y2="63.08"/><line class="cls-2" x1="907.21" y1="58.21" x2="909.74" y2="60.63"/><line class="cls-2" x1="908.73" y1="57.62" x2="909.74" y2="58.61"/><line class="cls-2" x1="912.27" y1="58.21" x2="909.74" y2="60.63"/><line class="cls-2" x1="910.75" y1="57.62" x2="909.74" y2="58.61"/><line class="cls-2" x1="903.2" y1="63.44" x2="906.56" y2="62.47"/><line class="cls-2" x1="903.45" y1="61.84" x2="904.81" y2="61.46"/><line class="cls-2" x1="905.73" y1="59.06" x2="906.56" y2="62.47"/><line class="cls-2" x1="904.46" y1="60.09" x2="904.81" y2="61.46"/><line class="cls-2" x1="905.73" y1="69.54" x2="906.56" y2="66.14"/><line class="cls-2" x1="904.46" y1="68.52" x2="904.81" y2="67.15"/><line class="cls-2" x1="903.2" y1="65.16" x2="906.56" y2="66.14"/><line class="cls-2" x1="903.45" y1="66.76" x2="904.81" y2="67.15"/><line class="cls-2" x1="912.27" y1="70.4" x2="909.74" y2="67.97"/><line class="cls-2" x1="910.75" y1="70.98" x2="909.74" y2="69.99"/><line class="cls-2" x1="907.21" y1="70.4" x2="909.74" y2="67.97"/><line class="cls-2" x1="908.73" y1="70.98" x2="909.74" y2="69.99"/><line class="cls-2" x1="916.28" y1="65.16" x2="912.92" y2="66.14"/><line class="cls-2" x1="916.03" y1="66.76" x2="914.67" y2="67.15"/><line class="cls-2" x1="913.76" y1="69.54" x2="912.92" y2="66.14"/><line class="cls-2" x1="915.02" y1="68.52" x2="914.67" y2="67.15"/><line class="cls-2" x1="913.76" y1="59.06" x2="912.92" y2="62.47"/><line class="cls-2" x1="915.02" y1="60.09" x2="914.67" y2="61.46"/><line class="cls-2" x1="916.28" y1="63.44" x2="912.92" y2="62.47"/><line class="cls-2" x1="916.03" y1="61.84" x2="914.67" y2="61.46"/><polygon class="cls-3" points="807.26 130.47 807.26 132.92 809.38 134.15 811.5 132.92 811.5 130.47 809.38 129.24 807.26 130.47"/><line class="cls-3" x1="809.38" y1="124.38" x2="809.38" y2="129.24"/><line class="cls-3" x1="803.05" y1="128.04" x2="807.26" y2="130.47"/><line class="cls-3" x1="803.05" y1="135.35" x2="807.26" y2="132.92"/><line class="cls-3" x1="809.38" y1="139" x2="809.38" y2="134.14"/><line class="cls-3" x1="815.71" y1="135.35" x2="811.5" y2="132.92"/><line class="cls-3" x1="815.71" y1="128.04" x2="811.5" y2="130.47"/><line class="cls-3" x1="806.85" y1="125.6" x2="809.38" y2="128.03"/><line class="cls-3" x1="808.37" y1="125.02" x2="809.38" y2="126"/><line class="cls-3" x1="811.91" y1="125.6" x2="809.38" y2="128.03"/><line class="cls-3" x1="810.39" y1="125.02" x2="809.38" y2="126"/><line class="cls-3" x1="802.84" y1="130.84" x2="806.21" y2="129.86"/><line class="cls-3" x1="803.09" y1="129.23" x2="804.45" y2="128.85"/><line class="cls-3" x1="805.37" y1="126.46" x2="806.21" y2="129.86"/><line class="cls-3" x1="804.1" y1="127.48" x2="804.45" y2="128.85"/><line class="cls-3" x1="805.37" y1="136.93" x2="806.21" y2="133.53"/><line class="cls-3" x1="804.1" y1="135.91" x2="804.45" y2="134.54"/><line class="cls-3" x1="802.84" y1="132.55" x2="806.21" y2="133.53"/><line class="cls-3" x1="803.09" y1="134.16" x2="804.45" y2="134.54"/><line class="cls-3" x1="811.91" y1="137.79" x2="809.38" y2="135.36"/><line class="cls-3" x1="810.39" y1="138.37" x2="809.38" y2="137.39"/><line class="cls-3" x1="806.85" y1="137.79" x2="809.38" y2="135.36"/><line class="cls-3" x1="808.37" y1="138.37" x2="809.38" y2="137.39"/><line class="cls-3" x1="815.93" y1="132.55" x2="812.56" y2="133.53"/><line class="cls-3" x1="815.67" y1="134.16" x2="814.31" y2="134.54"/><line class="cls-3" x1="813.4" y1="136.93" x2="812.56" y2="133.53"/><line class="cls-3" x1="814.66" y1="135.91" x2="814.31" y2="134.54"/><line class="cls-3" x1="813.4" y1="126.46" x2="812.56" y2="129.86"/><line class="cls-3" x1="814.66" y1="127.48" x2="814.31" y2="128.85"/><line class="cls-3" x1="815.93" y1="130.84" x2="812.56" y2="129.86"/><line class="cls-3" x1="815.67" y1="129.23" x2="814.31" y2="128.85"/><polygon class="cls-4" points="780.5 46.92 780.5 48.62 781.96 49.46 783.43 48.62 783.43 46.92 781.96 46.08 780.5 46.92"/><line class="cls-4" x1="781.96" y1="42.72" x2="781.96" y2="46.08"/><line class="cls-4" x1="777.59" y1="45.25" x2="780.5" y2="46.92"/><line class="cls-4" x1="777.59" y1="50.29" x2="780.5" y2="48.62"/><line class="cls-4" x1="781.96" y1="52.82" x2="781.96" y2="49.46"/><line class="cls-4" x1="786.33" y1="50.29" x2="783.43" y2="48.62"/><line class="cls-4" x1="786.33" y1="45.25" x2="783.43" y2="46.92"/><line class="cls-4" x1="780.22" y1="43.56" x2="781.96" y2="45.24"/><line class="cls-4" x1="781.26" y1="43.16" x2="781.96" y2="43.84"/><line class="cls-4" x1="783.71" y1="43.56" x2="781.96" y2="45.24"/><line class="cls-4" x1="782.66" y1="43.16" x2="781.96" y2="43.84"/><line class="cls-4" x1="777.44" y1="47.18" x2="779.77" y2="46.5"/><line class="cls-4" x1="777.62" y1="46.07" x2="778.56" y2="45.8"/><line class="cls-4" x1="779.19" y1="44.15" x2="779.77" y2="46.5"/><line class="cls-4" x1="778.32" y1="44.86" x2="778.56" y2="45.8"/><line class="cls-4" x1="779.19" y1="51.39" x2="779.77" y2="49.04"/><line class="cls-4" x1="778.32" y1="50.68" x2="778.56" y2="49.73"/><line class="cls-4" x1="777.44" y1="48.36" x2="779.77" y2="49.04"/><line class="cls-4" x1="777.62" y1="49.47" x2="778.56" y2="49.73"/><line class="cls-4" x1="783.71" y1="51.98" x2="781.96" y2="50.3"/><line class="cls-4" x1="782.66" y1="52.38" x2="781.96" y2="51.7"/><line class="cls-4" x1="780.22" y1="51.98" x2="781.96" y2="50.3"/><line class="cls-4" x1="781.26" y1="52.38" x2="781.96" y2="51.7"/><line class="cls-4" x1="786.48" y1="48.36" x2="784.16" y2="49.04"/><line class="cls-4" x1="786.3" y1="49.47" x2="785.37" y2="49.73"/><line class="cls-4" x1="784.73" y1="51.39" x2="784.16" y2="49.04"/><line class="cls-4" x1="785.61" y1="50.68" x2="785.37" y2="49.73"/><line class="cls-4" x1="784.73" y1="44.15" x2="784.16" y2="46.5"/><line class="cls-4" x1="785.61" y1="44.86" x2="785.37" y2="45.8"/><line class="cls-4" x1="786.48" y1="47.18" x2="784.16" y2="46.5"/><line class="cls-4" x1="786.3" y1="46.07" x2="785.37" y2="45.8"/><polygon class="cls-5" points="1073.7 30.3 1073.7 32 1075.17 32.84 1076.63 32 1076.63 30.3 1075.17 29.46 1073.7 30.3"/><line class="cls-5" x1="1075.17" y1="26.1" x2="1075.17" y2="29.46"/><line class="cls-5" x1="1070.79" y1="28.63" x2="1073.7" y2="30.3"/><line class="cls-5" x1="1070.79" y1="33.67" x2="1073.7" y2="32"/><line class="cls-5" x1="1075.17" y1="36.2" x2="1075.17" y2="32.84"/><line class="cls-5" x1="1079.54" y1="33.67" x2="1076.63" y2="32"/><line class="cls-5" x1="1079.54" y1="28.63" x2="1076.63" y2="30.3"/><line class="cls-5" x1="1073.42" y1="26.94" x2="1075.17" y2="28.62"/><line class="cls-5" x1="1074.47" y1="26.54" x2="1075.17" y2="27.22"/><line class="cls-5" x1="1076.91" y1="26.94" x2="1075.17" y2="28.62"/><line class="cls-5" x1="1075.86" y1="26.54" x2="1075.17" y2="27.22"/><line class="cls-5" x1="1070.65" y1="30.56" x2="1072.97" y2="29.88"/><line class="cls-5" x1="1070.82" y1="29.45" x2="1071.76" y2="29.19"/><line class="cls-5" x1="1072.39" y1="27.53" x2="1072.97" y2="29.88"/><line class="cls-5" x1="1071.52" y1="28.24" x2="1071.76" y2="29.19"/><line class="cls-5" x1="1072.39" y1="34.77" x2="1072.97" y2="32.42"/><line class="cls-5" x1="1071.52" y1="34.06" x2="1071.76" y2="33.11"/><line class="cls-5" x1="1070.65" y1="31.74" x2="1072.97" y2="32.42"/><line class="cls-5" x1="1070.82" y1="32.85" x2="1071.76" y2="33.11"/><line class="cls-5" x1="1076.91" y1="35.36" x2="1075.17" y2="33.68"/><line class="cls-5" x1="1075.86" y1="35.76" x2="1075.17" y2="35.08"/><line class="cls-5" x1="1073.42" y1="35.36" x2="1075.17" y2="33.68"/><line class="cls-5" x1="1074.47" y1="35.76" x2="1075.17" y2="35.08"/><line class="cls-5" x1="1079.68" y1="31.74" x2="1077.36" y2="32.42"/><line class="cls-5" x1="1079.51" y1="32.85" x2="1078.57" y2="33.11"/><line class="cls-5" x1="1077.94" y1="34.77" x2="1077.36" y2="32.42"/><line class="cls-5" x1="1078.81" y1="34.06" x2="1078.57" y2="33.11"/><line class="cls-5" x1="1077.94" y1="27.53" x2="1077.36" y2="29.88"/><line class="cls-5" x1="1078.81" y1="28.24" x2="1078.57" y2="29.19"/><line class="cls-5" x1="1079.68" y1="30.56" x2="1077.36" y2="29.88"/><line class="cls-5" x1="1079.51" y1="29.45" x2="1078.57" y2="29.19"/><polygon class="cls-6" points="665.07 59.1 664.46 61.1 665.88 62.63 667.92 62.16 668.53 60.16 667.11 58.63 665.07 59.1"/><line class="cls-6" x1="668.32" y1="54.66" x2="667.1" y2="58.63"/><line class="cls-6" x1="662.23" y1="56.07" x2="665.07" y2="59.1"/><line class="cls-6" x1="660.41" y1="62.04" x2="664.46" y2="61.1"/><line class="cls-6" x1="664.67" y1="66.6" x2="665.88" y2="62.63"/><line class="cls-6" x1="670.76" y1="65.19" x2="667.92" y2="62.16"/><line class="cls-6" x1="672.58" y1="59.22" x2="668.53" y2="60.16"/><line class="cls-6" x1="665.95" y1="55.02" x2="667.41" y2="57.63"/><line class="cls-6" x1="667.33" y1="54.92" x2="667.91" y2="55.98"/><line class="cls-6" x1="670.08" y1="56.28" x2="667.41" y2="57.63"/><line class="cls-6" x1="668.98" y1="55.43" x2="667.91" y2="55.98"/><line class="cls-6" x1="661.36" y1="58.3" x2="664.36" y2="58.34"/><line class="cls-6" x1="661.97" y1="57.05" x2="663.18" y2="57.08"/><line class="cls-6" x1="664.52" y1="55.35" x2="664.36" y2="58.34"/><line class="cls-6" x1="663.23" y1="55.87" x2="663.18" y2="57.08"/><line class="cls-6" x1="661.91" y1="63.91" x2="663.44" y2="61.34"/><line class="cls-6" x1="661.13" y1="62.76" x2="661.76" y2="61.73"/><line class="cls-6" x1="660.94" y1="59.7" x2="663.44" y2="61.34"/><line class="cls-6" x1="660.74" y1="61.07" x2="661.76" y2="61.73"/><line class="cls-6" x1="667.04" y1="66.24" x2="665.58" y2="63.63"/><line class="cls-6" x1="665.66" y1="66.34" x2="665.08" y2="65.28"/><line class="cls-6" x1="662.91" y1="64.98" x2="665.58" y2="63.63"/><line class="cls-6" x1="664" y1="65.83" x2="665.08" y2="65.28"/><line class="cls-6" x1="671.63" y1="62.96" x2="668.63" y2="62.92"/><line class="cls-6" x1="671.02" y1="64.21" x2="669.81" y2="64.18"/><line class="cls-6" x1="668.47" y1="65.91" x2="668.63" y2="62.92"/><line class="cls-6" x1="669.76" y1="65.39" x2="669.81" y2="64.18"/><line class="cls-6" x1="671.08" y1="57.35" x2="669.55" y2="59.92"/><line class="cls-6" x1="671.85" y1="58.5" x2="671.23" y2="59.53"/><line class="cls-6" x1="672.05" y1="61.56" x2="669.55" y2="59.92"/><line class="cls-6" x1="672.24" y1="60.18" x2="671.23" y2="59.53"/><polygon class="cls-7" points="590.43 91.46 588.83 93.52 589.81 95.93 592.39 96.3 594 94.24 593.02 91.82 590.43 91.46"/><line class="cls-7" x1="596.2" y1="87.74" x2="593.02" y2="91.82"/><line class="cls-7" x1="588.49" y1="86.66" x2="590.43" y2="91.46"/><line class="cls-7" x1="583.7" y1="92.8" x2="588.83" y2="93.52"/><line class="cls-7" x1="586.62" y1="100.01" x2="589.81" y2="95.93"/><line class="cls-7" x1="594.33" y1="101.09" x2="592.39" y2="96.3"/><line class="cls-7" x1="599.12" y1="94.96" x2="594" y2="94.24"/><line class="cls-7" x1="593.28" y1="87.1" x2="593.81" y2="90.8"/><line class="cls-7" x1="594.94" y1="87.61" x2="595.14" y2="89.1"/><line class="cls-7" x1="597.53" y1="90.42" x2="593.81" y2="90.8"/><line class="cls-7" x1="596.64" y1="88.94" x2="595.14" y2="89.1"/><line class="cls-7" x1="586.48" y1="88.87" x2="589.95" y2="90.26"/><line class="cls-7" x1="587.75" y1="87.69" x2="589.14" y2="88.26"/><line class="cls-7" x1="591.47" y1="86.85" x2="589.95" y2="90.26"/><line class="cls-7" x1="589.74" y1="86.88" x2="589.14" y2="88.26"/><line class="cls-7" x1="584.61" y1="95.64" x2="587.55" y2="93.34"/><line class="cls-7" x1="584.22" y1="93.96" x2="585.41" y2="93.04"/><line class="cls-7" x1="585.36" y1="90.31" x2="587.55" y2="93.34"/><line class="cls-7" x1="584.52" y1="91.82" x2="585.41" y2="93.04"/><line class="cls-7" x1="589.54" y1="100.65" x2="589.01" y2="96.96"/><line class="cls-7" x1="587.89" y1="100.15" x2="587.68" y2="98.65"/><line class="cls-7" x1="585.3" y1="97.34" x2="589.01" y2="96.96"/><line class="cls-7" x1="586.19" y1="98.82" x2="587.68" y2="98.65"/><line class="cls-7" x1="596.34" y1="98.88" x2="592.88" y2="97.5"/><line class="cls-7" x1="595.08" y1="100.06" x2="593.69" y2="99.49"/><line class="cls-7" x1="591.35" y1="100.9" x2="592.88" y2="97.5"/><line class="cls-7" x1="593.08" y1="100.87" x2="593.69" y2="99.49"/><line class="cls-7" x1="598.21" y1="92.11" x2="595.28" y2="94.42"/><line class="cls-7" x1="598.6" y1="93.8" x2="597.41" y2="94.72"/><line class="cls-7" x1="597.47" y1="97.44" x2="595.28" y2="94.42"/><line class="cls-7" x1="598.3" y1="95.93" x2="597.41" y2="94.72"/><circle class="cls-8" cx="730.54" cy="25.69" r="1.44"/><circle class="cls-9" cx="544.84" cy="126.71" r="2.32"/><circle class="cls-9" cx="892.48" cy="29.47" r="1.68"/><circle class="cls-9" cx="997.55" cy="76.9" r="1.54"/><circle class="cls-9" cx="1121.11" cy="16.75" r="2.5"/><circle class="cls-10" cx="1013.98" cy="20.5" r="1.25"/><circle class="cls-11" cx="742.49" cy="92.85" r="1.03"/><circle class="cls-9" cx="916.49" cy="134.93" r="1.89"/><circle class="cls-12" cx="1096.45" cy="93.88" r="2.05"/><g class="cls-13"><polygon class="cls-1" points="8.29 181.3 8.29 183.86 10.51 185.14 12.73 183.86 12.73 181.3 10.51 180.02 8.29 181.3"/><line class="cls-1" x1="10.51" y1="174.94" x2="10.51" y2="180.02"/><line class="cls-1" x1="3.89" y1="178.76" x2="8.29" y2="181.3"/><line class="cls-1" x1="3.89" y1="186.4" x2="8.29" y2="183.86"/><line class="cls-1" x1="10.51" y1="190.22" x2="10.51" y2="185.14"/><line class="cls-1" x1="17.13" y1="186.4" x2="12.73" y2="183.86"/><line class="cls-1" x1="17.13" y1="178.76" x2="12.73" y2="181.3"/><line class="cls-1" x1="7.86" y1="176.21" x2="10.51" y2="178.74"/><line class="cls-1" x1="9.45" y1="175.6" x2="10.51" y2="176.63"/><line class="cls-1" x1="13.15" y1="176.21" x2="10.51" y2="178.74"/><line class="cls-1" x1="11.57" y1="175.6" x2="10.51" y2="176.63"/><line class="cls-1" x1="3.67" y1="181.68" x2="7.19" y2="180.66"/><line class="cls-1" x1="3.93" y1="180" x2="5.36" y2="179.6"/><line class="cls-1" x1="6.31" y1="177.1" x2="7.19" y2="180.66"/><line class="cls-1" x1="4.99" y1="178.17" x2="5.36" y2="179.6"/><line class="cls-1" x1="6.31" y1="188.05" x2="7.19" y2="184.49"/><line class="cls-1" x1="4.99" y1="186.98" x2="5.36" y2="185.55"/><line class="cls-1" x1="3.67" y1="183.47" x2="7.19" y2="184.49"/><line class="cls-1" x1="3.93" y1="185.15" x2="5.36" y2="185.55"/><line class="cls-1" x1="13.15" y1="188.95" x2="10.51" y2="186.41"/><line class="cls-1" x1="11.57" y1="189.56" x2="10.51" y2="188.53"/><line class="cls-1" x1="7.86" y1="188.95" x2="10.51" y2="186.41"/><line class="cls-1" x1="9.45" y1="189.56" x2="10.51" y2="188.53"/><line class="cls-1" x1="17.35" y1="183.47" x2="13.83" y2="184.49"/><line class="cls-1" x1="17.08" y1="185.15" x2="15.66" y2="185.55"/><line class="cls-1" x1="14.7" y1="188.05" x2="13.83" y2="184.49"/><line class="cls-1" x1="16.02" y1="186.98" x2="15.66" y2="185.55"/><line class="cls-1" x1="14.7" y1="177.1" x2="13.83" y2="180.66"/><line class="cls-1" x1="16.02" y1="178.17" x2="15.66" y2="179.6"/><line class="cls-1" x1="17.35" y1="181.68" x2="13.83" y2="180.66"/><line class="cls-1" x1="17.08" y1="180" x2="15.66" y2="179.6"/></g><g class="cls-13"><polygon class="cls-2" points="558.09 280.17 558.09 282.62 560.22 283.84 562.34 282.62 562.34 280.17 560.22 278.94 558.09 280.17"/><line class="cls-2" x1="560.22" y1="274.08" x2="560.22" y2="278.94"/><line class="cls-2" x1="553.89" y1="277.74" x2="558.09" y2="280.17"/><line class="cls-2" x1="553.89" y1="285.05" x2="558.09" y2="282.62"/><line class="cls-2" x1="560.22" y1="288.7" x2="560.22" y2="283.84"/><line class="cls-2" x1="566.55" y1="285.05" x2="562.34" y2="282.62"/><line class="cls-2" x1="566.55" y1="277.74" x2="562.34" y2="280.17"/><line class="cls-2" x1="557.69" y1="275.29" x2="560.22" y2="277.72"/><line class="cls-2" x1="559.2" y1="274.71" x2="560.22" y2="275.7"/><line class="cls-2" x1="562.75" y1="275.29" x2="560.22" y2="277.72"/><line class="cls-2" x1="561.23" y1="274.71" x2="560.22" y2="275.7"/><line class="cls-2" x1="553.67" y1="280.53" x2="557.04" y2="279.56"/><line class="cls-2" x1="553.93" y1="278.93" x2="555.29" y2="278.55"/><line class="cls-2" x1="556.2" y1="276.15" x2="557.04" y2="279.56"/><line class="cls-2" x1="554.94" y1="277.18" x2="555.29" y2="278.55"/><line class="cls-2" x1="556.2" y1="286.63" x2="557.04" y2="283.22"/><line class="cls-2" x1="554.94" y1="285.61" x2="555.29" y2="284.24"/><line class="cls-2" x1="553.67" y1="282.25" x2="557.04" y2="283.22"/><line class="cls-2" x1="553.93" y1="283.85" x2="555.29" y2="284.24"/><line class="cls-2" x1="562.75" y1="287.49" x2="560.22" y2="285.06"/><line class="cls-2" x1="561.23" y1="288.07" x2="560.22" y2="287.08"/><line class="cls-2" x1="557.69" y1="287.49" x2="560.22" y2="285.06"/><line class="cls-2" x1="559.2" y1="288.07" x2="560.22" y2="287.08"/><line class="cls-2" x1="566.76" y1="282.25" x2="563.39" y2="283.22"/><line class="cls-2" x1="566.51" y1="283.85" x2="565.15" y2="284.24"/><line class="cls-2" x1="564.23" y1="286.63" x2="563.39" y2="283.22"/><line class="cls-2" x1="565.49" y1="285.61" x2="565.15" y2="284.24"/><line class="cls-2" x1="564.23" y1="276.15" x2="563.39" y2="279.56"/><line class="cls-2" x1="565.49" y1="277.18" x2="565.15" y2="278.55"/><line class="cls-2" x1="566.76" y1="280.53" x2="563.39" y2="279.56"/><line class="cls-2" x1="566.51" y1="278.93" x2="565.15" y2="278.55"/></g><g class="cls-13"><polygon class="cls-2" points="365.1 198.15 365.1 200.6 367.23 201.83 369.35 200.6 369.35 198.15 367.23 196.93 365.1 198.15"/><line class="cls-2" x1="367.23" y1="192.07" x2="367.23" y2="196.93"/><line class="cls-2" x1="360.9" y1="195.72" x2="365.1" y2="198.15"/><line class="cls-2" x1="360.9" y1="203.03" x2="365.1" y2="200.6"/><line class="cls-2" x1="367.23" y1="206.69" x2="367.23" y2="201.83"/><line class="cls-2" x1="373.56" y1="203.03" x2="369.35" y2="200.6"/><line class="cls-2" x1="373.56" y1="195.72" x2="369.35" y2="198.15"/><line class="cls-2" x1="364.7" y1="193.28" x2="367.23" y2="195.71"/><line class="cls-2" x1="366.21" y1="192.7" x2="367.23" y2="193.69"/><line class="cls-2" x1="369.76" y1="193.28" x2="367.23" y2="195.71"/><line class="cls-2" x1="368.24" y1="192.7" x2="367.23" y2="193.69"/><line class="cls-2" x1="360.68" y1="198.52" x2="364.05" y2="197.54"/><line class="cls-2" x1="360.94" y1="196.92" x2="362.3" y2="196.53"/><line class="cls-2" x1="363.21" y1="194.14" x2="364.05" y2="197.54"/><line class="cls-2" x1="361.95" y1="195.16" x2="362.3" y2="196.53"/><line class="cls-2" x1="363.21" y1="204.62" x2="364.05" y2="201.21"/><line class="cls-2" x1="361.95" y1="203.59" x2="362.3" y2="202.22"/><line class="cls-2" x1="360.68" y1="200.24" x2="364.05" y2="201.21"/><line class="cls-2" x1="360.94" y1="201.84" x2="362.3" y2="202.22"/><line class="cls-2" x1="369.76" y1="205.47" x2="367.23" y2="203.05"/><line class="cls-2" x1="368.24" y1="206.06" x2="367.23" y2="205.07"/><line class="cls-2" x1="364.7" y1="205.47" x2="367.23" y2="203.05"/><line class="cls-2" x1="366.21" y1="206.06" x2="367.23" y2="205.07"/><line class="cls-2" x1="373.77" y1="200.24" x2="370.4" y2="201.21"/><line class="cls-2" x1="373.52" y1="201.84" x2="372.16" y2="202.22"/><line class="cls-2" x1="371.24" y1="204.62" x2="370.4" y2="201.21"/><line class="cls-2" x1="372.5" y1="203.59" x2="372.16" y2="202.22"/><line class="cls-2" x1="371.24" y1="194.14" x2="370.4" y2="197.54"/><line class="cls-2" x1="372.5" y1="195.16" x2="372.16" y2="196.53"/><line class="cls-2" x1="373.77" y1="198.52" x2="370.4" y2="197.54"/><line class="cls-2" x1="373.52" y1="196.92" x2="372.16" y2="196.53"/></g><g class="cls-13"><polygon class="cls-3" points="264.75 265.55 264.75 268 266.87 269.22 268.99 268 268.99 265.55 266.87 264.32 264.75 265.55"/><line class="cls-3" x1="266.87" y1="259.46" x2="266.87" y2="264.32"/><line class="cls-3" x1="260.54" y1="263.12" x2="264.75" y2="265.54"/><line class="cls-3" x1="260.54" y1="270.43" x2="264.75" y2="268"/><line class="cls-3" x1="266.87" y1="274.08" x2="266.87" y2="269.22"/><line class="cls-3" x1="273.2" y1="270.43" x2="268.99" y2="268"/><line class="cls-3" x1="273.2" y1="263.12" x2="268.99" y2="265.54"/><line class="cls-3" x1="264.34" y1="260.67" x2="266.87" y2="263.1"/><line class="cls-3" x1="265.86" y1="260.09" x2="266.87" y2="261.08"/><line class="cls-3" x1="269.4" y1="260.67" x2="266.87" y2="263.1"/><line class="cls-3" x1="267.88" y1="260.09" x2="266.87" y2="261.08"/><line class="cls-3" x1="260.32" y1="265.91" x2="263.69" y2="264.94"/><line class="cls-3" x1="260.58" y1="264.31" x2="261.94" y2="263.92"/><line class="cls-3" x1="262.85" y1="261.53" x2="263.69" y2="264.94"/><line class="cls-3" x1="261.59" y1="262.56" x2="261.94" y2="263.92"/><line class="cls-3" x1="262.85" y1="272.01" x2="263.69" y2="268.6"/><line class="cls-3" x1="261.59" y1="270.99" x2="261.94" y2="269.62"/><line class="cls-3" x1="260.32" y1="267.63" x2="263.69" y2="268.6"/><line class="cls-3" x1="260.58" y1="269.23" x2="261.94" y2="269.62"/><line class="cls-3" x1="269.4" y1="272.87" x2="266.87" y2="270.44"/><line class="cls-3" x1="267.88" y1="273.45" x2="266.87" y2="272.46"/><line class="cls-3" x1="264.34" y1="272.87" x2="266.87" y2="270.44"/><line class="cls-3" x1="265.86" y1="273.45" x2="266.87" y2="272.46"/><line class="cls-3" x1="273.41" y1="267.63" x2="270.04" y2="268.6"/><line class="cls-3" x1="273.16" y1="269.23" x2="271.8" y2="269.62"/><line class="cls-3" x1="270.88" y1="272.01" x2="270.04" y2="268.6"/><line class="cls-3" x1="272.15" y1="270.99" x2="271.8" y2="269.62"/><line class="cls-3" x1="270.88" y1="261.53" x2="270.04" y2="264.94"/><line class="cls-3" x1="272.15" y1="262.56" x2="271.8" y2="263.92"/><line class="cls-3" x1="273.41" y1="265.91" x2="270.04" y2="264.94"/><line class="cls-3" x1="273.16" y1="264.31" x2="271.8" y2="263.92"/></g><g class="cls-13"><polygon class="cls-4" points="237.98 182 237.98 183.69 239.45 184.54 240.91 183.69 240.91 182 239.45 181.15 237.98 182"/><line class="cls-4" x1="239.45" y1="177.8" x2="239.45" y2="181.15"/><line class="cls-4" x1="235.08" y1="180.32" x2="237.98" y2="182"/><line class="cls-4" x1="235.08" y1="185.37" x2="237.98" y2="183.69"/><line class="cls-4" x1="239.45" y1="187.89" x2="239.45" y2="184.54"/><line class="cls-4" x1="243.82" y1="185.37" x2="240.91" y2="183.69"/><line class="cls-4" x1="243.82" y1="180.32" x2="240.91" y2="182"/><line class="cls-4" x1="237.7" y1="178.64" x2="239.45" y2="180.31"/><line class="cls-4" x1="238.75" y1="178.23" x2="239.45" y2="178.92"/><line class="cls-4" x1="241.2" y1="178.64" x2="239.45" y2="180.31"/><line class="cls-4" x1="240.15" y1="178.23" x2="239.45" y2="178.92"/><line class="cls-4" x1="234.93" y1="182.25" x2="237.26" y2="181.58"/><line class="cls-4" x1="235.11" y1="181.15" x2="236.05" y2="180.88"/><line class="cls-4" x1="236.68" y1="179.23" x2="237.26" y2="181.58"/><line class="cls-4" x1="235.81" y1="179.94" x2="236.05" y2="180.88"/><line class="cls-4" x1="236.68" y1="186.46" x2="237.26" y2="184.11"/><line class="cls-4" x1="235.81" y1="185.76" x2="236.05" y2="184.81"/><line class="cls-4" x1="234.93" y1="183.44" x2="237.26" y2="184.11"/><line class="cls-4" x1="235.11" y1="184.55" x2="236.05" y2="184.81"/><line class="cls-4" x1="241.2" y1="187.05" x2="239.45" y2="185.38"/><line class="cls-4" x1="240.15" y1="187.46" x2="239.45" y2="186.77"/><line class="cls-4" x1="237.7" y1="187.05" x2="239.45" y2="185.38"/><line class="cls-4" x1="238.75" y1="187.46" x2="239.45" y2="186.77"/><line class="cls-4" x1="243.97" y1="183.44" x2="241.64" y2="184.11"/><line class="cls-4" x1="243.79" y1="184.55" x2="242.85" y2="184.81"/><line class="cls-4" x1="242.22" y1="186.46" x2="241.64" y2="184.11"/><line class="cls-4" x1="243.09" y1="185.76" x2="242.85" y2="184.81"/><line class="cls-4" x1="242.22" y1="179.23" x2="241.64" y2="181.58"/><line class="cls-4" x1="243.09" y1="179.94" x2="242.85" y2="180.88"/><line class="cls-4" x1="243.97" y1="182.25" x2="241.64" y2="181.58"/><line class="cls-4" x1="243.79" y1="181.15" x2="242.85" y2="180.88"/></g><g class="cls-13"><polygon class="cls-5" points="531.19 165.38 531.19 167.07 532.65 167.92 534.12 167.07 534.12 165.38 532.65 164.53 531.19 165.38"/><line class="cls-5" x1="532.65" y1="161.18" x2="532.65" y2="164.53"/><line class="cls-5" x1="528.28" y1="163.7" x2="531.19" y2="165.38"/><line class="cls-5" x1="528.28" y1="168.75" x2="531.19" y2="167.07"/><line class="cls-5" x1="532.65" y1="171.27" x2="532.65" y2="167.92"/><line class="cls-5" x1="537.02" y1="168.75" x2="534.12" y2="167.07"/><line class="cls-5" x1="537.02" y1="163.7" x2="534.12" y2="165.38"/><line class="cls-5" x1="530.91" y1="162.02" x2="532.65" y2="163.69"/><line class="cls-5" x1="531.95" y1="161.62" x2="532.65" y2="162.3"/><line class="cls-5" x1="534.4" y1="162.02" x2="532.65" y2="163.69"/><line class="cls-5" x1="533.35" y1="161.62" x2="532.65" y2="162.3"/><line class="cls-5" x1="528.13" y1="165.63" x2="530.46" y2="164.96"/><line class="cls-5" x1="528.31" y1="164.53" x2="529.25" y2="164.26"/><line class="cls-5" x1="529.88" y1="162.61" x2="530.46" y2="164.96"/><line class="cls-5" x1="529.01" y1="163.32" x2="529.25" y2="164.26"/><line class="cls-5" x1="529.88" y1="169.84" x2="530.46" y2="167.49"/><line class="cls-5" x1="529.01" y1="169.14" x2="529.25" y2="168.19"/><line class="cls-5" x1="528.13" y1="166.82" x2="530.46" y2="167.49"/><line class="cls-5" x1="528.31" y1="167.93" x2="529.25" y2="168.19"/><line class="cls-5" x1="534.4" y1="170.43" x2="532.65" y2="168.76"/><line class="cls-5" x1="533.35" y1="170.84" x2="532.65" y2="170.16"/><line class="cls-5" x1="530.91" y1="170.43" x2="532.65" y2="168.76"/><line class="cls-5" x1="531.95" y1="170.84" x2="532.65" y2="170.16"/><line class="cls-5" x1="537.17" y1="166.82" x2="534.84" y2="167.49"/><line class="cls-5" x1="536.99" y1="167.93" x2="536.05" y2="168.19"/><line class="cls-5" x1="535.42" y1="169.84" x2="534.84" y2="167.49"/><line class="cls-5" x1="536.3" y1="169.14" x2="536.05" y2="168.19"/><line class="cls-5" x1="535.42" y1="162.61" x2="534.84" y2="164.96"/><line class="cls-5" x1="536.3" y1="163.32" x2="536.05" y2="164.26"/><line class="cls-5" x1="537.17" y1="165.63" x2="534.84" y2="164.96"/><line class="cls-5" x1="536.99" y1="164.53" x2="536.05" y2="164.26"/></g><g class="cls-13"><polygon class="cls-6" points="122.55 194.18 121.94 196.18 123.37 197.71 125.41 197.24 126.02 195.23 124.59 193.7 122.55 194.18"/><line class="cls-6" x1="125.8" y1="189.73" x2="124.59" y2="193.7"/><line class="cls-6" x1="119.72" y1="191.14" x2="122.55" y2="194.18"/><line class="cls-6" x1="117.9" y1="197.11" x2="121.94" y2="196.18"/><line class="cls-6" x1="122.16" y1="201.68" x2="123.37" y2="197.71"/><line class="cls-6" x1="128.24" y1="200.27" x2="125.41" y2="197.23"/><line class="cls-6" x1="130.06" y1="194.3" x2="126.02" y2="195.23"/><line class="cls-6" x1="123.43" y1="190.1" x2="124.89" y2="192.71"/><line class="cls-6" x1="124.82" y1="190" x2="125.4" y2="191.06"/><line class="cls-6" x1="127.57" y1="191.36" x2="124.89" y2="192.71"/><line class="cls-6" x1="126.47" y1="190.5" x2="125.4" y2="191.06"/><line class="cls-6" x1="118.85" y1="193.38" x2="121.84" y2="193.42"/><line class="cls-6" x1="119.46" y1="192.13" x2="120.66" y2="192.15"/><line class="cls-6" x1="122.01" y1="190.43" x2="121.84" y2="193.42"/><line class="cls-6" x1="120.72" y1="190.95" x2="120.66" y2="192.15"/><line class="cls-6" x1="119.4" y1="198.98" x2="120.93" y2="196.41"/><line class="cls-6" x1="118.62" y1="197.83" x2="119.25" y2="196.8"/><line class="cls-6" x1="118.42" y1="194.78" x2="120.93" y2="196.41"/><line class="cls-6" x1="118.23" y1="196.15" x2="119.25" y2="196.8"/><line class="cls-6" x1="124.53" y1="201.31" x2="123.07" y2="198.7"/><line class="cls-6" x1="123.14" y1="201.41" x2="122.56" y2="200.35"/><line class="cls-6" x1="120.4" y1="200.05" x2="123.07" y2="198.7"/><line class="cls-6" x1="121.49" y1="200.91" x2="122.56" y2="200.35"/><line class="cls-6" x1="129.11" y1="198.04" x2="126.12" y2="197.99"/><line class="cls-6" x1="128.5" y1="199.28" x2="127.3" y2="199.26"/><line class="cls-6" x1="125.96" y1="200.98" x2="126.12" y2="197.99"/><line class="cls-6" x1="127.24" y1="200.46" x2="127.3" y2="199.26"/><line class="cls-6" x1="128.56" y1="192.43" x2="127.03" y2="195"/><line class="cls-6" x1="129.34" y1="193.58" x2="128.72" y2="194.61"/><line class="cls-6" x1="129.54" y1="196.63" x2="127.03" y2="195"/><line class="cls-6" x1="129.73" y1="195.26" x2="128.72" y2="194.61"/></g><g class="cls-13"><polygon class="cls-7" points="47.92 226.53 46.31 228.59 47.29 231.01 49.88 231.37 51.48 229.31 50.5 226.9 47.92 226.53"/><line class="cls-7" x1="53.69" y1="222.82" x2="50.5" y2="226.9"/><line class="cls-7" x1="45.98" y1="221.74" x2="47.92" y2="226.53"/><line class="cls-7" x1="41.19" y1="227.87" x2="46.31" y2="228.59"/><line class="cls-7" x1="44.11" y1="235.09" x2="47.29" y2="231.01"/><line class="cls-7" x1="51.82" y1="236.17" x2="49.88" y2="231.37"/><line class="cls-7" x1="56.61" y1="230.03" x2="51.48" y2="229.32"/><line class="cls-7" x1="50.77" y1="222.18" x2="51.3" y2="225.87"/><line class="cls-7" x1="52.42" y1="222.69" x2="52.63" y2="224.18"/><line class="cls-7" x1="55.01" y1="225.49" x2="51.3" y2="225.87"/><line class="cls-7" x1="54.12" y1="224.01" x2="52.63" y2="224.18"/><line class="cls-7" x1="43.97" y1="223.95" x2="47.43" y2="225.33"/><line class="cls-7" x1="45.23" y1="222.77" x2="46.63" y2="223.34"/><line class="cls-7" x1="48.96" y1="221.93" x2="47.43" y2="225.33"/><line class="cls-7" x1="47.23" y1="221.96" x2="46.63" y2="223.34"/><line class="cls-7" x1="42.1" y1="230.72" x2="45.03" y2="228.41"/><line class="cls-7" x1="41.71" y1="229.03" x2="42.9" y2="228.11"/><line class="cls-7" x1="42.84" y1="225.39" x2="45.03" y2="228.41"/><line class="cls-7" x1="42.01" y1="226.9" x2="42.9" y2="228.11"/><line class="cls-7" x1="47.03" y1="235.73" x2="46.5" y2="232.03"/><line class="cls-7" x1="45.37" y1="235.22" x2="45.17" y2="233.73"/><line class="cls-7" x1="42.78" y1="232.41" x2="46.5" y2="232.03"/><line class="cls-7" x1="43.68" y1="233.9" x2="45.17" y2="233.73"/><line class="cls-7" x1="53.83" y1="233.96" x2="50.36" y2="232.57"/><line class="cls-7" x1="52.56" y1="235.14" x2="51.17" y2="234.57"/><line class="cls-7" x1="48.84" y1="235.98" x2="50.36" y2="232.57"/><line class="cls-7" x1="50.57" y1="235.95" x2="51.17" y2="234.57"/><line class="cls-7" x1="55.7" y1="227.19" x2="52.77" y2="229.49"/><line class="cls-7" x1="56.09" y1="228.87" x2="54.9" y2="229.79"/><line class="cls-7" x1="54.95" y1="232.52" x2="52.77" y2="229.49"/><line class="cls-7" x1="55.79" y1="231.01" x2="54.9" y2="229.79"/></g><circle class="cls-14" cx="188.03" cy="160.76" r="1.44"/><circle class="cls-15" cx="2.32" cy="261.78" r="2.32"/><circle class="cls-15" cx="349.97" cy="164.54" r="1.68"/><circle class="cls-15" cx="455.04" cy="211.97" r="1.54"/><circle class="cls-15" cx="578.59" cy="151.83" r="2.5"/><circle class="cls-16" cx="471.46" cy="155.57" r="1.25"/><circle class="cls-17" cx="199.97" cy="227.93" r="1.03"/><circle class="cls-15" cx="373.98" cy="270.01" r="1.89"/><circle class="cls-18" cx="553.94" cy="228.95" r="2.05"/></svg>