<svg width="400" height="301" viewBox="0 0 400 301" fill="none" xmlns="http://www.w3.org/2000/svg">
<rect width="400" height="301" rx="7" fill="#4F575F"/>
<rect x="44" y="187" width="312" height="31" rx="3" fill="white"/>
<rect x="42.25" y="185.25" width="315.5" height="34.5" rx="4.75" stroke="#65BEFF" stroke-opacity="0.6" stroke-width="3.5"/>
<path d="M58.4858 203.466V208H56.9993V197.818H58.4659V201.607H58.5604C58.7393 201.192 59.0128 200.866 59.3807 200.627C59.7486 200.385 60.2292 200.264 60.8224 200.264C61.608 200.264 62.2393 200.506 62.7166 200.99C63.1972 201.474 63.4375 202.192 63.4375 203.143V208H61.951V203.322C61.951 202.762 61.8068 202.327 61.5185 202.019C61.2301 201.708 60.8291 201.552 60.3153 201.552C59.785 201.552 59.3475 201.719 59.0028 202.054C58.6581 202.385 58.4858 202.856 58.4858 203.466ZM68.7124 208.154C67.9633 208.154 67.317 207.992 66.7734 207.667C66.2299 207.342 65.8106 206.886 65.5156 206.3C65.224 205.71 65.0781 205.02 65.0781 204.232C65.0781 203.449 65.224 202.76 65.5156 202.163C65.8106 201.567 66.2216 201.101 66.7486 200.766C67.2789 200.432 67.8987 200.264 68.608 200.264C69.1847 200.264 69.7299 200.393 70.2436 200.652C70.7607 200.907 71.1799 201.317 71.5014 201.88C71.8262 202.44 71.9886 203.181 71.9886 204.102V204.629H66.5597C66.5795 205.365 66.7867 205.932 67.1811 206.33C67.5755 206.727 68.0909 206.926 68.7273 206.926C69.1515 206.926 69.5178 206.835 69.826 206.653C70.1342 206.47 70.3546 206.199 70.4872 205.837L71.8942 206.091C71.7251 206.711 71.3606 207.21 70.8004 207.587C70.2403 207.965 69.5443 208.154 68.7124 208.154ZM66.5646 203.516H70.532C70.5286 202.932 70.353 202.45 70.005 202.069C69.657 201.684 69.1946 201.492 68.6179 201.492C68.2169 201.492 67.8655 201.587 67.5639 201.776C67.2656 201.961 67.0286 202.208 66.853 202.516C66.6806 202.821 66.5845 203.154 66.5646 203.516ZM75.1245 197.818V208H73.638V197.818H75.1245ZM78.6108 197.818V208H77.1243V197.818H78.6108ZM83.8272 208.154C83.1113 208.154 82.4866 207.99 81.9529 207.662C81.4193 207.334 81.005 206.875 80.71 206.285C80.4151 205.692 80.2676 205.002 80.2676 204.217C80.2676 203.424 80.4151 202.732 80.71 202.138C81.005 201.545 81.4193 201.085 81.9529 200.756C82.4866 200.428 83.1113 200.264 83.8272 200.264C84.5465 200.264 85.1712 200.428 85.7015 200.756C86.2351 201.085 86.6494 201.545 86.9444 202.138C87.2394 202.732 87.3869 203.424 87.3869 204.217C87.3869 205.002 87.2394 205.692 86.9444 206.285C86.6494 206.875 86.2351 207.334 85.7015 207.662C85.1712 207.99 84.5465 208.154 83.8272 208.154ZM83.8322 206.906C84.2995 206.906 84.684 206.784 84.9856 206.538C85.2905 206.293 85.5159 205.967 85.6618 205.559C85.8109 205.148 85.8855 204.699 85.8855 204.212C85.8855 203.724 85.8109 203.275 85.6618 202.864C85.5159 202.453 85.2905 202.125 84.9856 201.88C84.684 201.631 84.2995 201.507 83.8322 201.507C83.3649 201.507 82.9788 201.631 82.6738 201.88C82.3689 202.125 82.1419 202.453 81.9927 202.864C81.8436 203.275 81.769 203.724 81.769 204.212C81.769 204.699 81.8436 205.148 81.9927 205.559C82.1419 205.967 82.3689 206.293 82.6738 206.538C82.9788 206.784 83.3649 206.906 83.8322 206.906ZM92.8892 197.818V208H91.348V199.359H91.2884L88.8523 200.95V199.479L91.3928 197.818H92.8892ZM95.6435 208V206.886L99.0888 203.317C99.4534 202.929 99.7566 202.589 99.9986 202.298C100.241 202.003 100.421 201.723 100.54 201.457C100.66 201.192 100.719 200.911 100.719 200.612C100.719 200.105 100.545 199.704 100.197 199.409C99.8494 199.111 99.4169 198.962 98.8999 198.962C98.3497 198.962 97.9105 199.127 97.5824 199.459C97.2576 199.787 97.0968 200.224 97.1001 200.771H95.6335C95.6335 200.152 95.776 199.61 96.0611 199.146C96.3461 198.682 96.7372 198.322 97.2344 198.067C97.7315 197.808 98.2966 197.679 98.9297 197.679C99.5694 197.679 100.133 197.807 100.62 198.062C101.111 198.314 101.493 198.658 101.768 199.096C102.044 199.53 102.181 200.021 102.181 200.567C102.181 200.945 102.11 201.315 101.967 201.676C101.828 202.037 101.585 202.44 101.237 202.884C100.892 203.325 100.408 203.86 99.7848 204.49L97.7614 206.608V206.683H102.345V208H95.6435ZM107.774 208.139C107.088 208.139 106.478 208.022 105.945 207.786C105.411 207.551 104.988 207.224 104.677 206.807C104.369 206.386 104.203 205.899 104.18 205.345H105.741C105.771 205.796 105.978 206.154 106.362 206.419C106.747 206.684 107.214 206.817 107.764 206.817C108.364 206.817 108.856 206.664 109.241 206.359C109.629 206.051 109.822 205.65 109.822 205.156C109.822 204.643 109.627 204.225 109.236 203.903C108.848 203.579 108.301 203.416 107.595 203.416H106.735V202.163H107.595C108.159 202.163 108.619 202.014 108.977 201.716C109.335 201.418 109.513 201.023 109.509 200.533C109.513 200.062 109.357 199.683 109.042 199.394C108.73 199.106 108.314 198.962 107.794 198.962C107.294 198.962 106.853 199.096 106.472 199.364C106.094 199.629 105.897 199.996 105.88 200.463H104.393C104.41 199.91 104.572 199.424 104.881 199.006C105.192 198.589 105.603 198.264 106.114 198.032C106.624 197.797 107.191 197.679 107.814 197.679C108.467 197.679 109.032 197.807 109.509 198.062C109.987 198.317 110.354 198.655 110.613 199.076C110.871 199.494 110.999 199.953 110.996 200.453C110.999 201.023 110.842 201.507 110.523 201.905C110.205 202.303 109.779 202.569 109.246 202.705V202.785C109.922 202.888 110.446 203.156 110.817 203.59C111.191 204.024 111.377 204.563 111.374 205.206C111.377 205.769 111.223 206.273 110.911 206.717C110.6 207.158 110.172 207.506 109.629 207.761C109.085 208.013 108.467 208.139 107.774 208.139ZM115.495 208.169C115.011 208.169 114.574 208.08 114.183 207.901C113.795 207.722 113.487 207.46 113.258 207.115C113.029 206.767 112.915 206.343 112.915 205.842C112.915 205.408 112.998 205.052 113.163 204.773C113.332 204.495 113.556 204.275 113.835 204.112C114.116 203.95 114.431 203.829 114.779 203.749C115.127 203.666 115.482 203.603 115.843 203.56C116.3 203.507 116.67 203.464 116.952 203.431C117.237 203.395 117.444 203.337 117.573 203.257C117.706 203.178 117.772 203.048 117.772 202.869V202.835C117.772 202.4 117.649 202.064 117.404 201.825C117.162 201.587 116.801 201.467 116.32 201.467C115.82 201.467 115.425 201.577 115.137 201.795C114.852 202.014 114.655 202.259 114.545 202.531L113.148 202.213C113.397 201.517 113.811 201.018 114.391 200.717C114.975 200.415 115.611 200.264 116.3 200.264C116.605 200.264 116.929 200.301 117.27 200.374C117.611 200.443 117.933 200.574 118.234 200.766C118.539 200.955 118.786 201.224 118.975 201.572C119.167 201.92 119.263 202.372 119.263 202.929V208H117.812V206.956H117.752C117.61 207.241 117.356 207.514 116.991 207.776C116.627 208.038 116.128 208.169 115.495 208.169ZM115.818 206.976C116.232 206.976 116.585 206.895 116.877 206.732C117.169 206.57 117.391 206.358 117.543 206.096C117.699 205.831 117.777 205.547 117.777 205.246V204.261C117.707 204.331 117.555 204.392 117.32 204.445C117.084 204.498 116.836 204.543 116.574 204.58C116.312 204.616 116.1 204.646 115.938 204.669C115.507 204.725 115.137 204.84 114.829 205.012C114.524 205.181 114.371 205.464 114.371 205.862C114.371 206.23 114.507 206.509 114.779 206.697C115.051 206.883 115.397 206.976 115.818 206.976ZM121.363 208V197.818H122.849V201.602H122.939C123.028 201.442 123.153 201.259 123.312 201.05C123.474 200.841 123.699 200.659 123.988 200.503C124.279 200.344 124.661 200.264 125.131 200.264C125.748 200.264 126.296 200.42 126.777 200.732C127.261 201.043 127.642 201.492 127.92 202.079C128.199 202.665 128.338 203.371 128.338 204.197C128.338 205.019 128.2 205.726 127.925 206.32C127.65 206.91 127.272 207.362 126.792 207.677C126.311 207.992 125.763 208.149 125.146 208.149C124.682 208.149 124.304 208.071 124.013 207.915C123.721 207.76 123.491 207.577 123.322 207.369C123.156 207.16 123.028 206.974 122.939 206.812H122.814V208H121.363ZM122.819 204.182C122.819 204.984 122.992 205.635 123.336 206.136C123.681 206.633 124.173 206.881 124.813 206.881C125.257 206.881 125.628 206.764 125.927 206.528C126.228 206.29 126.455 205.967 126.608 205.559C126.76 205.151 126.836 204.692 126.836 204.182C126.836 203.675 126.76 203.222 126.608 202.825C126.459 202.424 126.235 202.107 125.937 201.875C125.638 201.643 125.264 201.527 124.813 201.527C124.163 201.527 123.668 201.771 123.327 202.258C122.988 202.742 122.819 203.383 122.819 204.182ZM133.224 208.154C132.485 208.154 131.848 207.987 131.315 207.652C130.784 207.314 130.377 206.848 130.092 206.255C129.807 205.662 129.664 204.982 129.664 204.217C129.664 203.438 129.81 202.752 130.102 202.158C130.393 201.565 130.804 201.101 131.335 200.766C131.868 200.432 132.493 200.264 133.209 200.264C133.789 200.264 134.306 200.372 134.76 200.587C135.214 200.799 135.58 201.098 135.859 201.482C136.14 201.867 136.308 202.316 136.361 202.83H134.914C134.835 202.472 134.652 202.163 134.367 201.905C134.085 201.646 133.708 201.517 133.234 201.517C132.614 201.517 132.113 201.757 131.732 202.238C131.354 202.715 131.165 203.363 131.165 204.182C131.165 205.014 131.353 205.675 131.727 206.165C132.102 206.653 132.604 206.896 133.234 206.896C133.658 206.896 134.021 206.78 134.322 206.548C134.624 206.316 134.821 205.995 134.914 205.584H136.361C136.308 206.078 136.147 206.518 135.879 206.906C135.61 207.294 135.25 207.599 134.8 207.821C134.352 208.043 133.827 208.154 133.224 208.154ZM140.809 208.149C140.193 208.149 139.644 207.992 139.164 207.677C138.683 207.362 138.305 206.91 138.03 206.32C137.755 205.726 137.617 205.019 137.617 204.197C137.617 203.371 137.755 202.665 138.03 202.079C138.308 201.492 138.69 201.043 139.173 200.732C139.657 200.42 140.206 200.264 140.819 200.264C141.293 200.264 141.674 200.344 141.963 200.503C142.254 200.659 142.48 200.841 142.639 201.05C142.801 201.259 142.927 201.442 143.017 201.602H143.106V197.818H144.593V208H143.141V206.812H143.017C142.927 206.974 142.798 207.16 142.629 207.369C142.463 207.577 142.234 207.76 141.943 207.915C141.651 208.071 141.273 208.149 140.809 208.149ZM141.137 206.881C141.78 206.881 142.272 206.633 142.614 206.136C142.959 205.635 143.131 204.984 143.131 204.182C143.131 203.383 142.96 202.742 142.619 202.258C142.281 201.771 141.787 201.527 141.137 201.527C140.69 201.527 140.317 201.643 140.019 201.875C139.72 202.107 139.495 202.424 139.343 202.825C139.193 203.222 139.119 203.675 139.119 204.182C139.119 204.692 139.195 205.151 139.347 205.559C139.5 205.967 139.725 206.29 140.024 206.528C140.325 206.764 140.696 206.881 141.137 206.881ZM150.005 208.154C149.256 208.154 148.61 207.992 148.066 207.667C147.523 207.342 147.104 206.886 146.809 206.3C146.517 205.71 146.371 205.02 146.371 204.232C146.371 203.449 146.517 202.76 146.809 202.163C147.104 201.567 147.515 201.101 148.042 200.766C148.572 200.432 149.192 200.264 149.901 200.264C150.478 200.264 151.023 200.393 151.537 200.652C152.054 200.907 152.473 201.317 152.794 201.88C153.119 202.44 153.282 203.181 153.282 204.102V204.629H147.853C147.873 205.365 148.08 205.932 148.474 206.33C148.868 206.727 149.384 206.926 150.02 206.926C150.444 206.926 150.811 206.835 151.119 206.653C151.427 206.47 151.648 206.199 151.78 205.837L153.187 206.091C153.018 206.711 152.654 207.21 152.093 207.587C151.533 207.965 150.837 208.154 150.005 208.154ZM147.858 203.516H151.825C151.822 202.932 151.646 202.45 151.298 202.069C150.95 201.684 150.488 201.492 149.911 201.492C149.51 201.492 149.158 201.587 148.857 201.776C148.559 201.961 148.322 202.208 148.146 202.516C147.974 202.821 147.877 203.154 147.858 203.516ZM158.565 200.364V201.557H156.92V208H155.428V201.557H154.25V200.364H155.428V199.479C155.428 199.001 155.532 198.605 155.741 198.29C155.953 197.972 156.232 197.735 156.577 197.58C156.921 197.42 157.294 197.341 157.695 197.341C157.997 197.341 158.254 197.366 158.466 197.415C158.678 197.462 158.835 197.505 158.938 197.545L158.59 198.748C158.52 198.725 158.431 198.7 158.322 198.673C158.212 198.647 158.08 198.634 157.924 198.634C157.563 198.634 157.304 198.723 157.148 198.902C156.996 199.081 156.92 199.339 156.92 199.678V200.364H158.565Z" fill="black" fill-opacity="0.54"/>
<path d="M329.5 196C325.182 196 321.494 198.695 320 202.5C321.494 206.305 325.182 209 329.5 209C333.818 209 337.506 206.305 339 202.5C337.506 198.695 333.818 196 329.5 196ZM329.5 206.833C327.116 206.833 325.182 204.892 325.182 202.5C325.182 200.108 327.116 198.167 329.5 198.167C331.884 198.167 333.818 200.108 333.818 202.5C333.818 204.892 331.884 206.833 329.5 206.833ZM329.5 199.9C328.066 199.9 326.909 201.061 326.909 202.5C326.909 203.939 328.066 205.1 329.5 205.1C330.934 205.1 332.091 203.939 332.091 202.5C332.091 201.061 330.934 199.9 329.5 199.9Z" fill="#A3A3A3" fill-opacity="0.58"/>
<g filter="url(#filter0_d)">
<path fill-rule="evenodd" clip-rule="evenodd" d="M63 91C61.3431 91 60 92.3431 60 94V148C60 149.657 61.3431 151 63 151H257.561C258.379 151 259.115 151.498 259.418 152.257L266.555 170.099C267.255 171.849 269.766 171.748 270.323 169.947L275.743 152.409C276.002 151.571 276.777 151 277.654 151H337C338.657 151 340 149.657 340 148V94C340 92.3431 338.657 91 337 91H63Z" fill="url(#paint0_linear)"/>
</g>
<path d="M81.0234 100H82.2344V105.262C82.2344 105.822 82.1029 106.318 81.8398 106.75C81.5768 107.182 81.207 107.521 80.7305 107.766C80.2539 108.01 79.6953 108.133 79.0547 108.133C78.4167 108.133 77.8594 108.01 77.3828 107.766C76.9063 107.521 76.5365 107.182 76.2734 106.75C76.0104 106.318 75.8789 105.822 75.8789 105.262V100H77.0859V105.164C77.0859 105.706 77.2617 106.152 77.6133 106.504C77.9674 106.855 78.4479 107.031 79.0547 107.031C79.6641 107.031 80.1445 106.855 80.4961 106.504C80.8477 106.152 81.0234 105.706 81.0234 105.164V100ZM88.3916 103.465L87.333 103.652C87.2653 103.452 87.139 103.268 86.9541 103.102C86.7718 102.932 86.4984 102.848 86.1338 102.848C85.8031 102.848 85.5257 102.922 85.3018 103.07C85.0804 103.216 84.971 103.405 84.9736 103.637C84.971 103.84 85.0439 104.003 85.1924 104.125C85.3434 104.245 85.5843 104.344 85.915 104.422L86.8682 104.641C87.9619 104.893 88.5088 105.435 88.5088 106.266C88.5088 106.628 88.4046 106.948 88.1963 107.227C87.9906 107.505 87.7028 107.724 87.333 107.883C86.9658 108.042 86.54 108.121 86.0557 108.121C85.3812 108.121 84.833 107.978 84.4111 107.691C83.9893 107.402 83.7288 106.992 83.6299 106.461L84.7588 106.289C84.8994 106.883 85.3291 107.18 86.0479 107.18C86.4307 107.18 86.7367 107.1 86.9658 106.941C87.195 106.78 87.3096 106.583 87.3096 106.352C87.3096 105.969 87.027 105.715 86.4619 105.59L85.4463 105.367C84.8838 105.242 84.4697 105.039 84.2041 104.758C83.9385 104.477 83.8057 104.124 83.8057 103.699C83.8057 103.345 83.9046 103.035 84.1025 102.77C84.3005 102.501 84.5739 102.293 84.9229 102.145C85.2718 101.996 85.6715 101.922 86.1221 101.922C86.7705 101.922 87.2809 102.062 87.6533 102.344C88.0257 102.625 88.2718 102.999 88.3916 103.465ZM92.3789 108.121C91.7904 108.121 91.2826 107.993 90.8555 107.738C90.4284 107.483 90.099 107.125 89.8672 106.664C89.638 106.201 89.5234 105.659 89.5234 105.039C89.5234 104.424 89.638 103.883 89.8672 103.414C90.099 102.945 90.4219 102.579 90.8359 102.316C91.2526 102.053 91.7396 101.922 92.2969 101.922C92.75 101.922 93.1784 102.023 93.582 102.227C93.9883 102.427 94.3177 102.749 94.5703 103.191C94.8255 103.632 94.9531 104.214 94.9531 104.937V105.352H90.6875C90.7031 105.93 90.8659 106.375 91.1758 106.687C91.4857 107 91.8906 107.156 92.3906 107.156C92.724 107.156 93.0117 107.085 93.2539 106.941C93.4961 106.798 93.6693 106.585 93.7734 106.301L94.8789 106.5C94.7461 106.987 94.4596 107.379 94.0195 107.676C93.5794 107.973 93.0326 108.121 92.3789 108.121ZM90.6914 104.477H93.8086C93.806 104.018 93.668 103.639 93.3945 103.34C93.1211 103.038 92.7578 102.887 92.3047 102.887C91.9896 102.887 91.7135 102.961 91.4766 103.109C91.2422 103.255 91.056 103.449 90.918 103.691C90.7826 103.931 90.707 104.193 90.6914 104.477ZM103.656 103.465L102.598 103.652C102.53 103.452 102.404 103.268 102.219 103.102C102.036 102.932 101.763 102.848 101.398 102.848C101.068 102.848 100.79 102.922 100.566 103.07C100.345 103.216 100.236 103.405 100.238 103.637C100.236 103.84 100.309 104.003 100.457 104.125C100.608 104.245 100.849 104.344 101.18 104.422L102.133 104.641C103.227 104.893 103.773 105.435 103.773 106.266C103.773 106.628 103.669 106.948 103.461 107.227C103.255 107.505 102.967 107.724 102.598 107.883C102.23 108.042 101.805 108.121 101.32 108.121C100.646 108.121 100.098 107.978 99.6758 107.691C99.2539 107.402 98.9935 106.992 98.8945 106.461L100.023 106.289C100.164 106.883 100.594 107.18 101.313 107.18C101.695 107.18 102.001 107.1 102.23 106.941C102.46 106.78 102.574 106.583 102.574 106.352C102.574 105.969 102.292 105.715 101.727 105.59L100.711 105.367C100.148 105.242 99.7344 105.039 99.4688 104.758C99.2031 104.477 99.0703 104.124 99.0703 103.699C99.0703 103.345 99.1693 103.035 99.3672 102.77C99.5651 102.501 99.8385 102.293 100.188 102.145C100.536 101.996 100.936 101.922 101.387 101.922C102.035 101.922 102.546 102.062 102.918 102.344C103.29 102.625 103.536 102.999 103.656 103.465ZM108.858 105.512V102H110.03V108H108.882V106.961H108.819C108.681 107.281 108.46 107.548 108.155 107.762C107.853 107.973 107.477 108.078 107.026 108.078C106.451 108.078 105.978 107.888 105.608 107.508C105.241 107.125 105.058 106.561 105.058 105.816V102H106.226V105.676C106.226 106.085 106.339 106.41 106.565 106.652C106.792 106.895 107.086 107.016 107.448 107.016C107.667 107.016 107.884 106.961 108.101 106.852C108.319 106.742 108.5 106.577 108.644 106.355C108.789 106.132 108.861 105.85 108.858 105.512ZM114.115 110.363C113.399 110.363 112.834 110.229 112.42 109.961C112.008 109.693 111.723 109.378 111.564 109.016L112.568 108.602C112.639 108.711 112.732 108.829 112.85 108.957C112.969 109.085 113.131 109.194 113.334 109.285C113.54 109.376 113.804 109.422 114.127 109.422C114.57 109.422 114.936 109.315 115.225 109.102C115.514 108.888 115.658 108.549 115.658 108.086V106.906H115.584C115.514 107.034 115.413 107.176 115.283 107.332C115.153 107.488 114.972 107.624 114.74 107.738C114.511 107.853 114.213 107.91 113.846 107.91C113.374 107.91 112.949 107.799 112.568 107.578C112.191 107.354 111.891 107.025 111.67 106.59C111.449 106.152 111.338 105.615 111.338 104.977C111.338 104.339 111.446 103.792 111.662 103.336C111.881 102.88 112.18 102.531 112.561 102.289C112.941 102.044 113.372 101.922 113.854 101.922C114.226 101.922 114.527 101.984 114.756 102.109C114.988 102.232 115.167 102.375 115.295 102.539C115.425 102.703 115.524 102.848 115.592 102.973H115.678V102H116.822V108.133C116.822 108.643 116.702 109.063 116.463 109.391C116.223 109.721 115.899 109.966 115.49 110.125C115.084 110.284 114.626 110.363 114.115 110.363ZM114.104 106.941C114.609 106.941 114.995 106.767 115.264 106.418C115.535 106.066 115.67 105.581 115.67 104.961C115.67 104.354 115.536 103.862 115.268 103.484C115.002 103.104 114.614 102.914 114.104 102.914C113.752 102.914 113.459 103.005 113.225 103.188C112.99 103.367 112.813 103.612 112.693 103.922C112.576 104.229 112.518 104.576 112.518 104.961C112.518 105.549 112.652 106.027 112.92 106.395C113.188 106.759 113.583 106.941 114.104 106.941ZM120.904 110.363C120.188 110.363 119.623 110.229 119.209 109.961C118.798 109.693 118.512 109.378 118.354 109.016L119.357 108.602C119.428 108.711 119.521 108.829 119.639 108.957C119.758 109.085 119.92 109.194 120.123 109.285C120.329 109.376 120.593 109.422 120.916 109.422C121.359 109.422 121.725 109.315 122.014 109.102C122.303 108.888 122.447 108.549 122.447 108.086V106.906H122.373C122.303 107.034 122.202 107.176 122.072 107.332C121.942 107.488 121.761 107.624 121.529 107.738C121.3 107.853 121.002 107.91 120.635 107.91C120.163 107.91 119.738 107.799 119.357 107.578C118.98 107.354 118.68 107.025 118.459 106.59C118.238 106.152 118.127 105.615 118.127 104.977C118.127 104.339 118.235 103.792 118.451 103.336C118.67 102.88 118.969 102.531 119.35 102.289C119.73 102.044 120.161 101.922 120.643 101.922C121.015 101.922 121.316 101.984 121.545 102.109C121.777 102.232 121.956 102.375 122.084 102.539C122.214 102.703 122.313 102.848 122.381 102.973H122.467V102H123.611V108.133C123.611 108.643 123.492 109.063 123.252 109.391C123.012 109.721 122.688 109.966 122.279 110.125C121.873 110.284 121.415 110.363 120.904 110.363ZM120.893 106.941C121.398 106.941 121.785 106.767 122.053 106.418C122.324 106.066 122.459 105.581 122.459 104.961C122.459 104.354 122.325 103.862 122.057 103.484C121.791 103.104 121.403 102.914 120.893 102.914C120.541 102.914 120.248 103.005 120.014 103.188C119.779 103.367 119.602 103.612 119.482 103.922C119.365 104.229 119.307 104.576 119.307 104.961C119.307 105.549 119.441 106.027 119.709 106.395C119.977 106.759 120.372 106.941 120.893 106.941ZM127.764 108.121C127.175 108.121 126.667 107.993 126.24 107.738C125.813 107.483 125.484 107.125 125.252 106.664C125.023 106.201 124.908 105.659 124.908 105.039C124.908 104.424 125.023 103.883 125.252 103.414C125.484 102.945 125.807 102.579 126.221 102.316C126.637 102.053 127.124 101.922 127.682 101.922C128.135 101.922 128.563 102.023 128.967 102.227C129.373 102.427 129.702 102.749 129.955 103.191C130.21 103.632 130.338 104.214 130.338 104.937V105.352H126.072C126.088 105.93 126.251 106.375 126.561 106.687C126.87 107 127.275 107.156 127.775 107.156C128.109 107.156 128.396 107.085 128.639 106.941C128.881 106.798 129.054 106.585 129.158 106.301L130.264 106.5C130.131 106.987 129.844 107.379 129.404 107.676C128.964 107.973 128.417 108.121 127.764 108.121ZM126.076 104.477H129.193C129.191 104.018 129.053 103.639 128.779 103.34C128.506 103.038 128.143 102.887 127.689 102.887C127.374 102.887 127.098 102.961 126.861 103.109C126.627 103.255 126.441 103.449 126.303 103.691C126.167 103.931 126.092 104.193 126.076 104.477ZM136.13 103.465L135.071 103.652C135.004 103.452 134.877 103.268 134.692 103.102C134.51 102.932 134.237 102.848 133.872 102.848C133.541 102.848 133.264 102.922 133.04 103.07C132.819 103.216 132.709 103.405 132.712 103.637C132.709 103.84 132.782 104.003 132.931 104.125C133.082 104.245 133.323 104.344 133.653 104.422L134.606 104.641C135.7 104.893 136.247 105.435 136.247 106.266C136.247 106.628 136.143 106.948 135.935 107.227C135.729 107.505 135.441 107.724 135.071 107.883C134.704 108.042 134.278 108.121 133.794 108.121C133.119 108.121 132.571 107.978 132.149 107.691C131.728 107.402 131.467 106.992 131.368 106.461L132.497 106.289C132.638 106.883 133.067 107.18 133.786 107.18C134.169 107.18 134.475 107.1 134.704 106.941C134.933 106.78 135.048 106.583 135.048 106.352C135.048 105.969 134.765 105.715 134.2 105.59L133.185 105.367C132.622 105.242 132.208 105.039 131.942 104.758C131.677 104.477 131.544 104.124 131.544 103.699C131.544 103.345 131.643 103.035 131.841 102.77C132.039 102.501 132.312 102.293 132.661 102.145C133.01 101.996 133.41 101.922 133.86 101.922C134.509 101.922 135.019 102.062 135.392 102.344C135.764 102.625 136.01 102.999 136.13 103.465ZM140.332 102V102.937H139.102V106.238C139.102 106.577 139.173 106.796 139.316 106.895C139.462 106.991 139.63 107.039 139.82 107.039C139.914 107.039 139.996 107.033 140.066 107.02C140.137 107.007 140.191 106.996 140.23 106.988L140.441 107.953C140.374 107.979 140.276 108.005 140.148 108.031C140.023 108.06 139.868 108.076 139.684 108.078C139.376 108.083 139.089 108.029 138.82 107.914C138.555 107.799 138.34 107.622 138.176 107.383C138.014 107.143 137.934 106.842 137.934 106.48V102.937H137.055V102H137.934V100.562H139.102V102H140.332ZM144.146 108.121C143.557 108.121 143.049 107.993 142.622 107.738C142.195 107.483 141.866 107.125 141.634 106.664C141.405 106.201 141.29 105.659 141.29 105.039C141.29 104.424 141.405 103.883 141.634 103.414C141.866 102.945 142.188 102.579 142.603 102.316C143.019 102.053 143.506 101.922 144.063 101.922C144.517 101.922 144.945 102.023 145.349 102.227C145.755 102.427 146.084 102.749 146.337 103.191C146.592 103.632 146.72 104.214 146.72 104.937V105.352H142.454C142.47 105.93 142.632 106.375 142.942 106.687C143.252 107 143.657 107.156 144.157 107.156C144.491 107.156 144.778 107.085 145.021 106.941C145.263 106.798 145.436 106.585 145.54 106.301L146.646 106.5C146.513 106.987 146.226 107.379 145.786 107.676C145.346 107.973 144.799 108.121 144.146 108.121ZM142.458 104.477H145.575C145.573 104.018 145.435 103.639 145.161 103.34C144.888 103.038 144.524 102.887 144.071 102.887C143.756 102.887 143.48 102.961 143.243 103.109C143.009 103.255 142.823 103.449 142.685 103.691C142.549 103.931 142.474 104.193 142.458 104.477ZM150.262 108.117C149.777 108.117 149.346 107.993 148.969 107.746C148.591 107.499 148.294 107.143 148.078 106.68C147.862 106.214 147.754 105.658 147.754 105.012C147.754 104.363 147.862 103.809 148.078 103.348C148.297 102.887 148.596 102.534 148.977 102.289C149.357 102.044 149.788 101.922 150.27 101.922C150.642 101.922 150.941 101.984 151.168 102.109C151.397 102.232 151.574 102.375 151.699 102.539C151.827 102.703 151.926 102.848 151.996 102.973H152.066V100H153.234V108H152.094V107.066H151.996C151.926 107.194 151.824 107.34 151.691 107.504C151.561 107.668 151.382 107.811 151.152 107.934C150.923 108.056 150.626 108.117 150.262 108.117ZM150.52 107.121C151.025 107.121 151.411 106.926 151.68 106.535C151.951 106.142 152.086 105.63 152.086 105C152.086 104.372 151.952 103.868 151.684 103.488C151.418 103.105 151.03 102.914 150.52 102.914C150.168 102.914 149.875 103.005 149.641 103.188C149.406 103.37 149.229 103.618 149.109 103.934C148.992 104.246 148.934 104.602 148.934 105C148.934 105.401 148.993 105.762 149.113 106.082C149.233 106.402 149.41 106.656 149.645 106.844C149.882 107.029 150.173 107.121 150.52 107.121ZM157.813 110.25V102H158.953V102.973H159.051C159.121 102.848 159.219 102.703 159.344 102.539C159.471 102.375 159.648 102.232 159.875 102.109C160.104 101.984 160.404 101.922 160.773 101.922C161.258 101.922 161.689 102.044 162.066 102.289C162.447 102.534 162.746 102.887 162.965 103.348C163.184 103.809 163.293 104.363 163.293 105.012C163.293 105.658 163.185 106.214 162.969 106.68C162.753 107.143 162.456 107.499 162.078 107.746C161.701 107.993 161.27 108.117 160.785 108.117C160.421 108.117 160.124 108.056 159.895 107.934C159.665 107.811 159.484 107.668 159.352 107.504C159.221 107.34 159.121 107.194 159.051 107.066H158.98V110.25H157.813ZM158.957 105C158.957 105.63 159.092 106.142 159.363 106.535C159.634 106.926 160.021 107.121 160.523 107.121C160.872 107.121 161.164 107.029 161.398 106.844C161.635 106.656 161.814 106.402 161.934 106.082C162.053 105.762 162.113 105.401 162.113 105C162.113 104.602 162.053 104.246 161.934 103.934C161.816 103.618 161.641 103.37 161.406 103.188C161.172 103.005 160.878 102.914 160.523 102.914C160.013 102.914 159.624 103.105 159.355 103.488C159.09 103.868 158.957 104.372 158.957 105ZM166.348 108.133C165.967 108.133 165.624 108.063 165.316 107.922C165.012 107.781 164.77 107.576 164.59 107.305C164.41 107.031 164.32 106.698 164.32 106.305C164.32 105.964 164.385 105.684 164.516 105.465C164.648 105.246 164.824 105.073 165.043 104.945C165.264 104.818 165.512 104.723 165.785 104.66C166.059 104.595 166.337 104.546 166.621 104.512C166.98 104.47 167.271 104.436 167.492 104.41C167.716 104.382 167.879 104.336 167.98 104.273C168.085 104.211 168.137 104.109 168.137 103.969V103.941C168.137 103.6 168.04 103.336 167.848 103.148C167.658 102.961 167.374 102.867 166.996 102.867C166.603 102.867 166.293 102.953 166.066 103.125C165.842 103.297 165.688 103.49 165.602 103.703L164.504 103.453C164.699 102.906 165.025 102.514 165.48 102.277C165.939 102.04 166.439 101.922 166.98 101.922C167.22 101.922 167.474 101.951 167.742 102.008C168.01 102.062 168.263 102.165 168.5 102.316C168.74 102.465 168.934 102.676 169.082 102.949C169.233 103.223 169.309 103.578 169.309 104.016V108H168.168V107.18H168.121C168.009 107.404 167.81 107.618 167.523 107.824C167.237 108.03 166.845 108.133 166.348 108.133ZM166.602 107.195C166.927 107.195 167.204 107.132 167.434 107.004C167.663 106.876 167.837 106.71 167.957 106.504C168.079 106.296 168.141 106.073 168.141 105.836V105.062C168.086 105.117 167.966 105.165 167.781 105.207C167.596 105.249 167.401 105.284 167.195 105.312C166.99 105.341 166.823 105.365 166.695 105.383C166.357 105.427 166.066 105.517 165.824 105.652C165.585 105.785 165.465 106.008 165.465 106.32C165.465 106.609 165.572 106.828 165.785 106.977C165.999 107.122 166.271 107.195 166.602 107.195ZM175.36 103.465L174.302 103.652C174.234 103.452 174.108 103.268 173.923 103.102C173.741 102.932 173.467 102.848 173.103 102.848C172.772 102.848 172.494 102.922 172.271 103.07C172.049 103.216 171.94 103.405 171.942 103.637C171.94 103.84 172.013 104.003 172.161 104.125C172.312 104.245 172.553 104.344 172.884 104.422L173.837 104.641C174.931 104.893 175.478 105.435 175.478 106.266C175.478 106.628 175.373 106.948 175.165 107.227C174.959 107.505 174.672 107.724 174.302 107.883C173.935 108.042 173.509 108.121 173.024 108.121C172.35 108.121 171.802 107.978 171.38 107.691C170.958 107.402 170.698 106.992 170.599 106.461L171.728 106.289C171.868 106.883 172.298 107.18 173.017 107.18C173.399 107.18 173.705 107.1 173.935 106.941C174.164 106.78 174.278 106.583 174.278 106.352C174.278 105.969 173.996 105.715 173.431 105.59L172.415 105.367C171.853 105.242 171.438 105.039 171.173 104.758C170.907 104.477 170.774 104.124 170.774 103.699C170.774 103.345 170.873 103.035 171.071 102.77C171.269 102.501 171.543 102.293 171.892 102.145C172.241 101.996 172.64 101.922 173.091 101.922C173.739 101.922 174.25 102.062 174.622 102.344C174.994 102.625 175.241 102.999 175.36 103.465ZM181.258 103.465L180.199 103.652C180.132 103.452 180.005 103.268 179.82 103.102C179.638 102.932 179.365 102.848 179 102.848C178.669 102.848 178.392 102.922 178.168 103.07C177.947 103.216 177.837 103.405 177.84 103.637C177.837 103.84 177.91 104.003 178.059 104.125C178.21 104.245 178.451 104.344 178.781 104.422L179.734 104.641C180.828 104.893 181.375 105.435 181.375 106.266C181.375 106.628 181.271 106.948 181.063 107.227C180.857 107.505 180.569 107.724 180.199 107.883C179.832 108.042 179.406 108.121 178.922 108.121C178.247 108.121 177.699 107.978 177.277 107.691C176.855 107.402 176.595 106.992 176.496 106.461L177.625 106.289C177.766 106.883 178.195 107.18 178.914 107.18C179.297 107.18 179.603 107.1 179.832 106.941C180.061 106.78 180.176 106.583 180.176 106.352C180.176 105.969 179.893 105.715 179.328 105.59L178.313 105.367C177.75 105.242 177.336 105.039 177.07 104.758C176.805 104.477 176.672 104.124 176.672 103.699C176.672 103.345 176.771 103.035 176.969 102.77C177.167 102.501 177.44 102.293 177.789 102.145C178.138 101.996 178.538 101.922 178.988 101.922C179.637 101.922 180.147 102.062 180.52 102.344C180.892 102.625 181.138 102.999 181.258 103.465ZM183.96 108L182.194 102H183.401L184.577 106.406H184.636L185.815 102H187.022L188.194 106.387H188.253L189.421 102H190.628L188.866 108H187.675L186.456 103.668H186.366L185.147 108H183.96ZM194.081 108.121C193.519 108.121 193.028 107.992 192.608 107.734C192.189 107.477 191.864 107.116 191.632 106.652C191.4 106.186 191.284 105.645 191.284 105.027C191.284 104.405 191.4 103.861 191.632 103.395C191.864 102.928 192.189 102.566 192.608 102.309C193.028 102.051 193.519 101.922 194.081 101.922C194.646 101.922 195.137 102.051 195.554 102.309C195.973 102.566 196.299 102.928 196.53 103.395C196.762 103.861 196.878 104.405 196.878 105.027C196.878 105.645 196.762 106.186 196.53 106.652C196.299 107.116 195.973 107.477 195.554 107.734C195.137 107.992 194.646 108.121 194.081 108.121ZM194.085 107.141C194.452 107.141 194.754 107.044 194.991 106.852C195.231 106.659 195.408 106.402 195.522 106.082C195.64 105.759 195.698 105.406 195.698 105.023C195.698 104.641 195.64 104.288 195.522 103.965C195.408 103.642 195.231 103.384 194.991 103.191C194.754 102.996 194.452 102.898 194.085 102.898C193.718 102.898 193.414 102.996 193.175 103.191C192.935 103.384 192.757 103.642 192.64 103.965C192.522 104.288 192.464 104.641 192.464 105.023C192.464 105.406 192.522 105.759 192.64 106.082C192.757 106.402 192.935 106.659 193.175 106.852C193.414 107.044 193.718 107.141 194.085 107.141ZM198.182 108V102H199.311V102.953H199.373C199.482 102.63 199.675 102.376 199.951 102.191C200.23 102.004 200.545 101.91 200.896 101.91C200.972 101.91 201.059 101.913 201.158 101.918C201.257 101.923 201.335 101.93 201.393 101.937V103.055C201.346 103.042 201.262 103.027 201.143 103.012C201.025 102.993 200.906 102.984 200.783 102.984C200.369 102.984 200.027 103.112 199.756 103.367C199.485 103.62 199.35 103.943 199.35 104.336V108H198.182ZM204.435 108.117C203.95 108.117 203.519 107.993 203.142 107.746C202.764 107.499 202.467 107.143 202.251 106.68C202.035 106.214 201.927 105.658 201.927 105.012C201.927 104.363 202.035 103.809 202.251 103.348C202.47 102.887 202.769 102.534 203.149 102.289C203.53 102.044 203.961 101.922 204.442 101.922C204.815 101.922 205.114 101.984 205.341 102.109C205.57 102.232 205.747 102.375 205.872 102.539C206 102.703 206.099 102.848 206.169 102.973H206.239V100H207.407V108H206.267V107.066H206.169C206.099 107.194 205.997 107.34 205.864 107.504C205.734 107.668 205.554 107.811 205.325 107.934C205.096 108.056 204.799 108.117 204.435 108.117ZM204.692 107.121C205.198 107.121 205.584 106.926 205.853 106.535C206.123 106.142 206.259 105.63 206.259 105C206.259 104.372 206.125 103.868 205.856 103.488C205.591 103.105 205.203 102.914 204.692 102.914C204.341 102.914 204.048 103.005 203.813 103.188C203.579 103.37 203.402 103.618 203.282 103.934C203.165 104.246 203.106 104.602 203.106 105C203.106 105.401 203.166 105.762 203.286 106.082C203.406 106.402 203.583 106.656 203.817 106.844C204.054 107.029 204.346 107.121 204.692 107.121Z" fill="#277525" fill-opacity="0.6"/>
<g filter="url(#filter1_d)">
<rect x="70" y="117" width="261" height="25" rx="2" fill="white"/>
</g>
<path d="M82.0533 124.393C82.4749 124.396 82.8888 124.473 83.2951 124.624C83.7044 124.772 84.0753 125.018 84.4077 125.363C84.7431 125.707 85.0094 126.172 85.2063 126.757C85.4064 127.338 85.5064 128.063 85.5064 128.931C85.5064 130.033 85.3602 130.972 85.0678 131.747C84.7785 132.523 84.3661 133.114 83.8306 133.52C83.2982 133.926 82.6657 134.129 81.9332 134.129C81.37 134.129 80.8699 134.018 80.4329 133.797C79.9959 133.572 79.6404 133.264 79.3665 132.874C79.0956 132.48 78.9248 132.029 78.854 131.521H80.2621C80.3544 131.924 80.5421 132.252 80.8253 132.504C81.1115 132.757 81.4808 132.883 81.9332 132.883C82.6257 132.883 83.1658 132.581 83.5536 131.978C83.9414 131.372 84.1368 130.525 84.1399 129.439H84.0661C83.8229 129.836 83.4967 130.15 83.0874 130.381C82.678 130.608 82.2225 130.722 81.7209 130.722C81.1761 130.722 80.6806 130.588 80.2344 130.321C79.7881 130.053 79.4326 129.685 79.168 129.217C78.9033 128.75 78.771 128.214 78.771 127.611C78.771 127.008 78.9064 126.463 79.1772 125.977C79.448 125.487 79.8297 125.099 80.3221 124.813C80.8145 124.527 81.3916 124.387 82.0533 124.393ZM82.0579 125.593C81.6978 125.593 81.3731 125.683 81.0838 125.861C80.7976 126.04 80.5714 126.28 80.4052 126.581C80.239 126.883 80.1559 127.22 80.1559 127.592C80.1559 127.959 80.2359 128.291 80.396 128.589C80.5591 128.885 80.7822 129.12 81.0653 129.296C81.3485 129.471 81.6701 129.559 82.0302 129.559C82.3903 129.559 82.7165 129.468 83.0089 129.287C83.3013 129.102 83.5321 128.859 83.7013 128.557C83.8737 128.256 83.9599 127.929 83.9599 127.578C83.9599 127.225 83.8768 126.898 83.7106 126.6C83.5475 126.298 83.3228 126.055 83.0366 125.87C82.7504 125.686 82.4241 125.593 82.0579 125.593ZM87.3034 134V124.545H88.6837V128.059H88.7668C88.8499 127.911 88.9653 127.74 89.113 127.546C89.2638 127.352 89.4731 127.183 89.7409 127.038C90.0117 126.891 90.3656 126.817 90.8026 126.817C91.3751 126.817 91.8844 126.961 92.3307 127.251C92.78 127.54 93.134 127.957 93.3925 128.502C93.651 129.047 93.7803 129.702 93.7803 130.468C93.7803 131.232 93.6526 131.889 93.3971 132.44C93.1417 132.987 92.7908 133.408 92.3445 133.7C91.8983 133.992 91.3889 134.138 90.8165 134.138C90.3856 134.138 90.0348 134.066 89.7639 133.922C89.4931 133.777 89.2792 133.608 89.1222 133.414C88.9684 133.22 88.8499 133.047 88.7668 132.897H88.6514V134H87.3034ZM88.656 130.455C88.656 131.199 88.816 131.804 89.1361 132.269C89.4562 132.73 89.9132 132.961 90.5072 132.961C90.9196 132.961 91.2643 132.852 91.5413 132.634C91.8213 132.412 92.0322 132.112 92.1737 131.733C92.3153 131.355 92.3861 130.929 92.3861 130.455C92.3861 129.984 92.3153 129.564 92.1737 129.194C92.0352 128.822 91.8275 128.528 91.5505 128.312C91.2735 128.097 90.9258 127.989 90.5072 127.989C89.904 127.989 89.4439 128.216 89.1269 128.668C88.8129 129.117 88.656 129.713 88.656 130.455ZM98.6033 134.157C97.5108 134.154 96.6598 133.726 96.0504 132.874C95.4411 132.021 95.1364 130.822 95.1364 129.277C95.1394 127.739 95.4472 126.544 96.0597 125.695C96.6721 124.842 97.52 124.416 98.6033 124.416C99.6867 124.416 100.535 124.842 101.147 125.695C101.759 126.544 102.066 127.739 102.066 129.277C102.066 130.825 101.761 132.026 101.152 132.878C100.545 133.731 99.6959 134.157 98.6033 134.157ZM98.6033 132.924C99.2404 132.924 99.7405 132.612 100.104 131.987C100.467 131.362 100.648 130.459 100.648 129.277C100.648 128.099 100.465 127.195 100.099 126.567C99.7359 125.94 99.2373 125.626 98.6033 125.626C97.9663 125.626 97.4661 125.94 97.103 126.567C96.7398 127.195 96.5567 128.099 96.5536 129.277C96.5536 130.459 96.7352 131.362 97.0984 131.987C97.4615 132.612 97.9632 132.924 98.6033 132.924ZM103.768 134L107.895 125.838V125.769H103.122V124.545H109.372V125.81L105.259 134H103.768ZM110.018 132.153V130.999L114.103 124.545H115.862V130.944H117.113V132.153H115.862V134H114.5V132.153H110.018ZM114.509 130.944V126.244H114.436L111.513 130.87V130.944H114.509ZM122.115 126.909V128.017H120.587V134H119.202V128.017H118.108V126.909H119.202V126.087C119.202 125.644 119.299 125.276 119.493 124.984C119.69 124.689 119.948 124.469 120.268 124.324C120.589 124.176 120.935 124.102 121.307 124.102C121.587 124.102 121.826 124.125 122.023 124.172C122.22 124.215 122.366 124.255 122.461 124.292L122.138 125.409C122.074 125.387 121.99 125.364 121.889 125.339C121.787 125.315 121.664 125.303 121.52 125.303C121.184 125.303 120.944 125.386 120.799 125.552C120.658 125.718 120.587 125.958 120.587 126.272V126.909H122.115ZM123.521 134V132.966L126.72 129.651C127.059 129.291 127.34 128.976 127.565 128.705C127.789 128.431 127.957 128.171 128.068 127.925C128.179 127.679 128.234 127.417 128.234 127.14C128.234 126.669 128.073 126.297 127.749 126.023C127.426 125.746 127.025 125.607 126.545 125.607C126.034 125.607 125.626 125.761 125.321 126.069C125.02 126.374 124.87 126.78 124.873 127.288H123.512C123.512 126.712 123.644 126.209 123.909 125.778C124.173 125.347 124.536 125.013 124.998 124.776C125.46 124.536 125.984 124.416 126.572 124.416C127.166 124.416 127.689 124.535 128.142 124.772C128.597 125.006 128.953 125.326 129.208 125.732C129.464 126.135 129.591 126.591 129.591 127.098C129.591 127.449 129.525 127.792 129.393 128.128C129.264 128.463 129.037 128.837 128.714 129.25C128.394 129.659 127.945 130.156 127.366 130.741L125.487 132.707V132.777H129.744V134H123.521ZM137.68 136.659V126.909H136.331V128.059H136.216C136.133 127.911 136.016 127.74 135.865 127.546C135.718 127.352 135.508 127.183 135.237 127.038C134.97 126.891 134.617 126.817 134.18 126.817C133.608 126.817 133.097 126.961 132.648 127.251C132.201 127.54 131.849 127.957 131.59 128.502C131.332 129.047 131.203 129.702 131.203 130.468C131.203 131.232 131.33 131.889 131.586 132.44C131.841 132.987 132.192 133.408 132.638 133.7C133.085 133.992 133.594 134.138 134.166 134.138C134.597 134.138 134.948 134.066 135.219 133.922C135.49 133.777 135.702 133.608 135.856 133.414C136.013 133.22 136.133 133.047 136.216 132.897H136.299V136.659H137.68ZM136.327 130.455C136.327 131.199 136.167 131.804 135.847 132.269C135.527 132.73 135.07 132.961 134.476 132.961C134.063 132.961 133.717 132.852 133.437 132.634C133.16 132.412 132.951 132.112 132.809 131.733C132.668 131.355 132.597 130.929 132.597 130.455C132.597 129.984 132.666 129.564 132.805 129.194C132.946 128.822 133.155 128.528 133.432 128.312C133.709 128.097 134.057 127.989 134.476 127.989C135.079 127.989 135.537 128.216 135.851 128.668C136.168 129.117 136.327 129.713 136.327 130.455ZM139.517 134V132.966L142.716 129.651C143.055 129.291 143.336 128.976 143.561 128.705C143.786 128.431 143.953 128.171 144.064 127.925C144.175 127.679 144.23 127.417 144.23 127.14C144.23 126.669 144.069 126.297 143.746 126.023C143.422 125.746 143.021 125.607 142.541 125.607C142.03 125.607 141.622 125.761 141.317 126.069C141.016 126.374 140.866 126.78 140.869 127.288H139.508C139.508 126.712 139.64 126.209 139.905 125.778C140.169 125.347 140.532 125.013 140.994 124.776C141.456 124.536 141.981 124.416 142.568 124.416C143.162 124.416 143.686 124.535 144.138 124.772C144.593 125.006 144.949 125.326 145.204 125.732C145.46 126.135 145.588 126.591 145.588 127.098C145.588 127.449 145.521 127.792 145.389 128.128C145.26 128.463 145.034 128.837 144.71 129.25C144.39 129.659 143.941 130.156 143.362 130.741L141.483 132.707V132.777H145.74V134H139.517ZM149.47 129.864L149.558 127.915L147.914 128.973L147.411 128.096L149.156 127.205L147.411 126.314L147.914 125.436L149.558 126.494L149.47 124.545H150.472L150.384 126.494L152.028 125.436L152.531 126.314L150.786 127.205L152.531 128.096L152.028 128.973L150.384 127.915L150.472 129.864H149.47ZM156.594 134.134C155.96 134.134 155.414 134.02 154.956 133.792C154.5 133.561 154.149 133.246 153.903 132.846C153.657 132.446 153.534 131.993 153.534 131.489C153.534 130.925 153.701 130.45 154.037 130.062C154.372 129.671 154.809 129.29 155.348 128.917C155.049 128.554 154.802 128.196 154.605 127.842C154.408 127.488 154.309 127.1 154.309 126.678C154.309 126.241 154.408 125.855 154.605 125.52C154.805 125.184 155.083 124.921 155.44 124.73C155.797 124.539 156.216 124.444 156.696 124.444C157.182 124.444 157.599 124.539 157.947 124.73C158.298 124.918 158.567 125.169 158.755 125.483C158.946 125.793 159.041 126.134 159.041 126.503C159.041 126.952 158.93 127.349 158.709 127.694C158.487 128.036 158.179 128.349 157.785 128.636L157.139 129.111L159.032 131.373C159.155 131.136 159.25 130.879 159.318 130.602C159.389 130.322 159.424 130.024 159.424 129.707H160.671C160.671 130.362 160.589 130.907 160.426 131.341C160.266 131.775 160.086 132.126 159.886 132.393L161.229 134H159.669L159.032 133.252C158.712 133.551 158.332 133.772 157.892 133.917C157.451 134.062 157.019 134.134 156.594 134.134ZM158.256 132.338L156.137 129.85L155.888 130.034C155.519 130.305 155.262 130.573 155.117 130.838C154.976 131.102 154.905 131.307 154.905 131.452C154.905 131.861 155.059 132.217 155.366 132.518C155.677 132.817 156.088 132.966 156.599 132.966C157.199 132.966 157.752 132.757 158.256 132.338ZM156.377 128.192L156.959 127.782C157.215 127.612 157.415 127.434 157.559 127.246C157.707 127.055 157.781 126.82 157.781 126.54C157.781 126.318 157.685 126.106 157.495 125.903C157.304 125.7 157.048 125.598 156.728 125.598C156.396 125.598 156.127 125.713 155.92 125.944C155.714 126.175 155.611 126.427 155.611 126.701C155.611 126.941 155.685 127.185 155.833 127.431C155.98 127.674 156.162 127.928 156.377 128.192ZM162.712 129.273C162.712 128.116 162.865 127.051 163.169 126.078C163.474 125.106 163.919 124.208 164.504 123.387H165.768C165.467 123.793 165.193 124.318 164.947 124.961C164.701 125.604 164.505 126.301 164.36 127.052C164.216 127.8 164.143 128.54 164.143 129.273C164.143 130.005 164.216 130.747 164.36 131.498C164.505 132.249 164.701 132.946 164.947 133.589C165.193 134.232 165.467 134.757 165.768 135.163H164.504C163.919 134.342 163.474 133.444 163.169 132.472C162.865 131.496 162.712 130.43 162.712 129.273ZM169.186 129.864L169.274 127.915L167.63 128.973L167.127 128.096L168.872 127.205L167.127 126.314L167.63 125.436L169.274 126.494L169.186 124.545H170.188L170.1 126.494L171.743 125.436L172.247 126.314L170.502 127.205L172.247 128.096L171.743 128.973L170.1 127.915L170.188 129.864H169.186ZM176.31 134.134C175.676 134.134 175.13 134.02 174.671 133.792C174.216 133.561 173.865 133.246 173.619 132.846C173.373 132.446 173.249 131.993 173.249 131.489C173.249 130.925 173.417 130.45 173.753 130.062C174.088 129.671 174.525 129.29 175.064 128.917C174.765 128.554 174.517 128.196 174.32 127.842C174.124 127.488 174.025 127.1 174.025 126.678C174.025 126.241 174.124 125.855 174.32 125.52C174.521 125.184 174.799 124.921 175.156 124.73C175.513 124.539 175.932 124.444 176.412 124.444C176.898 124.444 177.315 124.539 177.663 124.73C178.014 124.918 178.283 125.169 178.471 125.483C178.662 125.793 178.757 126.134 178.757 126.503C178.757 126.952 178.646 127.349 178.425 127.694C178.203 128.036 177.895 128.349 177.501 128.636L176.855 129.111L178.748 131.373C178.871 131.136 178.966 130.879 179.034 130.602C179.105 130.322 179.14 130.024 179.14 129.707H180.387C180.387 130.362 180.305 130.907 180.142 131.341C179.982 131.775 179.802 132.126 179.602 132.393L180.945 134H179.385L178.748 133.252C178.428 133.551 178.048 133.772 177.607 133.917C177.167 134.062 176.735 134.134 176.31 134.134ZM177.972 132.338L175.853 129.85L175.604 130.034C175.235 130.305 174.978 130.573 174.833 130.838C174.691 131.102 174.621 131.307 174.621 131.452C174.621 131.861 174.774 132.217 175.082 132.518C175.393 132.817 175.804 132.966 176.315 132.966C176.915 132.966 177.467 132.757 177.972 132.338ZM176.093 128.192L176.675 127.782C176.93 127.612 177.13 127.434 177.275 127.246C177.423 127.055 177.497 126.82 177.497 126.54C177.497 126.318 177.401 126.106 177.21 125.903C177.02 125.7 176.764 125.598 176.444 125.598C176.112 125.598 175.842 125.713 175.636 125.944C175.43 126.175 175.327 126.427 175.327 126.701C175.327 126.941 175.401 127.185 175.548 127.431C175.696 127.674 175.878 127.928 176.093 128.192ZM188.434 134H181.971V132.772H182.419C182.588 132.763 182.716 132.678 182.802 132.518C182.891 132.358 182.951 132.17 182.982 131.955C183.013 131.736 183.025 131.539 183.019 131.364L182.982 130.298H181.939V129.07H182.941L182.885 127.343C182.864 126.697 182.985 126.157 183.25 125.723C183.515 125.289 183.869 124.962 184.312 124.744C184.755 124.525 185.232 124.416 185.743 124.416C186.349 124.416 186.874 124.547 187.317 124.809C187.763 125.067 188.093 125.407 188.305 125.829C188.52 126.25 188.585 126.706 188.499 127.195L187.165 126.983C187.195 126.681 187.148 126.431 187.022 126.23C186.895 126.03 186.722 125.88 186.5 125.778C186.281 125.676 186.046 125.626 185.794 125.626C185.532 125.626 185.284 125.687 185.05 125.81C184.816 125.93 184.626 126.118 184.478 126.374C184.33 126.626 184.256 126.949 184.256 127.343L184.321 129.07H186.495V130.298H184.367L184.404 131.327C184.416 131.616 184.393 131.884 184.335 132.13C184.279 132.373 184.178 132.587 184.03 132.772H188.434V134ZM194.146 134L198.273 125.838V125.769H193.5V124.545H199.75V125.81L195.637 134H194.146ZM207.542 136.659V126.909H206.194V128.059H206.078C205.995 127.911 205.878 127.74 205.728 127.546C205.58 127.352 205.371 127.183 205.1 127.038C204.832 126.891 204.48 126.817 204.043 126.817C203.47 126.817 202.959 126.961 202.51 127.251C202.064 127.54 201.711 127.957 201.453 128.502C201.194 129.047 201.065 129.702 201.065 130.468C201.065 131.232 201.193 131.889 201.448 132.44C201.704 132.987 202.054 133.408 202.501 133.7C202.947 133.992 203.456 134.138 204.029 134.138C204.46 134.138 204.81 134.066 205.081 133.922C205.352 133.777 205.564 133.608 205.718 133.414C205.875 133.22 205.995 133.047 206.078 132.897H206.161V136.659H207.542ZM206.189 130.455C206.189 131.199 206.029 131.804 205.709 132.269C205.389 132.73 204.932 132.961 204.338 132.961C203.926 132.961 203.579 132.852 203.299 132.634C203.022 132.412 202.813 132.112 202.671 131.733C202.53 131.355 202.459 130.929 202.459 130.455C202.459 129.984 202.528 129.564 202.667 129.194C202.808 128.822 203.018 128.528 203.295 128.312C203.572 128.097 203.919 127.989 204.338 127.989C204.941 127.989 205.4 128.216 205.714 128.668C206.031 129.117 206.189 129.713 206.189 130.455ZM212.454 134.143C211.758 134.143 211.158 133.992 210.653 133.691C210.149 133.389 209.759 132.966 209.485 132.421C209.215 131.873 209.079 131.233 209.079 130.501C209.079 129.774 209.215 129.134 209.485 128.58C209.759 128.026 210.141 127.594 210.63 127.283C211.123 126.972 211.698 126.817 212.357 126.817C212.892 126.817 213.399 126.937 213.876 127.177C214.356 127.414 214.745 127.794 215.044 128.317C215.345 128.837 215.496 129.525 215.496 130.381V130.87H210.455C210.473 131.553 210.666 132.08 211.032 132.449C211.398 132.818 211.877 133.003 212.468 133.003C212.862 133.003 213.202 132.918 213.488 132.749C213.774 132.58 213.979 132.327 214.102 131.992L215.408 132.227C215.251 132.803 214.913 133.266 214.393 133.617C213.873 133.968 213.226 134.143 212.454 134.143ZM210.459 129.836H214.143C214.14 129.294 213.977 128.846 213.654 128.493C213.331 128.136 212.902 127.957 212.366 127.957C211.994 127.957 211.667 128.045 211.387 128.22C211.11 128.393 210.89 128.622 210.727 128.908C210.567 129.191 210.478 129.5 210.459 129.836ZM220.014 134.143C219.328 134.143 218.737 133.988 218.242 133.677C217.749 133.363 217.371 132.931 217.106 132.38C216.841 131.829 216.709 131.198 216.709 130.487C216.709 129.764 216.844 129.127 217.115 128.576C217.386 128.025 217.768 127.594 218.26 127.283C218.756 126.972 219.336 126.817 220.001 126.817C220.539 126.817 221.019 126.917 221.441 127.117C221.863 127.314 222.203 127.591 222.461 127.948C222.723 128.305 222.878 128.722 222.927 129.199H221.584C221.51 128.866 221.341 128.58 221.076 128.34C220.815 128.1 220.464 127.98 220.024 127.98C219.448 127.98 218.983 128.203 218.629 128.65C218.279 129.093 218.103 129.694 218.103 130.455C218.103 131.227 218.277 131.841 218.625 132.297C218.973 132.749 219.439 132.975 220.024 132.975C220.418 132.975 220.755 132.867 221.035 132.652C221.315 132.437 221.498 132.138 221.584 131.756H222.927C222.878 132.215 222.729 132.624 222.48 132.984C222.23 133.344 221.896 133.628 221.478 133.834C221.062 134.04 220.575 134.143 220.014 134.143ZM225.941 134L223.854 126.909H225.281L226.67 132.116H226.739L228.134 126.909H229.56L230.945 132.093H231.014L232.395 126.909H233.821L231.739 134H230.331L228.891 128.88H228.785L227.344 134H225.941ZM238.256 124.393C238.678 124.396 239.092 124.473 239.498 124.624C239.908 124.772 240.278 125.018 240.611 125.363C240.946 125.707 241.212 126.172 241.409 126.757C241.609 127.338 241.71 128.063 241.71 128.931C241.71 130.033 241.563 130.972 241.271 131.747C240.982 132.523 240.569 133.114 240.034 133.52C239.501 133.926 238.869 134.129 238.136 134.129C237.573 134.129 237.073 134.018 236.636 133.797C236.199 133.572 235.844 133.264 235.57 132.874C235.299 132.48 235.128 132.029 235.057 131.521H236.465C236.558 131.924 236.745 132.252 237.028 132.504C237.315 132.757 237.684 132.883 238.136 132.883C238.829 132.883 239.369 132.581 239.757 131.978C240.145 131.372 240.34 130.525 240.343 129.439H240.269C240.026 129.836 239.7 130.15 239.29 130.381C238.881 130.608 238.426 130.722 237.924 130.722C237.379 130.722 236.884 130.588 236.438 130.321C235.991 130.053 235.636 129.685 235.371 129.217C235.106 128.75 234.974 128.214 234.974 127.611C234.974 127.008 235.109 126.463 235.38 125.977C235.651 125.487 236.033 125.099 236.525 124.813C237.018 124.527 237.595 124.387 238.256 124.393ZM238.261 125.593C237.901 125.593 237.576 125.683 237.287 125.861C237.001 126.04 236.775 126.28 236.608 126.581C236.442 126.883 236.359 127.22 236.359 127.592C236.359 127.959 236.439 128.291 236.599 128.589C236.762 128.885 236.985 129.12 237.268 129.296C237.552 129.471 237.873 129.559 238.233 129.559C238.593 129.559 238.92 129.468 239.212 129.287C239.504 129.102 239.735 128.859 239.904 128.557C240.077 128.256 240.163 127.929 240.163 127.578C240.163 127.225 240.08 126.898 239.914 126.6C239.751 126.298 239.526 126.055 239.24 125.87C238.953 125.686 238.627 125.593 238.261 125.593ZM245.358 129.864L245.445 127.915L243.802 128.973L243.299 128.096L245.044 127.205L243.299 126.314L243.802 125.436L245.445 126.494L245.358 124.545H246.359L246.272 126.494L247.915 125.436L248.418 126.314L246.673 127.205L248.418 128.096L247.915 128.973L246.272 127.915L246.359 129.864H245.358ZM250.577 130.076C250.577 128.919 250.729 127.854 251.034 126.881C251.338 125.909 251.783 125.012 252.368 124.19H253.633C253.331 124.596 253.057 125.121 252.811 125.764C252.565 126.407 252.369 127.105 252.225 127.855C252.08 128.603 252.008 129.344 252.008 130.076C252.008 130.808 252.08 131.55 252.225 132.301C252.369 133.052 252.565 133.749 252.811 134.392C253.057 135.036 253.331 135.56 253.633 135.967H252.368C251.783 135.145 251.338 134.248 251.034 133.275C250.729 132.3 250.577 131.233 250.577 130.076Z" fill="#737373"/>
<rect x="296" y="119" width="33" height="21" rx="1.5" fill="#9DAF9D"/>
<path d="M309.25 124.5V122.25C309.25 122.051 309.329 121.86 309.47 121.72C309.61 121.579 309.801 121.5 310 121.5H319C319.199 121.5 319.39 121.579 319.53 121.72C319.671 121.86 319.75 122.051 319.75 122.25V132.75C319.75 132.949 319.671 133.14 319.53 133.28C319.39 133.421 319.199 133.5 319 133.5H316.75V135.75C316.75 136.164 316.413 136.5 315.995 136.5H307.005C306.906 136.501 306.808 136.482 306.717 136.444C306.625 136.407 306.542 136.352 306.472 136.282C306.402 136.212 306.346 136.129 306.308 136.038C306.27 135.947 306.25 135.849 306.25 135.75L306.252 125.25C306.252 124.836 306.59 124.5 307.008 124.5H309.25ZM310.75 124.5H316.75V132H318.25V123H310.75V124.5ZM309.25 128.25V129.75H313.75V128.25H309.25ZM309.25 131.25V132.75H313.75V131.25H309.25Z" fill="white"/>
<defs>
<filter id="filter0_d" x="45" y="79" width="310" height="110.356" filterUnits="userSpaceOnUse" color-interpolation-filters="sRGB">
<feFlood flood-opacity="0" result="BackgroundImageFix"/>
<feColorMatrix in="SourceAlpha" type="matrix" values="0 0 0 0 0 0 0 0 0 0 0 0 0 0 0 0 0 0 127 0"/>
<feOffset dy="3"/>
<feGaussianBlur stdDeviation="7.5"/>
<feColorMatrix type="matrix" values="0 0 0 0 0 0 0 0 0 0 0 0 0 0 0 0 0 0 0.63 0"/>
<feBlend mode="normal" in2="BackgroundImageFix" result="effect1_dropShadow"/>
<feBlend mode="normal" in="SourceGraphic" in2="effect1_dropShadow" result="shape"/>
</filter>
<filter id="filter1_d" x="65" y="114" width="271" height="35" filterUnits="userSpaceOnUse" color-interpolation-filters="sRGB">
<feFlood flood-opacity="0" result="BackgroundImageFix"/>
<feColorMatrix in="SourceAlpha" type="matrix" values="0 0 0 0 0 0 0 0 0 0 0 0 0 0 0 0 0 0 127 0"/>
<feOffset dy="2"/>
<feGaussianBlur stdDeviation="2.5"/>
<feColorMatrix type="matrix" values="0 0 0 0 0.327469 0 0 0 0 0.525 0 0 0 0 0.295312 0 0 0 0.25 0"/>
<feBlend mode="normal" in2="BackgroundImageFix" result="effect1_dropShadow"/>
<feBlend mode="normal" in="SourceGraphic" in2="effect1_dropShadow" result="shape"/>
</filter>
<linearGradient id="paint0_linear" x1="200" y1="91" x2="200" y2="171.356" gradientUnits="userSpaceOnUse">
<stop stop-color="#D1F9D0"/>
<stop offset="1" stop-color="#96DD94"/>
</linearGradient>
</defs>
</svg>
