<svg width="307" height="250" viewBox="0 0 307 250" fill="none" xmlns="http://www.w3.org/2000/svg">
<rect x="12" y="4" width="283" height="35" rx="3" fill="white"/>
<rect x="10.25" y="2.25" width="286.5" height="38.5" rx="4.75" stroke="#65BEFF" stroke-opacity="0.6" stroke-width="3.5"/>
<g filter="url(#filter0_d)">
<rect x="8" y="63" width="291" height="177" rx="8" fill="#F7F7F7"/>
</g>
<rect x="17.35" y="94.35" width="272.3" height="134.3" rx="5.65" fill="white" fill-opacity="0.78" stroke="#D8D8D8" stroke-width="0.7"/>
<line x1="17" y1="139.65" x2="290" y2="139.65" stroke="#D8D8D8" stroke-width="0.7"/>
<line x1="17" y1="183.65" x2="290" y2="183.65" stroke="#D8D8D8" stroke-width="0.7"/>
<path d="M29.5284 106.406V105.273H36.2827V106.406H33.5597V114H32.2472V106.406H29.5284ZM37.6729 114V107.455H38.9471V114H37.6729ZM38.3164 106.445C38.0948 106.445 37.9045 106.371 37.7454 106.223C37.5891 106.072 37.511 105.893 37.511 105.686C37.511 105.476 37.5891 105.297 37.7454 105.149C37.9045 104.999 38.0948 104.923 38.3164 104.923C38.5352 104.923 38.7241 104.999 38.8832 105.149C39.0423 105.297 39.1218 105.476 39.1218 105.686C39.1218 105.893 39.0423 106.072 38.8832 106.223C38.7241 106.371 38.5352 106.445 38.3164 106.445ZM40.6612 114V107.455H41.8842V108.52H41.9652C42.1016 108.159 42.3246 107.878 42.6342 107.676C42.9439 107.472 43.3146 107.369 43.7464 107.369C44.1839 107.369 44.5504 107.472 44.8459 107.676C45.1442 107.881 45.3643 108.162 45.5064 108.52H45.5746C45.7337 108.17 45.9822 107.892 46.3203 107.685C46.6612 107.474 47.0675 107.369 47.5391 107.369C48.1328 107.369 48.6172 107.557 48.9922 107.932C49.37 108.304 49.5589 108.864 49.5589 109.611V114H48.2848V109.73C48.2848 109.287 48.1641 108.966 47.9226 108.767C47.6839 108.568 47.3956 108.469 47.0575 108.469C46.6428 108.469 46.3203 108.597 46.0902 108.852C45.8601 109.108 45.745 109.433 45.745 109.828V114H44.4751V109.649C44.4751 109.294 44.3643 109.009 44.1428 108.793C43.9212 108.577 43.6328 108.469 43.2777 108.469C42.9169 108.469 42.603 108.608 42.3359 108.886C42.0689 109.165 41.9354 109.524 41.9354 109.964V114H40.6612ZM54.0877 114.132C53.4457 114.132 52.8917 113.993 52.4258 113.714C51.9599 113.436 51.6005 113.045 51.3477 112.543C51.0977 112.037 50.9727 111.446 50.9727 110.77C50.9727 110.099 51.0977 109.509 51.3477 108.997C51.6005 108.486 51.9528 108.087 52.4045 107.8C52.859 107.513 53.3903 107.369 53.9982 107.369C54.4925 107.369 54.9599 107.48 55.4002 107.702C55.8434 107.92 56.2028 108.271 56.4783 108.754C56.7567 109.234 56.896 109.869 56.896 110.659V111.111H52.2425C52.2596 111.741 52.4371 112.227 52.7752 112.568C53.1133 112.909 53.555 113.08 54.1005 113.08C54.4641 113.08 54.7781 113.001 55.0423 112.845C55.3065 112.689 55.4954 112.456 55.609 112.146L56.815 112.364C56.6701 112.895 56.3576 113.322 55.8775 113.646C55.3974 113.97 54.8008 114.132 54.0877 114.132ZM52.2468 110.156H55.6474C55.6445 109.656 55.494 109.243 55.1957 108.916C54.8974 108.587 54.5011 108.422 54.0067 108.422C53.663 108.422 53.3619 108.503 53.1033 108.665C52.8477 108.824 52.6445 109.036 52.494 109.3C52.3462 109.561 52.2638 109.847 52.2468 110.156ZM64.5408 107.455V108.477H63.1985V112.078C63.1985 112.447 63.2766 112.686 63.4329 112.794C63.592 112.899 63.7752 112.952 63.9826 112.952C64.0849 112.952 64.1744 112.945 64.2511 112.93C64.3278 112.916 64.3874 112.905 64.43 112.896L64.6602 113.949C64.5863 113.977 64.4798 114.006 64.3406 114.034C64.2042 114.065 64.0352 114.082 63.8335 114.085C63.4982 114.091 63.1843 114.031 62.8917 113.906C62.6019 113.781 62.3675 113.588 62.1886 113.327C62.0124 113.065 61.9244 112.737 61.9244 112.342V108.477H60.9656V107.455H61.9244V105.886H63.1985V107.455H64.5408ZM68.6371 114.132C68.0234 114.132 67.4879 113.991 67.0305 113.71C66.5732 113.429 66.218 113.036 65.9652 112.53C65.7124 112.021 65.5859 111.43 65.5859 110.757C65.5859 110.078 65.7124 109.484 65.9652 108.976C66.218 108.467 66.5732 108.072 67.0305 107.791C67.4879 107.51 68.0234 107.369 68.6371 107.369C69.2536 107.369 69.7891 107.51 70.2436 107.791C70.701 108.072 71.0561 108.467 71.3089 108.976C71.5618 109.484 71.6882 110.078 71.6882 110.757C71.6882 111.43 71.5618 112.021 71.3089 112.53C71.0561 113.036 70.701 113.429 70.2436 113.71C69.7891 113.991 69.2536 114.132 68.6371 114.132ZM68.6413 113.062C69.0419 113.062 69.3714 112.957 69.63 112.747C69.8913 112.537 70.0845 112.257 70.2095 111.908C70.3374 111.555 70.4013 111.17 70.4013 110.753C70.4013 110.335 70.3374 109.95 70.2095 109.598C70.0845 109.246 69.8913 108.964 69.63 108.754C69.3714 108.541 69.0419 108.435 68.6413 108.435C68.2408 108.435 67.9098 108.541 67.6484 108.754C67.3871 108.964 67.1925 109.246 67.0646 109.598C66.9368 109.95 66.8729 110.335 66.8729 110.753C66.8729 111.17 66.9368 111.555 67.0646 111.908C67.1925 112.257 67.3871 112.537 67.6484 112.747C67.9098 112.957 68.2408 113.062 68.6413 113.062ZM79.0433 114.132C78.4098 114.132 77.8643 113.989 77.407 113.702C76.9524 113.412 76.603 113.013 76.3587 112.504C76.1143 111.996 75.9922 111.413 75.9922 110.757C75.9922 110.089 76.1172 109.501 76.3672 108.993C76.6172 108.484 76.9695 108.087 77.424 107.8C77.8814 107.513 78.4169 107.369 79.0305 107.369C79.5277 107.369 79.9709 107.462 80.3601 107.646C80.7493 107.828 81.0632 108.084 81.3018 108.413C81.5433 108.743 81.6868 109.128 81.7322 109.568H80.4922C80.424 109.261 80.2678 108.997 80.0234 108.776C79.782 108.554 79.4581 108.443 79.0518 108.443C78.5206 108.443 78.0916 108.649 77.7649 109.061C77.4411 109.47 77.2791 110.026 77.2791 110.727C77.2791 111.44 77.4396 112.007 77.7607 112.428C78.0817 112.845 78.5121 113.054 79.0518 113.054C79.4155 113.054 79.7266 112.955 79.9851 112.756C80.2436 112.557 80.4126 112.281 80.4922 111.929H81.7322C81.6868 112.352 81.549 112.73 81.3189 113.062C81.0888 113.395 80.7805 113.656 80.3942 113.847C80.0107 114.037 79.5604 114.132 79.0433 114.132ZM83.0948 114V107.455H84.3263V108.494H84.3945C84.5138 108.142 84.7241 107.865 85.0252 107.663C85.3292 107.459 85.6729 107.357 86.0565 107.357C86.1388 107.357 86.234 107.359 86.342 107.365C86.4499 107.371 86.5352 107.378 86.5977 107.386V108.605C86.5465 108.591 86.4556 108.575 86.3249 108.558C86.1971 108.538 86.0664 108.528 85.9329 108.528C85.4812 108.528 85.1076 108.668 84.8121 108.946C84.5167 109.222 84.369 109.574 84.369 110.003V114H83.0948ZM89.5465 114.145C89.1317 114.145 88.7567 114.068 88.4215 113.915C88.0891 113.761 87.8249 113.537 87.6289 113.241C87.4329 112.943 87.3349 112.58 87.3349 112.151C87.3349 111.778 87.4059 111.473 87.5479 111.234C87.6928 110.996 87.8846 110.807 88.1232 110.668C88.3647 110.528 88.6346 110.425 88.9329 110.357C89.2312 110.286 89.5352 110.232 89.8448 110.195C90.2369 110.149 90.5536 110.112 90.7951 110.084C91.0394 110.053 91.217 110.003 91.3278 109.935C91.4414 109.866 91.4982 109.756 91.4982 109.602V109.572C91.4982 109.2 91.3931 108.912 91.1829 108.707C90.9755 108.503 90.6658 108.401 90.2539 108.401C89.8249 108.401 89.4869 108.494 89.2397 108.682C88.9954 108.869 88.8263 109.08 88.7326 109.312L87.5352 109.04C87.7482 108.443 88.1033 108.016 88.6005 107.757C89.1005 107.499 89.646 107.369 90.2369 107.369C90.4982 107.369 90.7752 107.401 91.0678 107.463C91.3604 107.523 91.636 107.635 91.8945 107.8C92.1559 107.962 92.3675 108.192 92.5295 108.49C92.6942 108.788 92.7766 109.176 92.7766 109.653V114H91.5323V113.105H91.4812C91.359 113.349 91.1417 113.584 90.8292 113.808C90.5167 114.033 90.0891 114.145 89.5465 114.145ZM89.8235 113.122C90.1786 113.122 90.4812 113.053 90.7312 112.913C90.9812 112.774 91.1715 112.592 91.3022 112.368C91.4357 112.141 91.5025 111.898 91.5025 111.639V110.795C91.4428 110.855 91.3121 110.908 91.1104 110.953C90.9087 110.999 90.6957 111.037 90.4712 111.068C90.2468 111.099 90.065 111.125 89.9258 111.145C89.5565 111.193 89.2397 111.291 88.9755 111.439C88.7141 111.584 88.5835 111.827 88.5835 112.168C88.5835 112.483 88.6999 112.722 88.9329 112.884C89.1658 113.043 89.4627 113.122 89.8235 113.122ZM97.2308 114.132C96.5973 114.132 96.0518 113.989 95.5945 113.702C95.1399 113.412 94.7905 113.013 94.5462 112.504C94.3018 111.996 94.1797 111.413 94.1797 110.757C94.1797 110.089 94.3047 109.501 94.5547 108.993C94.8047 108.484 95.157 108.087 95.6115 107.8C96.0689 107.513 96.6044 107.369 97.218 107.369C97.7152 107.369 98.1584 107.462 98.5476 107.646C98.9368 107.828 99.2507 108.084 99.4893 108.413C99.7308 108.743 99.8743 109.128 99.9197 109.568H98.6797C98.6115 109.261 98.4553 108.997 98.2109 108.776C97.9695 108.554 97.6456 108.443 97.2393 108.443C96.7081 108.443 96.2791 108.649 95.9524 109.061C95.6286 109.47 95.4666 110.026 95.4666 110.727C95.4666 111.44 95.6271 112.007 95.9482 112.428C96.2692 112.845 96.6996 113.054 97.2393 113.054C97.603 113.054 97.9141 112.955 98.1726 112.756C98.4311 112.557 98.6001 112.281 98.6797 111.929H99.9197C99.8743 112.352 99.7365 112.73 99.5064 113.062C99.2763 113.395 98.968 113.656 98.5817 113.847C98.1982 114.037 97.7479 114.132 97.2308 114.132ZM101.282 114V105.273H102.556V110.224H102.667L105.275 107.455H106.801L104.15 110.263L106.98 114H105.416L103.191 111.043L102.556 111.678V114H101.282ZM29.9588 129V120.273H33.0696C33.7457 120.273 34.3068 120.396 34.7528 120.643C35.2017 120.891 35.5369 121.227 35.7585 121.653C35.9801 122.08 36.0909 122.561 36.0909 123.098C36.0909 123.635 35.9787 124.118 35.7543 124.547C35.5327 124.973 35.1974 125.311 34.7486 125.561C34.3026 125.808 33.7415 125.932 33.0653 125.932H31.2756V129H29.9588ZM31.2756 124.815H32.946C33.5909 124.815 34.0554 124.653 34.3395 124.33C34.6236 124.003 34.7656 123.592 34.7656 123.098C34.7656 122.604 34.6222 122.197 34.3352 121.879C34.0511 121.561 33.5824 121.402 32.929 121.402H31.2756V124.815ZM39.3786 129.145C38.9638 129.145 38.5888 129.068 38.2536 128.915C37.9212 128.761 37.657 128.537 37.4609 128.241C37.2649 127.943 37.1669 127.58 37.1669 127.151C37.1669 126.778 37.2379 126.473 37.38 126.234C37.5249 125.996 37.7166 125.807 37.9553 125.668C38.1967 125.528 38.4666 125.425 38.7649 125.357C39.0632 125.286 39.3672 125.232 39.6768 125.195C40.0689 125.149 40.3857 125.112 40.6271 125.084C40.8714 125.053 41.049 125.003 41.1598 124.935C41.2734 124.866 41.3303 124.756 41.3303 124.602V124.572C41.3303 124.2 41.2251 123.912 41.0149 123.707C40.8075 123.503 40.4979 123.401 40.0859 123.401C39.657 123.401 39.3189 123.494 39.0717 123.682C38.8274 123.869 38.6584 124.08 38.5646 124.312L37.3672 124.04C37.5803 123.443 37.9354 123.016 38.4325 122.757C38.9325 122.499 39.478 122.369 40.0689 122.369C40.3303 122.369 40.6072 122.401 40.8999 122.463C41.1925 122.523 41.468 122.635 41.7266 122.8C41.9879 122.962 42.1996 123.192 42.3615 123.49C42.5263 123.788 42.6087 124.176 42.6087 124.653V129H41.3643V128.105H41.3132C41.1911 128.349 40.9737 128.584 40.6612 128.808C40.3487 129.033 39.9212 129.145 39.3786 129.145ZM39.6555 128.122C40.0107 128.122 40.3132 128.053 40.5632 127.913C40.8132 127.774 41.0036 127.592 41.1342 127.368C41.2678 127.141 41.3345 126.898 41.3345 126.639V125.795C41.2749 125.855 41.1442 125.908 40.9425 125.953C40.7408 125.999 40.5277 126.037 40.3033 126.068C40.0788 126.099 39.897 126.125 39.7578 126.145C39.3885 126.193 39.0717 126.291 38.8075 126.439C38.5462 126.584 38.4155 126.827 38.4155 127.168C38.4155 127.483 38.532 127.722 38.7649 127.884C38.9979 128.043 39.2947 128.122 39.6555 128.122ZM49.2106 124.053L48.0558 124.257C47.9819 124.038 47.8441 123.838 47.6424 123.656C47.4435 123.472 47.1452 123.379 46.7475 123.379C46.3867 123.379 46.0842 123.46 45.8398 123.622C45.5984 123.781 45.479 123.987 45.4819 124.24C45.479 124.462 45.5586 124.639 45.7205 124.773C45.8853 124.903 46.1481 125.011 46.5089 125.097L47.5487 125.335C48.7418 125.611 49.3384 126.202 49.3384 127.108C49.3384 127.503 49.2248 127.852 48.9975 128.156C48.7731 128.46 48.4592 128.699 48.0558 128.872C47.6552 129.045 47.1907 129.132 46.6623 129.132C45.9265 129.132 45.3285 128.976 44.8683 128.663C44.408 128.348 44.1239 127.901 44.016 127.321L45.2475 127.134C45.4009 127.781 45.8697 128.105 46.6538 128.105C47.0714 128.105 47.4052 128.018 47.6552 127.845C47.9052 127.669 48.0302 127.455 48.0302 127.202C48.0302 126.784 47.7219 126.507 47.1055 126.371L45.9975 126.128C45.3839 125.991 44.9322 125.77 44.6424 125.463C44.3526 125.156 44.2077 124.771 44.2077 124.308C44.2077 123.922 44.3157 123.584 44.5316 123.294C44.7475 123.001 45.0458 122.774 45.4265 122.612C45.8072 122.45 46.2433 122.369 46.7347 122.369C47.4421 122.369 47.9989 122.523 48.4052 122.83C48.8114 123.136 49.0799 123.544 49.2106 124.053ZM55.6442 124.053L54.4893 124.257C54.4155 124.038 54.2777 123.838 54.076 123.656C53.8771 123.472 53.5788 123.379 53.1811 123.379C52.8203 123.379 52.5178 123.46 52.2734 123.622C52.032 123.781 51.9126 123.987 51.9155 124.24C51.9126 124.462 51.9922 124.639 52.1541 124.773C52.3189 124.903 52.5817 125.011 52.9425 125.097L53.9822 125.335C55.1754 125.611 55.772 126.202 55.772 127.108C55.772 127.503 55.6584 127.852 55.4311 128.156C55.2067 128.46 54.8928 128.699 54.4893 128.872C54.0888 129.045 53.6243 129.132 53.0959 129.132C52.3601 129.132 51.7621 128.976 51.3018 128.663C50.8416 128.348 50.5575 127.901 50.4496 127.321L51.6811 127.134C51.8345 127.781 52.3033 128.105 53.0874 128.105C53.505 128.105 53.8388 128.018 54.0888 127.845C54.3388 127.669 54.4638 127.455 54.4638 127.202C54.4638 126.784 54.1555 126.507 53.5391 126.371L52.4311 126.128C51.8175 125.991 51.3658 125.77 51.076 125.463C50.7862 125.156 50.6413 124.771 50.6413 124.308C50.6413 123.922 50.7493 123.584 50.9652 123.294C51.1811 123.001 51.4794 122.774 51.8601 122.612C52.2408 122.45 52.6768 122.369 53.1683 122.369C53.8757 122.369 54.4325 122.523 54.8388 122.83C55.245 123.136 55.5135 123.544 55.6442 124.053ZM58.592 129L56.6658 122.455H57.9826L59.2653 127.261H59.3292L60.6161 122.455H61.9329L63.2113 127.24H63.2752L64.5494 122.455H65.8661L63.9442 129H62.6445L61.315 124.274H61.217L59.8874 129H58.592ZM69.6332 129.132C69.0195 129.132 68.484 128.991 68.0266 128.71C67.5692 128.429 67.2141 128.036 66.9613 127.53C66.7085 127.021 66.582 126.43 66.582 125.757C66.582 125.078 66.7085 124.484 66.9613 123.976C67.2141 123.467 67.5692 123.072 68.0266 122.791C68.484 122.51 69.0195 122.369 69.6332 122.369C70.2496 122.369 70.7852 122.51 71.2397 122.791C71.6971 123.072 72.0522 123.467 72.305 123.976C72.5579 124.484 72.6843 125.078 72.6843 125.757C72.6843 126.43 72.5579 127.021 72.305 127.53C72.0522 128.036 71.6971 128.429 71.2397 128.71C70.7852 128.991 70.2496 129.132 69.6332 129.132ZM69.6374 128.062C70.038 128.062 70.3675 127.957 70.6261 127.747C70.8874 127.537 71.0806 127.257 71.2056 126.908C71.3335 126.555 71.3974 126.17 71.3974 125.753C71.3974 125.335 71.3335 124.95 71.2056 124.598C71.0806 124.246 70.8874 123.964 70.6261 123.754C70.3675 123.541 70.038 123.435 69.6374 123.435C69.2369 123.435 68.9059 123.541 68.6445 123.754C68.3832 123.964 68.1886 124.246 68.0607 124.598C67.9329 124.95 67.869 125.335 67.869 125.753C67.869 126.17 67.9329 126.555 68.0607 126.908C68.1886 127.257 68.3832 127.537 68.6445 127.747C68.9059 127.957 69.2369 128.062 69.6374 128.062ZM74.1065 129V122.455H75.3381V123.494H75.4062C75.5256 123.142 75.7358 122.865 76.0369 122.663C76.3409 122.459 76.6847 122.357 77.0682 122.357C77.1506 122.357 77.2457 122.359 77.3537 122.365C77.4616 122.371 77.5469 122.378 77.6094 122.386V123.605C77.5582 123.591 77.4673 123.575 77.3366 123.558C77.2088 123.538 77.0781 123.528 76.9446 123.528C76.4929 123.528 76.1193 123.668 75.8239 123.946C75.5284 124.222 75.3807 124.574 75.3807 125.003V129H74.1065ZM80.9279 129.128C80.3995 129.128 79.9293 128.993 79.5174 128.723C79.1055 128.453 78.7816 128.065 78.5458 127.56C78.31 127.051 78.1921 126.445 78.1921 125.74C78.1921 125.033 78.31 124.428 78.5458 123.925C78.7844 123.422 79.1112 123.037 79.5259 122.77C79.9407 122.503 80.4109 122.369 80.9364 122.369C81.3427 122.369 81.6694 122.438 81.9165 122.574C82.1665 122.707 82.3597 122.864 82.4961 123.043C82.6353 123.222 82.7433 123.379 82.82 123.516H82.8967V120.273H84.1708V129H82.9265V127.982H82.82C82.7433 128.121 82.6325 128.28 82.4876 128.459C82.3455 128.638 82.1495 128.794 81.8995 128.928C81.6495 129.061 81.3256 129.128 80.9279 129.128ZM81.2092 128.041C81.7603 128.041 82.1822 127.828 82.4748 127.402C82.7702 126.973 82.918 126.415 82.918 125.727C82.918 125.043 82.7717 124.493 82.479 124.078C82.1893 123.661 81.766 123.452 81.2092 123.452C80.8256 123.452 80.506 123.551 80.2504 123.75C79.9947 123.949 79.8015 124.22 79.6708 124.564C79.543 124.905 79.479 125.293 79.479 125.727C79.479 126.165 79.5444 126.558 79.6751 126.908C79.8058 127.257 79.9989 127.534 80.2546 127.739C80.5131 127.94 80.8313 128.041 81.2092 128.041Z" fill="#979797"/>
<path d="M135.886 122.119C135.5 122.116 135.118 122.047 134.74 121.911C134.362 121.771 134.02 121.543 133.713 121.224C133.406 120.906 133.161 120.479 132.976 119.942C132.794 119.405 132.703 118.734 132.703 117.93C132.703 116.911 132.837 116.044 133.104 115.331C133.371 114.615 133.75 114.07 134.241 113.695C134.736 113.32 135.321 113.132 135.997 113.132C136.517 113.132 136.979 113.236 137.382 113.443C137.786 113.648 138.114 113.932 138.366 114.295C138.619 114.656 138.778 115.071 138.844 115.54H137.544C137.456 115.168 137.281 114.866 137.02 114.636C136.759 114.403 136.418 114.287 135.997 114.287C135.358 114.287 134.859 114.565 134.501 115.122C134.146 115.679 133.967 116.459 133.964 117.462H134.028C134.253 117.092 134.554 116.804 134.932 116.597C135.312 116.386 135.733 116.281 136.193 116.281C136.699 116.281 137.158 116.405 137.57 116.652C137.982 116.896 138.31 117.234 138.554 117.666C138.798 118.098 138.919 118.592 138.916 119.149C138.919 119.706 138.794 120.21 138.541 120.662C138.288 121.114 137.935 121.472 137.48 121.736C137.026 121.997 136.494 122.125 135.886 122.119ZM135.882 121.011C136.214 121.011 136.513 120.929 136.777 120.764C137.044 120.599 137.254 120.378 137.408 120.099C137.564 119.821 137.641 119.51 137.638 119.166C137.641 118.828 137.567 118.523 137.416 118.25C137.266 117.974 137.06 117.756 136.798 117.594C136.54 117.432 136.244 117.351 135.912 117.351C135.577 117.351 135.274 117.436 135.004 117.607C134.737 117.774 134.524 117.997 134.365 118.276C134.209 118.551 134.129 118.852 134.126 119.179C134.126 119.506 134.202 119.808 134.352 120.087C134.506 120.365 134.714 120.589 134.979 120.76C135.243 120.928 135.544 121.011 135.882 121.011ZM144.467 124.438C144.276 124.438 144.103 124.423 143.947 124.395C143.79 124.366 143.674 124.334 143.597 124.297L143.904 123.253C144.254 123.349 144.546 123.357 144.782 123.274C145.021 123.195 145.221 122.943 145.383 122.52L145.54 122.085L143.146 115.455H144.509L146.167 120.534H146.235L147.893 115.455L149.269 115.467L146.563 122.874C146.376 123.379 146.11 123.766 145.766 124.033C145.425 124.303 144.992 124.438 144.467 124.438ZM153.056 122.132C152.414 122.132 151.86 121.993 151.395 121.714C150.929 121.436 150.569 121.045 150.316 120.543C150.066 120.037 149.941 119.446 149.941 118.77C149.941 118.099 150.066 117.509 150.316 116.997C150.569 116.486 150.922 116.087 151.373 115.8C151.828 115.513 152.359 115.369 152.967 115.369C153.461 115.369 153.929 115.48 154.369 115.702C154.812 115.92 155.172 116.271 155.447 116.754C155.725 117.234 155.865 117.869 155.865 118.659V119.111H151.211C151.228 119.741 151.406 120.227 151.744 120.568C152.082 120.909 152.524 121.08 153.069 121.08C153.433 121.08 153.747 121.001 154.011 120.845C154.275 120.689 154.464 120.456 154.578 120.146L155.784 120.364C155.639 120.895 155.326 121.322 154.846 121.646C154.366 121.97 153.77 122.132 153.056 122.132ZM151.216 118.156H154.616C154.613 117.656 154.463 117.243 154.164 116.916C153.866 116.587 153.47 116.422 152.975 116.422C152.632 116.422 152.331 116.503 152.072 116.665C151.816 116.824 151.613 117.036 151.463 117.3C151.315 117.561 151.233 117.847 151.216 118.156ZM159.183 122.145C158.768 122.145 158.393 122.068 158.058 121.915C157.726 121.761 157.462 121.537 157.266 121.241C157.07 120.943 156.972 120.58 156.972 120.151C156.972 119.778 157.043 119.473 157.185 119.234C157.33 118.996 157.521 118.807 157.76 118.668C158.001 118.528 158.271 118.425 158.57 118.357C158.868 118.286 159.172 118.232 159.482 118.195C159.874 118.149 160.19 118.112 160.432 118.084C160.676 118.053 160.854 118.003 160.964 117.935C161.078 117.866 161.135 117.756 161.135 117.602V117.572C161.135 117.2 161.03 116.912 160.82 116.707C160.612 116.503 160.303 116.401 159.891 116.401C159.462 116.401 159.124 116.494 158.876 116.682C158.632 116.869 158.463 117.08 158.369 117.312L157.172 117.04C157.385 116.443 157.74 116.016 158.237 115.757C158.737 115.499 159.283 115.369 159.874 115.369C160.135 115.369 160.412 115.401 160.705 115.463C160.997 115.523 161.273 115.635 161.531 115.8C161.793 115.962 162.004 116.192 162.166 116.49C162.331 116.788 162.413 117.176 162.413 117.653V122H161.169V121.105H161.118C160.996 121.349 160.778 121.584 160.466 121.808C160.153 122.033 159.726 122.145 159.183 122.145ZM159.46 121.122C159.815 121.122 160.118 121.053 160.368 120.913C160.618 120.774 160.808 120.592 160.939 120.368C161.072 120.141 161.139 119.898 161.139 119.639V118.795C161.08 118.855 160.949 118.908 160.747 118.953C160.545 118.999 160.332 119.037 160.108 119.068C159.884 119.099 159.702 119.125 159.562 119.145C159.193 119.193 158.876 119.291 158.612 119.439C158.351 119.584 158.22 119.827 158.22 120.168C158.22 120.483 158.337 120.722 158.57 120.884C158.803 121.043 159.099 121.122 159.46 121.122ZM164.11 122V115.455H165.342V116.494H165.41C165.529 116.142 165.74 115.865 166.041 115.663C166.345 115.459 166.689 115.357 167.072 115.357C167.154 115.357 167.25 115.359 167.358 115.365C167.466 115.371 167.551 115.378 167.613 115.386V116.605C167.562 116.591 167.471 116.575 167.341 116.558C167.213 116.538 167.082 116.528 166.949 116.528C166.497 116.528 166.123 116.668 165.828 116.946C165.532 117.222 165.385 117.574 165.385 118.003V122H164.11ZM173.621 117.053L172.466 117.257C172.392 117.038 172.254 116.838 172.053 116.656C171.854 116.472 171.555 116.379 171.158 116.379C170.797 116.379 170.494 116.46 170.25 116.622C170.009 116.781 169.889 116.987 169.892 117.24C169.889 117.462 169.969 117.639 170.131 117.773C170.295 117.903 170.558 118.011 170.919 118.097L171.959 118.335C173.152 118.611 173.749 119.202 173.749 120.108C173.749 120.503 173.635 120.852 173.408 121.156C173.183 121.46 172.869 121.699 172.466 121.872C172.065 122.045 171.601 122.132 171.072 122.132C170.337 122.132 169.739 121.976 169.278 121.663C168.818 121.348 168.534 120.901 168.426 120.321L169.658 120.134C169.811 120.781 170.28 121.105 171.064 121.105C171.482 121.105 171.815 121.018 172.065 120.845C172.315 120.669 172.44 120.455 172.44 120.202C172.44 119.784 172.132 119.507 171.516 119.371L170.408 119.128C169.794 118.991 169.342 118.77 169.053 118.463C168.763 118.156 168.618 117.771 168.618 117.308C168.618 116.922 168.726 116.584 168.942 116.294C169.158 116.001 169.456 115.774 169.837 115.612C170.217 115.45 170.653 115.369 171.145 115.369C171.852 115.369 172.409 115.523 172.815 115.83C173.222 116.136 173.49 116.544 173.621 117.053ZM176.807 120.807L176.743 121.271C176.701 121.612 176.63 121.967 176.53 122.337C176.431 122.709 176.327 123.054 176.219 123.372C176.111 123.69 176.023 123.943 175.955 124.131H175.051C175.091 123.955 175.142 123.716 175.205 123.415C175.27 123.116 175.334 122.783 175.397 122.413C175.459 122.044 175.506 121.668 175.537 121.284L175.58 120.807H176.807ZM184.936 113.273V122H183.615V114.594H183.564L181.475 115.957V114.696L183.653 113.273H184.936ZM190.608 113.273V122H189.287V114.594H189.235L187.147 115.957V114.696L189.325 113.273H190.608ZM196.161 122V115.455H197.384V116.52H197.465C197.602 116.159 197.825 115.878 198.134 115.676C198.444 115.472 198.815 115.369 199.246 115.369C199.684 115.369 200.05 115.472 200.346 115.676C200.644 115.881 200.864 116.162 201.006 116.52H201.075C201.234 116.17 201.482 115.892 201.82 115.685C202.161 115.474 202.567 115.369 203.039 115.369C203.633 115.369 204.117 115.557 204.492 115.932C204.87 116.304 205.059 116.864 205.059 117.611V122H203.785V117.73C203.785 117.287 203.664 116.966 203.423 116.767C203.184 116.568 202.896 116.469 202.558 116.469C202.143 116.469 201.82 116.597 201.59 116.852C201.36 117.108 201.245 117.433 201.245 117.828V122H199.975V117.649C199.975 117.294 199.864 117.009 199.643 116.793C199.421 116.577 199.133 116.469 198.778 116.469C198.417 116.469 198.103 116.608 197.836 116.886C197.569 117.165 197.435 117.524 197.435 117.964V122H196.161ZM209.524 122.132C208.91 122.132 208.375 121.991 207.917 121.71C207.46 121.429 207.105 121.036 206.852 120.53C206.599 120.021 206.473 119.43 206.473 118.757C206.473 118.078 206.599 117.484 206.852 116.976C207.105 116.467 207.46 116.072 207.917 115.791C208.375 115.51 208.91 115.369 209.524 115.369C210.14 115.369 210.676 115.51 211.13 115.791C211.588 116.072 211.943 116.467 212.196 116.976C212.449 117.484 212.575 118.078 212.575 118.757C212.575 119.43 212.449 120.021 212.196 120.53C211.943 121.036 211.588 121.429 211.13 121.71C210.676 121.991 210.14 122.132 209.524 122.132ZM209.528 121.062C209.929 121.062 210.258 120.957 210.517 120.747C210.778 120.537 210.971 120.257 211.096 119.908C211.224 119.555 211.288 119.17 211.288 118.753C211.288 118.335 211.224 117.95 211.096 117.598C210.971 117.246 210.778 116.964 210.517 116.754C210.258 116.541 209.929 116.435 209.528 116.435C209.127 116.435 208.797 116.541 208.535 116.754C208.274 116.964 208.079 117.246 207.951 117.598C207.824 117.95 207.76 118.335 207.76 118.753C207.76 119.17 207.824 119.555 207.951 119.908C208.079 120.257 208.274 120.537 208.535 120.747C208.797 120.957 209.127 121.062 209.528 121.062ZM215.271 118.114V122H213.997V115.455H215.22V116.52H215.301C215.452 116.173 215.688 115.895 216.009 115.685C216.332 115.474 216.74 115.369 217.232 115.369C217.902 115.369 218.44 115.578 218.847 115.996C219.256 116.413 219.46 117.027 219.46 117.837V122H218.186V117.99C218.186 117.516 218.063 117.145 217.815 116.878C217.568 116.608 217.229 116.473 216.797 116.473C216.354 116.473 215.989 116.616 215.702 116.903C215.415 117.187 215.271 117.591 215.271 118.114ZM224.224 115.455V116.477H222.882V120.078C222.882 120.447 222.96 120.686 223.116 120.794C223.276 120.899 223.459 120.952 223.666 120.952C223.768 120.952 223.858 120.945 223.935 120.93C224.011 120.916 224.071 120.905 224.114 120.896L224.344 121.949C224.27 121.977 224.163 122.006 224.024 122.034C223.888 122.065 223.719 122.082 223.517 122.085C223.182 122.091 222.868 122.031 222.575 121.906C222.286 121.781 222.051 121.588 221.872 121.327C221.696 121.065 221.608 120.737 221.608 120.342V116.477H220.649V115.455H221.608V113.886H222.882V115.455H224.224ZM227.049 118.114V122H225.775V113.273H227.032V116.52H227.113C227.266 116.165 227.5 115.885 227.816 115.68C228.131 115.473 228.543 115.369 229.051 115.369C229.725 115.369 230.266 115.577 230.675 115.991C231.087 116.406 231.293 117.021 231.293 117.837V122H230.019V117.99C230.019 117.51 229.895 117.138 229.648 116.874C229.401 116.607 229.057 116.473 228.617 116.473C228.162 116.473 227.787 116.616 227.492 116.903C227.196 117.187 227.049 117.591 227.049 118.114ZM237.898 117.053L236.743 117.257C236.669 117.038 236.532 116.838 236.33 116.656C236.131 116.472 235.833 116.379 235.435 116.379C235.074 116.379 234.772 116.46 234.527 116.622C234.286 116.781 234.167 116.987 234.169 117.24C234.167 117.462 234.246 117.639 234.408 117.773C234.573 117.903 234.836 118.011 235.196 118.097L236.236 118.335C237.429 118.611 238.026 119.202 238.026 120.108C238.026 120.503 237.912 120.852 237.685 121.156C237.461 121.46 237.147 121.699 236.743 121.872C236.343 122.045 235.878 122.132 235.35 122.132C234.614 122.132 234.016 121.976 233.556 121.663C233.096 121.348 232.811 120.901 232.703 120.321L233.935 120.134C234.088 120.781 234.557 121.105 235.341 121.105C235.759 121.105 236.093 121.018 236.343 120.845C236.593 120.669 236.718 120.455 236.718 120.202C236.718 119.784 236.409 119.507 235.793 119.371L234.685 119.128C234.071 118.991 233.62 118.77 233.33 118.463C233.04 118.156 232.895 117.771 232.895 117.308C232.895 116.922 233.003 116.584 233.219 116.294C233.435 116.001 233.733 115.774 234.114 115.612C234.495 115.45 234.931 115.369 235.422 115.369C236.13 115.369 236.686 115.523 237.093 115.83C237.499 116.136 237.767 116.544 237.898 117.053Z" fill="#4D4D4D"/>
<path d="M134.151 156.273V165H132.83V157.594H132.778L130.69 158.957V157.696L132.868 156.273H134.151ZM139.704 165V158.455H140.978V165H139.704ZM140.348 157.445C140.126 157.445 139.936 157.371 139.777 157.223C139.62 157.072 139.542 156.893 139.542 156.686C139.542 156.476 139.62 156.297 139.777 156.149C139.936 155.999 140.126 155.923 140.348 155.923C140.566 155.923 140.755 155.999 140.914 156.149C141.074 156.297 141.153 156.476 141.153 156.686C141.153 156.893 141.074 157.072 140.914 157.223C140.755 157.371 140.566 157.445 140.348 157.445ZM143.967 161.114V165H142.692V158.455H143.915V159.52H143.996C144.147 159.173 144.383 158.895 144.704 158.685C145.028 158.474 145.435 158.369 145.927 158.369C146.597 158.369 147.136 158.578 147.542 158.996C147.951 159.413 148.156 160.027 148.156 160.837V165H146.881V160.99C146.881 160.516 146.758 160.145 146.511 159.878C146.263 159.608 145.924 159.473 145.492 159.473C145.049 159.473 144.684 159.616 144.397 159.903C144.11 160.187 143.967 160.591 143.967 161.114ZM153.023 165V164.045L155.976 160.986C156.289 160.653 156.549 160.362 156.756 160.112C156.963 159.859 157.118 159.619 157.221 159.392C157.323 159.165 157.374 158.923 157.374 158.668C157.374 158.233 157.225 157.889 156.926 157.636C156.628 157.381 156.257 157.253 155.814 157.253C155.343 157.253 154.966 157.395 154.685 157.679C154.407 157.96 154.269 158.335 154.272 158.804H153.015C153.015 158.273 153.137 157.808 153.381 157.411C153.625 157.013 153.961 156.705 154.387 156.486C154.813 156.264 155.297 156.153 155.84 156.153C156.388 156.153 156.871 156.263 157.289 156.482C157.709 156.697 158.037 156.993 158.273 157.368C158.509 157.74 158.627 158.161 158.627 158.629C158.627 158.953 158.566 159.27 158.444 159.58C158.324 159.889 158.115 160.234 157.817 160.615C157.522 160.993 157.107 161.452 156.573 161.991L154.838 163.807V163.871H158.767V165H153.023ZM161.363 160.636V156.418H161.324L160.007 157.278V156.303L161.384 155.403H162.368V160.636H161.363ZM163.899 160.636V159.878L165.923 158.143C166.202 157.902 166.415 157.695 166.562 157.521C166.71 157.345 166.784 157.151 166.784 156.938C166.784 156.699 166.69 156.511 166.503 156.375C166.318 156.236 166.089 156.166 165.817 156.166C165.527 156.166 165.294 156.241 165.118 156.392C164.942 156.543 164.854 156.744 164.854 156.997H163.844C163.844 156.491 164.03 156.088 164.402 155.787C164.774 155.486 165.251 155.335 165.834 155.335C166.419 155.335 166.891 155.487 167.249 155.791C167.609 156.095 167.79 156.472 167.79 156.92C167.79 157.278 167.679 157.604 167.457 157.896C167.239 158.186 166.888 158.523 166.405 158.906L165.416 159.741V159.78H167.913V160.636H163.899ZM172.423 167.455V158.455H173.667V159.516H173.774C173.85 159.379 173.957 159.222 174.093 159.043C174.233 158.864 174.426 158.707 174.673 158.574C174.923 158.438 175.25 158.369 175.653 158.369C176.181 158.369 176.652 158.503 177.064 158.77C177.478 159.037 177.805 159.422 178.044 159.925C178.282 160.428 178.402 161.033 178.402 161.74C178.402 162.445 178.284 163.051 178.048 163.56C177.812 164.065 177.488 164.453 177.076 164.723C176.664 164.993 176.194 165.128 175.666 165.128C175.268 165.128 174.944 165.061 174.694 164.928C174.444 164.794 174.247 164.638 174.102 164.459C173.96 164.28 173.85 164.121 173.774 163.982H173.697V167.455H172.423ZM173.672 161.727C173.672 162.415 173.819 162.973 174.115 163.402C174.41 163.828 174.832 164.041 175.38 164.041C175.761 164.041 176.079 163.94 176.335 163.739C176.593 163.534 176.788 163.257 176.919 162.908C177.049 162.558 177.115 162.165 177.115 161.727C177.115 161.293 177.049 160.905 176.919 160.564C176.791 160.22 176.599 159.949 176.343 159.75C176.088 159.551 175.767 159.452 175.38 159.452C174.824 159.452 174.399 159.661 174.106 160.078C173.816 160.493 173.672 161.043 173.672 161.727ZM182.65 165.132C182.008 165.132 181.454 164.993 180.988 164.714C180.522 164.436 180.163 164.045 179.91 163.543C179.66 163.037 179.535 162.446 179.535 161.77C179.535 161.099 179.66 160.509 179.91 159.997C180.163 159.486 180.515 159.087 180.967 158.8C181.422 158.513 181.953 158.369 182.561 158.369C183.055 158.369 183.522 158.48 183.963 158.702C184.406 158.92 184.765 159.271 185.041 159.754C185.319 160.234 185.458 160.869 185.458 161.659V162.111H180.805C180.822 162.741 181 163.227 181.338 163.568C181.676 163.909 182.118 164.08 182.663 164.08C183.027 164.08 183.341 164.001 183.605 163.845C183.869 163.689 184.058 163.456 184.172 163.146L185.377 163.364C185.233 163.895 184.92 164.322 184.44 164.646C183.96 164.97 183.363 165.132 182.65 165.132ZM180.809 161.156H184.21C184.207 160.656 184.056 160.243 183.758 159.916C183.46 159.587 183.064 159.422 182.569 159.422C182.225 159.422 181.924 159.503 181.666 159.665C181.41 159.824 181.207 160.036 181.056 160.3C180.909 160.561 180.826 160.847 180.809 161.156ZM189.629 165.132C189.016 165.132 188.48 164.991 188.023 164.71C187.565 164.429 187.21 164.036 186.957 163.53C186.705 163.021 186.578 162.43 186.578 161.757C186.578 161.078 186.705 160.484 186.957 159.976C187.21 159.467 187.565 159.072 188.023 158.791C188.48 158.51 189.016 158.369 189.629 158.369C190.246 158.369 190.781 158.51 191.236 158.791C191.693 159.072 192.048 159.467 192.301 159.976C192.554 160.484 192.68 161.078 192.68 161.757C192.68 162.43 192.554 163.021 192.301 163.53C192.048 164.036 191.693 164.429 191.236 164.71C190.781 164.991 190.246 165.132 189.629 165.132ZM189.634 164.062C190.034 164.062 190.364 163.957 190.622 163.747C190.884 163.537 191.077 163.257 191.202 162.908C191.33 162.555 191.393 162.17 191.393 161.753C191.393 161.335 191.33 160.95 191.202 160.598C191.077 160.246 190.884 159.964 190.622 159.754C190.364 159.541 190.034 159.435 189.634 159.435C189.233 159.435 188.902 159.541 188.641 159.754C188.379 159.964 188.185 160.246 188.057 160.598C187.929 160.95 187.865 161.335 187.865 161.753C187.865 162.17 187.929 162.555 188.057 162.908C188.185 163.257 188.379 163.537 188.641 163.747C188.902 163.957 189.233 164.062 189.634 164.062ZM194.103 167.455V158.455H195.347V159.516H195.453C195.53 159.379 195.637 159.222 195.773 159.043C195.912 158.864 196.105 158.707 196.353 158.574C196.603 158.438 196.929 158.369 197.333 158.369C197.861 158.369 198.331 158.503 198.743 158.77C199.158 159.037 199.485 159.422 199.723 159.925C199.962 160.428 200.081 161.033 200.081 161.74C200.081 162.445 199.963 163.051 199.728 163.56C199.492 164.065 199.168 164.453 198.756 164.723C198.344 164.993 197.874 165.128 197.346 165.128C196.948 165.128 196.624 165.061 196.374 164.928C196.124 164.794 195.926 164.638 195.782 164.459C195.64 164.28 195.53 164.121 195.453 163.982H195.377V167.455H194.103ZM195.351 161.727C195.351 162.415 195.499 162.973 195.794 163.402C196.09 163.828 196.512 164.041 197.06 164.041C197.441 164.041 197.759 163.94 198.015 163.739C198.273 163.534 198.468 163.257 198.598 162.908C198.729 162.558 198.794 162.165 198.794 161.727C198.794 161.293 198.729 160.905 198.598 160.564C198.471 160.22 198.279 159.949 198.023 159.75C197.767 159.551 197.446 159.452 197.06 159.452C196.503 159.452 196.078 159.661 195.786 160.078C195.496 160.493 195.351 161.043 195.351 161.727ZM202.783 156.273V165H201.509V156.273H202.783ZM207.318 165.132C206.676 165.132 206.122 164.993 205.656 164.714C205.19 164.436 204.831 164.045 204.578 163.543C204.328 163.037 204.203 162.446 204.203 161.77C204.203 161.099 204.328 160.509 204.578 159.997C204.831 159.486 205.183 159.087 205.635 158.8C206.089 158.513 206.621 158.369 207.229 158.369C207.723 158.369 208.19 158.48 208.631 158.702C209.074 158.92 209.433 159.271 209.709 159.754C209.987 160.234 210.126 160.869 210.126 161.659V162.111H205.473C205.49 162.741 205.668 163.227 206.006 163.568C206.344 163.909 206.786 164.08 207.331 164.08C207.695 164.08 208.009 164.001 208.273 163.845C208.537 163.689 208.726 163.456 208.839 163.146L210.045 163.364C209.901 163.895 209.588 164.322 209.108 164.646C208.628 164.97 208.031 165.132 207.318 165.132ZM205.477 161.156H208.878C208.875 160.656 208.724 160.243 208.426 159.916C208.128 159.587 207.732 159.422 207.237 159.422C206.893 159.422 206.592 159.503 206.334 159.665C206.078 159.824 205.875 160.036 205.724 160.3C205.577 160.561 205.494 160.847 205.477 161.156Z" fill="#4D4D4D"/>
<path d="M37.2074 160.111H35.8778C35.7699 159.545 35.5043 159.112 35.081 158.811C34.6605 158.507 34.1719 158.355 33.6151 158.355C33.1151 158.355 32.6662 158.482 32.2685 158.734C31.8707 158.987 31.5568 159.358 31.3267 159.847C31.0994 160.332 30.9858 160.929 30.9858 161.636C30.9858 162.347 31.1009 162.946 31.331 163.435C31.5611 163.923 31.8736 164.293 32.2685 164.543C32.6662 164.793 33.1136 164.918 33.6108 164.918C34.1619 164.918 34.6491 164.768 35.0724 164.47C35.4957 164.172 35.7642 163.744 35.8778 163.188L37.2074 163.192C37.1136 163.766 36.9034 164.273 36.5767 164.713C36.25 165.153 35.8324 165.499 35.3239 165.749C34.8153 165.996 34.2415 166.119 33.6023 166.119C32.8466 166.119 32.1733 165.94 31.5824 165.582C30.9915 165.222 30.5256 164.706 30.1847 164.036C29.8466 163.365 29.6776 162.565 29.6776 161.636C29.6776 160.705 29.848 159.905 30.1889 159.237C30.5298 158.567 30.9957 158.053 31.5866 157.695C32.1776 157.334 32.8494 157.153 33.6023 157.153C34.2188 157.153 34.7798 157.27 35.2855 157.503C35.794 157.736 36.2159 158.074 36.5511 158.517C36.8892 158.957 37.108 159.489 37.2074 160.111ZM41.4379 166.132C40.8242 166.132 40.2887 165.991 39.8313 165.71C39.3739 165.429 39.0188 165.036 38.766 164.53C38.5131 164.021 38.3867 163.43 38.3867 162.757C38.3867 162.078 38.5131 161.484 38.766 160.976C39.0188 160.467 39.3739 160.072 39.8313 159.791C40.2887 159.51 40.8242 159.369 41.4379 159.369C42.0543 159.369 42.5898 159.51 43.0444 159.791C43.5018 160.072 43.8569 160.467 44.1097 160.976C44.3626 161.484 44.489 162.078 44.489 162.757C44.489 163.43 44.3626 164.021 44.1097 164.53C43.8569 165.036 43.5018 165.429 43.0444 165.71C42.5898 165.991 42.0543 166.132 41.4379 166.132ZM41.4421 165.062C41.8427 165.062 42.1722 164.957 42.4308 164.747C42.6921 164.537 42.8853 164.257 43.0103 163.908C43.1381 163.555 43.2021 163.17 43.2021 162.753C43.2021 162.335 43.1381 161.95 43.0103 161.598C42.8853 161.246 42.6921 160.964 42.4308 160.754C42.1722 160.541 41.8427 160.435 41.4421 160.435C41.0415 160.435 40.7106 160.541 40.4492 160.754C40.1879 160.964 39.9933 161.246 39.8654 161.598C39.7376 161.95 39.6737 162.335 39.6737 162.753C39.6737 163.17 39.7376 163.555 39.8654 163.908C39.9933 164.257 40.1879 164.537 40.4492 164.747C40.7106 164.957 41.0415 165.062 41.4421 165.062ZM45.9112 166V159.455H47.1342V160.52H47.2152C47.3516 160.159 47.5746 159.878 47.8842 159.676C48.1939 159.472 48.5646 159.369 48.9964 159.369C49.4339 159.369 49.8004 159.472 50.0959 159.676C50.3942 159.881 50.6143 160.162 50.7564 160.52H50.8246C50.9837 160.17 51.2322 159.892 51.5703 159.685C51.9112 159.474 52.3175 159.369 52.7891 159.369C53.3828 159.369 53.8672 159.557 54.2422 159.932C54.62 160.304 54.8089 160.864 54.8089 161.611V166H53.5348V161.73C53.5348 161.287 53.4141 160.966 53.1726 160.767C52.9339 160.568 52.6456 160.469 52.3075 160.469C51.8928 160.469 51.5703 160.597 51.3402 160.852C51.1101 161.108 50.995 161.433 50.995 161.828V166H49.7251V161.649C49.7251 161.294 49.6143 161.009 49.3928 160.793C49.1712 160.577 48.8828 160.469 48.5277 160.469C48.1669 160.469 47.853 160.608 47.5859 160.886C47.3189 161.165 47.1854 161.524 47.1854 161.964V166H45.9112ZM56.5167 166V159.455H57.7397V160.52H57.8207C57.957 160.159 58.18 159.878 58.4897 159.676C58.7994 159.472 59.1701 159.369 59.6019 159.369C60.0394 159.369 60.4059 159.472 60.7013 159.676C60.9996 159.881 61.2198 160.162 61.3619 160.52H61.43C61.5891 160.17 61.8377 159.892 62.1758 159.685C62.5167 159.474 62.9229 159.369 63.3945 159.369C63.9883 159.369 64.4727 159.557 64.8477 159.932C65.2255 160.304 65.4144 160.864 65.4144 161.611V166H64.1403V161.73C64.1403 161.287 64.0195 160.966 63.7781 160.767C63.5394 160.568 63.2511 160.469 62.913 160.469C62.4982 160.469 62.1758 160.597 61.9457 160.852C61.7156 161.108 61.6005 161.433 61.6005 161.828V166H60.3306V161.649C60.3306 161.294 60.2198 161.009 59.9982 160.793C59.7766 160.577 59.4883 160.469 59.1332 160.469C58.7724 160.469 58.4585 160.608 58.1914 160.886C57.9244 161.165 57.7908 161.524 57.7908 161.964V166H56.5167ZM69.8793 166.132C69.2656 166.132 68.7301 165.991 68.2727 165.71C67.8153 165.429 67.4602 165.036 67.2074 164.53C66.9545 164.021 66.8281 163.43 66.8281 162.757C66.8281 162.078 66.9545 161.484 67.2074 160.976C67.4602 160.467 67.8153 160.072 68.2727 159.791C68.7301 159.51 69.2656 159.369 69.8793 159.369C70.4957 159.369 71.0313 159.51 71.4858 159.791C71.9432 160.072 72.2983 160.467 72.5511 160.976C72.804 161.484 72.9304 162.078 72.9304 162.757C72.9304 163.43 72.804 164.021 72.5511 164.53C72.2983 165.036 71.9432 165.429 71.4858 165.71C71.0313 165.991 70.4957 166.132 69.8793 166.132ZM69.8835 165.062C70.2841 165.062 70.6136 164.957 70.8722 164.747C71.1335 164.537 71.3267 164.257 71.4517 163.908C71.5795 163.555 71.6435 163.17 71.6435 162.753C71.6435 162.335 71.5795 161.95 71.4517 161.598C71.3267 161.246 71.1335 160.964 70.8722 160.754C70.6136 160.541 70.2841 160.435 69.8835 160.435C69.483 160.435 69.152 160.541 68.8906 160.754C68.6293 160.964 68.4347 161.246 68.3068 161.598C68.179 161.95 68.1151 162.335 68.1151 162.753C68.1151 163.17 68.179 163.555 68.3068 163.908C68.4347 164.257 68.6293 164.537 68.8906 164.747C69.152 164.957 69.483 165.062 69.8835 165.062ZM75.6268 162.114V166H74.3526V159.455H75.5756V160.52H75.6566C75.8072 160.173 76.043 159.895 76.364 159.685C76.6879 159.474 77.0955 159.369 77.587 159.369C78.2575 159.369 78.7958 159.578 79.2021 159.996C79.6112 160.413 79.8157 161.027 79.8157 161.837V166H78.5415V161.99C78.5415 161.516 78.418 161.145 78.1708 160.878C77.9237 160.608 77.5842 160.473 77.1523 160.473C76.7092 160.473 76.3441 160.616 76.0572 160.903C75.7702 161.187 75.6268 161.591 75.6268 162.114ZM82.7987 162.114V166H81.5245V159.455H82.7475V160.52H82.8285C82.979 160.173 83.2148 159.895 83.5359 159.685C83.8597 159.474 84.2674 159.369 84.7589 159.369C85.4293 159.369 85.9677 159.578 86.3739 159.996C86.783 160.413 86.9876 161.027 86.9876 161.837V166H85.7134V161.99C85.7134 161.516 85.5898 161.145 85.3427 160.878C85.0955 160.608 84.756 160.473 84.3242 160.473C83.881 160.473 83.516 160.616 83.229 160.903C82.9421 161.187 82.7987 161.591 82.7987 162.114ZM91.5174 166.132C90.8754 166.132 90.3214 165.993 89.8555 165.714C89.3896 165.436 89.0302 165.045 88.7773 164.543C88.5273 164.037 88.4023 163.446 88.4023 162.77C88.4023 162.099 88.5273 161.509 88.7773 160.997C89.0302 160.486 89.3825 160.087 89.8342 159.8C90.2887 159.513 90.82 159.369 91.4279 159.369C91.9222 159.369 92.3896 159.48 92.8299 159.702C93.2731 159.92 93.6325 160.271 93.908 160.754C94.1864 161.234 94.3256 161.869 94.3256 162.659V163.111H89.6722C89.6893 163.741 89.8668 164.227 90.2049 164.568C90.543 164.909 90.9847 165.08 91.5302 165.08C91.8938 165.08 92.2077 165.001 92.4719 164.845C92.7362 164.689 92.9251 164.456 93.0387 164.146L94.2447 164.364C94.0998 164.895 93.7873 165.322 93.3072 165.646C92.8271 165.97 92.2305 166.132 91.5174 166.132ZM89.6765 162.156H93.0771C93.0742 161.656 92.9237 161.243 92.6254 160.916C92.3271 160.587 91.9308 160.422 91.4364 160.422C91.0927 160.422 90.7915 160.503 90.533 160.665C90.2773 160.824 90.0742 161.036 89.9237 161.3C89.7759 161.561 89.6935 161.847 89.6765 162.156ZM100.644 161.053L99.4893 161.257C99.4155 161.038 99.2777 160.838 99.076 160.656C98.8771 160.472 98.5788 160.379 98.1811 160.379C97.8203 160.379 97.5178 160.46 97.2734 160.622C97.032 160.781 96.9126 160.987 96.9155 161.24C96.9126 161.462 96.9922 161.639 97.1541 161.773C97.3189 161.903 97.5817 162.011 97.9425 162.097L98.9822 162.335C100.175 162.611 100.772 163.202 100.772 164.108C100.772 164.503 100.658 164.852 100.431 165.156C100.207 165.46 99.8928 165.699 99.4893 165.872C99.0888 166.045 98.6243 166.132 98.0959 166.132C97.3601 166.132 96.7621 165.976 96.3018 165.663C95.8416 165.348 95.5575 164.901 95.4496 164.321L96.6811 164.134C96.8345 164.781 97.3033 165.105 98.0874 165.105C98.505 165.105 98.8388 165.018 99.0888 164.845C99.3388 164.669 99.4638 164.455 99.4638 164.202C99.4638 163.784 99.1555 163.507 98.5391 163.371L97.4311 163.128C96.8175 162.991 96.3658 162.77 96.076 162.463C95.7862 162.156 95.6413 161.771 95.6413 161.308C95.6413 160.922 95.7493 160.584 95.9652 160.294C96.1811 160.001 96.4794 159.774 96.8601 159.612C97.2408 159.45 97.6768 159.369 98.1683 159.369C98.8757 159.369 99.4325 159.523 99.8388 159.83C100.245 160.136 100.513 160.544 100.644 161.053ZM107.078 161.053L105.923 161.257C105.849 161.038 105.711 160.838 105.51 160.656C105.311 160.472 105.012 160.379 104.615 160.379C104.254 160.379 103.951 160.46 103.707 160.622C103.466 160.781 103.346 160.987 103.349 161.24C103.346 161.462 103.426 161.639 103.588 161.773C103.752 161.903 104.015 162.011 104.376 162.097L105.416 162.335C106.609 162.611 107.206 163.202 107.206 164.108C107.206 164.503 107.092 164.852 106.865 165.156C106.64 165.46 106.326 165.699 105.923 165.872C105.522 166.045 105.058 166.132 104.529 166.132C103.794 166.132 103.196 165.976 102.735 165.663C102.275 165.348 101.991 164.901 101.883 164.321L103.115 164.134C103.268 164.781 103.737 165.105 104.521 165.105C104.939 165.105 105.272 165.018 105.522 164.845C105.772 164.669 105.897 164.455 105.897 164.202C105.897 163.784 105.589 163.507 104.973 163.371L103.865 163.128C103.251 162.991 102.799 162.77 102.51 162.463C102.22 162.156 102.075 161.771 102.075 161.308C102.075 160.922 102.183 160.584 102.399 160.294C102.615 160.001 102.913 159.774 103.294 159.612C103.674 159.45 104.11 159.369 104.602 159.369C105.309 159.369 105.866 159.523 106.272 159.83C106.679 160.136 106.947 160.544 107.078 161.053Z" fill="#979797"/>
<rect x="30" y="199" width="246" height="14" rx="2" fill="#F5F5F5"/>
<path d="M30 201C30 199.895 30.8954 199 32 199H224V213H32C30.8954 213 30 212.105 30 211V201Z" fill="#82D881"/>
<path d="M26.1122 21.5455L26.2067 19.4474L24.4368 20.5859L23.8949 19.6413L25.7741 18.6818L23.8949 17.7223L24.4368 16.7777L26.2067 17.9162L26.1122 15.8182H27.1911L27.0966 17.9162L28.8665 16.7777L29.4084 17.7223L27.5291 18.6818L29.4084 19.6413L28.8665 20.5859L27.0966 19.4474L27.1911 21.5455H26.1122ZM33.413 21.5455L33.5075 19.4474L31.7376 20.5859L31.1957 19.6413L33.0749 18.6818L31.1957 17.7223L31.7376 16.7777L33.5075 17.9162L33.413 15.8182H34.4918L34.3974 17.9162L36.1673 16.7777L36.7092 17.7223L34.8299 18.6818L36.7092 19.6413L36.1673 20.5859L34.3974 19.4474L34.4918 21.5455H33.413ZM40.7138 21.5455L40.8082 19.4474L39.0384 20.5859L38.4964 19.6413L40.3757 18.6818L38.4964 17.7223L39.0384 16.7777L40.8082 17.9162L40.7138 15.8182H41.7926L41.6982 17.9162L43.468 16.7777L44.0099 17.7223L42.1307 18.6818L44.0099 19.6413L43.468 20.5859L41.6982 19.4474L41.7926 21.5455H40.7138ZM48.0146 21.5455L48.109 19.4474L46.3391 20.5859L45.7972 19.6413L47.6765 18.6818L45.7972 17.7223L46.3391 16.7777L48.109 17.9162L48.0146 15.8182H49.0934L48.9989 17.9162L50.7688 16.7777L51.3107 17.7223L49.4315 18.6818L51.3107 19.6413L50.7688 20.5859L48.9989 19.4474L49.0934 21.5455H48.0146ZM55.3153 21.5455L55.4098 19.4474L53.6399 20.5859L53.098 19.6413L54.9773 18.6818L53.098 17.7223L53.6399 16.7777L55.4098 17.9162L55.3153 15.8182H56.3942L56.2997 17.9162L58.0696 16.7777L58.6115 17.7223L56.7322 18.6818L58.6115 19.6413L58.0696 20.5859L56.2997 19.4474L56.3942 21.5455H55.3153ZM62.6161 21.5455L62.7106 19.4474L60.9407 20.5859L60.3988 19.6413L62.2781 18.6818L60.3988 17.7223L60.9407 16.7777L62.7106 17.9162L62.6161 15.8182H63.695L63.6005 17.9162L65.3704 16.7777L65.9123 17.7223L64.033 18.6818L65.9123 19.6413L65.3704 20.5859L63.6005 19.4474L63.695 21.5455H62.6161ZM69.9169 21.5455L70.0114 19.4474L68.2415 20.5859L67.6996 19.6413L69.5788 18.6818L67.6996 17.7223L68.2415 16.7777L70.0114 17.9162L69.9169 15.8182H70.9957L70.9013 17.9162L72.6712 16.7777L73.2131 17.7223L71.3338 18.6818L73.2131 19.6413L72.6712 20.5859L70.9013 19.4474L70.9957 21.5455H69.9169ZM77.2177 21.5455L77.3121 19.4474L75.5423 20.5859L75.0004 19.6413L76.8796 18.6818L75.0004 17.7223L75.5423 16.7777L77.3121 17.9162L77.2177 15.8182H78.2965L78.2021 17.9162L79.9719 16.7777L80.5138 17.7223L78.6346 18.6818L80.5138 19.6413L79.9719 20.5859L78.2021 19.4474L78.2965 21.5455H77.2177ZM84.5185 21.5455L84.6129 19.4474L82.843 20.5859L82.3011 19.6413L84.1804 18.6818L82.3011 17.7223L82.843 16.7777L84.6129 17.9162L84.5185 15.8182H85.5973L85.5028 17.9162L87.2727 16.7777L87.8146 17.7223L85.9354 18.6818L87.8146 19.6413L87.2727 20.5859L85.5028 19.4474L85.5973 21.5455H84.5185ZM91.8192 21.5455L91.9137 19.4474L90.1438 20.5859L89.6019 19.6413L91.4812 18.6818L89.6019 17.7223L90.1438 16.7777L91.9137 17.9162L91.8192 15.8182H92.8981L92.8036 17.9162L94.5735 16.7777L95.1154 17.7223L93.2362 18.6818L95.1154 19.6413L94.5735 20.5859L92.8036 19.4474L92.8981 21.5455H91.8192ZM99.12 21.5455L99.2145 19.4474L97.4446 20.5859L96.9027 19.6413L98.782 18.6818L96.9027 17.7223L97.4446 16.7777L99.2145 17.9162L99.12 15.8182H100.199L100.104 17.9162L101.874 16.7777L102.416 17.7223L100.537 18.6818L102.416 19.6413L101.874 20.5859L100.104 19.4474L100.199 21.5455H99.12ZM106.421 21.5455L106.515 19.4474L104.745 20.5859L104.203 19.6413L106.083 18.6818L104.203 17.7223L104.745 16.7777L106.515 17.9162L106.421 15.8182H107.5L107.405 17.9162L109.175 16.7777L109.717 17.7223L107.838 18.6818L109.717 19.6413L109.175 20.5859L107.405 19.4474L107.5 21.5455H106.421ZM113.722 21.5455L113.816 19.4474L112.046 20.5859L111.504 19.6413L113.384 18.6818L111.504 17.7223L112.046 16.7777L113.816 17.9162L113.722 15.8182H114.8L114.706 17.9162L116.476 16.7777L117.018 17.7223L115.138 18.6818L117.018 19.6413L116.476 20.5859L114.706 19.4474L114.8 21.5455H113.722ZM121.022 21.5455L121.117 19.4474L119.347 20.5859L118.805 19.6413L120.684 18.6818L118.805 17.7223L119.347 16.7777L121.117 17.9162L121.022 15.8182H122.101L122.007 17.9162L123.777 16.7777L124.319 17.7223L122.439 18.6818L124.319 19.6413L123.777 20.5859L122.007 19.4474L122.101 21.5455H121.022ZM128.323 21.5455L128.418 19.4474L126.648 20.5859L126.106 19.6413L127.985 18.6818L126.106 17.7223L126.648 16.7777L128.418 17.9162L128.323 15.8182H129.402L129.308 17.9162L131.077 16.7777L131.619 17.7223L129.74 18.6818L131.619 19.6413L131.077 20.5859L129.308 19.4474L129.402 21.5455H128.323ZM135.624 21.5455L135.718 19.4474L133.949 20.5859L133.407 19.6413L135.286 18.6818L133.407 17.7223L133.949 16.7777L135.718 17.9162L135.624 15.8182H136.703L136.608 17.9162L138.378 16.7777L138.92 17.7223L137.041 18.6818L138.92 19.6413L138.378 20.5859L136.608 19.4474L136.703 21.5455H135.624ZM142.925 21.5455L143.019 19.4474L141.249 20.5859L140.707 19.6413L142.587 18.6818L140.707 17.7223L141.249 16.7777L143.019 17.9162L142.925 15.8182H144.004L143.909 17.9162L145.679 16.7777L146.221 17.7223L144.342 18.6818L146.221 19.6413L145.679 20.5859L143.909 19.4474L144.004 21.5455H142.925ZM150.225 21.5455L150.32 19.4474L148.55 20.5859L148.008 19.6413L149.887 18.6818L148.008 17.7223L148.55 16.7777L150.32 17.9162L150.225 15.8182H151.304L151.21 17.9162L152.98 16.7777L153.522 17.7223L151.642 18.6818L153.522 19.6413L152.98 20.5859L151.21 19.4474L151.304 21.5455H150.225Z" fill="black" fill-opacity="0.54"/>
<path d="M275 14C270.909 14 267.415 16.6953 266 20.5C267.415 24.3047 270.909 27 275 27C279.091 27 282.585 24.3047 284 20.5C282.585 16.6953 279.091 14 275 14ZM275 24.8333C272.742 24.8333 270.909 22.892 270.909 20.5C270.909 18.108 272.742 16.1667 275 16.1667C277.258 16.1667 279.091 18.108 279.091 20.5C279.091 22.892 277.258 24.8333 275 24.8333ZM275 17.9C273.642 17.9 272.545 19.0613 272.545 20.5C272.545 21.9387 273.642 23.1 275 23.1C276.358 23.1 277.455 21.9387 277.455 20.5C277.455 19.0613 276.358 17.9 275 17.9Z" fill="#A3A3A3" fill-opacity="0.58"/>
<path d="M274.112 78.4936L279.667 72.938C279.874 72.7239 279.989 72.4372 279.986 72.1395C279.983 71.8418 279.864 71.5571 279.654 71.3466C279.443 71.1361 279.158 71.0167 278.861 71.0141C278.563 71.0115 278.276 71.126 278.062 71.3328L272.507 76.8883L266.951 71.3328C266.846 71.2273 266.721 71.1436 266.583 71.0865C266.445 71.0294 266.298 71 266.149 71C266 71 265.852 71.0294 265.714 71.0865C265.577 71.1436 265.451 71.2273 265.346 71.3328C265.241 71.4381 265.157 71.5632 265.1 71.701C265.043 71.8387 265.013 71.9863 265.013 72.1354C265.013 72.2845 265.043 72.4321 265.1 72.5698C265.157 72.7076 265.241 72.8327 265.346 72.938L270.901 78.4936L265.333 84.0623C265.174 84.2209 265.066 84.4232 265.022 84.6436C264.978 84.8639 265 85.0923 265.086 85.2999C265.172 85.5074 265.318 85.6848 265.505 85.8094C265.692 85.934 265.912 86.0004 266.136 86C266.427 86 266.717 85.8892 266.939 85.6676L272.507 80.0989L278.062 85.6544C278.168 85.76 278.293 85.8437 278.43 85.9007C278.568 85.9578 278.716 85.987 278.865 85.9868C279.09 85.9868 279.309 85.9202 279.496 85.7955C279.682 85.6707 279.828 85.4935 279.914 85.2861C279.999 85.0787 280.022 84.8506 279.978 84.6304C279.935 84.4102 279.827 84.2079 279.668 84.0492L274.112 78.4936Z" fill="#DD2E44" fill-opacity="0.75"/>
<defs>
<filter id="filter0_d" x="0" y="57" width="307" height="193" filterUnits="userSpaceOnUse" color-interpolation-filters="sRGB">
<feFlood flood-opacity="0" result="BackgroundImageFix"/>
<feColorMatrix in="SourceAlpha" type="matrix" values="0 0 0 0 0 0 0 0 0 0 0 0 0 0 0 0 0 0 127 0"/>
<feOffset dy="2"/>
<feGaussianBlur stdDeviation="4"/>
<feColorMatrix type="matrix" values="0 0 0 0 0 0 0 0 0 0 0 0 0 0 0 0 0 0 0.25 0"/>
<feBlend mode="normal" in2="BackgroundImageFix" result="effect1_dropShadow"/>
<feBlend mode="normal" in="SourceGraphic" in2="effect1_dropShadow" result="shape"/>
</filter>
</defs>
</svg>
