<svg width="400" height="301" viewBox="0 0 400 301" fill="none" xmlns="http://www.w3.org/2000/svg">
<rect width="400" height="301" rx="7" fill="#4F575F" fill-opacity="0.5"/>
<rect x="59" y="32" width="283" height="35" rx="3" fill="white"/>
<rect x="57.25" y="30.25" width="286.5" height="38.5" rx="4.75" stroke="#65BEFF" stroke-opacity="0.6" stroke-width="3.5"/>
<g filter="url(#filter0_d)">
<rect x="55" y="91" width="291" height="177" rx="8" fill="#F7F7F7"/>
</g>
<rect x="64.35" y="122.35" width="272.3" height="134.3" rx="5.65" fill="white" fill-opacity="0.78" stroke="#D8D8D8" stroke-width="0.7"/>
<line x1="64" y1="167.65" x2="337" y2="167.65" stroke="#D8D8D8" stroke-width="0.7"/>
<line x1="64" y1="211.65" x2="337" y2="211.65" stroke="#D8D8D8" stroke-width="0.7"/>
<path d="M76.5284 134.406V133.273H83.2827V134.406H80.5597V142H79.2472V134.406H76.5284ZM84.6729 142V135.455H85.9471V142H84.6729ZM85.3164 134.445C85.0948 134.445 84.9045 134.371 84.7454 134.223C84.5891 134.072 84.511 133.893 84.511 133.686C84.511 133.476 84.5891 133.297 84.7454 133.149C84.9045 132.999 85.0948 132.923 85.3164 132.923C85.5352 132.923 85.7241 132.999 85.8832 133.149C86.0423 133.297 86.1218 133.476 86.1218 133.686C86.1218 133.893 86.0423 134.072 85.8832 134.223C85.7241 134.371 85.5352 134.445 85.3164 134.445ZM87.6612 142V135.455H88.8842V136.52H88.9652C89.1016 136.159 89.3246 135.878 89.6342 135.676C89.9439 135.472 90.3146 135.369 90.7464 135.369C91.1839 135.369 91.5504 135.472 91.8459 135.676C92.1442 135.881 92.3643 136.162 92.5064 136.52H92.5746C92.7337 136.17 92.9822 135.892 93.3203 135.685C93.6612 135.474 94.0675 135.369 94.5391 135.369C95.1328 135.369 95.6172 135.557 95.9922 135.932C96.37 136.304 96.5589 136.864 96.5589 137.611V142H95.2848V137.73C95.2848 137.287 95.1641 136.966 94.9226 136.767C94.6839 136.568 94.3956 136.469 94.0575 136.469C93.6428 136.469 93.3203 136.597 93.0902 136.852C92.8601 137.108 92.745 137.433 92.745 137.828V142H91.4751V137.649C91.4751 137.294 91.3643 137.009 91.1428 136.793C90.9212 136.577 90.6328 136.469 90.2777 136.469C89.9169 136.469 89.603 136.608 89.3359 136.886C89.0689 137.165 88.9354 137.524 88.9354 137.964V142H87.6612ZM101.088 142.132C100.446 142.132 99.8917 141.993 99.4258 141.714C98.9599 141.436 98.6005 141.045 98.3477 140.543C98.0977 140.037 97.9727 139.446 97.9727 138.77C97.9727 138.099 98.0977 137.509 98.3477 136.997C98.6005 136.486 98.9528 136.087 99.4045 135.8C99.859 135.513 100.39 135.369 100.998 135.369C101.493 135.369 101.96 135.48 102.4 135.702C102.843 135.92 103.203 136.271 103.478 136.754C103.757 137.234 103.896 137.869 103.896 138.659V139.111H99.2425C99.2596 139.741 99.4371 140.227 99.7752 140.568C100.113 140.909 100.555 141.08 101.1 141.08C101.464 141.08 101.778 141.001 102.042 140.845C102.306 140.689 102.495 140.456 102.609 140.146L103.815 140.364C103.67 140.895 103.358 141.322 102.877 141.646C102.397 141.97 101.801 142.132 101.088 142.132ZM99.2468 138.156H102.647C102.645 137.656 102.494 137.243 102.196 136.916C101.897 136.587 101.501 136.422 101.007 136.422C100.663 136.422 100.362 136.503 100.103 136.665C99.8477 136.824 99.6445 137.036 99.494 137.3C99.3462 137.561 99.2638 137.847 99.2468 138.156ZM111.541 135.455V136.477H110.199V140.078C110.199 140.447 110.277 140.686 110.433 140.794C110.592 140.899 110.775 140.952 110.983 140.952C111.085 140.952 111.174 140.945 111.251 140.93C111.328 140.916 111.387 140.905 111.43 140.896L111.66 141.949C111.586 141.977 111.48 142.006 111.341 142.034C111.204 142.065 111.035 142.082 110.833 142.085C110.498 142.091 110.184 142.031 109.892 141.906C109.602 141.781 109.368 141.588 109.189 141.327C109.012 141.065 108.924 140.737 108.924 140.342V136.477H107.966V135.455H108.924V133.886H110.199V135.455H111.541ZM115.637 142.132C115.023 142.132 114.488 141.991 114.031 141.71C113.573 141.429 113.218 141.036 112.965 140.53C112.712 140.021 112.586 139.43 112.586 138.757C112.586 138.078 112.712 137.484 112.965 136.976C113.218 136.467 113.573 136.072 114.031 135.791C114.488 135.51 115.023 135.369 115.637 135.369C116.254 135.369 116.789 135.51 117.244 135.791C117.701 136.072 118.056 136.467 118.309 136.976C118.562 137.484 118.688 138.078 118.688 138.757C118.688 139.43 118.562 140.021 118.309 140.53C118.056 141.036 117.701 141.429 117.244 141.71C116.789 141.991 116.254 142.132 115.637 142.132ZM115.641 141.062C116.042 141.062 116.371 140.957 116.63 140.747C116.891 140.537 117.085 140.257 117.21 139.908C117.337 139.555 117.401 139.17 117.401 138.753C117.401 138.335 117.337 137.95 117.21 137.598C117.085 137.246 116.891 136.964 116.63 136.754C116.371 136.541 116.042 136.435 115.641 136.435C115.241 136.435 114.91 136.541 114.648 136.754C114.387 136.964 114.192 137.246 114.065 137.598C113.937 137.95 113.873 138.335 113.873 138.753C113.873 139.17 113.937 139.555 114.065 139.908C114.192 140.257 114.387 140.537 114.648 140.747C114.91 140.957 115.241 141.062 115.641 141.062ZM126.043 142.132C125.41 142.132 124.864 141.989 124.407 141.702C123.952 141.412 123.603 141.013 123.359 140.504C123.114 139.996 122.992 139.413 122.992 138.757C122.992 138.089 123.117 137.501 123.367 136.993C123.617 136.484 123.969 136.087 124.424 135.8C124.881 135.513 125.417 135.369 126.031 135.369C126.528 135.369 126.971 135.462 127.36 135.646C127.749 135.828 128.063 136.084 128.302 136.413C128.543 136.743 128.687 137.128 128.732 137.568H127.492C127.424 137.261 127.268 136.997 127.023 136.776C126.782 136.554 126.458 136.443 126.052 136.443C125.521 136.443 125.092 136.649 124.765 137.061C124.441 137.47 124.279 138.026 124.279 138.727C124.279 139.44 124.44 140.007 124.761 140.428C125.082 140.845 125.512 141.054 126.052 141.054C126.415 141.054 126.727 140.955 126.985 140.756C127.244 140.557 127.413 140.281 127.492 139.929H128.732C128.687 140.352 128.549 140.73 128.319 141.062C128.089 141.395 127.781 141.656 127.394 141.847C127.011 142.037 126.56 142.132 126.043 142.132ZM130.095 142V135.455H131.326V136.494H131.395C131.514 136.142 131.724 135.865 132.025 135.663C132.329 135.459 132.673 135.357 133.056 135.357C133.139 135.357 133.234 135.359 133.342 135.365C133.45 135.371 133.535 135.378 133.598 135.386V136.605C133.547 136.591 133.456 136.575 133.325 136.558C133.197 136.538 133.066 136.528 132.933 136.528C132.481 136.528 132.108 136.668 131.812 136.946C131.517 137.222 131.369 137.574 131.369 138.003V142H130.095ZM136.547 142.145C136.132 142.145 135.757 142.068 135.422 141.915C135.089 141.761 134.825 141.537 134.629 141.241C134.433 140.943 134.335 140.58 134.335 140.151C134.335 139.778 134.406 139.473 134.548 139.234C134.693 138.996 134.885 138.807 135.123 138.668C135.365 138.528 135.635 138.425 135.933 138.357C136.231 138.286 136.535 138.232 136.845 138.195C137.237 138.149 137.554 138.112 137.795 138.084C138.039 138.053 138.217 138.003 138.328 137.935C138.441 137.866 138.498 137.756 138.498 137.602V137.572C138.498 137.2 138.393 136.912 138.183 136.707C137.975 136.503 137.666 136.401 137.254 136.401C136.825 136.401 136.487 136.494 136.24 136.682C135.995 136.869 135.826 137.08 135.733 137.312L134.535 137.04C134.748 136.443 135.103 136.016 135.6 135.757C136.1 135.499 136.646 135.369 137.237 135.369C137.498 135.369 137.775 135.401 138.068 135.463C138.36 135.523 138.636 135.635 138.895 135.8C139.156 135.962 139.368 136.192 139.529 136.49C139.694 136.788 139.777 137.176 139.777 137.653V142H138.532V141.105H138.481C138.359 141.349 138.142 141.584 137.829 141.808C137.517 142.033 137.089 142.145 136.547 142.145ZM136.824 141.122C137.179 141.122 137.481 141.053 137.731 140.913C137.981 140.774 138.172 140.592 138.302 140.368C138.436 140.141 138.502 139.898 138.502 139.639V138.795C138.443 138.855 138.312 138.908 138.11 138.953C137.909 138.999 137.696 139.037 137.471 139.068C137.247 139.099 137.065 139.125 136.926 139.145C136.556 139.193 136.24 139.291 135.975 139.439C135.714 139.584 135.583 139.827 135.583 140.168C135.583 140.483 135.7 140.722 135.933 140.884C136.166 141.043 136.463 141.122 136.824 141.122ZM144.231 142.132C143.597 142.132 143.052 141.989 142.594 141.702C142.14 141.412 141.79 141.013 141.546 140.504C141.302 139.996 141.18 139.413 141.18 138.757C141.18 138.089 141.305 137.501 141.555 136.993C141.805 136.484 142.157 136.087 142.612 135.8C143.069 135.513 143.604 135.369 144.218 135.369C144.715 135.369 145.158 135.462 145.548 135.646C145.937 135.828 146.251 136.084 146.489 136.413C146.731 136.743 146.874 137.128 146.92 137.568H145.68C145.612 137.261 145.455 136.997 145.211 136.776C144.969 136.554 144.646 136.443 144.239 136.443C143.708 136.443 143.279 136.649 142.952 137.061C142.629 137.47 142.467 138.026 142.467 138.727C142.467 139.44 142.627 140.007 142.948 140.428C143.269 140.845 143.7 141.054 144.239 141.054C144.603 141.054 144.914 140.955 145.173 140.756C145.431 140.557 145.6 140.281 145.68 139.929H146.92C146.874 140.352 146.737 140.73 146.506 141.062C146.276 141.395 145.968 141.656 145.582 141.847C145.198 142.037 144.748 142.132 144.231 142.132ZM148.282 142V133.273H149.556V138.224H149.667L152.275 135.455H153.801L151.15 138.263L153.98 142H152.416L150.191 139.043L149.556 139.678V142H148.282ZM76.9588 157V148.273H80.0696C80.7457 148.273 81.3068 148.396 81.7528 148.643C82.2017 148.891 82.5369 149.227 82.7585 149.653C82.9801 150.08 83.0909 150.561 83.0909 151.098C83.0909 151.635 82.9787 152.118 82.7543 152.547C82.5327 152.973 82.1974 153.311 81.7486 153.561C81.3026 153.808 80.7415 153.932 80.0653 153.932H78.2756V157H76.9588ZM78.2756 152.815H79.946C80.5909 152.815 81.0554 152.653 81.3395 152.33C81.6236 152.003 81.7656 151.592 81.7656 151.098C81.7656 150.604 81.6222 150.197 81.3352 149.879C81.0511 149.561 80.5824 149.402 79.929 149.402H78.2756V152.815ZM86.3786 157.145C85.9638 157.145 85.5888 157.068 85.2536 156.915C84.9212 156.761 84.657 156.537 84.4609 156.241C84.2649 155.943 84.1669 155.58 84.1669 155.151C84.1669 154.778 84.2379 154.473 84.38 154.234C84.5249 153.996 84.7166 153.807 84.9553 153.668C85.1967 153.528 85.4666 153.425 85.7649 153.357C86.0632 153.286 86.3672 153.232 86.6768 153.195C87.0689 153.149 87.3857 153.112 87.6271 153.084C87.8714 153.053 88.049 153.003 88.1598 152.935C88.2734 152.866 88.3303 152.756 88.3303 152.602V152.572C88.3303 152.2 88.2251 151.912 88.0149 151.707C87.8075 151.503 87.4979 151.401 87.0859 151.401C86.657 151.401 86.3189 151.494 86.0717 151.682C85.8274 151.869 85.6584 152.08 85.5646 152.312L84.3672 152.04C84.5803 151.443 84.9354 151.016 85.4325 150.757C85.9325 150.499 86.478 150.369 87.0689 150.369C87.3303 150.369 87.6072 150.401 87.8999 150.463C88.1925 150.523 88.468 150.635 88.7266 150.8C88.9879 150.962 89.1996 151.192 89.3615 151.49C89.5263 151.788 89.6087 152.176 89.6087 152.653V157H88.3643V156.105H88.3132C88.1911 156.349 87.9737 156.584 87.6612 156.808C87.3487 157.033 86.9212 157.145 86.3786 157.145ZM86.6555 156.122C87.0107 156.122 87.3132 156.053 87.5632 155.913C87.8132 155.774 88.0036 155.592 88.1342 155.368C88.2678 155.141 88.3345 154.898 88.3345 154.639V153.795C88.2749 153.855 88.1442 153.908 87.9425 153.953C87.7408 153.999 87.5277 154.037 87.3033 154.068C87.0788 154.099 86.897 154.125 86.7578 154.145C86.3885 154.193 86.0717 154.291 85.8075 154.439C85.5462 154.584 85.4155 154.827 85.4155 155.168C85.4155 155.483 85.532 155.722 85.7649 155.884C85.9979 156.043 86.2947 156.122 86.6555 156.122ZM96.2106 152.053L95.0558 152.257C94.9819 152.038 94.8441 151.838 94.6424 151.656C94.4435 151.472 94.1452 151.379 93.7475 151.379C93.3867 151.379 93.0842 151.46 92.8398 151.622C92.5984 151.781 92.479 151.987 92.4819 152.24C92.479 152.462 92.5586 152.639 92.7205 152.773C92.8853 152.903 93.1481 153.011 93.5089 153.097L94.5487 153.335C95.7418 153.611 96.3384 154.202 96.3384 155.108C96.3384 155.503 96.2248 155.852 95.9975 156.156C95.7731 156.46 95.4592 156.699 95.0558 156.872C94.6552 157.045 94.1907 157.132 93.6623 157.132C92.9265 157.132 92.3285 156.976 91.8683 156.663C91.408 156.348 91.1239 155.901 91.016 155.321L92.2475 155.134C92.4009 155.781 92.8697 156.105 93.6538 156.105C94.0714 156.105 94.4052 156.018 94.6552 155.845C94.9052 155.669 95.0302 155.455 95.0302 155.202C95.0302 154.784 94.7219 154.507 94.1055 154.371L92.9975 154.128C92.3839 153.991 91.9322 153.77 91.6424 153.463C91.3526 153.156 91.2077 152.771 91.2077 152.308C91.2077 151.922 91.3157 151.584 91.5316 151.294C91.7475 151.001 92.0458 150.774 92.4265 150.612C92.8072 150.45 93.2433 150.369 93.7347 150.369C94.4421 150.369 94.9989 150.523 95.4052 150.83C95.8114 151.136 96.0799 151.544 96.2106 152.053ZM102.644 152.053L101.489 152.257C101.415 152.038 101.278 151.838 101.076 151.656C100.877 151.472 100.579 151.379 100.181 151.379C99.8203 151.379 99.5178 151.46 99.2734 151.622C99.032 151.781 98.9126 151.987 98.9155 152.24C98.9126 152.462 98.9922 152.639 99.1541 152.773C99.3189 152.903 99.5817 153.011 99.9425 153.097L100.982 153.335C102.175 153.611 102.772 154.202 102.772 155.108C102.772 155.503 102.658 155.852 102.431 156.156C102.207 156.46 101.893 156.699 101.489 156.872C101.089 157.045 100.624 157.132 100.096 157.132C99.3601 157.132 98.7621 156.976 98.3018 156.663C97.8416 156.348 97.5575 155.901 97.4496 155.321L98.6811 155.134C98.8345 155.781 99.3033 156.105 100.087 156.105C100.505 156.105 100.839 156.018 101.089 155.845C101.339 155.669 101.464 155.455 101.464 155.202C101.464 154.784 101.156 154.507 100.539 154.371L99.4311 154.128C98.8175 153.991 98.3658 153.77 98.076 153.463C97.7862 153.156 97.6413 152.771 97.6413 152.308C97.6413 151.922 97.7493 151.584 97.9652 151.294C98.1811 151.001 98.4794 150.774 98.8601 150.612C99.2408 150.45 99.6768 150.369 100.168 150.369C100.876 150.369 101.433 150.523 101.839 150.83C102.245 151.136 102.513 151.544 102.644 152.053ZM105.592 157L103.666 150.455H104.983L106.265 155.261H106.329L107.616 150.455H108.933L110.211 155.24H110.275L111.549 150.455H112.866L110.944 157H109.645L108.315 152.274H108.217L106.887 157H105.592ZM116.633 157.132C116.02 157.132 115.484 156.991 115.027 156.71C114.569 156.429 114.214 156.036 113.961 155.53C113.708 155.021 113.582 154.43 113.582 153.757C113.582 153.078 113.708 152.484 113.961 151.976C114.214 151.467 114.569 151.072 115.027 150.791C115.484 150.51 116.02 150.369 116.633 150.369C117.25 150.369 117.785 150.51 118.24 150.791C118.697 151.072 119.052 151.467 119.305 151.976C119.558 152.484 119.684 153.078 119.684 153.757C119.684 154.43 119.558 155.021 119.305 155.53C119.052 156.036 118.697 156.429 118.24 156.71C117.785 156.991 117.25 157.132 116.633 157.132ZM116.637 156.062C117.038 156.062 117.368 155.957 117.626 155.747C117.887 155.537 118.081 155.257 118.206 154.908C118.333 154.555 118.397 154.17 118.397 153.753C118.397 153.335 118.333 152.95 118.206 152.598C118.081 152.246 117.887 151.964 117.626 151.754C117.368 151.541 117.038 151.435 116.637 151.435C116.237 151.435 115.906 151.541 115.645 151.754C115.383 151.964 115.189 152.246 115.061 152.598C114.933 152.95 114.869 153.335 114.869 153.753C114.869 154.17 114.933 154.555 115.061 154.908C115.189 155.257 115.383 155.537 115.645 155.747C115.906 155.957 116.237 156.062 116.637 156.062ZM121.107 157V150.455H122.338V151.494H122.406C122.526 151.142 122.736 150.865 123.037 150.663C123.341 150.459 123.685 150.357 124.068 150.357C124.151 150.357 124.246 150.359 124.354 150.365C124.462 150.371 124.547 150.378 124.609 150.386V151.605C124.558 151.591 124.467 151.575 124.337 151.558C124.209 151.538 124.078 151.528 123.945 151.528C123.493 151.528 123.119 151.668 122.824 151.946C122.528 152.222 122.381 152.574 122.381 153.003V157H121.107ZM127.928 157.128C127.4 157.128 126.929 156.993 126.517 156.723C126.105 156.453 125.782 156.065 125.546 155.56C125.31 155.051 125.192 154.445 125.192 153.74C125.192 153.033 125.31 152.428 125.546 151.925C125.784 151.422 126.111 151.037 126.526 150.77C126.941 150.503 127.411 150.369 127.936 150.369C128.343 150.369 128.669 150.438 128.917 150.574C129.167 150.707 129.36 150.864 129.496 151.043C129.635 151.222 129.743 151.379 129.82 151.516H129.897V148.273H131.171V157H129.926V155.982H129.82C129.743 156.121 129.632 156.28 129.488 156.459C129.346 156.638 129.15 156.794 128.9 156.928C128.65 157.061 128.326 157.128 127.928 157.128ZM128.209 156.041C128.76 156.041 129.182 155.828 129.475 155.402C129.77 154.973 129.918 154.415 129.918 153.727C129.918 153.043 129.772 152.493 129.479 152.078C129.189 151.661 128.766 151.452 128.209 151.452C127.826 151.452 127.506 151.551 127.25 151.75C126.995 151.949 126.801 152.22 126.671 152.564C126.543 152.905 126.479 153.293 126.479 153.727C126.479 154.165 126.544 154.558 126.675 154.908C126.806 155.257 126.999 155.534 127.255 155.739C127.513 155.94 127.831 156.041 128.209 156.041Z" fill="#979797"/>
<path d="M182.886 150.119C182.5 150.116 182.118 150.047 181.74 149.911C181.362 149.771 181.02 149.543 180.713 149.224C180.406 148.906 180.161 148.479 179.976 147.942C179.794 147.405 179.703 146.734 179.703 145.93C179.703 144.911 179.837 144.044 180.104 143.331C180.371 142.615 180.75 142.07 181.241 141.695C181.736 141.32 182.321 141.132 182.997 141.132C183.517 141.132 183.979 141.236 184.382 141.443C184.786 141.648 185.114 141.932 185.366 142.295C185.619 142.656 185.778 143.071 185.844 143.54H184.544C184.456 143.168 184.281 142.866 184.02 142.636C183.759 142.403 183.418 142.287 182.997 142.287C182.358 142.287 181.859 142.565 181.501 143.122C181.146 143.679 180.967 144.459 180.964 145.462H181.028C181.253 145.092 181.554 144.804 181.932 144.597C182.312 144.386 182.733 144.281 183.193 144.281C183.699 144.281 184.158 144.405 184.57 144.652C184.982 144.896 185.31 145.234 185.554 145.666C185.798 146.098 185.919 146.592 185.916 147.149C185.919 147.706 185.794 148.21 185.541 148.662C185.288 149.114 184.935 149.472 184.48 149.736C184.026 149.997 183.494 150.125 182.886 150.119ZM182.882 149.011C183.214 149.011 183.513 148.929 183.777 148.764C184.044 148.599 184.254 148.378 184.408 148.099C184.564 147.821 184.641 147.51 184.638 147.166C184.641 146.828 184.567 146.523 184.416 146.25C184.266 145.974 184.06 145.756 183.798 145.594C183.54 145.432 183.244 145.351 182.912 145.351C182.577 145.351 182.274 145.436 182.004 145.607C181.737 145.774 181.524 145.997 181.365 146.276C181.209 146.551 181.129 146.852 181.126 147.179C181.126 147.506 181.202 147.808 181.352 148.087C181.506 148.365 181.714 148.589 181.979 148.76C182.243 148.928 182.544 149.011 182.882 149.011ZM191.467 152.438C191.276 152.438 191.103 152.423 190.947 152.395C190.79 152.366 190.674 152.334 190.597 152.297L190.904 151.253C191.254 151.349 191.546 151.357 191.782 151.274C192.021 151.195 192.221 150.943 192.383 150.52L192.54 150.085L190.146 143.455H191.509L193.167 148.534H193.235L194.893 143.455L196.269 143.467L193.563 150.874C193.376 151.379 193.11 151.766 192.766 152.033C192.425 152.303 191.992 152.438 191.467 152.438ZM200.056 150.132C199.414 150.132 198.86 149.993 198.395 149.714C197.929 149.436 197.569 149.045 197.316 148.543C197.066 148.037 196.941 147.446 196.941 146.77C196.941 146.099 197.066 145.509 197.316 144.997C197.569 144.486 197.922 144.087 198.373 143.8C198.828 143.513 199.359 143.369 199.967 143.369C200.461 143.369 200.929 143.48 201.369 143.702C201.812 143.92 202.172 144.271 202.447 144.754C202.725 145.234 202.865 145.869 202.865 146.659V147.111H198.211C198.228 147.741 198.406 148.227 198.744 148.568C199.082 148.909 199.524 149.08 200.069 149.08C200.433 149.08 200.747 149.001 201.011 148.845C201.275 148.689 201.464 148.456 201.578 148.146L202.784 148.364C202.639 148.895 202.326 149.322 201.846 149.646C201.366 149.97 200.77 150.132 200.056 150.132ZM198.216 146.156H201.616C201.613 145.656 201.463 145.243 201.164 144.916C200.866 144.587 200.47 144.422 199.975 144.422C199.632 144.422 199.331 144.503 199.072 144.665C198.816 144.824 198.613 145.036 198.463 145.3C198.315 145.561 198.233 145.847 198.216 146.156ZM206.183 150.145C205.768 150.145 205.393 150.068 205.058 149.915C204.726 149.761 204.462 149.537 204.266 149.241C204.07 148.943 203.972 148.58 203.972 148.151C203.972 147.778 204.043 147.473 204.185 147.234C204.33 146.996 204.521 146.807 204.76 146.668C205.001 146.528 205.271 146.425 205.57 146.357C205.868 146.286 206.172 146.232 206.482 146.195C206.874 146.149 207.19 146.112 207.432 146.084C207.676 146.053 207.854 146.003 207.964 145.935C208.078 145.866 208.135 145.756 208.135 145.602V145.572C208.135 145.2 208.03 144.912 207.82 144.707C207.612 144.503 207.303 144.401 206.891 144.401C206.462 144.401 206.124 144.494 205.876 144.682C205.632 144.869 205.463 145.08 205.369 145.312L204.172 145.04C204.385 144.443 204.74 144.016 205.237 143.757C205.737 143.499 206.283 143.369 206.874 143.369C207.135 143.369 207.412 143.401 207.705 143.463C207.997 143.523 208.273 143.635 208.531 143.8C208.793 143.962 209.004 144.192 209.166 144.49C209.331 144.788 209.413 145.176 209.413 145.653V150H208.169V149.105H208.118C207.996 149.349 207.778 149.584 207.466 149.808C207.153 150.033 206.726 150.145 206.183 150.145ZM206.46 149.122C206.815 149.122 207.118 149.053 207.368 148.913C207.618 148.774 207.808 148.592 207.939 148.368C208.072 148.141 208.139 147.898 208.139 147.639V146.795C208.08 146.855 207.949 146.908 207.747 146.953C207.545 146.999 207.332 147.037 207.108 147.068C206.884 147.099 206.702 147.125 206.562 147.145C206.193 147.193 205.876 147.291 205.612 147.439C205.351 147.584 205.22 147.827 205.22 148.168C205.22 148.483 205.337 148.722 205.57 148.884C205.803 149.043 206.099 149.122 206.46 149.122ZM211.11 150V143.455H212.342V144.494H212.41C212.529 144.142 212.74 143.865 213.041 143.663C213.345 143.459 213.689 143.357 214.072 143.357C214.154 143.357 214.25 143.359 214.358 143.365C214.466 143.371 214.551 143.378 214.613 143.386V144.605C214.562 144.591 214.471 144.575 214.341 144.558C214.213 144.538 214.082 144.528 213.949 144.528C213.497 144.528 213.123 144.668 212.828 144.946C212.532 145.222 212.385 145.574 212.385 146.003V150H211.11ZM220.621 145.053L219.466 145.257C219.392 145.038 219.254 144.838 219.053 144.656C218.854 144.472 218.555 144.379 218.158 144.379C217.797 144.379 217.494 144.46 217.25 144.622C217.009 144.781 216.889 144.987 216.892 145.24C216.889 145.462 216.969 145.639 217.131 145.773C217.295 145.903 217.558 146.011 217.919 146.097L218.959 146.335C220.152 146.611 220.749 147.202 220.749 148.108C220.749 148.503 220.635 148.852 220.408 149.156C220.183 149.46 219.869 149.699 219.466 149.872C219.065 150.045 218.601 150.132 218.072 150.132C217.337 150.132 216.739 149.976 216.278 149.663C215.818 149.348 215.534 148.901 215.426 148.321L216.658 148.134C216.811 148.781 217.28 149.105 218.064 149.105C218.482 149.105 218.815 149.018 219.065 148.845C219.315 148.669 219.44 148.455 219.44 148.202C219.44 147.784 219.132 147.507 218.516 147.371L217.408 147.128C216.794 146.991 216.342 146.77 216.053 146.463C215.763 146.156 215.618 145.771 215.618 145.308C215.618 144.922 215.726 144.584 215.942 144.294C216.158 144.001 216.456 143.774 216.837 143.612C217.217 143.45 217.653 143.369 218.145 143.369C218.852 143.369 219.409 143.523 219.815 143.83C220.222 144.136 220.49 144.544 220.621 145.053ZM223.807 148.807L223.743 149.271C223.701 149.612 223.63 149.967 223.53 150.337C223.431 150.709 223.327 151.054 223.219 151.372C223.111 151.69 223.023 151.943 222.955 152.131H222.051C222.091 151.955 222.142 151.716 222.205 151.415C222.27 151.116 222.334 150.783 222.397 150.413C222.459 150.044 222.506 149.668 222.537 149.284L222.58 148.807H223.807ZM231.936 141.273V150H230.615V142.594H230.564L228.475 143.957V142.696L230.653 141.273H231.936ZM237.608 141.273V150H236.287V142.594H236.235L234.147 143.957V142.696L236.325 141.273H237.608ZM243.161 150V143.455H244.384V144.52H244.465C244.602 144.159 244.825 143.878 245.134 143.676C245.444 143.472 245.815 143.369 246.246 143.369C246.684 143.369 247.05 143.472 247.346 143.676C247.644 143.881 247.864 144.162 248.006 144.52H248.075C248.234 144.17 248.482 143.892 248.82 143.685C249.161 143.474 249.567 143.369 250.039 143.369C250.633 143.369 251.117 143.557 251.492 143.932C251.87 144.304 252.059 144.864 252.059 145.611V150H250.785V145.73C250.785 145.287 250.664 144.966 250.423 144.767C250.184 144.568 249.896 144.469 249.558 144.469C249.143 144.469 248.82 144.597 248.59 144.852C248.36 145.108 248.245 145.433 248.245 145.828V150H246.975V145.649C246.975 145.294 246.864 145.009 246.643 144.793C246.421 144.577 246.133 144.469 245.778 144.469C245.417 144.469 245.103 144.608 244.836 144.886C244.569 145.165 244.435 145.524 244.435 145.964V150H243.161ZM256.524 150.132C255.91 150.132 255.375 149.991 254.917 149.71C254.46 149.429 254.105 149.036 253.852 148.53C253.599 148.021 253.473 147.43 253.473 146.757C253.473 146.078 253.599 145.484 253.852 144.976C254.105 144.467 254.46 144.072 254.917 143.791C255.375 143.51 255.91 143.369 256.524 143.369C257.14 143.369 257.676 143.51 258.13 143.791C258.588 144.072 258.943 144.467 259.196 144.976C259.449 145.484 259.575 146.078 259.575 146.757C259.575 147.43 259.449 148.021 259.196 148.53C258.943 149.036 258.588 149.429 258.13 149.71C257.676 149.991 257.14 150.132 256.524 150.132ZM256.528 149.062C256.929 149.062 257.258 148.957 257.517 148.747C257.778 148.537 257.971 148.257 258.096 147.908C258.224 147.555 258.288 147.17 258.288 146.753C258.288 146.335 258.224 145.95 258.096 145.598C257.971 145.246 257.778 144.964 257.517 144.754C257.258 144.541 256.929 144.435 256.528 144.435C256.127 144.435 255.797 144.541 255.535 144.754C255.274 144.964 255.079 145.246 254.951 145.598C254.824 145.95 254.76 146.335 254.76 146.753C254.76 147.17 254.824 147.555 254.951 147.908C255.079 148.257 255.274 148.537 255.535 148.747C255.797 148.957 256.127 149.062 256.528 149.062ZM262.271 146.114V150H260.997V143.455H262.22V144.52H262.301C262.452 144.173 262.688 143.895 263.009 143.685C263.332 143.474 263.74 143.369 264.232 143.369C264.902 143.369 265.44 143.578 265.847 143.996C266.256 144.413 266.46 145.027 266.46 145.837V150H265.186V145.99C265.186 145.516 265.063 145.145 264.815 144.878C264.568 144.608 264.229 144.473 263.797 144.473C263.354 144.473 262.989 144.616 262.702 144.903C262.415 145.187 262.271 145.591 262.271 146.114ZM271.224 143.455V144.477H269.882V148.078C269.882 148.447 269.96 148.686 270.116 148.794C270.276 148.899 270.459 148.952 270.666 148.952C270.768 148.952 270.858 148.945 270.935 148.93C271.011 148.916 271.071 148.905 271.114 148.896L271.344 149.949C271.27 149.977 271.163 150.006 271.024 150.034C270.888 150.065 270.719 150.082 270.517 150.085C270.182 150.091 269.868 150.031 269.575 149.906C269.286 149.781 269.051 149.588 268.872 149.327C268.696 149.065 268.608 148.737 268.608 148.342V144.477H267.649V143.455H268.608V141.886H269.882V143.455H271.224ZM274.049 146.114V150H272.775V141.273H274.032V144.52H274.113C274.266 144.165 274.5 143.885 274.816 143.68C275.131 143.473 275.543 143.369 276.051 143.369C276.725 143.369 277.266 143.577 277.675 143.991C278.087 144.406 278.293 145.021 278.293 145.837V150H277.019V145.99C277.019 145.51 276.895 145.138 276.648 144.874C276.401 144.607 276.057 144.473 275.617 144.473C275.162 144.473 274.787 144.616 274.492 144.903C274.196 145.187 274.049 145.591 274.049 146.114ZM284.898 145.053L283.743 145.257C283.669 145.038 283.532 144.838 283.33 144.656C283.131 144.472 282.833 144.379 282.435 144.379C282.074 144.379 281.772 144.46 281.527 144.622C281.286 144.781 281.167 144.987 281.169 145.24C281.167 145.462 281.246 145.639 281.408 145.773C281.573 145.903 281.836 146.011 282.196 146.097L283.236 146.335C284.429 146.611 285.026 147.202 285.026 148.108C285.026 148.503 284.912 148.852 284.685 149.156C284.461 149.46 284.147 149.699 283.743 149.872C283.343 150.045 282.878 150.132 282.35 150.132C281.614 150.132 281.016 149.976 280.556 149.663C280.096 149.348 279.811 148.901 279.703 148.321L280.935 148.134C281.088 148.781 281.557 149.105 282.341 149.105C282.759 149.105 283.093 149.018 283.343 148.845C283.593 148.669 283.718 148.455 283.718 148.202C283.718 147.784 283.409 147.507 282.793 147.371L281.685 147.128C281.071 146.991 280.62 146.77 280.33 146.463C280.04 146.156 279.895 145.771 279.895 145.308C279.895 144.922 280.003 144.584 280.219 144.294C280.435 144.001 280.733 143.774 281.114 143.612C281.495 143.45 281.931 143.369 282.422 143.369C283.13 143.369 283.686 143.523 284.093 143.83C284.499 144.136 284.767 144.544 284.898 145.053Z" fill="#4D4D4D"/>
<path d="M181.151 184.273V193H179.83V185.594H179.778L177.69 186.957V185.696L179.868 184.273H181.151ZM186.704 193V186.455H187.978V193H186.704ZM187.348 185.445C187.126 185.445 186.936 185.371 186.777 185.223C186.62 185.072 186.542 184.893 186.542 184.686C186.542 184.476 186.62 184.297 186.777 184.149C186.936 183.999 187.126 183.923 187.348 183.923C187.566 183.923 187.755 183.999 187.914 184.149C188.074 184.297 188.153 184.476 188.153 184.686C188.153 184.893 188.074 185.072 187.914 185.223C187.755 185.371 187.566 185.445 187.348 185.445ZM190.967 189.114V193H189.692V186.455H190.915V187.52H190.996C191.147 187.173 191.383 186.895 191.704 186.685C192.028 186.474 192.435 186.369 192.927 186.369C193.597 186.369 194.136 186.578 194.542 186.996C194.951 187.413 195.156 188.027 195.156 188.837V193H193.881V188.99C193.881 188.516 193.758 188.145 193.511 187.878C193.263 187.608 192.924 187.473 192.492 187.473C192.049 187.473 191.684 187.616 191.397 187.903C191.11 188.187 190.967 188.591 190.967 189.114ZM200.023 193V192.045L202.976 188.986C203.289 188.653 203.549 188.362 203.756 188.112C203.963 187.859 204.118 187.619 204.221 187.392C204.323 187.165 204.374 186.923 204.374 186.668C204.374 186.233 204.225 185.889 203.926 185.636C203.628 185.381 203.257 185.253 202.814 185.253C202.343 185.253 201.966 185.395 201.685 185.679C201.407 185.96 201.269 186.335 201.272 186.804H200.015C200.015 186.273 200.137 185.808 200.381 185.411C200.625 185.013 200.961 184.705 201.387 184.486C201.813 184.264 202.297 184.153 202.84 184.153C203.388 184.153 203.871 184.263 204.289 184.482C204.709 184.697 205.037 184.993 205.273 185.368C205.509 185.74 205.627 186.161 205.627 186.629C205.627 186.953 205.566 187.27 205.444 187.58C205.324 187.889 205.115 188.234 204.817 188.615C204.522 188.993 204.107 189.452 203.573 189.991L201.838 191.807V191.871H205.767V193H200.023ZM208.363 188.636V184.418H208.324L207.007 185.278V184.303L208.384 183.403H209.368V188.636H208.363ZM210.899 188.636V187.878L212.923 186.143C213.202 185.902 213.415 185.695 213.562 185.521C213.71 185.345 213.784 185.151 213.784 184.938C213.784 184.699 213.69 184.511 213.503 184.375C213.318 184.236 213.089 184.166 212.817 184.166C212.527 184.166 212.294 184.241 212.118 184.392C211.942 184.543 211.854 184.744 211.854 184.997H210.844C210.844 184.491 211.03 184.088 211.402 183.787C211.774 183.486 212.251 183.335 212.834 183.335C213.419 183.335 213.891 183.487 214.249 183.791C214.609 184.095 214.79 184.472 214.79 184.92C214.79 185.278 214.679 185.604 214.457 185.896C214.239 186.186 213.888 186.523 213.405 186.906L212.416 187.741V187.78H214.913V188.636H210.899ZM219.423 195.455V186.455H220.667V187.516H220.774C220.85 187.379 220.957 187.222 221.093 187.043C221.233 186.864 221.426 186.707 221.673 186.574C221.923 186.438 222.25 186.369 222.653 186.369C223.181 186.369 223.652 186.503 224.064 186.77C224.478 187.037 224.805 187.422 225.044 187.925C225.282 188.428 225.402 189.033 225.402 189.74C225.402 190.445 225.284 191.051 225.048 191.56C224.812 192.065 224.488 192.453 224.076 192.723C223.664 192.993 223.194 193.128 222.666 193.128C222.268 193.128 221.944 193.061 221.694 192.928C221.444 192.794 221.247 192.638 221.102 192.459C220.96 192.28 220.85 192.121 220.774 191.982H220.697V195.455H219.423ZM220.672 189.727C220.672 190.415 220.819 190.973 221.115 191.402C221.41 191.828 221.832 192.041 222.38 192.041C222.761 192.041 223.079 191.94 223.335 191.739C223.593 191.534 223.788 191.257 223.919 190.908C224.049 190.558 224.115 190.165 224.115 189.727C224.115 189.293 224.049 188.905 223.919 188.564C223.791 188.22 223.599 187.949 223.343 187.75C223.088 187.551 222.767 187.452 222.38 187.452C221.824 187.452 221.399 187.661 221.106 188.078C220.816 188.493 220.672 189.043 220.672 189.727ZM229.65 193.132C229.008 193.132 228.454 192.993 227.988 192.714C227.522 192.436 227.163 192.045 226.91 191.543C226.66 191.037 226.535 190.446 226.535 189.77C226.535 189.099 226.66 188.509 226.91 187.997C227.163 187.486 227.515 187.087 227.967 186.8C228.422 186.513 228.953 186.369 229.561 186.369C230.055 186.369 230.522 186.48 230.963 186.702C231.406 186.92 231.765 187.271 232.041 187.754C232.319 188.234 232.458 188.869 232.458 189.659V190.111H227.805C227.822 190.741 228 191.227 228.338 191.568C228.676 191.909 229.118 192.08 229.663 192.08C230.027 192.08 230.341 192.001 230.605 191.845C230.869 191.689 231.058 191.456 231.172 191.146L232.377 191.364C232.233 191.895 231.92 192.322 231.44 192.646C230.96 192.97 230.363 193.132 229.65 193.132ZM227.809 189.156H231.21C231.207 188.656 231.056 188.243 230.758 187.916C230.46 187.587 230.064 187.422 229.569 187.422C229.225 187.422 228.924 187.503 228.666 187.665C228.41 187.824 228.207 188.036 228.056 188.3C227.909 188.561 227.826 188.847 227.809 189.156ZM236.629 193.132C236.016 193.132 235.48 192.991 235.023 192.71C234.565 192.429 234.21 192.036 233.957 191.53C233.705 191.021 233.578 190.43 233.578 189.757C233.578 189.078 233.705 188.484 233.957 187.976C234.21 187.467 234.565 187.072 235.023 186.791C235.48 186.51 236.016 186.369 236.629 186.369C237.246 186.369 237.781 186.51 238.236 186.791C238.693 187.072 239.048 187.467 239.301 187.976C239.554 188.484 239.68 189.078 239.68 189.757C239.68 190.43 239.554 191.021 239.301 191.53C239.048 192.036 238.693 192.429 238.236 192.71C237.781 192.991 237.246 193.132 236.629 193.132ZM236.634 192.062C237.034 192.062 237.364 191.957 237.622 191.747C237.884 191.537 238.077 191.257 238.202 190.908C238.33 190.555 238.393 190.17 238.393 189.753C238.393 189.335 238.33 188.95 238.202 188.598C238.077 188.246 237.884 187.964 237.622 187.754C237.364 187.541 237.034 187.435 236.634 187.435C236.233 187.435 235.902 187.541 235.641 187.754C235.379 187.964 235.185 188.246 235.057 188.598C234.929 188.95 234.865 189.335 234.865 189.753C234.865 190.17 234.929 190.555 235.057 190.908C235.185 191.257 235.379 191.537 235.641 191.747C235.902 191.957 236.233 192.062 236.634 192.062ZM241.103 195.455V186.455H242.347V187.516H242.453C242.53 187.379 242.637 187.222 242.773 187.043C242.912 186.864 243.105 186.707 243.353 186.574C243.603 186.438 243.929 186.369 244.333 186.369C244.861 186.369 245.331 186.503 245.743 186.77C246.158 187.037 246.485 187.422 246.723 187.925C246.962 188.428 247.081 189.033 247.081 189.74C247.081 190.445 246.963 191.051 246.728 191.56C246.492 192.065 246.168 192.453 245.756 192.723C245.344 192.993 244.874 193.128 244.346 193.128C243.948 193.128 243.624 193.061 243.374 192.928C243.124 192.794 242.926 192.638 242.782 192.459C242.64 192.28 242.53 192.121 242.453 191.982H242.377V195.455H241.103ZM242.351 189.727C242.351 190.415 242.499 190.973 242.794 191.402C243.09 191.828 243.512 192.041 244.06 192.041C244.441 192.041 244.759 191.94 245.015 191.739C245.273 191.534 245.468 191.257 245.598 190.908C245.729 190.558 245.794 190.165 245.794 189.727C245.794 189.293 245.729 188.905 245.598 188.564C245.471 188.22 245.279 187.949 245.023 187.75C244.767 187.551 244.446 187.452 244.06 187.452C243.503 187.452 243.078 187.661 242.786 188.078C242.496 188.493 242.351 189.043 242.351 189.727ZM249.783 184.273V193H248.509V184.273H249.783ZM254.318 193.132C253.676 193.132 253.122 192.993 252.656 192.714C252.19 192.436 251.831 192.045 251.578 191.543C251.328 191.037 251.203 190.446 251.203 189.77C251.203 189.099 251.328 188.509 251.578 187.997C251.831 187.486 252.183 187.087 252.635 186.8C253.089 186.513 253.621 186.369 254.229 186.369C254.723 186.369 255.19 186.48 255.631 186.702C256.074 186.92 256.433 187.271 256.709 187.754C256.987 188.234 257.126 188.869 257.126 189.659V190.111H252.473C252.49 190.741 252.668 191.227 253.006 191.568C253.344 191.909 253.786 192.08 254.331 192.08C254.695 192.08 255.009 192.001 255.273 191.845C255.537 191.689 255.726 191.456 255.839 191.146L257.045 191.364C256.901 191.895 256.588 192.322 256.108 192.646C255.628 192.97 255.031 193.132 254.318 193.132ZM252.477 189.156H255.878C255.875 188.656 255.724 188.243 255.426 187.916C255.128 187.587 254.732 187.422 254.237 187.422C253.893 187.422 253.592 187.503 253.334 187.665C253.078 187.824 252.875 188.036 252.724 188.3C252.577 188.561 252.494 188.847 252.477 189.156Z" fill="#4D4D4D"/>
<path d="M84.2074 188.111H82.8778C82.7699 187.545 82.5043 187.112 82.081 186.811C81.6605 186.507 81.1719 186.355 80.6151 186.355C80.1151 186.355 79.6662 186.482 79.2685 186.734C78.8707 186.987 78.5568 187.358 78.3267 187.847C78.0994 188.332 77.9858 188.929 77.9858 189.636C77.9858 190.347 78.1009 190.946 78.331 191.435C78.5611 191.923 78.8736 192.293 79.2685 192.543C79.6662 192.793 80.1136 192.918 80.6108 192.918C81.1619 192.918 81.6491 192.768 82.0724 192.47C82.4957 192.172 82.7642 191.744 82.8778 191.188L84.2074 191.192C84.1136 191.766 83.9034 192.273 83.5767 192.713C83.25 193.153 82.8324 193.499 82.3239 193.749C81.8153 193.996 81.2415 194.119 80.6023 194.119C79.8466 194.119 79.1733 193.94 78.5824 193.582C77.9915 193.222 77.5256 192.706 77.1847 192.036C76.8466 191.365 76.6776 190.565 76.6776 189.636C76.6776 188.705 76.848 187.905 77.1889 187.237C77.5298 186.567 77.9957 186.053 78.5866 185.695C79.1776 185.334 79.8494 185.153 80.6023 185.153C81.2188 185.153 81.7798 185.27 82.2855 185.503C82.794 185.736 83.2159 186.074 83.5511 186.517C83.8892 186.957 84.108 187.489 84.2074 188.111ZM88.4379 194.132C87.8242 194.132 87.2887 193.991 86.8313 193.71C86.3739 193.429 86.0188 193.036 85.766 192.53C85.5131 192.021 85.3867 191.43 85.3867 190.757C85.3867 190.078 85.5131 189.484 85.766 188.976C86.0188 188.467 86.3739 188.072 86.8313 187.791C87.2887 187.51 87.8242 187.369 88.4379 187.369C89.0543 187.369 89.5898 187.51 90.0444 187.791C90.5018 188.072 90.8569 188.467 91.1097 188.976C91.3626 189.484 91.489 190.078 91.489 190.757C91.489 191.43 91.3626 192.021 91.1097 192.53C90.8569 193.036 90.5018 193.429 90.0444 193.71C89.5898 193.991 89.0543 194.132 88.4379 194.132ZM88.4421 193.062C88.8427 193.062 89.1722 192.957 89.4308 192.747C89.6921 192.537 89.8853 192.257 90.0103 191.908C90.1381 191.555 90.2021 191.17 90.2021 190.753C90.2021 190.335 90.1381 189.95 90.0103 189.598C89.8853 189.246 89.6921 188.964 89.4308 188.754C89.1722 188.541 88.8427 188.435 88.4421 188.435C88.0415 188.435 87.7106 188.541 87.4492 188.754C87.1879 188.964 86.9933 189.246 86.8654 189.598C86.7376 189.95 86.6737 190.335 86.6737 190.753C86.6737 191.17 86.7376 191.555 86.8654 191.908C86.9933 192.257 87.1879 192.537 87.4492 192.747C87.7106 192.957 88.0415 193.062 88.4421 193.062ZM92.9112 194V187.455H94.1342V188.52H94.2152C94.3516 188.159 94.5746 187.878 94.8842 187.676C95.1939 187.472 95.5646 187.369 95.9964 187.369C96.4339 187.369 96.8004 187.472 97.0959 187.676C97.3942 187.881 97.6143 188.162 97.7564 188.52H97.8246C97.9837 188.17 98.2322 187.892 98.5703 187.685C98.9112 187.474 99.3175 187.369 99.7891 187.369C100.383 187.369 100.867 187.557 101.242 187.932C101.62 188.304 101.809 188.864 101.809 189.611V194H100.535V189.73C100.535 189.287 100.414 188.966 100.173 188.767C99.9339 188.568 99.6456 188.469 99.3075 188.469C98.8928 188.469 98.5703 188.597 98.3402 188.852C98.1101 189.108 97.995 189.433 97.995 189.828V194H96.7251V189.649C96.7251 189.294 96.6143 189.009 96.3928 188.793C96.1712 188.577 95.8828 188.469 95.5277 188.469C95.1669 188.469 94.853 188.608 94.5859 188.886C94.3189 189.165 94.1854 189.524 94.1854 189.964V194H92.9112ZM103.517 194V187.455H104.74V188.52H104.821C104.957 188.159 105.18 187.878 105.49 187.676C105.799 187.472 106.17 187.369 106.602 187.369C107.039 187.369 107.406 187.472 107.701 187.676C108 187.881 108.22 188.162 108.362 188.52H108.43C108.589 188.17 108.838 187.892 109.176 187.685C109.517 187.474 109.923 187.369 110.395 187.369C110.988 187.369 111.473 187.557 111.848 187.932C112.225 188.304 112.414 188.864 112.414 189.611V194H111.14V189.73C111.14 189.287 111.02 188.966 110.778 188.767C110.539 188.568 110.251 188.469 109.913 188.469C109.498 188.469 109.176 188.597 108.946 188.852C108.716 189.108 108.6 189.433 108.6 189.828V194H107.331V189.649C107.331 189.294 107.22 189.009 106.998 188.793C106.777 188.577 106.488 188.469 106.133 188.469C105.772 188.469 105.458 188.608 105.191 188.886C104.924 189.165 104.791 189.524 104.791 189.964V194H103.517ZM116.879 194.132C116.266 194.132 115.73 193.991 115.273 193.71C114.815 193.429 114.46 193.036 114.207 192.53C113.955 192.021 113.828 191.43 113.828 190.757C113.828 190.078 113.955 189.484 114.207 188.976C114.46 188.467 114.815 188.072 115.273 187.791C115.73 187.51 116.266 187.369 116.879 187.369C117.496 187.369 118.031 187.51 118.486 187.791C118.943 188.072 119.298 188.467 119.551 188.976C119.804 189.484 119.93 190.078 119.93 190.757C119.93 191.43 119.804 192.021 119.551 192.53C119.298 193.036 118.943 193.429 118.486 193.71C118.031 193.991 117.496 194.132 116.879 194.132ZM116.884 193.062C117.284 193.062 117.614 192.957 117.872 192.747C118.134 192.537 118.327 192.257 118.452 191.908C118.58 191.555 118.643 191.17 118.643 190.753C118.643 190.335 118.58 189.95 118.452 189.598C118.327 189.246 118.134 188.964 117.872 188.754C117.614 188.541 117.284 188.435 116.884 188.435C116.483 188.435 116.152 188.541 115.891 188.754C115.629 188.964 115.435 189.246 115.307 189.598C115.179 189.95 115.115 190.335 115.115 190.753C115.115 191.17 115.179 191.555 115.307 191.908C115.435 192.257 115.629 192.537 115.891 192.747C116.152 192.957 116.483 193.062 116.884 193.062ZM122.627 190.114V194H121.353V187.455H122.576V188.52H122.657C122.807 188.173 123.043 187.895 123.364 187.685C123.688 187.474 124.096 187.369 124.587 187.369C125.257 187.369 125.796 187.578 126.202 187.996C126.611 188.413 126.816 189.027 126.816 189.837V194H125.542V189.99C125.542 189.516 125.418 189.145 125.171 188.878C124.924 188.608 124.584 188.473 124.152 188.473C123.709 188.473 123.344 188.616 123.057 188.903C122.77 189.187 122.627 189.591 122.627 190.114ZM129.799 190.114V194H128.525V187.455H129.748V188.52H129.828C129.979 188.173 130.215 187.895 130.536 187.685C130.86 187.474 131.267 187.369 131.759 187.369C132.429 187.369 132.968 187.578 133.374 187.996C133.783 188.413 133.988 189.027 133.988 189.837V194H132.713V189.99C132.713 189.516 132.59 189.145 132.343 188.878C132.096 188.608 131.756 188.473 131.324 188.473C130.881 188.473 130.516 188.616 130.229 188.903C129.942 189.187 129.799 189.591 129.799 190.114ZM138.517 194.132C137.875 194.132 137.321 193.993 136.855 193.714C136.39 193.436 136.03 193.045 135.777 192.543C135.527 192.037 135.402 191.446 135.402 190.77C135.402 190.099 135.527 189.509 135.777 188.997C136.03 188.486 136.382 188.087 136.834 187.8C137.289 187.513 137.82 187.369 138.428 187.369C138.922 187.369 139.39 187.48 139.83 187.702C140.273 187.92 140.632 188.271 140.908 188.754C141.186 189.234 141.326 189.869 141.326 190.659V191.111H136.672C136.689 191.741 136.867 192.227 137.205 192.568C137.543 192.909 137.985 193.08 138.53 193.08C138.894 193.08 139.208 193.001 139.472 192.845C139.736 192.689 139.925 192.456 140.039 192.146L141.245 192.364C141.1 192.895 140.787 193.322 140.307 193.646C139.827 193.97 139.23 194.132 138.517 194.132ZM136.676 190.156H140.077C140.074 189.656 139.924 189.243 139.625 188.916C139.327 188.587 138.931 188.422 138.436 188.422C138.093 188.422 137.792 188.503 137.533 188.665C137.277 188.824 137.074 189.036 136.924 189.3C136.776 189.561 136.694 189.847 136.676 190.156ZM147.644 189.053L146.489 189.257C146.415 189.038 146.278 188.838 146.076 188.656C145.877 188.472 145.579 188.379 145.181 188.379C144.82 188.379 144.518 188.46 144.273 188.622C144.032 188.781 143.913 188.987 143.915 189.24C143.913 189.462 143.992 189.639 144.154 189.773C144.319 189.903 144.582 190.011 144.942 190.097L145.982 190.335C147.175 190.611 147.772 191.202 147.772 192.108C147.772 192.503 147.658 192.852 147.431 193.156C147.207 193.46 146.893 193.699 146.489 193.872C146.089 194.045 145.624 194.132 145.096 194.132C144.36 194.132 143.762 193.976 143.302 193.663C142.842 193.348 142.558 192.901 142.45 192.321L143.681 192.134C143.835 192.781 144.303 193.105 145.087 193.105C145.505 193.105 145.839 193.018 146.089 192.845C146.339 192.669 146.464 192.455 146.464 192.202C146.464 191.784 146.156 191.507 145.539 191.371L144.431 191.128C143.817 190.991 143.366 190.77 143.076 190.463C142.786 190.156 142.641 189.771 142.641 189.308C142.641 188.922 142.749 188.584 142.965 188.294C143.181 188.001 143.479 187.774 143.86 187.612C144.241 187.45 144.677 187.369 145.168 187.369C145.876 187.369 146.433 187.523 146.839 187.83C147.245 188.136 147.513 188.544 147.644 189.053ZM154.078 189.053L152.923 189.257C152.849 189.038 152.711 188.838 152.51 188.656C152.311 188.472 152.012 188.379 151.615 188.379C151.254 188.379 150.951 188.46 150.707 188.622C150.466 188.781 150.346 188.987 150.349 189.24C150.346 189.462 150.426 189.639 150.588 189.773C150.752 189.903 151.015 190.011 151.376 190.097L152.416 190.335C153.609 190.611 154.206 191.202 154.206 192.108C154.206 192.503 154.092 192.852 153.865 193.156C153.64 193.46 153.326 193.699 152.923 193.872C152.522 194.045 152.058 194.132 151.529 194.132C150.794 194.132 150.196 193.976 149.735 193.663C149.275 193.348 148.991 192.901 148.883 192.321L150.115 192.134C150.268 192.781 150.737 193.105 151.521 193.105C151.939 193.105 152.272 193.018 152.522 192.845C152.772 192.669 152.897 192.455 152.897 192.202C152.897 191.784 152.589 191.507 151.973 191.371L150.865 191.128C150.251 190.991 149.799 190.77 149.51 190.463C149.22 190.156 149.075 189.771 149.075 189.308C149.075 188.922 149.183 188.584 149.399 188.294C149.615 188.001 149.913 187.774 150.294 187.612C150.674 187.45 151.11 187.369 151.602 187.369C152.309 187.369 152.866 187.523 153.272 187.83C153.679 188.136 153.947 188.544 154.078 189.053Z" fill="#979797"/>
<rect x="77" y="227" width="246" height="14" rx="2" fill="#F5F5F5"/>
<path d="M77 229C77 227.895 77.8954 227 79 227H271V241H79C77.8954 241 77 240.105 77 239V229Z" fill="#82D881"/>
<path d="M73.1122 49.5455L73.2067 47.4474L71.4368 48.5859L70.8949 47.6413L72.7741 46.6818L70.8949 45.7223L71.4368 44.7777L73.2067 45.9162L73.1122 43.8182H74.1911L74.0966 45.9162L75.8665 44.7777L76.4084 45.7223L74.5291 46.6818L76.4084 47.6413L75.8665 48.5859L74.0966 47.4474L74.1911 49.5455H73.1122ZM80.413 49.5455L80.5075 47.4474L78.7376 48.5859L78.1957 47.6413L80.0749 46.6818L78.1957 45.7223L78.7376 44.7777L80.5075 45.9162L80.413 43.8182H81.4918L81.3974 45.9162L83.1673 44.7777L83.7092 45.7223L81.8299 46.6818L83.7092 47.6413L83.1673 48.5859L81.3974 47.4474L81.4918 49.5455H80.413ZM87.7138 49.5455L87.8082 47.4474L86.0384 48.5859L85.4964 47.6413L87.3757 46.6818L85.4964 45.7223L86.0384 44.7777L87.8082 45.9162L87.7138 43.8182H88.7926L88.6982 45.9162L90.468 44.7777L91.0099 45.7223L89.1307 46.6818L91.0099 47.6413L90.468 48.5859L88.6982 47.4474L88.7926 49.5455H87.7138ZM95.0146 49.5455L95.109 47.4474L93.3391 48.5859L92.7972 47.6413L94.6765 46.6818L92.7972 45.7223L93.3391 44.7777L95.109 45.9162L95.0146 43.8182H96.0934L95.9989 45.9162L97.7688 44.7777L98.3107 45.7223L96.4315 46.6818L98.3107 47.6413L97.7688 48.5859L95.9989 47.4474L96.0934 49.5455H95.0146ZM102.315 49.5455L102.41 47.4474L100.64 48.5859L100.098 47.6413L101.977 46.6818L100.098 45.7223L100.64 44.7777L102.41 45.9162L102.315 43.8182H103.394L103.3 45.9162L105.07 44.7777L105.612 45.7223L103.732 46.6818L105.612 47.6413L105.07 48.5859L103.3 47.4474L103.394 49.5455H102.315ZM109.616 49.5455L109.711 47.4474L107.941 48.5859L107.399 47.6413L109.278 46.6818L107.399 45.7223L107.941 44.7777L109.711 45.9162L109.616 43.8182H110.695L110.6 45.9162L112.37 44.7777L112.912 45.7223L111.033 46.6818L112.912 47.6413L112.37 48.5859L110.6 47.4474L110.695 49.5455H109.616ZM116.917 49.5455L117.011 47.4474L115.241 48.5859L114.7 47.6413L116.579 46.6818L114.7 45.7223L115.241 44.7777L117.011 45.9162L116.917 43.8182H117.996L117.901 45.9162L119.671 44.7777L120.213 45.7223L118.334 46.6818L120.213 47.6413L119.671 48.5859L117.901 47.4474L117.996 49.5455H116.917ZM124.218 49.5455L124.312 47.4474L122.542 48.5859L122 47.6413L123.88 46.6818L122 45.7223L122.542 44.7777L124.312 45.9162L124.218 43.8182H125.297L125.202 45.9162L126.972 44.7777L127.514 45.7223L125.635 46.6818L127.514 47.6413L126.972 48.5859L125.202 47.4474L125.297 49.5455H124.218ZM131.518 49.5455L131.613 47.4474L129.843 48.5859L129.301 47.6413L131.18 46.6818L129.301 45.7223L129.843 44.7777L131.613 45.9162L131.518 43.8182H132.597L132.503 45.9162L134.273 44.7777L134.815 45.7223L132.935 46.6818L134.815 47.6413L134.273 48.5859L132.503 47.4474L132.597 49.5455H131.518ZM138.819 49.5455L138.914 47.4474L137.144 48.5859L136.602 47.6413L138.481 46.6818L136.602 45.7223L137.144 44.7777L138.914 45.9162L138.819 43.8182H139.898L139.804 45.9162L141.574 44.7777L142.115 45.7223L140.236 46.6818L142.115 47.6413L141.574 48.5859L139.804 47.4474L139.898 49.5455H138.819ZM146.12 49.5455L146.214 47.4474L144.445 48.5859L143.903 47.6413L145.782 46.6818L143.903 45.7223L144.445 44.7777L146.214 45.9162L146.12 43.8182H147.199L147.104 45.9162L148.874 44.7777L149.416 45.7223L147.537 46.6818L149.416 47.6413L148.874 48.5859L147.104 47.4474L147.199 49.5455H146.12ZM153.421 49.5455L153.515 47.4474L151.745 48.5859L151.203 47.6413L153.083 46.6818L151.203 45.7223L151.745 44.7777L153.515 45.9162L153.421 43.8182H154.5L154.405 45.9162L156.175 44.7777L156.717 45.7223L154.838 46.6818L156.717 47.6413L156.175 48.5859L154.405 47.4474L154.5 49.5455H153.421ZM160.722 49.5455L160.816 47.4474L159.046 48.5859L158.504 47.6413L160.384 46.6818L158.504 45.7223L159.046 44.7777L160.816 45.9162L160.722 43.8182H161.8L161.706 45.9162L163.476 44.7777L164.018 45.7223L162.138 46.6818L164.018 47.6413L163.476 48.5859L161.706 47.4474L161.8 49.5455H160.722ZM168.022 49.5455L168.117 47.4474L166.347 48.5859L165.805 47.6413L167.684 46.6818L165.805 45.7223L166.347 44.7777L168.117 45.9162L168.022 43.8182H169.101L169.007 45.9162L170.777 44.7777L171.319 45.7223L169.439 46.6818L171.319 47.6413L170.777 48.5859L169.007 47.4474L169.101 49.5455H168.022ZM175.323 49.5455L175.418 47.4474L173.648 48.5859L173.106 47.6413L174.985 46.6818L173.106 45.7223L173.648 44.7777L175.418 45.9162L175.323 43.8182H176.402L176.308 45.9162L178.077 44.7777L178.619 45.7223L176.74 46.6818L178.619 47.6413L178.077 48.5859L176.308 47.4474L176.402 49.5455H175.323ZM182.624 49.5455L182.718 47.4474L180.949 48.5859L180.407 47.6413L182.286 46.6818L180.407 45.7223L180.949 44.7777L182.718 45.9162L182.624 43.8182H183.703L183.608 45.9162L185.378 44.7777L185.92 45.7223L184.041 46.6818L185.92 47.6413L185.378 48.5859L183.608 47.4474L183.703 49.5455H182.624ZM189.925 49.5455L190.019 47.4474L188.249 48.5859L187.707 47.6413L189.587 46.6818L187.707 45.7223L188.249 44.7777L190.019 45.9162L189.925 43.8182H191.004L190.909 45.9162L192.679 44.7777L193.221 45.7223L191.342 46.6818L193.221 47.6413L192.679 48.5859L190.909 47.4474L191.004 49.5455H189.925ZM197.225 49.5455L197.32 47.4474L195.55 48.5859L195.008 47.6413L196.887 46.6818L195.008 45.7223L195.55 44.7777L197.32 45.9162L197.225 43.8182H198.304L198.21 45.9162L199.98 44.7777L200.522 45.7223L198.642 46.6818L200.522 47.6413L199.98 48.5859L198.21 47.4474L198.304 49.5455H197.225Z" fill="black" fill-opacity="0.54"/>
<path d="M322 42C317.909 42 314.415 44.6953 313 48.5C314.415 52.3047 317.909 55 322 55C326.091 55 329.585 52.3047 331 48.5C329.585 44.6953 326.091 42 322 42ZM322 52.8333C319.742 52.8333 317.909 50.892 317.909 48.5C317.909 46.108 319.742 44.1667 322 44.1667C324.258 44.1667 326.091 46.108 326.091 48.5C326.091 50.892 324.258 52.8333 322 52.8333ZM322 45.9C320.642 45.9 319.545 47.0613 319.545 48.5C319.545 49.9387 320.642 51.1 322 51.1C323.358 51.1 324.455 49.9387 324.455 48.5C324.455 47.0613 323.358 45.9 322 45.9Z" fill="#A3A3A3" fill-opacity="0.58"/>
<rect x="309" y="98" width="18" height="18" rx="3" fill="#E8C3C3" fill-opacity="0.54"/>
<path d="M319.467 106.496L322.8 103.163C322.925 103.034 322.993 102.862 322.992 102.684C322.99 102.505 322.918 102.334 322.792 102.208C322.666 102.082 322.495 102.01 322.316 102.008C322.138 102.007 321.966 102.076 321.837 102.2L318.504 105.533L315.171 102.2C315.108 102.136 315.033 102.086 314.95 102.052C314.867 102.018 314.779 102 314.689 102C314.6 102 314.511 102.018 314.429 102.052C314.346 102.086 314.271 102.136 314.208 102.2C314.144 102.263 314.094 102.338 314.06 102.421C314.026 102.503 314.008 102.592 314.008 102.681C314.008 102.771 314.026 102.859 314.06 102.942C314.094 103.025 314.144 103.1 314.208 103.163L317.541 106.496L314.2 109.837C314.105 109.933 314.04 110.054 314.013 110.186C313.987 110.318 314 110.455 314.052 110.58C314.103 110.704 314.191 110.811 314.303 110.886C314.415 110.96 314.547 111 314.682 111C314.856 111 315.03 110.934 315.163 110.801L318.504 107.459L321.837 110.793C321.901 110.856 321.976 110.906 322.058 110.94C322.141 110.975 322.23 110.992 322.319 110.992C322.454 110.992 322.585 110.952 322.697 110.877C322.809 110.802 322.897 110.696 322.948 110.572C323 110.447 323.013 110.31 322.987 110.178C322.961 110.046 322.896 109.925 322.801 109.829L319.467 106.496Z" fill="#DD2E44" fill-opacity="0.75"/>
<defs>
<filter id="filter0_d" x="40" y="78" width="321" height="207" filterUnits="userSpaceOnUse" color-interpolation-filters="sRGB">
<feFlood flood-opacity="0" result="BackgroundImageFix"/>
<feColorMatrix in="SourceAlpha" type="matrix" values="0 0 0 0 0 0 0 0 0 0 0 0 0 0 0 0 0 0 127 0"/>
<feOffset dy="2"/>
<feGaussianBlur stdDeviation="7.5"/>
<feColorMatrix type="matrix" values="0 0 0 0 0 0 0 0 0 0 0 0 0 0 0 0 0 0 0.71 0"/>
<feBlend mode="normal" in2="BackgroundImageFix" result="effect1_dropShadow"/>
<feBlend mode="normal" in="SourceGraphic" in2="effect1_dropShadow" result="shape"/>
</filter>
</defs>
</svg>
