<svg width="320" height="138" viewBox="0 0 320 138" fill="none" xmlns="http://www.w3.org/2000/svg">
<rect x="4" y="103" width="312" height="31" rx="3" fill="white"/>
<rect x="2.25" y="101.25" width="315.5" height="34.5" rx="4.75" stroke="#65BEFF" stroke-opacity="0.6" stroke-width="3.5"/>
<path d="M18.4858 119.466V124H16.9993V113.818H18.4659V117.607H18.5604C18.7393 117.192 19.0128 116.866 19.3807 116.627C19.7486 116.385 20.2292 116.264 20.8224 116.264C21.608 116.264 22.2393 116.506 22.7166 116.99C23.1972 117.474 23.4375 118.192 23.4375 119.143V124H21.951V119.322C21.951 118.762 21.8068 118.327 21.5185 118.019C21.2301 117.708 20.8291 117.552 20.3153 117.552C19.785 117.552 19.3475 117.719 19.0028 118.054C18.6581 118.385 18.4858 118.856 18.4858 119.466ZM28.7124 124.154C27.9633 124.154 27.317 123.992 26.7734 123.667C26.2299 123.342 25.8106 122.886 25.5156 122.3C25.224 121.71 25.0781 121.02 25.0781 120.232C25.0781 119.449 25.224 118.76 25.5156 118.163C25.8106 117.567 26.2216 117.101 26.7486 116.766C27.2789 116.432 27.8987 116.264 28.608 116.264C29.1847 116.264 29.7299 116.393 30.2436 116.652C30.7607 116.907 31.1799 117.317 31.5014 117.88C31.8262 118.44 31.9886 119.181 31.9886 120.102V120.629H26.5597C26.5795 121.365 26.7867 121.932 27.1811 122.33C27.5755 122.727 28.0909 122.926 28.7273 122.926C29.1515 122.926 29.5178 122.835 29.826 122.653C30.1342 122.47 30.3546 122.199 30.4872 121.837L31.8942 122.091C31.7251 122.711 31.3606 123.21 30.8004 123.587C30.2403 123.965 29.5443 124.154 28.7124 124.154ZM26.5646 119.516H30.532C30.5286 118.932 30.353 118.45 30.005 118.069C29.657 117.684 29.1946 117.492 28.6179 117.492C28.2169 117.492 27.8655 117.587 27.5639 117.776C27.2656 117.961 27.0286 118.208 26.853 118.516C26.6806 118.821 26.5845 119.154 26.5646 119.516ZM35.1245 113.818V124H33.638V113.818H35.1245ZM38.6108 113.818V124H37.1243V113.818H38.6108ZM43.8272 124.154C43.1113 124.154 42.4866 123.99 41.9529 123.662C41.4193 123.334 41.005 122.875 40.71 122.285C40.4151 121.692 40.2676 121.002 40.2676 120.217C40.2676 119.424 40.4151 118.732 40.71 118.138C41.005 117.545 41.4193 117.085 41.9529 116.756C42.4866 116.428 43.1113 116.264 43.8272 116.264C44.5465 116.264 45.1712 116.428 45.7015 116.756C46.2351 117.085 46.6494 117.545 46.9444 118.138C47.2394 118.732 47.3869 119.424 47.3869 120.217C47.3869 121.002 47.2394 121.692 46.9444 122.285C46.6494 122.875 46.2351 123.334 45.7015 123.662C45.1712 123.99 44.5465 124.154 43.8272 124.154ZM43.8322 122.906C44.2995 122.906 44.684 122.784 44.9856 122.538C45.2905 122.293 45.5159 121.967 45.6618 121.559C45.8109 121.148 45.8855 120.699 45.8855 120.212C45.8855 119.724 45.8109 119.275 45.6618 118.864C45.5159 118.453 45.2905 118.125 44.9856 117.88C44.684 117.631 44.2995 117.507 43.8322 117.507C43.3649 117.507 42.9788 117.631 42.6738 117.88C42.3689 118.125 42.1419 118.453 41.9927 118.864C41.8436 119.275 41.769 119.724 41.769 120.212C41.769 120.699 41.8436 121.148 41.9927 121.559C42.1419 121.967 42.3689 122.293 42.6738 122.538C42.9788 122.784 43.3649 122.906 43.8322 122.906ZM52.8892 113.818V124H51.348V115.359H51.2884L48.8523 116.95V115.479L51.3928 113.818H52.8892ZM55.6435 124V122.886L59.0888 119.317C59.4534 118.929 59.7566 118.589 59.9986 118.298C60.2405 118.003 60.4212 117.723 60.5405 117.457C60.6598 117.192 60.7195 116.911 60.7195 116.612C60.7195 116.105 60.5455 115.704 60.1974 115.409C59.8494 115.111 59.4169 114.962 58.8999 114.962C58.3497 114.962 57.9105 115.127 57.5824 115.459C57.2576 115.787 57.0968 116.224 57.1001 116.771H55.6335C55.6335 116.152 55.776 115.61 56.0611 115.146C56.3461 114.682 56.7372 114.322 57.2344 114.067C57.7315 113.808 58.2966 113.679 58.9297 113.679C59.5694 113.679 60.1328 113.807 60.62 114.062C61.1106 114.314 61.4934 114.658 61.7685 115.096C62.0436 115.53 62.1811 116.021 62.1811 116.567C62.1811 116.945 62.1098 117.315 61.9673 117.676C61.8281 118.037 61.5845 118.44 61.2365 118.884C60.8918 119.325 60.4079 119.86 59.7848 120.49L57.7614 122.608V122.683H62.3452V124H55.6435ZM67.7741 124.139C67.0881 124.139 66.4782 124.022 65.9446 123.786C65.411 123.551 64.9884 123.224 64.6768 122.807C64.3686 122.386 64.2029 121.899 64.1797 121.345H65.7408C65.7706 121.796 65.9777 122.154 66.3622 122.419C66.7467 122.684 67.214 122.817 67.7642 122.817C68.3641 122.817 68.8563 122.664 69.2408 122.359C69.6286 122.051 69.8224 121.65 69.8224 121.156C69.8224 120.643 69.6269 120.225 69.2358 119.903C68.848 119.579 68.3011 119.416 67.5952 119.416H66.7351V118.163H67.5952C68.1586 118.163 68.6193 118.014 68.9773 117.716C69.3352 117.418 69.5125 117.023 69.5092 116.533C69.5125 116.062 69.3568 115.683 69.0419 115.394C68.7304 115.106 68.3144 114.962 67.794 114.962C67.2936 114.962 66.8527 115.096 66.4716 115.364C66.0938 115.629 65.8965 115.996 65.88 116.463H64.3935C64.41 115.91 64.5724 115.424 64.8807 115.006C65.1922 114.589 65.6032 114.264 66.1136 114.032C66.6241 113.797 67.1908 113.679 67.8139 113.679C68.4669 113.679 69.032 113.807 69.5092 114.062C69.9865 114.317 70.3544 114.655 70.6129 115.076C70.8714 115.494 70.9991 115.953 70.9957 116.453C70.9991 117.023 70.8416 117.507 70.5234 117.905C70.2053 118.303 69.7794 118.569 69.2457 118.705V118.785C69.9219 118.888 70.4455 119.156 70.8168 119.59C71.1913 120.024 71.3769 120.563 71.3736 121.206C71.3769 121.769 71.2228 122.273 70.9112 122.717C70.5997 123.158 70.1721 123.506 69.6286 123.761C69.085 124.013 68.4669 124.139 67.7741 124.139ZM75.495 124.169C75.0111 124.169 74.5736 124.08 74.1825 123.901C73.7947 123.722 73.4865 123.46 73.2578 123.115C73.0291 122.767 72.9148 122.343 72.9148 121.842C72.9148 121.408 72.9976 121.052 73.1634 120.773C73.3324 120.495 73.5561 120.275 73.8345 120.112C74.1162 119.95 74.4311 119.829 74.7791 119.749C75.1271 119.666 75.4818 119.603 75.843 119.56C76.3004 119.507 76.67 119.464 76.9517 119.431C77.2367 119.395 77.4439 119.337 77.5732 119.257C77.7057 119.178 77.772 119.048 77.772 118.869V118.835C77.772 118.4 77.6494 118.064 77.4041 117.825C77.1622 117.587 76.8009 117.467 76.3203 117.467C75.8198 117.467 75.4254 117.577 75.1371 117.795C74.852 118.014 74.6548 118.259 74.5455 118.531L73.1484 118.213C73.397 117.517 73.8113 117.018 74.3913 116.717C74.9747 116.415 75.611 116.264 76.3004 116.264C76.6054 116.264 76.9285 116.301 77.2699 116.374C77.6113 116.443 77.9328 116.574 78.2344 116.766C78.5393 116.955 78.7862 117.224 78.9751 117.572C79.1674 117.92 79.2635 118.372 79.2635 118.929V124H77.8118V122.956H77.7521C77.6096 123.241 77.3561 123.514 76.9915 123.776C76.6269 124.038 76.1281 124.169 75.495 124.169ZM75.8182 122.976C76.2325 122.976 76.5855 122.895 76.8771 122.732C77.1688 122.57 77.3909 122.358 77.5433 122.096C77.6991 121.831 77.777 121.547 77.777 121.246V120.261C77.7074 120.331 77.5549 120.392 77.3196 120.445C77.0843 120.498 76.8357 120.543 76.5739 120.58C76.312 120.616 76.0999 120.646 75.9375 120.669C75.5066 120.725 75.1371 120.84 74.8288 121.012C74.5239 121.181 74.3714 121.464 74.3714 121.862C74.3714 122.23 74.5073 122.509 74.7791 122.697C75.0509 122.883 75.3973 122.976 75.8182 122.976ZM81.3627 124V113.818H82.8493V117.602H82.9387C83.0282 117.442 83.1525 117.259 83.3116 117.05C83.474 116.841 83.6994 116.659 83.9877 116.503C84.2794 116.344 84.6606 116.264 85.1312 116.264C85.7477 116.264 86.2962 116.42 86.7768 116.732C87.2607 117.043 87.6419 117.492 87.9203 118.079C88.1987 118.665 88.3379 119.371 88.3379 120.197C88.3379 121.019 88.2003 121.726 87.9252 122.32C87.6502 122.91 87.2723 123.362 86.7917 123.677C86.3111 123.992 85.7626 124.149 85.1461 124.149C84.6821 124.149 84.3043 124.071 84.0126 123.915C83.7209 123.76 83.4906 123.577 83.3216 123.369C83.1558 123.16 83.0282 122.974 82.9387 122.812H82.8145V124H81.3627ZM82.8194 120.182C82.8194 120.984 82.9918 121.635 83.3365 122.136C83.6812 122.633 84.1734 122.881 84.813 122.881C85.2572 122.881 85.6284 122.764 85.9267 122.528C86.2283 122.29 86.4553 121.967 86.6078 121.559C86.7602 121.151 86.8365 120.692 86.8365 120.182C86.8365 119.675 86.7602 119.222 86.6078 118.825C86.4586 118.424 86.2349 118.107 85.9366 117.875C85.6383 117.643 85.2638 117.527 84.813 117.527C84.1634 117.527 83.6679 117.771 83.3265 118.258C82.9885 118.742 82.8194 119.383 82.8194 120.182ZM93.2237 124.154C92.4846 124.154 91.8482 123.987 91.3146 123.652C90.7843 123.314 90.3767 122.848 90.0916 122.255C89.8066 121.662 89.6641 120.982 89.6641 120.217C89.6641 119.438 89.8099 118.752 90.1016 118.158C90.3932 117.565 90.8042 117.101 91.3345 116.766C91.8681 116.432 92.4929 116.264 93.2088 116.264C93.7888 116.264 94.3059 116.372 94.7599 116.587C95.214 116.799 95.5803 117.098 95.8587 117.482C96.1404 117.867 96.3078 118.316 96.3608 118.83H94.9141C94.8345 118.472 94.6522 118.163 94.3672 117.905C94.0855 117.646 93.7076 117.517 93.2337 117.517C92.6139 117.517 92.1134 117.757 91.7322 118.238C91.3544 118.715 91.1655 119.363 91.1655 120.182C91.1655 121.014 91.3527 121.675 91.7273 122.165C92.1018 122.653 92.6039 122.896 93.2337 122.896C93.6579 122.896 94.0208 122.78 94.3224 122.548C94.6241 122.316 94.8213 121.995 94.9141 121.584H96.3608C96.3078 122.078 96.147 122.518 95.8786 122.906C95.6101 123.294 95.2505 123.599 94.7997 123.821C94.3523 124.043 93.8269 124.154 93.2237 124.154ZM100.809 124.149C100.193 124.149 99.6441 123.992 99.1635 123.677C98.6829 123.362 98.3051 122.91 98.03 122.32C97.7549 121.726 97.6174 121.019 97.6174 120.197C97.6174 119.371 97.7549 118.665 98.03 118.079C98.3084 117.492 98.6896 117.043 99.1735 116.732C99.6574 116.42 100.206 116.264 100.819 116.264C101.293 116.264 101.674 116.344 101.963 116.503C102.254 116.659 102.48 116.841 102.639 117.05C102.801 117.259 102.927 117.442 103.017 117.602H103.106V113.818H104.593V124H103.141V122.812H103.017C102.927 122.974 102.798 123.16 102.629 123.369C102.463 123.577 102.234 123.76 101.943 123.915C101.651 124.071 101.273 124.149 100.809 124.149ZM101.137 122.881C101.78 122.881 102.272 122.633 102.614 122.136C102.959 121.635 103.131 120.984 103.131 120.182C103.131 119.383 102.96 118.742 102.619 118.258C102.281 117.771 101.787 117.527 101.137 117.527C100.69 117.527 100.317 117.643 100.019 117.875C99.7203 118.107 99.495 118.424 99.3425 118.825C99.1934 119.222 99.1188 119.675 99.1188 120.182C99.1188 120.692 99.195 121.151 99.3475 121.559C99.4999 121.967 99.7253 122.29 100.024 122.528C100.325 122.764 100.696 122.881 101.137 122.881ZM110.005 124.154C109.256 124.154 108.61 123.992 108.066 123.667C107.523 123.342 107.104 122.886 106.809 122.3C106.517 121.71 106.371 121.02 106.371 120.232C106.371 119.449 106.517 118.76 106.809 118.163C107.104 117.567 107.515 117.101 108.042 116.766C108.572 116.432 109.192 116.264 109.901 116.264C110.478 116.264 111.023 116.393 111.537 116.652C112.054 116.907 112.473 117.317 112.794 117.88C113.119 118.44 113.282 119.181 113.282 120.102V120.629H107.853C107.873 121.365 108.08 121.932 108.474 122.33C108.868 122.727 109.384 122.926 110.02 122.926C110.444 122.926 110.811 122.835 111.119 122.653C111.427 122.47 111.648 122.199 111.78 121.837L113.187 122.091C113.018 122.711 112.654 123.21 112.093 123.587C111.533 123.965 110.837 124.154 110.005 124.154ZM107.858 119.516H111.825C111.822 118.932 111.646 118.45 111.298 118.069C110.95 117.684 110.488 117.492 109.911 117.492C109.51 117.492 109.158 117.587 108.857 117.776C108.559 117.961 108.322 118.208 108.146 118.516C107.974 118.821 107.877 119.154 107.858 119.516ZM118.565 116.364V117.557H116.92V124H115.428V117.557H114.25V116.364H115.428V115.479C115.428 115.001 115.532 114.605 115.741 114.29C115.953 113.972 116.232 113.735 116.577 113.58C116.921 113.42 117.294 113.341 117.695 113.341C117.997 113.341 118.254 113.366 118.466 113.415C118.678 113.462 118.835 113.505 118.938 113.545L118.59 114.748C118.52 114.725 118.431 114.7 118.322 114.673C118.212 114.647 118.08 114.634 117.924 114.634C117.563 114.634 117.304 114.723 117.148 114.902C116.996 115.081 116.92 115.339 116.92 115.678V116.364H118.565Z" fill="black" fill-opacity="0.54"/>
<path d="M289.5 112C285.182 112 281.494 114.695 280 118.5C281.494 122.305 285.182 125 289.5 125C293.818 125 297.506 122.305 299 118.5C297.506 114.695 293.818 112 289.5 112ZM289.5 122.833C287.116 122.833 285.182 120.892 285.182 118.5C285.182 116.108 287.116 114.167 289.5 114.167C291.884 114.167 293.818 116.108 293.818 118.5C293.818 120.892 291.884 122.833 289.5 122.833ZM289.5 115.9C288.066 115.9 286.909 117.061 286.909 118.5C286.909 119.939 288.066 121.1 289.5 121.1C290.934 121.1 292.091 119.939 292.091 118.5C292.091 117.061 290.934 115.9 289.5 115.9Z" fill="#A3A3A3" fill-opacity="0.58"/>
<g filter="url(#filter0_d)">
<path fill-rule="evenodd" clip-rule="evenodd" d="M23 7C21.3431 7 20 8.34315 20 10V64C20 65.6569 21.3431 67 23 67H217.561C218.379 67 219.115 67.4979 219.418 68.2572L226.555 86.099C227.255 87.8492 229.766 87.7477 230.323 85.9468L235.743 68.4094C236.002 67.5714 236.777 67 237.654 67H297C298.657 67 300 65.6569 300 64V10C300 8.34315 298.657 7 297 7H23Z" fill="url(#paint0_linear)"/>
</g>
<path d="M41.0234 16H42.2344V21.2617C42.2344 21.8216 42.1029 22.3177 41.8398 22.75C41.5768 23.1823 41.207 23.5208 40.7305 23.7656C40.2539 24.0104 39.6953 24.1328 39.0547 24.1328C38.4167 24.1328 37.8594 24.0104 37.3828 23.7656C36.9063 23.5208 36.5365 23.1823 36.2734 22.75C36.0104 22.3177 35.8789 21.8216 35.8789 21.2617V16H37.0859V21.1641C37.0859 21.7057 37.2617 22.1523 37.6133 22.5039C37.9674 22.8555 38.4479 23.0312 39.0547 23.0312C39.6641 23.0312 40.1445 22.8555 40.4961 22.5039C40.8477 22.1523 41.0234 21.7057 41.0234 21.1641V16ZM48.3916 19.4648L47.333 19.6523C47.2653 19.4518 47.139 19.2682 46.9541 19.1016C46.7718 18.9323 46.4984 18.8477 46.1338 18.8477C45.8031 18.8477 45.5257 18.9219 45.3018 19.0703C45.0804 19.2161 44.971 19.4049 44.9736 19.6367C44.971 19.8398 45.0439 20.0026 45.1924 20.125C45.3434 20.2448 45.5843 20.3437 45.915 20.4219L46.8682 20.6406C47.9619 20.8932 48.5088 21.4349 48.5088 22.2656C48.5088 22.6276 48.4046 22.9479 48.1963 23.2266C47.9906 23.5052 47.7028 23.724 47.333 23.8828C46.9658 24.0417 46.54 24.1211 46.0557 24.1211C45.3812 24.1211 44.833 23.9779 44.4111 23.6914C43.9893 23.4023 43.7288 22.9922 43.6299 22.4609L44.7588 22.2891C44.8994 22.8828 45.3291 23.1797 46.0479 23.1797C46.4307 23.1797 46.7367 23.1003 46.9658 22.9414C47.195 22.7799 47.3096 22.5833 47.3096 22.3516C47.3096 21.9687 47.027 21.7148 46.4619 21.5898L45.4463 21.3672C44.8838 21.2422 44.4697 21.0391 44.2041 20.7578C43.9385 20.4766 43.8057 20.1237 43.8057 19.6992C43.8057 19.3451 43.9046 19.0352 44.1025 18.7695C44.3005 18.5013 44.5739 18.293 44.9229 18.1445C45.2718 17.9961 45.6715 17.9219 46.1221 17.9219C46.7705 17.9219 47.2809 18.0625 47.6533 18.3437C48.0257 18.625 48.2718 18.9987 48.3916 19.4648ZM52.3789 24.1211C51.7904 24.1211 51.2826 23.9935 50.8555 23.7383C50.4284 23.4831 50.099 23.125 49.8672 22.6641C49.638 22.2005 49.5234 21.6589 49.5234 21.0391C49.5234 20.4245 49.638 19.8828 49.8672 19.4141C50.099 18.9453 50.4219 18.5794 50.8359 18.3164C51.2526 18.0534 51.7396 17.9219 52.2969 17.9219C52.75 17.9219 53.1784 18.0234 53.582 18.2266C53.9883 18.4271 54.3177 18.7487 54.5703 19.1914C54.8255 19.6315 54.9531 20.2135 54.9531 20.9375V21.3516H50.6875C50.7031 21.9297 50.8659 22.375 51.1758 22.6875C51.4857 23 51.8906 23.1562 52.3906 23.1562C52.724 23.1562 53.0117 23.0846 53.2539 22.9414C53.4961 22.7982 53.6693 22.5846 53.7734 22.3008L54.8789 22.5C54.7461 22.987 54.4596 23.3789 54.0195 23.6758C53.5794 23.9727 53.0326 24.1211 52.3789 24.1211ZM50.6914 20.4766H53.8086C53.806 20.0182 53.668 19.6393 53.3945 19.3398C53.1211 19.0378 52.7578 18.8867 52.3047 18.8867C51.9896 18.8867 51.7135 18.9609 51.4766 19.1094C51.2422 19.2552 51.056 19.4492 50.918 19.6914C50.7826 19.931 50.707 20.1927 50.6914 20.4766ZM63.6563 19.4648L62.5977 19.6523C62.5299 19.4518 62.4036 19.2682 62.2188 19.1016C62.0365 18.9323 61.763 18.8477 61.3984 18.8477C61.0677 18.8477 60.7904 18.9219 60.5664 19.0703C60.3451 19.2161 60.2357 19.4049 60.2383 19.6367C60.2357 19.8398 60.3086 20.0026 60.457 20.125C60.6081 20.2448 60.849 20.3437 61.1797 20.4219L62.1328 20.6406C63.2266 20.8932 63.7734 21.4349 63.7734 22.2656C63.7734 22.6276 63.6693 22.9479 63.4609 23.2266C63.2552 23.5052 62.9674 23.724 62.5977 23.8828C62.2305 24.0417 61.8047 24.1211 61.3203 24.1211C60.6458 24.1211 60.0977 23.9779 59.6758 23.6914C59.2539 23.4023 58.9935 22.9922 58.8945 22.4609L60.0234 22.2891C60.1641 22.8828 60.5938 23.1797 61.3125 23.1797C61.6953 23.1797 62.0013 23.1003 62.2305 22.9414C62.4596 22.7799 62.5742 22.5833 62.5742 22.3516C62.5742 21.9687 62.2917 21.7148 61.7266 21.5898L60.7109 21.3672C60.1484 21.2422 59.7344 21.0391 59.4688 20.7578C59.2031 20.4766 59.0703 20.1237 59.0703 19.6992C59.0703 19.3451 59.1693 19.0352 59.3672 18.7695C59.5651 18.5013 59.8385 18.293 60.1875 18.1445C60.5365 17.9961 60.9362 17.9219 61.3867 17.9219C62.0352 17.9219 62.5456 18.0625 62.918 18.3437C63.2904 18.625 63.5365 18.9987 63.6563 19.4648ZM68.8584 21.5117V18H70.0303V24H68.8818V22.9609H68.8193C68.6813 23.2813 68.46 23.5482 68.1553 23.7617C67.8532 23.9727 67.4769 24.0781 67.0264 24.0781C66.4508 24.0781 65.9782 23.888 65.6084 23.5078C65.2412 23.125 65.0576 22.5612 65.0576 21.8164V18H66.2256V21.6758C66.2256 22.0846 66.3389 22.4102 66.5654 22.6523C66.792 22.8945 67.0863 23.0156 67.4482 23.0156C67.667 23.0156 67.8844 22.9609 68.1006 22.8516C68.3193 22.7422 68.5003 22.5768 68.6436 22.3555C68.7894 22.1315 68.861 21.8503 68.8584 21.5117ZM74.1152 26.3633C73.3991 26.3633 72.834 26.2292 72.4199 25.9609C72.0085 25.6927 71.7233 25.3776 71.5645 25.0156L72.5684 24.6016C72.6387 24.7109 72.7324 24.8294 72.8496 24.957C72.9694 25.0846 73.1309 25.194 73.334 25.2852C73.5397 25.3763 73.804 25.4219 74.127 25.4219C74.5697 25.4219 74.9355 25.3151 75.2246 25.1016C75.5137 24.888 75.6582 24.5495 75.6582 24.0859V22.9062H75.584C75.5137 23.0339 75.4134 23.1758 75.2832 23.332C75.153 23.4883 74.972 23.6237 74.7402 23.7383C74.5111 23.8529 74.2129 23.9102 73.8457 23.9102C73.3743 23.9102 72.9486 23.7995 72.5684 23.5781C72.1908 23.3542 71.8913 23.0247 71.6699 22.5898C71.4486 22.1523 71.3379 21.6146 71.3379 20.9766C71.3379 20.3385 71.446 19.7917 71.6621 19.3359C71.8809 18.8802 72.1803 18.5312 72.5605 18.2891C72.9408 18.0443 73.3717 17.9219 73.8535 17.9219C74.2259 17.9219 74.5267 17.9844 74.7559 18.1094C74.9876 18.2318 75.1673 18.375 75.2949 18.5391C75.4251 18.7031 75.5241 18.8477 75.5918 18.9727H75.6777V18H76.8223V24.1328C76.8223 24.6432 76.7025 25.0625 76.4629 25.3906C76.2233 25.7214 75.8991 25.9661 75.4902 26.125C75.084 26.2839 74.6257 26.3633 74.1152 26.3633ZM74.1035 22.9414C74.6087 22.9414 74.9954 22.7669 75.2637 22.418C75.5345 22.0664 75.6699 21.5807 75.6699 20.9609C75.6699 20.3542 75.5358 19.862 75.2676 19.4844C75.002 19.1042 74.6139 18.9141 74.1035 18.9141C73.752 18.9141 73.459 19.0052 73.2246 19.1875C72.9902 19.3672 72.8132 19.612 72.6934 19.9219C72.5762 20.2292 72.5176 20.5755 72.5176 20.9609C72.5176 21.5495 72.6517 22.0273 72.9199 22.3945C73.1882 22.7591 73.5827 22.9414 74.1035 22.9414ZM80.9043 26.3633C80.1882 26.3633 79.623 26.2292 79.209 25.9609C78.7975 25.6927 78.5124 25.3776 78.3535 25.0156L79.3574 24.6016C79.4277 24.7109 79.5215 24.8294 79.6387 24.957C79.7585 25.0846 79.9199 25.194 80.123 25.2852C80.3288 25.3763 80.5931 25.4219 80.916 25.4219C81.3587 25.4219 81.7246 25.3151 82.0137 25.1016C82.3027 24.888 82.4473 24.5495 82.4473 24.0859V22.9062H82.373C82.3027 23.0339 82.2025 23.1758 82.0723 23.332C81.9421 23.4883 81.7611 23.6237 81.5293 23.7383C81.3001 23.8529 81.002 23.9102 80.6348 23.9102C80.1634 23.9102 79.7376 23.7995 79.3574 23.5781C78.9798 23.3542 78.6803 23.0247 78.459 22.5898C78.2376 22.1523 78.127 21.6146 78.127 20.9766C78.127 20.3385 78.235 19.7917 78.4512 19.3359C78.6699 18.8802 78.9694 18.5312 79.3496 18.2891C79.7298 18.0443 80.1608 17.9219 80.6426 17.9219C81.015 17.9219 81.3158 17.9844 81.5449 18.1094C81.7767 18.2318 81.9564 18.375 82.084 18.5391C82.2142 18.7031 82.3132 18.8477 82.3809 18.9727H82.4668V18H83.6113V24.1328C83.6113 24.6432 83.4915 25.0625 83.252 25.3906C83.0124 25.7214 82.6882 25.9661 82.2793 26.125C81.873 26.2839 81.4147 26.3633 80.9043 26.3633ZM80.8926 22.9414C81.3978 22.9414 81.7845 22.7669 82.0527 22.418C82.3236 22.0664 82.459 21.5807 82.459 20.9609C82.459 20.3542 82.3249 19.862 82.0566 19.4844C81.791 19.1042 81.403 18.9141 80.8926 18.9141C80.541 18.9141 80.248 19.0052 80.0137 19.1875C79.7793 19.3672 79.6022 19.612 79.4824 19.9219C79.3652 20.2292 79.3066 20.5755 79.3066 20.9609C79.3066 21.5495 79.4408 22.0273 79.709 22.3945C79.9772 22.7591 80.3717 22.9414 80.8926 22.9414ZM87.7637 24.1211C87.1751 24.1211 86.6673 23.9935 86.2402 23.7383C85.8132 23.4831 85.4837 23.125 85.252 22.6641C85.0228 22.2005 84.9082 21.6589 84.9082 21.0391C84.9082 20.4245 85.0228 19.8828 85.252 19.4141C85.4837 18.9453 85.8066 18.5794 86.2207 18.3164C86.6374 18.0534 87.1243 17.9219 87.6816 17.9219C88.1348 17.9219 88.5632 18.0234 88.9668 18.2266C89.373 18.4271 89.7025 18.7487 89.9551 19.1914C90.2103 19.6315 90.3379 20.2135 90.3379 20.9375V21.3516H86.0723C86.0879 21.9297 86.2507 22.375 86.5605 22.6875C86.8704 23 87.2754 23.1562 87.7754 23.1562C88.1087 23.1562 88.3965 23.0846 88.6387 22.9414C88.8809 22.7982 89.054 22.5846 89.1582 22.3008L90.2637 22.5C90.1309 22.987 89.8444 23.3789 89.4043 23.6758C88.9642 23.9727 88.4173 24.1211 87.7637 24.1211ZM86.0762 20.4766H89.1934C89.1908 20.0182 89.0527 19.6393 88.7793 19.3398C88.5059 19.0378 88.1426 18.8867 87.6895 18.8867C87.3743 18.8867 87.0983 18.9609 86.8613 19.1094C86.627 19.2552 86.4408 19.4492 86.3027 19.6914C86.1673 19.931 86.0918 20.1927 86.0762 20.4766ZM96.1299 19.4648L95.0713 19.6523C95.0036 19.4518 94.8773 19.2682 94.6924 19.1016C94.5101 18.9323 94.2367 18.8477 93.8721 18.8477C93.5413 18.8477 93.264 18.9219 93.04 19.0703C92.8187 19.2161 92.7093 19.4049 92.7119 19.6367C92.7093 19.8398 92.7822 20.0026 92.9307 20.125C93.0817 20.2448 93.3226 20.3437 93.6533 20.4219L94.6064 20.6406C95.7002 20.8932 96.2471 21.4349 96.2471 22.2656C96.2471 22.6276 96.1429 22.9479 95.9346 23.2266C95.7288 23.5052 95.4411 23.724 95.0713 23.8828C94.7041 24.0417 94.2783 24.1211 93.7939 24.1211C93.1195 24.1211 92.5713 23.9779 92.1494 23.6914C91.7275 23.4023 91.4671 22.9922 91.3682 22.4609L92.4971 22.2891C92.6377 22.8828 93.0674 23.1797 93.7861 23.1797C94.1689 23.1797 94.4749 23.1003 94.7041 22.9414C94.9333 22.7799 95.0479 22.5833 95.0479 22.3516C95.0479 21.9687 94.7653 21.7148 94.2002 21.5898L93.1846 21.3672C92.6221 21.2422 92.208 21.0391 91.9424 20.7578C91.6768 20.4766 91.5439 20.1237 91.5439 19.6992C91.5439 19.3451 91.6429 19.0352 91.8408 18.7695C92.0387 18.5013 92.3122 18.293 92.6611 18.1445C93.0101 17.9961 93.4098 17.9219 93.8604 17.9219C94.5088 17.9219 95.0192 18.0625 95.3916 18.3437C95.764 18.625 96.0101 18.9987 96.1299 19.4648ZM100.332 18V18.9375H99.1016V22.2383C99.1016 22.5768 99.1732 22.7956 99.3164 22.8945C99.4622 22.9909 99.6302 23.0391 99.8203 23.0391C99.9141 23.0391 99.9961 23.0326 100.066 23.0195C100.137 23.0065 100.191 22.9961 100.23 22.9883L100.441 23.9531C100.374 23.9792 100.276 24.0052 100.148 24.0313C100.023 24.0599 99.8685 24.0755 99.6836 24.0781C99.3763 24.0833 99.0885 24.0286 98.8203 23.9141C98.5547 23.7995 98.3398 23.6224 98.1758 23.3828C98.0143 23.1432 97.9336 22.8424 97.9336 22.4805V18.9375H97.0547V18H97.9336V16.5625H99.1016V18H100.332ZM104.146 24.1211C103.557 24.1211 103.049 23.9935 102.622 23.7383C102.195 23.4831 101.866 23.125 101.634 22.6641C101.405 22.2005 101.29 21.6589 101.29 21.0391C101.29 20.4245 101.405 19.8828 101.634 19.4141C101.866 18.9453 102.188 18.5794 102.603 18.3164C103.019 18.0534 103.506 17.9219 104.063 17.9219C104.517 17.9219 104.945 18.0234 105.349 18.2266C105.755 18.4271 106.084 18.7487 106.337 19.1914C106.592 19.6315 106.72 20.2135 106.72 20.9375V21.3516H102.454C102.47 21.9297 102.632 22.375 102.942 22.6875C103.252 23 103.657 23.1562 104.157 23.1562C104.491 23.1562 104.778 23.0846 105.021 22.9414C105.263 22.7982 105.436 22.5846 105.54 22.3008L106.646 22.5C106.513 22.987 106.226 23.3789 105.786 23.6758C105.346 23.9727 104.799 24.1211 104.146 24.1211ZM102.458 20.4766H105.575C105.573 20.0182 105.435 19.6393 105.161 19.3398C104.888 19.0378 104.524 18.8867 104.071 18.8867C103.756 18.8867 103.48 18.9609 103.243 19.1094C103.009 19.2552 102.823 19.4492 102.685 19.6914C102.549 19.931 102.474 20.1927 102.458 20.4766ZM110.262 24.1172C109.777 24.1172 109.346 23.9935 108.969 23.7461C108.591 23.4987 108.294 23.1432 108.078 22.6797C107.862 22.2135 107.754 21.6576 107.754 21.0117C107.754 20.3633 107.862 19.8086 108.078 19.3477C108.297 18.8867 108.596 18.5339 108.977 18.2891C109.357 18.0443 109.788 17.9219 110.27 17.9219C110.642 17.9219 110.941 17.9844 111.168 18.1094C111.397 18.2318 111.574 18.375 111.699 18.5391C111.827 18.7031 111.926 18.8477 111.996 18.9727H112.066V16H113.234V24H112.094V23.0664H111.996C111.926 23.194 111.824 23.3398 111.691 23.5039C111.561 23.668 111.382 23.8112 111.152 23.9336C110.923 24.056 110.626 24.1172 110.262 24.1172ZM110.52 23.1211C111.025 23.1211 111.411 22.9258 111.68 22.5352C111.951 22.1419 112.086 21.6302 112.086 21C112.086 20.3724 111.952 19.8685 111.684 19.4883C111.418 19.1055 111.03 18.9141 110.52 18.9141C110.168 18.9141 109.875 19.0052 109.641 19.1875C109.406 19.3698 109.229 19.6185 109.109 19.9336C108.992 20.2461 108.934 20.6016 108.934 21C108.934 21.401 108.993 21.7617 109.113 22.082C109.233 22.4023 109.41 22.6562 109.645 22.8437C109.882 23.0286 110.173 23.1211 110.52 23.1211ZM117.813 26.25V18H118.953V18.9727H119.051C119.121 18.8477 119.219 18.7031 119.344 18.5391C119.471 18.375 119.648 18.2318 119.875 18.1094C120.104 17.9844 120.404 17.9219 120.773 17.9219C121.258 17.9219 121.689 18.0443 122.066 18.2891C122.447 18.5339 122.746 18.8867 122.965 19.3477C123.184 19.8086 123.293 20.3633 123.293 21.0117C123.293 21.6576 123.185 22.2135 122.969 22.6797C122.753 23.1432 122.456 23.4987 122.078 23.7461C121.701 23.9935 121.27 24.1172 120.785 24.1172C120.421 24.1172 120.124 24.056 119.895 23.9336C119.665 23.8112 119.484 23.668 119.352 23.5039C119.221 23.3398 119.121 23.194 119.051 23.0664H118.98V26.25H117.813ZM118.957 21C118.957 21.6302 119.092 22.1419 119.363 22.5352C119.634 22.9258 120.021 23.1211 120.523 23.1211C120.872 23.1211 121.164 23.0286 121.398 22.8437C121.635 22.6562 121.814 22.4023 121.934 22.082C122.053 21.7617 122.113 21.401 122.113 21C122.113 20.6016 122.053 20.2461 121.934 19.9336C121.816 19.6185 121.641 19.3698 121.406 19.1875C121.172 19.0052 120.878 18.9141 120.523 18.9141C120.013 18.9141 119.624 19.1055 119.355 19.4883C119.09 19.8685 118.957 20.3724 118.957 21ZM126.348 24.1328C125.967 24.1328 125.624 24.0625 125.316 23.9219C125.012 23.7812 124.77 23.5755 124.59 23.3047C124.41 23.0312 124.32 22.6979 124.32 22.3047C124.32 21.9635 124.385 21.6836 124.516 21.4648C124.648 21.2461 124.824 21.0729 125.043 20.9453C125.264 20.8177 125.512 20.7227 125.785 20.6602C126.059 20.5951 126.337 20.5456 126.621 20.5117C126.98 20.4701 127.271 20.4362 127.492 20.4102C127.716 20.3815 127.879 20.3359 127.98 20.2734C128.085 20.2109 128.137 20.1094 128.137 19.9687V19.9414C128.137 19.6003 128.04 19.3359 127.848 19.1484C127.658 18.9609 127.374 18.8672 126.996 18.8672C126.603 18.8672 126.293 18.9531 126.066 19.125C125.842 19.2969 125.688 19.4896 125.602 19.7031L124.504 19.4531C124.699 18.9062 125.025 18.5143 125.48 18.2773C125.939 18.0404 126.439 17.9219 126.98 17.9219C127.22 17.9219 127.474 17.9505 127.742 18.0078C128.01 18.0625 128.263 18.1654 128.5 18.3164C128.74 18.4648 128.934 18.6758 129.082 18.9492C129.233 19.2227 129.309 19.5781 129.309 20.0156V24H128.168V23.1797H128.121C128.009 23.4036 127.81 23.6185 127.523 23.8242C127.237 24.0299 126.845 24.1328 126.348 24.1328ZM126.602 23.1953C126.927 23.1953 127.204 23.1315 127.434 23.0039C127.663 22.8763 127.837 22.7096 127.957 22.5039C128.079 22.2956 128.141 22.0729 128.141 21.8359V21.0625C128.086 21.1172 127.966 21.1654 127.781 21.207C127.596 21.2487 127.401 21.2839 127.195 21.3125C126.99 21.3411 126.823 21.3646 126.695 21.3828C126.357 21.4271 126.066 21.5169 125.824 21.6523C125.585 21.7852 125.465 22.0078 125.465 22.3203C125.465 22.6094 125.572 22.8281 125.785 22.9766C125.999 23.1224 126.271 23.1953 126.602 23.1953ZM135.36 19.4648L134.302 19.6523C134.234 19.4518 134.108 19.2682 133.923 19.1016C133.741 18.9323 133.467 18.8477 133.103 18.8477C132.772 18.8477 132.494 18.9219 132.271 19.0703C132.049 19.2161 131.94 19.4049 131.942 19.6367C131.94 19.8398 132.013 20.0026 132.161 20.125C132.312 20.2448 132.553 20.3437 132.884 20.4219L133.837 20.6406C134.931 20.8932 135.478 21.4349 135.478 22.2656C135.478 22.6276 135.373 22.9479 135.165 23.2266C134.959 23.5052 134.672 23.724 134.302 23.8828C133.935 24.0417 133.509 24.1211 133.024 24.1211C132.35 24.1211 131.802 23.9779 131.38 23.6914C130.958 23.4023 130.698 22.9922 130.599 22.4609L131.728 22.2891C131.868 22.8828 132.298 23.1797 133.017 23.1797C133.399 23.1797 133.705 23.1003 133.935 22.9414C134.164 22.7799 134.278 22.5833 134.278 22.3516C134.278 21.9687 133.996 21.7148 133.431 21.5898L132.415 21.3672C131.853 21.2422 131.438 21.0391 131.173 20.7578C130.907 20.4766 130.774 20.1237 130.774 19.6992C130.774 19.3451 130.873 19.0352 131.071 18.7695C131.269 18.5013 131.543 18.293 131.892 18.1445C132.241 17.9961 132.64 17.9219 133.091 17.9219C133.739 17.9219 134.25 18.0625 134.622 18.3437C134.994 18.625 135.241 18.9987 135.36 19.4648ZM141.258 19.4648L140.199 19.6523C140.132 19.4518 140.005 19.2682 139.82 19.1016C139.638 18.9323 139.365 18.8477 139 18.8477C138.669 18.8477 138.392 18.9219 138.168 19.0703C137.947 19.2161 137.837 19.4049 137.84 19.6367C137.837 19.8398 137.91 20.0026 138.059 20.125C138.21 20.2448 138.451 20.3437 138.781 20.4219L139.734 20.6406C140.828 20.8932 141.375 21.4349 141.375 22.2656C141.375 22.6276 141.271 22.9479 141.063 23.2266C140.857 23.5052 140.569 23.724 140.199 23.8828C139.832 24.0417 139.406 24.1211 138.922 24.1211C138.247 24.1211 137.699 23.9779 137.277 23.6914C136.855 23.4023 136.595 22.9922 136.496 22.4609L137.625 22.2891C137.766 22.8828 138.195 23.1797 138.914 23.1797C139.297 23.1797 139.603 23.1003 139.832 22.9414C140.061 22.7799 140.176 22.5833 140.176 22.3516C140.176 21.9687 139.893 21.7148 139.328 21.5898L138.313 21.3672C137.75 21.2422 137.336 21.0391 137.07 20.7578C136.805 20.4766 136.672 20.1237 136.672 19.6992C136.672 19.3451 136.771 19.0352 136.969 18.7695C137.167 18.5013 137.44 18.293 137.789 18.1445C138.138 17.9961 138.538 17.9219 138.988 17.9219C139.637 17.9219 140.147 18.0625 140.52 18.3437C140.892 18.625 141.138 18.9987 141.258 19.4648ZM143.96 24L142.194 18H143.401L144.577 22.4062H144.636L145.815 18H147.022L148.194 22.3867H148.253L149.421 18H150.628L148.866 24H147.675L146.456 19.668H146.366L145.147 24H143.96ZM154.081 24.1211C153.519 24.1211 153.028 23.9922 152.608 23.7344C152.189 23.4766 151.864 23.1159 151.632 22.6523C151.4 22.1862 151.284 21.6445 151.284 21.0273C151.284 20.4049 151.4 19.8607 151.632 19.3945C151.864 18.9284 152.189 18.5664 152.608 18.3086C153.028 18.0508 153.519 17.9219 154.081 17.9219C154.646 17.9219 155.137 18.0508 155.554 18.3086C155.973 18.5664 156.299 18.9284 156.53 19.3945C156.762 19.8607 156.878 20.4049 156.878 21.0273C156.878 21.6445 156.762 22.1862 156.53 22.6523C156.299 23.1159 155.973 23.4766 155.554 23.7344C155.137 23.9922 154.646 24.1211 154.081 24.1211ZM154.085 23.1406C154.452 23.1406 154.754 23.0443 154.991 22.8516C155.231 22.6589 155.408 22.4023 155.522 22.082C155.64 21.7591 155.698 21.4062 155.698 21.0234C155.698 20.6406 155.64 20.2878 155.522 19.9648C155.408 19.6419 155.231 19.3841 154.991 19.1914C154.754 18.9961 154.452 18.8984 154.085 18.8984C153.718 18.8984 153.414 18.9961 153.175 19.1914C152.935 19.3841 152.757 19.6419 152.64 19.9648C152.522 20.2878 152.464 20.6406 152.464 21.0234C152.464 21.4062 152.522 21.7591 152.64 22.082C152.757 22.4023 152.935 22.6589 153.175 22.8516C153.414 23.0443 153.718 23.1406 154.085 23.1406ZM158.182 24V18H159.311V18.9531H159.373C159.482 18.6302 159.675 18.3763 159.951 18.1914C160.23 18.0039 160.545 17.9102 160.896 17.9102C160.972 17.9102 161.059 17.9128 161.158 17.918C161.257 17.9232 161.335 17.9297 161.393 17.9375V19.0547C161.346 19.0417 161.262 19.0273 161.143 19.0117C161.025 18.9935 160.906 18.9844 160.783 18.9844C160.369 18.9844 160.027 19.112 159.756 19.3672C159.485 19.6198 159.35 19.9427 159.35 20.3359V24H158.182ZM164.435 24.1172C163.95 24.1172 163.519 23.9935 163.142 23.7461C162.764 23.4987 162.467 23.1432 162.251 22.6797C162.035 22.2135 161.927 21.6576 161.927 21.0117C161.927 20.3633 162.035 19.8086 162.251 19.3477C162.47 18.8867 162.769 18.5339 163.149 18.2891C163.53 18.0443 163.961 17.9219 164.442 17.9219C164.815 17.9219 165.114 17.9844 165.341 18.1094C165.57 18.2318 165.747 18.375 165.872 18.5391C166 18.7031 166.099 18.8477 166.169 18.9727H166.239V16H167.407V24H166.267V23.0664H166.169C166.099 23.194 165.997 23.3398 165.864 23.5039C165.734 23.668 165.554 23.8112 165.325 23.9336C165.096 24.056 164.799 24.1172 164.435 24.1172ZM164.692 23.1211C165.198 23.1211 165.584 22.9258 165.853 22.5352C166.123 22.1419 166.259 21.6302 166.259 21C166.259 20.3724 166.125 19.8685 165.856 19.4883C165.591 19.1055 165.203 18.9141 164.692 18.9141C164.341 18.9141 164.048 19.0052 163.813 19.1875C163.579 19.3698 163.402 19.6185 163.282 19.9336C163.165 20.2461 163.106 20.6016 163.106 21C163.106 21.401 163.166 21.7617 163.286 22.082C163.406 22.4023 163.583 22.6562 163.817 22.8437C164.054 23.0286 164.346 23.1211 164.692 23.1211Z" fill="#277525" fill-opacity="0.6"/>
<g filter="url(#filter1_d)">
<rect x="30" y="33" width="261" height="25" rx="2" fill="white"/>
</g>
<path d="M42.0533 40.3931C42.4749 40.3962 42.8888 40.4731 43.2951 40.6239C43.7044 40.7717 44.0753 41.0179 44.4077 41.3626C44.7431 41.7073 45.0094 42.172 45.2063 42.7567C45.4064 43.3384 45.5064 44.0632 45.5064 44.9311C45.5064 46.0329 45.3602 46.9716 45.0678 47.7472C44.7785 48.5227 44.3661 49.1136 43.8306 49.5199C43.2982 49.9261 42.6657 50.1293 41.9332 50.1293C41.37 50.1293 40.8699 50.0185 40.4329 49.7969C39.9959 49.5722 39.6404 49.2644 39.3665 48.8736C39.0956 48.4796 38.9248 48.0288 38.854 47.521H40.2621C40.3544 47.9241 40.5421 48.2519 40.8253 48.5043C41.1115 48.7566 41.4808 48.8828 41.9332 48.8828C42.6257 48.8828 43.1658 48.5812 43.5536 47.978C43.9414 47.3717 44.1368 46.5253 44.1399 45.4389H44.0661C43.8229 45.8359 43.4967 46.1499 43.0874 46.3807C42.678 46.6084 42.2225 46.7223 41.7209 46.7223C41.1761 46.7223 40.6806 46.5884 40.2344 46.3207C39.7881 46.0529 39.4326 45.6851 39.168 45.2173C38.9033 44.7495 38.771 44.214 38.771 43.6108C38.771 43.0076 38.9064 42.4628 39.1772 41.9766C39.448 41.4872 39.8297 41.0994 40.3221 40.8132C40.8145 40.527 41.3916 40.387 42.0533 40.3931ZM42.0579 41.5934C41.6978 41.5934 41.3731 41.6826 41.0838 41.8612C40.7976 42.0397 40.5714 42.2797 40.4052 42.5813C40.239 42.8829 40.1559 43.2199 40.1559 43.5923C40.1559 43.9586 40.2359 44.291 40.396 44.5895C40.5591 44.8849 40.7822 45.1204 41.0653 45.2958C41.3485 45.4712 41.6701 45.5589 42.0302 45.5589C42.3903 45.5589 42.7165 45.4682 43.0089 45.2866C43.3013 45.1019 43.5321 44.8588 43.7013 44.5572C43.8737 44.2556 43.9599 43.9293 43.9599 43.5785C43.9599 43.2246 43.8768 42.8983 43.7106 42.5998C43.5475 42.2982 43.3228 42.055 43.0366 41.8704C42.7504 41.6857 42.4241 41.5934 42.0579 41.5934ZM47.3034 50V40.5455H48.6837V44.0586H48.7668C48.8499 43.9109 48.9653 43.7401 49.113 43.5462C49.2638 43.3523 49.4731 43.183 49.7409 43.0384C50.0117 42.8906 50.3656 42.8168 50.8026 42.8168C51.3751 42.8168 51.8844 42.9614 52.3307 43.2507C52.78 43.54 53.134 43.957 53.3925 44.5018C53.651 45.0465 53.7803 45.7021 53.7803 46.4684C53.7803 47.2317 53.6526 47.8887 53.3971 48.4396C53.1417 48.9875 52.7908 49.4076 52.3445 49.6999C51.8983 49.9923 51.3889 50.1385 50.8165 50.1385C50.3856 50.1385 50.0348 50.0662 49.7639 49.9215C49.4931 49.7769 49.2792 49.6076 49.1222 49.4137C48.9684 49.2198 48.8499 49.0475 48.7668 48.8967H48.6514V50H47.3034ZM48.656 46.4545C48.656 47.1993 48.816 47.8041 49.1361 48.2688C49.4562 48.7305 49.9132 48.9613 50.5072 48.9613C50.9196 48.9613 51.2643 48.852 51.5413 48.6335C51.8213 48.4119 52.0322 48.1119 52.1737 47.7333C52.3153 47.3548 52.3861 46.9285 52.3861 46.4545C52.3861 45.9837 52.3153 45.5636 52.1737 45.1942C52.0352 44.8219 51.8275 44.5279 51.5505 44.3125C51.2735 44.0971 50.9258 43.9893 50.5072 43.9893C49.904 43.9893 49.4439 44.2156 49.1269 44.668C48.8129 45.1173 48.656 45.7128 48.656 46.4545ZM58.6033 50.157C57.5108 50.1539 56.6598 49.7261 56.0504 48.8736C55.4411 48.0211 55.1364 46.8223 55.1364 45.2773C55.1394 43.7385 55.4472 42.5444 56.0597 41.695C56.6721 40.8424 57.52 40.4162 58.6033 40.4162C59.6867 40.4162 60.5346 40.8424 61.147 41.695C61.7595 42.5444 62.0657 43.7385 62.0657 45.2773C62.0657 46.8254 61.761 48.0257 61.1516 48.8782C60.5453 49.7307 59.6959 50.157 58.6033 50.157ZM58.6033 48.9244C59.2404 48.9244 59.7405 48.612 60.1037 47.9872C60.4669 47.3625 60.6484 46.4592 60.6484 45.2773C60.6484 44.0986 60.4653 43.1953 60.0991 42.5675C59.7359 41.9396 59.2373 41.6257 58.6033 41.6257C57.9663 41.6257 57.4661 41.9396 57.103 42.5675C56.7398 43.1953 56.5567 44.0986 56.5536 45.2773C56.5536 46.4592 56.7352 47.3625 57.0984 47.9872C57.4615 48.612 57.9632 48.9244 58.6033 48.9244ZM63.768 50L67.8952 41.8381V41.7688H63.1217V40.5455H69.3724V41.8104L65.2591 50H63.768ZM70.0176 48.1534V46.9993L74.1032 40.5455H75.862V46.9439H77.1131V48.1534H75.862V50H74.5002V48.1534H70.0176ZM74.5094 46.9439V42.2443H74.4355L71.5133 46.87V46.9439H74.5094ZM82.1151 42.9091V44.017H80.587V50H79.2021V44.017H78.108V42.9091H79.2021V42.0874C79.2021 41.6442 79.299 41.2764 79.4929 40.984C79.6899 40.6886 79.9484 40.4685 80.2685 40.3239C80.5885 40.1761 80.9348 40.1023 81.3072 40.1023C81.5872 40.1023 81.8258 40.1254 82.0227 40.1715C82.2197 40.2146 82.3659 40.2546 82.4613 40.2915L82.1381 41.4087C82.0735 41.3872 81.9904 41.3641 81.8888 41.3395C81.7873 41.3149 81.6642 41.3026 81.5195 41.3026C81.1841 41.3026 80.944 41.3857 80.7994 41.5518C80.6578 41.718 80.587 41.9581 80.587 42.272V42.9091H82.1151ZM83.5208 50V48.9659L86.72 45.6513C87.0585 45.2912 87.3401 44.9757 87.5648 44.7049C87.7895 44.431 87.9572 44.1709 88.068 43.9247C88.1788 43.6785 88.2342 43.4169 88.2342 43.1399C88.2342 42.669 88.0726 42.2966 87.7495 42.0227C87.4263 41.7457 87.0247 41.6072 86.5446 41.6072C86.0337 41.6072 85.6259 41.7611 85.3212 42.0689C85.0196 42.3736 84.8703 42.7798 84.8734 43.2876H83.5115C83.5115 42.7121 83.6439 42.2089 83.9086 41.7781C84.1732 41.3472 84.5364 41.0133 84.998 40.7763C85.4597 40.5362 85.9844 40.4162 86.5723 40.4162C87.1663 40.4162 87.6895 40.5347 88.1419 40.7717C88.5974 41.0056 88.9528 41.3256 89.2083 41.7319C89.4637 42.1351 89.5914 42.5906 89.5914 43.0984C89.5914 43.4492 89.5253 43.7924 89.3929 44.1278C89.2637 44.4633 89.0375 44.8372 88.7143 45.2496C88.3942 45.659 87.9449 46.156 87.3663 46.7408L85.4874 48.7074V48.7766H89.7438V50H83.5208ZM97.6795 52.6591V42.9091H96.3315V44.0586H96.2161C96.133 43.9109 96.016 43.7401 95.8652 43.5462C95.7175 43.3523 95.5082 43.183 95.2374 43.0384C94.9696 42.8906 94.6172 42.8168 94.1802 42.8168C93.6078 42.8168 93.0969 42.9614 92.6475 43.2507C92.2013 43.54 91.8489 43.957 91.5904 44.5018C91.3319 45.0465 91.2026 45.7021 91.2026 46.4684C91.2026 47.2317 91.3303 47.8887 91.5858 48.4396C91.8412 48.9875 92.1921 49.4076 92.6383 49.6999C93.0846 49.9923 93.5939 50.1385 94.1664 50.1385C94.5972 50.1385 94.9481 50.0662 95.2189 49.9215C95.4898 49.7769 95.7021 49.6076 95.856 49.4137C96.013 49.2198 96.133 49.0475 96.2161 48.8967H96.2992V52.6591H97.6795ZM96.3269 46.4545C96.3269 47.1993 96.1668 47.8041 95.8468 48.2688C95.5267 48.7305 95.0697 48.9613 94.4757 48.9613C94.0633 48.9613 93.717 48.852 93.437 48.6335C93.16 48.4119 92.9507 48.1119 92.8091 47.7333C92.6676 47.3548 92.5968 46.9285 92.5968 46.4545C92.5968 45.9837 92.666 45.5636 92.8045 45.1942C92.9461 44.8219 93.1554 44.5279 93.4324 44.3125C93.7093 44.0971 94.0571 43.9893 94.4757 43.9893C95.0789 43.9893 95.5375 44.2156 95.8514 44.668C96.1684 45.1173 96.3269 45.7128 96.3269 46.4545ZM99.5169 50V48.9659L102.716 45.6513C103.055 45.2912 103.336 44.9757 103.561 44.7049C103.786 44.431 103.953 44.1709 104.064 43.9247C104.175 43.6785 104.23 43.4169 104.23 43.1399C104.23 42.669 104.069 42.2966 103.746 42.0227C103.422 41.7457 103.021 41.6072 102.541 41.6072C102.03 41.6072 101.622 41.7611 101.317 42.0689C101.016 42.3736 100.866 42.7798 100.869 43.2876H99.5076C99.5076 42.7121 99.64 42.2089 99.9047 41.7781C100.169 41.3472 100.532 41.0133 100.994 40.7763C101.456 40.5362 101.981 40.4162 102.568 40.4162C103.162 40.4162 103.686 40.5347 104.138 40.7717C104.593 41.0056 104.949 41.3256 105.204 41.7319C105.46 42.1351 105.588 42.5906 105.588 43.0984C105.588 43.4492 105.521 43.7924 105.389 44.1278C105.26 44.4633 105.034 44.8372 104.71 45.2496C104.39 45.659 103.941 46.156 103.362 46.7408L101.483 48.7074V48.7766H105.74V50H99.5169ZM109.47 45.8636L109.558 43.9155L107.914 44.9727L107.411 44.0955L109.156 43.2045L107.411 42.3136L107.914 41.4364L109.558 42.4936L109.47 40.5455H110.472L110.384 42.4936L112.028 41.4364L112.531 42.3136L110.786 43.2045L112.531 44.0955L112.028 44.9727L110.384 43.9155L110.472 45.8636H109.47ZM116.594 50.1339C115.96 50.1339 115.414 50.02 114.956 49.7923C114.5 49.5614 114.149 49.246 113.903 48.8459C113.657 48.4458 113.534 47.9934 113.534 47.4886C113.534 46.9254 113.701 46.4499 114.037 46.0621C114.372 45.6713 114.809 45.2897 115.348 44.9173C115.049 44.5541 114.802 44.1955 114.605 43.8416C114.408 43.4877 114.309 43.0999 114.309 42.6783C114.309 42.2412 114.408 41.855 114.605 41.5195C114.805 41.1841 115.083 40.9209 115.44 40.7301C115.797 40.5393 116.216 40.4439 116.696 40.4439C117.182 40.4439 117.599 40.5393 117.947 40.7301C118.298 40.9179 118.567 41.1687 118.755 41.4826C118.946 41.7934 119.041 42.1335 119.041 42.5028C119.041 42.9522 118.93 43.3492 118.709 43.6939C118.487 44.0355 118.179 44.3494 117.785 44.6357L117.139 45.1112L119.032 47.3732C119.155 47.1362 119.25 46.8793 119.318 46.6023C119.389 46.3222 119.424 46.0237 119.424 45.7067H120.671C120.671 46.3622 120.589 46.907 120.426 47.3409C120.266 47.7749 120.086 48.1257 119.886 48.3935L121.229 50H119.669L119.032 49.2521C118.712 49.5507 118.332 49.7723 117.892 49.9169C117.451 50.0616 117.019 50.1339 116.594 50.1339ZM118.256 48.3381L116.137 45.8498L115.888 46.0344C115.519 46.3053 115.262 46.573 115.117 46.8377C114.976 47.1024 114.905 47.3071 114.905 47.4517C114.905 47.861 115.059 48.2165 115.366 48.5181C115.677 48.8166 116.088 48.9659 116.599 48.9659C117.199 48.9659 117.752 48.7566 118.256 48.3381ZM116.377 44.1925L116.959 43.7816C117.215 43.6123 117.415 43.4338 117.559 43.2461C117.707 43.0553 117.781 42.8198 117.781 42.5398C117.781 42.3182 117.685 42.1058 117.495 41.9027C117.304 41.6996 117.048 41.598 116.728 41.598C116.396 41.598 116.127 41.7134 115.92 41.9442C115.714 42.1751 115.611 42.4274 115.611 42.7013C115.611 42.9414 115.685 43.1845 115.833 43.4308C115.98 43.6739 116.162 43.9278 116.377 44.1925ZM122.712 45.2727C122.712 44.1155 122.865 43.0507 123.169 42.0781C123.474 41.1056 123.919 40.2085 124.504 39.3867H125.768C125.467 39.793 125.193 40.3177 124.947 40.9609C124.701 41.6042 124.505 42.3013 124.36 43.0522C124.216 43.8001 124.143 44.5402 124.143 45.2727C124.143 46.0052 124.216 46.7469 124.36 47.4979C124.505 48.2488 124.701 48.9459 124.947 49.5891C125.193 50.2324 125.467 50.7571 125.768 51.1634H124.504C123.919 50.3416 123.474 49.4445 123.169 48.4719C122.865 47.4963 122.712 46.4299 122.712 45.2727ZM129.186 45.8636L129.274 43.9155L127.63 44.9727L127.127 44.0955L128.872 43.2045L127.127 42.3136L127.63 41.4364L129.274 42.4936L129.186 40.5455H130.188L130.1 42.4936L131.743 41.4364L132.247 42.3136L130.502 43.2045L132.247 44.0955L131.743 44.9727L130.1 43.9155L130.188 45.8636H129.186ZM136.31 50.1339C135.676 50.1339 135.13 50.02 134.671 49.7923C134.216 49.5614 133.865 49.246 133.619 48.8459C133.373 48.4458 133.249 47.9934 133.249 47.4886C133.249 46.9254 133.417 46.4499 133.753 46.0621C134.088 45.6713 134.525 45.2897 135.064 44.9173C134.765 44.5541 134.517 44.1955 134.32 43.8416C134.124 43.4877 134.025 43.0999 134.025 42.6783C134.025 42.2412 134.124 41.855 134.32 41.5195C134.521 41.1841 134.799 40.9209 135.156 40.7301C135.513 40.5393 135.932 40.4439 136.412 40.4439C136.898 40.4439 137.315 40.5393 137.663 40.7301C138.014 40.9179 138.283 41.1687 138.471 41.4826C138.662 41.7934 138.757 42.1335 138.757 42.5028C138.757 42.9522 138.646 43.3492 138.425 43.6939C138.203 44.0355 137.895 44.3494 137.501 44.6357L136.855 45.1112L138.748 47.3732C138.871 47.1362 138.966 46.8793 139.034 46.6023C139.105 46.3222 139.14 46.0237 139.14 45.7067H140.387C140.387 46.3622 140.305 46.907 140.142 47.3409C139.982 47.7749 139.802 48.1257 139.602 48.3935L140.945 50H139.385L138.748 49.2521C138.428 49.5507 138.048 49.7723 137.607 49.9169C137.167 50.0616 136.735 50.1339 136.31 50.1339ZM137.972 48.3381L135.853 45.8498L135.604 46.0344C135.235 46.3053 134.978 46.573 134.833 46.8377C134.691 47.1024 134.621 47.3071 134.621 47.4517C134.621 47.861 134.774 48.2165 135.082 48.5181C135.393 48.8166 135.804 48.9659 136.315 48.9659C136.915 48.9659 137.467 48.7566 137.972 48.3381ZM136.093 44.1925L136.675 43.7816C136.93 43.6123 137.13 43.4338 137.275 43.2461C137.423 43.0553 137.497 42.8198 137.497 42.5398C137.497 42.3182 137.401 42.1058 137.21 41.9027C137.02 41.6996 136.764 41.598 136.444 41.598C136.112 41.598 135.842 41.7134 135.636 41.9442C135.43 42.1751 135.327 42.4274 135.327 42.7013C135.327 42.9414 135.401 43.1845 135.548 43.4308C135.696 43.6739 135.878 43.9278 136.093 44.1925ZM148.434 50H141.971V48.772H142.419C142.588 48.7628 142.716 48.6781 142.802 48.5181C142.891 48.3581 142.951 48.1703 142.982 47.9549C143.013 47.7364 143.025 47.5394 143.019 47.364L142.982 46.2976H141.939V45.0696H142.941L142.885 43.343C142.864 42.6967 142.985 42.1566 143.25 41.7227C143.515 41.2887 143.869 40.9625 144.312 40.744C144.755 40.5254 145.232 40.4162 145.743 40.4162C146.349 40.4162 146.874 40.547 147.317 40.8086C147.763 41.0671 148.093 41.4072 148.305 41.8288C148.52 42.2505 148.585 42.706 148.499 43.1953L147.165 42.983C147.195 42.6813 147.148 42.4305 147.022 42.2305C146.895 42.0304 146.722 41.8796 146.5 41.7781C146.281 41.6765 146.046 41.6257 145.794 41.6257C145.532 41.6257 145.284 41.6873 145.05 41.8104C144.816 41.9304 144.626 42.1181 144.478 42.3736C144.33 42.6259 144.256 42.9491 144.256 43.343L144.321 45.0696H146.495V46.2976H144.367L144.404 47.3271C144.416 47.6164 144.393 47.8841 144.335 48.1303C144.279 48.3735 144.178 48.5874 144.03 48.772H148.434V50ZM154.146 50L158.273 41.8381V41.7688H153.5V40.5455H159.75V41.8104L155.637 50H154.146ZM167.542 52.6591V42.9091H166.194V44.0586H166.078C165.995 43.9109 165.878 43.7401 165.728 43.5462C165.58 43.3523 165.371 43.183 165.1 43.0384C164.832 42.8906 164.48 42.8168 164.043 42.8168C163.47 42.8168 162.959 42.9614 162.51 43.2507C162.064 43.54 161.711 43.957 161.453 44.5018C161.194 45.0465 161.065 45.7021 161.065 46.4684C161.065 47.2317 161.193 47.8887 161.448 48.4396C161.704 48.9875 162.054 49.4076 162.501 49.6999C162.947 49.9923 163.456 50.1385 164.029 50.1385C164.46 50.1385 164.81 50.0662 165.081 49.9215C165.352 49.7769 165.564 49.6076 165.718 49.4137C165.875 49.2198 165.995 49.0475 166.078 48.8967H166.161V52.6591H167.542ZM166.189 46.4545C166.189 47.1993 166.029 47.8041 165.709 48.2688C165.389 48.7305 164.932 48.9613 164.338 48.9613C163.926 48.9613 163.579 48.852 163.299 48.6335C163.022 48.4119 162.813 48.1119 162.671 47.7333C162.53 47.3548 162.459 46.9285 162.459 46.4545C162.459 45.9837 162.528 45.5636 162.667 45.1942C162.808 44.8219 163.018 44.5279 163.295 44.3125C163.572 44.0971 163.919 43.9893 164.338 43.9893C164.941 43.9893 165.4 44.2156 165.714 44.668C166.031 45.1173 166.189 45.7128 166.189 46.4545ZM172.454 50.1431C171.758 50.1431 171.158 49.9923 170.653 49.6907C170.149 49.3891 169.759 48.9659 169.485 48.4212C169.215 47.8733 169.079 47.2332 169.079 46.5007C169.079 45.7744 169.215 45.1342 169.485 44.5803C169.759 44.0263 170.141 43.5939 170.63 43.283C171.123 42.9722 171.698 42.8168 172.357 42.8168C172.892 42.8168 173.399 42.9368 173.876 43.1768C174.356 43.4138 174.745 43.7939 175.044 44.3171C175.345 44.8372 175.496 45.5251 175.496 46.3807V46.87H170.455C170.473 47.5533 170.666 48.0795 171.032 48.4489C171.398 48.8182 171.877 49.0028 172.468 49.0028C172.862 49.0028 173.202 48.9182 173.488 48.7489C173.774 48.5797 173.979 48.3273 174.102 47.9918L175.408 48.2273C175.251 48.8028 174.913 49.266 174.393 49.6168C173.873 49.9677 173.226 50.1431 172.454 50.1431ZM170.459 45.8359H174.143C174.14 45.2943 173.977 44.8465 173.654 44.4925C173.331 44.1355 172.902 43.957 172.366 43.957C171.994 43.957 171.667 44.0447 171.387 44.2202C171.11 44.3925 170.89 44.6218 170.727 44.908C170.567 45.1912 170.478 45.5005 170.459 45.8359ZM180.014 50.1431C179.328 50.1431 178.737 49.9877 178.242 49.6768C177.749 49.3629 177.371 48.9305 177.106 48.3796C176.841 47.8287 176.709 47.1978 176.709 46.4869C176.709 45.7636 176.844 45.1265 177.115 44.5756C177.386 44.0247 177.768 43.5939 178.26 43.283C178.756 42.9722 179.336 42.8168 180.001 42.8168C180.539 42.8168 181.019 42.9168 181.441 43.1168C181.863 43.3138 182.203 43.5908 182.461 43.9478C182.723 44.3048 182.878 44.7218 182.927 45.1989H181.584C181.51 44.8665 181.341 44.5803 181.076 44.3402C180.815 44.1001 180.464 43.9801 180.024 43.9801C179.448 43.9801 178.983 44.2032 178.629 44.6495C178.279 45.0927 178.103 45.6944 178.103 46.4545C178.103 47.227 178.277 47.841 178.625 48.2965C178.973 48.7489 179.439 48.9751 180.024 48.9751C180.418 48.9751 180.755 48.8674 181.035 48.652C181.315 48.4366 181.498 48.138 181.584 47.7564H182.927C182.878 48.215 182.729 48.6243 182.48 48.9844C182.23 49.3445 181.896 49.6276 181.478 49.8338C181.062 50.04 180.575 50.1431 180.014 50.1431ZM185.941 50L183.854 42.9091H185.281L186.67 48.1165H186.739L188.134 42.9091H189.56L190.945 48.0934H191.014L192.395 42.9091H193.821L191.739 50H190.331L188.891 44.8803H188.785L187.344 50H185.941ZM198.256 40.3931C198.678 40.3962 199.092 40.4731 199.498 40.6239C199.908 40.7717 200.278 41.0179 200.611 41.3626C200.946 41.7073 201.212 42.172 201.409 42.7567C201.609 43.3384 201.71 44.0632 201.71 44.9311C201.71 46.0329 201.563 46.9716 201.271 47.7472C200.982 48.5227 200.569 49.1136 200.034 49.5199C199.501 49.9261 198.869 50.1293 198.136 50.1293C197.573 50.1293 197.073 50.0185 196.636 49.7969C196.199 49.5722 195.844 49.2644 195.57 48.8736C195.299 48.4796 195.128 48.0288 195.057 47.521H196.465C196.558 47.9241 196.745 48.2519 197.028 48.5043C197.315 48.7566 197.684 48.8828 198.136 48.8828C198.829 48.8828 199.369 48.5812 199.757 47.978C200.145 47.3717 200.34 46.5253 200.343 45.4389H200.269C200.026 45.8359 199.7 46.1499 199.29 46.3807C198.881 46.6084 198.426 46.7223 197.924 46.7223C197.379 46.7223 196.884 46.5884 196.438 46.3207C195.991 46.0529 195.636 45.6851 195.371 45.2173C195.106 44.7495 194.974 44.214 194.974 43.6108C194.974 43.0076 195.109 42.4628 195.38 41.9766C195.651 41.4872 196.033 41.0994 196.525 40.8132C197.018 40.527 197.595 40.387 198.256 40.3931ZM198.261 41.5934C197.901 41.5934 197.576 41.6826 197.287 41.8612C197.001 42.0397 196.775 42.2797 196.608 42.5813C196.442 42.8829 196.359 43.2199 196.359 43.5923C196.359 43.9586 196.439 44.291 196.599 44.5895C196.762 44.8849 196.985 45.1204 197.268 45.2958C197.552 45.4712 197.873 45.5589 198.233 45.5589C198.593 45.5589 198.92 45.4682 199.212 45.2866C199.504 45.1019 199.735 44.8588 199.904 44.5572C200.077 44.2556 200.163 43.9293 200.163 43.5785C200.163 43.2246 200.08 42.8983 199.914 42.5998C199.751 42.2982 199.526 42.055 199.24 41.8704C198.953 41.6857 198.627 41.5934 198.261 41.5934ZM205.358 45.8636L205.445 43.9155L203.802 44.9727L203.299 44.0955L205.044 43.2045L203.299 42.3136L203.802 41.4364L205.445 42.4936L205.358 40.5455H206.359L206.272 42.4936L207.915 41.4364L208.418 42.3136L206.673 43.2045L208.418 44.0955L207.915 44.9727L206.272 43.9155L206.359 45.8636H205.358ZM210.577 46.076C210.577 44.9188 210.729 43.8539 211.034 42.8814C211.338 41.9089 211.783 41.0117 212.368 40.19H213.633C213.331 40.5962 213.057 41.121 212.811 41.7642C212.565 42.4074 212.369 43.1045 212.225 43.8555C212.08 44.6033 212.008 45.3435 212.008 46.076C212.008 46.8085 212.08 47.5502 212.225 48.3011C212.369 49.0521 212.565 49.7492 212.811 50.3924C213.057 51.0356 213.331 51.5604 213.633 51.9666H212.368C211.783 51.1449 211.338 50.2478 211.034 49.2752C210.729 48.2996 210.577 47.2332 210.577 46.076Z" fill="#737373"/>
<rect x="256" y="35" width="33" height="21" rx="1.5" fill="#EEEEEE"/>
<path d="M269.25 40.5V38.25C269.25 38.0511 269.329 37.8603 269.47 37.7197C269.61 37.579 269.801 37.5 270 37.5H279C279.199 37.5 279.39 37.579 279.53 37.7197C279.671 37.8603 279.75 38.0511 279.75 38.25V48.75C279.75 48.9489 279.671 49.1397 279.53 49.2803C279.39 49.421 279.199 49.5 279 49.5H276.75V51.75C276.75 52.164 276.413 52.5 275.995 52.5H267.005C266.906 52.5006 266.808 52.4816 266.717 52.4442C266.625 52.4068 266.542 52.3517 266.472 52.282C266.402 52.2123 266.346 52.1294 266.308 52.0381C266.27 51.9468 266.25 51.8489 266.25 51.75L266.252 41.25C266.252 40.836 266.59 40.5 267.008 40.5H269.25ZM270.75 40.5H276.75V48H278.25V39H270.75V40.5ZM269.25 44.25V45.75H273.75V44.25H269.25ZM269.25 47.25V48.75H273.75V47.25H269.25Z" fill="white"/>
<defs>
<filter id="filter0_d" x="10" y="0" width="300" height="100.356" filterUnits="userSpaceOnUse" color-interpolation-filters="sRGB">
<feFlood flood-opacity="0" result="BackgroundImageFix"/>
<feColorMatrix in="SourceAlpha" type="matrix" values="0 0 0 0 0 0 0 0 0 0 0 0 0 0 0 0 0 0 127 0"/>
<feOffset dy="3"/>
<feGaussianBlur stdDeviation="5"/>
<feColorMatrix type="matrix" values="0 0 0 0 0 0 0 0 0 0 0 0 0 0 0 0 0 0 0.63 0"/>
<feBlend mode="normal" in2="BackgroundImageFix" result="effect1_dropShadow"/>
<feBlend mode="normal" in="SourceGraphic" in2="effect1_dropShadow" result="shape"/>
</filter>
<filter id="filter1_d" x="25" y="30" width="271" height="35" filterUnits="userSpaceOnUse" color-interpolation-filters="sRGB">
<feFlood flood-opacity="0" result="BackgroundImageFix"/>
<feColorMatrix in="SourceAlpha" type="matrix" values="0 0 0 0 0 0 0 0 0 0 0 0 0 0 0 0 0 0 127 0"/>
<feOffset dy="2"/>
<feGaussianBlur stdDeviation="2.5"/>
<feColorMatrix type="matrix" values="0 0 0 0 0.327469 0 0 0 0 0.525 0 0 0 0 0.295312 0 0 0 0.25 0"/>
<feBlend mode="normal" in2="BackgroundImageFix" result="effect1_dropShadow"/>
<feBlend mode="normal" in="SourceGraphic" in2="effect1_dropShadow" result="shape"/>
</filter>
<linearGradient id="paint0_linear" x1="160" y1="7" x2="160" y2="87.3563" gradientUnits="userSpaceOnUse">
<stop stop-color="#D1F9D0"/>
<stop offset="1" stop-color="#96DD94"/>
</linearGradient>
</defs>
</svg>
