<svg width="291" height="238" viewBox="0 0 291 238" fill="none" xmlns="http://www.w3.org/2000/svg">
<rect x="3" y="1" width="285" height="37" rx="4" stroke="#72C3DD" stroke-width="2"/>
<rect x="1" y="62" width="289" height="175" rx="7" stroke="#72C3DD" stroke-width="2"/>
<rect x="10" y="93" width="271" height="133" rx="5" stroke="#72C3DD" stroke-width="2"/>
<line x1="9" y1="137" x2="282" y2="137" stroke="#72C3DD" stroke-width="2"/>
<line x1="9" y1="181" x2="282" y2="181" stroke="#72C3DD" stroke-width="2"/>
<path d="M21.5284 104.406V103.273H28.2827V104.406H25.5597V112H24.2472V104.406H21.5284ZM29.6729 112V105.455H30.9471V112H29.6729ZM30.3164 104.445C30.0948 104.445 29.9045 104.371 29.7454 104.223C29.5891 104.072 29.511 103.893 29.511 103.686C29.511 103.476 29.5891 103.297 29.7454 103.149C29.9045 102.999 30.0948 102.923 30.3164 102.923C30.5352 102.923 30.7241 102.999 30.8832 103.149C31.0423 103.297 31.1218 103.476 31.1218 103.686C31.1218 103.893 31.0423 104.072 30.8832 104.223C30.7241 104.371 30.5352 104.445 30.3164 104.445ZM32.6612 112V105.455H33.8842V106.52H33.9652C34.1016 106.159 34.3246 105.878 34.6342 105.676C34.9439 105.472 35.3146 105.369 35.7464 105.369C36.1839 105.369 36.5504 105.472 36.8459 105.676C37.1442 105.881 37.3643 106.162 37.5064 106.52H37.5746C37.7337 106.17 37.9822 105.892 38.3203 105.685C38.6612 105.474 39.0675 105.369 39.5391 105.369C40.1328 105.369 40.6172 105.557 40.9922 105.932C41.37 106.304 41.5589 106.864 41.5589 107.611V112H40.2848V107.73C40.2848 107.287 40.1641 106.966 39.9226 106.767C39.6839 106.568 39.3956 106.469 39.0575 106.469C38.6428 106.469 38.3203 106.597 38.0902 106.852C37.8601 107.108 37.745 107.433 37.745 107.828V112H36.4751V107.649C36.4751 107.294 36.3643 107.009 36.1428 106.793C35.9212 106.577 35.6328 106.469 35.2777 106.469C34.9169 106.469 34.603 106.608 34.3359 106.886C34.0689 107.165 33.9354 107.524 33.9354 107.964V112H32.6612ZM46.0877 112.132C45.4457 112.132 44.8917 111.993 44.4258 111.714C43.9599 111.436 43.6005 111.045 43.3477 110.543C43.0977 110.037 42.9727 109.446 42.9727 108.77C42.9727 108.099 43.0977 107.509 43.3477 106.997C43.6005 106.486 43.9528 106.087 44.4045 105.8C44.859 105.513 45.3903 105.369 45.9982 105.369C46.4925 105.369 46.9599 105.48 47.4002 105.702C47.8434 105.92 48.2028 106.271 48.4783 106.754C48.7567 107.234 48.896 107.869 48.896 108.659V109.111H44.2425C44.2596 109.741 44.4371 110.227 44.7752 110.568C45.1133 110.909 45.555 111.08 46.1005 111.08C46.4641 111.08 46.7781 111.001 47.0423 110.845C47.3065 110.689 47.4954 110.456 47.609 110.146L48.815 110.364C48.6701 110.895 48.3576 111.322 47.8775 111.646C47.3974 111.97 46.8008 112.132 46.0877 112.132ZM44.2468 108.156H47.6474C47.6445 107.656 47.494 107.243 47.1957 106.916C46.8974 106.587 46.5011 106.422 46.0067 106.422C45.663 106.422 45.3619 106.503 45.1033 106.665C44.8477 106.824 44.6445 107.036 44.494 107.3C44.3462 107.561 44.2638 107.847 44.2468 108.156ZM56.5408 105.455V106.477H55.1985V110.078C55.1985 110.447 55.2766 110.686 55.4329 110.794C55.592 110.899 55.7752 110.952 55.9826 110.952C56.0849 110.952 56.1744 110.945 56.2511 110.93C56.3278 110.916 56.3874 110.905 56.43 110.896L56.6602 111.949C56.5863 111.977 56.4798 112.006 56.3406 112.034C56.2042 112.065 56.0352 112.082 55.8335 112.085C55.4982 112.091 55.1843 112.031 54.8917 111.906C54.6019 111.781 54.3675 111.588 54.1886 111.327C54.0124 111.065 53.9244 110.737 53.9244 110.342V106.477H52.9656V105.455H53.9244V103.886H55.1985V105.455H56.5408ZM60.6371 112.132C60.0234 112.132 59.4879 111.991 59.0305 111.71C58.5732 111.429 58.218 111.036 57.9652 110.53C57.7124 110.021 57.5859 109.43 57.5859 108.757C57.5859 108.078 57.7124 107.484 57.9652 106.976C58.218 106.467 58.5732 106.072 59.0305 105.791C59.4879 105.51 60.0234 105.369 60.6371 105.369C61.2536 105.369 61.7891 105.51 62.2436 105.791C62.701 106.072 63.0561 106.467 63.3089 106.976C63.5618 107.484 63.6882 108.078 63.6882 108.757C63.6882 109.43 63.5618 110.021 63.3089 110.53C63.0561 111.036 62.701 111.429 62.2436 111.71C61.7891 111.991 61.2536 112.132 60.6371 112.132ZM60.6413 111.062C61.0419 111.062 61.3714 110.957 61.63 110.747C61.8913 110.537 62.0845 110.257 62.2095 109.908C62.3374 109.555 62.4013 109.17 62.4013 108.753C62.4013 108.335 62.3374 107.95 62.2095 107.598C62.0845 107.246 61.8913 106.964 61.63 106.754C61.3714 106.541 61.0419 106.435 60.6413 106.435C60.2408 106.435 59.9098 106.541 59.6484 106.754C59.3871 106.964 59.1925 107.246 59.0646 107.598C58.9368 107.95 58.8729 108.335 58.8729 108.753C58.8729 109.17 58.9368 109.555 59.0646 109.908C59.1925 110.257 59.3871 110.537 59.6484 110.747C59.9098 110.957 60.2408 111.062 60.6413 111.062ZM71.0433 112.132C70.4098 112.132 69.8643 111.989 69.407 111.702C68.9524 111.412 68.603 111.013 68.3587 110.504C68.1143 109.996 67.9922 109.413 67.9922 108.757C67.9922 108.089 68.1172 107.501 68.3672 106.993C68.6172 106.484 68.9695 106.087 69.424 105.8C69.8814 105.513 70.4169 105.369 71.0305 105.369C71.5277 105.369 71.9709 105.462 72.3601 105.646C72.7493 105.828 73.0632 106.084 73.3018 106.413C73.5433 106.743 73.6868 107.128 73.7322 107.568H72.4922C72.424 107.261 72.2678 106.997 72.0234 106.776C71.782 106.554 71.4581 106.443 71.0518 106.443C70.5206 106.443 70.0916 106.649 69.7649 107.061C69.4411 107.47 69.2791 108.026 69.2791 108.727C69.2791 109.44 69.4396 110.007 69.7607 110.428C70.0817 110.845 70.5121 111.054 71.0518 111.054C71.4155 111.054 71.7266 110.955 71.9851 110.756C72.2436 110.557 72.4126 110.281 72.4922 109.929H73.7322C73.6868 110.352 73.549 110.73 73.3189 111.062C73.0888 111.395 72.7805 111.656 72.3942 111.847C72.0107 112.037 71.5604 112.132 71.0433 112.132ZM75.0948 112V105.455H76.3263V106.494H76.3945C76.5138 106.142 76.7241 105.865 77.0252 105.663C77.3292 105.459 77.6729 105.357 78.0565 105.357C78.1388 105.357 78.234 105.359 78.342 105.365C78.4499 105.371 78.5352 105.378 78.5977 105.386V106.605C78.5465 106.591 78.4556 106.575 78.3249 106.558C78.1971 106.538 78.0664 106.528 77.9329 106.528C77.4812 106.528 77.1076 106.668 76.8121 106.946C76.5167 107.222 76.369 107.574 76.369 108.003V112H75.0948ZM81.5465 112.145C81.1317 112.145 80.7567 112.068 80.4215 111.915C80.0891 111.761 79.8249 111.537 79.6289 111.241C79.4329 110.943 79.3349 110.58 79.3349 110.151C79.3349 109.778 79.4059 109.473 79.5479 109.234C79.6928 108.996 79.8846 108.807 80.1232 108.668C80.3647 108.528 80.6346 108.425 80.9329 108.357C81.2312 108.286 81.5352 108.232 81.8448 108.195C82.2369 108.149 82.5536 108.112 82.7951 108.084C83.0394 108.053 83.217 108.003 83.3278 107.935C83.4414 107.866 83.4982 107.756 83.4982 107.602V107.572C83.4982 107.2 83.3931 106.912 83.1829 106.707C82.9755 106.503 82.6658 106.401 82.2539 106.401C81.8249 106.401 81.4869 106.494 81.2397 106.682C80.9954 106.869 80.8263 107.08 80.7326 107.312L79.5352 107.04C79.7482 106.443 80.1033 106.016 80.6005 105.757C81.1005 105.499 81.646 105.369 82.2369 105.369C82.4982 105.369 82.7752 105.401 83.0678 105.463C83.3604 105.523 83.636 105.635 83.8945 105.8C84.1559 105.962 84.3675 106.192 84.5295 106.49C84.6942 106.788 84.7766 107.176 84.7766 107.653V112H83.5323V111.105H83.4812C83.359 111.349 83.1417 111.584 82.8292 111.808C82.5167 112.033 82.0891 112.145 81.5465 112.145ZM81.8235 111.122C82.1786 111.122 82.4812 111.053 82.7312 110.913C82.9812 110.774 83.1715 110.592 83.3022 110.368C83.4357 110.141 83.5025 109.898 83.5025 109.639V108.795C83.4428 108.855 83.3121 108.908 83.1104 108.953C82.9087 108.999 82.6957 109.037 82.4712 109.068C82.2468 109.099 82.065 109.125 81.9258 109.145C81.5565 109.193 81.2397 109.291 80.9755 109.439C80.7141 109.584 80.5835 109.827 80.5835 110.168C80.5835 110.483 80.6999 110.722 80.9329 110.884C81.1658 111.043 81.4627 111.122 81.8235 111.122ZM89.2308 112.132C88.5973 112.132 88.0518 111.989 87.5945 111.702C87.1399 111.412 86.7905 111.013 86.5462 110.504C86.3018 109.996 86.1797 109.413 86.1797 108.757C86.1797 108.089 86.3047 107.501 86.5547 106.993C86.8047 106.484 87.157 106.087 87.6115 105.8C88.0689 105.513 88.6044 105.369 89.218 105.369C89.7152 105.369 90.1584 105.462 90.5476 105.646C90.9368 105.828 91.2507 106.084 91.4893 106.413C91.7308 106.743 91.8743 107.128 91.9197 107.568H90.6797C90.6115 107.261 90.4553 106.997 90.2109 106.776C89.9695 106.554 89.6456 106.443 89.2393 106.443C88.7081 106.443 88.2791 106.649 87.9524 107.061C87.6286 107.47 87.4666 108.026 87.4666 108.727C87.4666 109.44 87.6271 110.007 87.9482 110.428C88.2692 110.845 88.6996 111.054 89.2393 111.054C89.603 111.054 89.9141 110.955 90.1726 110.756C90.4311 110.557 90.6001 110.281 90.6797 109.929H91.9197C91.8743 110.352 91.7365 110.73 91.5064 111.062C91.2763 111.395 90.968 111.656 90.5817 111.847C90.1982 112.037 89.7479 112.132 89.2308 112.132ZM93.2823 112V103.273H94.5565V108.224H94.6673L97.2752 105.455H98.8008L96.1502 108.263L98.9798 112H97.4158L95.1914 109.043L94.5565 109.678V112H93.2823ZM21.9588 127V118.273H25.0696C25.7457 118.273 26.3068 118.396 26.7528 118.643C27.2017 118.891 27.5369 119.227 27.7585 119.653C27.9801 120.08 28.0909 120.561 28.0909 121.098C28.0909 121.635 27.9787 122.118 27.7543 122.547C27.5327 122.973 27.1974 123.311 26.7486 123.561C26.3026 123.808 25.7415 123.932 25.0653 123.932H23.2756V127H21.9588ZM23.2756 122.815H24.946C25.5909 122.815 26.0554 122.653 26.3395 122.33C26.6236 122.003 26.7656 121.592 26.7656 121.098C26.7656 120.604 26.6222 120.197 26.3352 119.879C26.0511 119.561 25.5824 119.402 24.929 119.402H23.2756V122.815ZM31.3786 127.145C30.9638 127.145 30.5888 127.068 30.2536 126.915C29.9212 126.761 29.657 126.537 29.4609 126.241C29.2649 125.943 29.1669 125.58 29.1669 125.151C29.1669 124.778 29.2379 124.473 29.38 124.234C29.5249 123.996 29.7166 123.807 29.9553 123.668C30.1967 123.528 30.4666 123.425 30.7649 123.357C31.0632 123.286 31.3672 123.232 31.6768 123.195C32.0689 123.149 32.3857 123.112 32.6271 123.084C32.8714 123.053 33.049 123.003 33.1598 122.935C33.2734 122.866 33.3303 122.756 33.3303 122.602V122.572C33.3303 122.2 33.2251 121.912 33.0149 121.707C32.8075 121.503 32.4979 121.401 32.0859 121.401C31.657 121.401 31.3189 121.494 31.0717 121.682C30.8274 121.869 30.6584 122.08 30.5646 122.312L29.3672 122.04C29.5803 121.443 29.9354 121.016 30.4325 120.757C30.9325 120.499 31.478 120.369 32.0689 120.369C32.3303 120.369 32.6072 120.401 32.8999 120.463C33.1925 120.523 33.468 120.635 33.7266 120.8C33.9879 120.962 34.1996 121.192 34.3615 121.49C34.5263 121.788 34.6087 122.176 34.6087 122.653V127H33.3643V126.105H33.3132C33.1911 126.349 32.9737 126.584 32.6612 126.808C32.3487 127.033 31.9212 127.145 31.3786 127.145ZM31.6555 126.122C32.0107 126.122 32.3132 126.053 32.5632 125.913C32.8132 125.774 33.0036 125.592 33.1342 125.368C33.2678 125.141 33.3345 124.898 33.3345 124.639V123.795C33.2749 123.855 33.1442 123.908 32.9425 123.953C32.7408 123.999 32.5277 124.037 32.3033 124.068C32.0788 124.099 31.897 124.125 31.7578 124.145C31.3885 124.193 31.0717 124.291 30.8075 124.439C30.5462 124.584 30.4155 124.827 30.4155 125.168C30.4155 125.483 30.532 125.722 30.7649 125.884C30.9979 126.043 31.2947 126.122 31.6555 126.122ZM41.2106 122.053L40.0558 122.257C39.9819 122.038 39.8441 121.838 39.6424 121.656C39.4435 121.472 39.1452 121.379 38.7475 121.379C38.3867 121.379 38.0842 121.46 37.8398 121.622C37.5984 121.781 37.479 121.987 37.4819 122.24C37.479 122.462 37.5586 122.639 37.7205 122.773C37.8853 122.903 38.1481 123.011 38.5089 123.097L39.5487 123.335C40.7418 123.611 41.3384 124.202 41.3384 125.108C41.3384 125.503 41.2248 125.852 40.9975 126.156C40.7731 126.46 40.4592 126.699 40.0558 126.872C39.6552 127.045 39.1907 127.132 38.6623 127.132C37.9265 127.132 37.3285 126.976 36.8683 126.663C36.408 126.348 36.1239 125.901 36.016 125.321L37.2475 125.134C37.4009 125.781 37.8697 126.105 38.6538 126.105C39.0714 126.105 39.4052 126.018 39.6552 125.845C39.9052 125.669 40.0302 125.455 40.0302 125.202C40.0302 124.784 39.7219 124.507 39.1055 124.371L37.9975 124.128C37.3839 123.991 36.9322 123.77 36.6424 123.463C36.3526 123.156 36.2077 122.771 36.2077 122.308C36.2077 121.922 36.3157 121.584 36.5316 121.294C36.7475 121.001 37.0458 120.774 37.4265 120.612C37.8072 120.45 38.2433 120.369 38.7347 120.369C39.4421 120.369 39.9989 120.523 40.4052 120.83C40.8114 121.136 41.0799 121.544 41.2106 122.053ZM47.6442 122.053L46.4893 122.257C46.4155 122.038 46.2777 121.838 46.076 121.656C45.8771 121.472 45.5788 121.379 45.1811 121.379C44.8203 121.379 44.5178 121.46 44.2734 121.622C44.032 121.781 43.9126 121.987 43.9155 122.24C43.9126 122.462 43.9922 122.639 44.1541 122.773C44.3189 122.903 44.5817 123.011 44.9425 123.097L45.9822 123.335C47.1754 123.611 47.772 124.202 47.772 125.108C47.772 125.503 47.6584 125.852 47.4311 126.156C47.2067 126.46 46.8928 126.699 46.4893 126.872C46.0888 127.045 45.6243 127.132 45.0959 127.132C44.3601 127.132 43.7621 126.976 43.3018 126.663C42.8416 126.348 42.5575 125.901 42.4496 125.321L43.6811 125.134C43.8345 125.781 44.3033 126.105 45.0874 126.105C45.505 126.105 45.8388 126.018 46.0888 125.845C46.3388 125.669 46.4638 125.455 46.4638 125.202C46.4638 124.784 46.1555 124.507 45.5391 124.371L44.4311 124.128C43.8175 123.991 43.3658 123.77 43.076 123.463C42.7862 123.156 42.6413 122.771 42.6413 122.308C42.6413 121.922 42.7493 121.584 42.9652 121.294C43.1811 121.001 43.4794 120.774 43.8601 120.612C44.2408 120.45 44.6768 120.369 45.1683 120.369C45.8757 120.369 46.4325 120.523 46.8388 120.83C47.245 121.136 47.5135 121.544 47.6442 122.053ZM50.592 127L48.6658 120.455H49.9826L51.2653 125.261H51.3292L52.6161 120.455H53.9329L55.2113 125.24H55.2752L56.5494 120.455H57.8661L55.9442 127H54.6445L53.315 122.274H53.217L51.8874 127H50.592ZM61.6332 127.132C61.0195 127.132 60.484 126.991 60.0266 126.71C59.5692 126.429 59.2141 126.036 58.9613 125.53C58.7085 125.021 58.582 124.43 58.582 123.757C58.582 123.078 58.7085 122.484 58.9613 121.976C59.2141 121.467 59.5692 121.072 60.0266 120.791C60.484 120.51 61.0195 120.369 61.6332 120.369C62.2496 120.369 62.7852 120.51 63.2397 120.791C63.6971 121.072 64.0522 121.467 64.305 121.976C64.5579 122.484 64.6843 123.078 64.6843 123.757C64.6843 124.43 64.5579 125.021 64.305 125.53C64.0522 126.036 63.6971 126.429 63.2397 126.71C62.7852 126.991 62.2496 127.132 61.6332 127.132ZM61.6374 126.062C62.038 126.062 62.3675 125.957 62.6261 125.747C62.8874 125.537 63.0806 125.257 63.2056 124.908C63.3335 124.555 63.3974 124.17 63.3974 123.753C63.3974 123.335 63.3335 122.95 63.2056 122.598C63.0806 122.246 62.8874 121.964 62.6261 121.754C62.3675 121.541 62.038 121.435 61.6374 121.435C61.2369 121.435 60.9059 121.541 60.6445 121.754C60.3832 121.964 60.1886 122.246 60.0607 122.598C59.9329 122.95 59.869 123.335 59.869 123.753C59.869 124.17 59.9329 124.555 60.0607 124.908C60.1886 125.257 60.3832 125.537 60.6445 125.747C60.9059 125.957 61.2369 126.062 61.6374 126.062ZM66.1065 127V120.455H67.3381V121.494H67.4062C67.5256 121.142 67.7358 120.865 68.0369 120.663C68.3409 120.459 68.6847 120.357 69.0682 120.357C69.1506 120.357 69.2457 120.359 69.3537 120.365C69.4616 120.371 69.5469 120.378 69.6094 120.386V121.605C69.5582 121.591 69.4673 121.575 69.3366 121.558C69.2088 121.538 69.0781 121.528 68.9446 121.528C68.4929 121.528 68.1193 121.668 67.8239 121.946C67.5284 122.222 67.3807 122.574 67.3807 123.003V127H66.1065ZM72.9279 127.128C72.3995 127.128 71.9293 126.993 71.5174 126.723C71.1055 126.453 70.7816 126.065 70.5458 125.56C70.31 125.051 70.1921 124.445 70.1921 123.74C70.1921 123.033 70.31 122.428 70.5458 121.925C70.7844 121.422 71.1112 121.037 71.5259 120.77C71.9407 120.503 72.4109 120.369 72.9364 120.369C73.3427 120.369 73.6694 120.438 73.9165 120.574C74.1665 120.707 74.3597 120.864 74.4961 121.043C74.6353 121.222 74.7433 121.379 74.82 121.516H74.8967V118.273H76.1708V127H74.9265V125.982H74.82C74.7433 126.121 74.6325 126.28 74.4876 126.459C74.3455 126.638 74.1495 126.794 73.8995 126.928C73.6495 127.061 73.3256 127.128 72.9279 127.128ZM73.2092 126.041C73.7603 126.041 74.1822 125.828 74.4748 125.402C74.7702 124.973 74.918 124.415 74.918 123.727C74.918 123.043 74.7717 122.493 74.479 122.078C74.1893 121.661 73.766 121.452 73.2092 121.452C72.8256 121.452 72.506 121.551 72.2504 121.75C71.9947 121.949 71.8015 122.22 71.6708 122.564C71.543 122.905 71.479 123.293 71.479 123.727C71.479 124.165 71.5444 124.558 71.6751 124.908C71.8058 125.257 71.9989 125.534 72.2546 125.739C72.5131 125.94 72.8313 126.041 73.2092 126.041Z" fill="#72C3DD"/>
<path d="M127.886 120.119C127.5 120.116 127.118 120.047 126.74 119.911C126.362 119.771 126.02 119.543 125.713 119.224C125.406 118.906 125.161 118.479 124.976 117.942C124.794 117.405 124.703 116.734 124.703 115.93C124.703 114.911 124.837 114.044 125.104 113.331C125.371 112.615 125.75 112.07 126.241 111.695C126.736 111.32 127.321 111.132 127.997 111.132C128.517 111.132 128.979 111.236 129.382 111.443C129.786 111.648 130.114 111.932 130.366 112.295C130.619 112.656 130.778 113.071 130.844 113.54H129.544C129.456 113.168 129.281 112.866 129.02 112.636C128.759 112.403 128.418 112.287 127.997 112.287C127.358 112.287 126.859 112.565 126.501 113.122C126.146 113.679 125.967 114.459 125.964 115.462H126.028C126.253 115.092 126.554 114.804 126.932 114.597C127.312 114.386 127.733 114.281 128.193 114.281C128.699 114.281 129.158 114.405 129.57 114.652C129.982 114.896 130.31 115.234 130.554 115.666C130.798 116.098 130.919 116.592 130.916 117.149C130.919 117.706 130.794 118.21 130.541 118.662C130.288 119.114 129.935 119.472 129.48 119.736C129.026 119.997 128.494 120.125 127.886 120.119ZM127.882 119.011C128.214 119.011 128.513 118.929 128.777 118.764C129.044 118.599 129.254 118.378 129.408 118.099C129.564 117.821 129.641 117.51 129.638 117.166C129.641 116.828 129.567 116.523 129.416 116.25C129.266 115.974 129.06 115.756 128.798 115.594C128.54 115.432 128.244 115.351 127.912 115.351C127.577 115.351 127.274 115.436 127.004 115.607C126.737 115.774 126.524 115.997 126.365 116.276C126.209 116.551 126.129 116.852 126.126 117.179C126.126 117.506 126.202 117.808 126.352 118.087C126.506 118.365 126.714 118.589 126.979 118.76C127.243 118.928 127.544 119.011 127.882 119.011ZM136.467 122.438C136.276 122.438 136.103 122.423 135.947 122.395C135.79 122.366 135.674 122.334 135.597 122.297L135.904 121.253C136.254 121.349 136.546 121.357 136.782 121.274C137.021 121.195 137.221 120.943 137.383 120.52L137.54 120.085L135.146 113.455H136.509L138.167 118.534H138.235L139.893 113.455L141.269 113.467L138.563 120.874C138.376 121.379 138.11 121.766 137.766 122.033C137.425 122.303 136.992 122.438 136.467 122.438ZM145.056 120.132C144.414 120.132 143.86 119.993 143.395 119.714C142.929 119.436 142.569 119.045 142.316 118.543C142.066 118.037 141.941 117.446 141.941 116.77C141.941 116.099 142.066 115.509 142.316 114.997C142.569 114.486 142.922 114.087 143.373 113.8C143.828 113.513 144.359 113.369 144.967 113.369C145.461 113.369 145.929 113.48 146.369 113.702C146.812 113.92 147.172 114.271 147.447 114.754C147.725 115.234 147.865 115.869 147.865 116.659V117.111H143.211C143.228 117.741 143.406 118.227 143.744 118.568C144.082 118.909 144.524 119.08 145.069 119.08C145.433 119.08 145.747 119.001 146.011 118.845C146.275 118.689 146.464 118.456 146.578 118.146L147.784 118.364C147.639 118.895 147.326 119.322 146.846 119.646C146.366 119.97 145.77 120.132 145.056 120.132ZM143.216 116.156H146.616C146.613 115.656 146.463 115.243 146.164 114.916C145.866 114.587 145.47 114.422 144.975 114.422C144.632 114.422 144.331 114.503 144.072 114.665C143.816 114.824 143.613 115.036 143.463 115.3C143.315 115.561 143.233 115.847 143.216 116.156ZM151.183 120.145C150.768 120.145 150.393 120.068 150.058 119.915C149.726 119.761 149.462 119.537 149.266 119.241C149.07 118.943 148.972 118.58 148.972 118.151C148.972 117.778 149.043 117.473 149.185 117.234C149.33 116.996 149.521 116.807 149.76 116.668C150.001 116.528 150.271 116.425 150.57 116.357C150.868 116.286 151.172 116.232 151.482 116.195C151.874 116.149 152.19 116.112 152.432 116.084C152.676 116.053 152.854 116.003 152.964 115.935C153.078 115.866 153.135 115.756 153.135 115.602V115.572C153.135 115.2 153.03 114.912 152.82 114.707C152.612 114.503 152.303 114.401 151.891 114.401C151.462 114.401 151.124 114.494 150.876 114.682C150.632 114.869 150.463 115.08 150.369 115.312L149.172 115.04C149.385 114.443 149.74 114.016 150.237 113.757C150.737 113.499 151.283 113.369 151.874 113.369C152.135 113.369 152.412 113.401 152.705 113.463C152.997 113.523 153.273 113.635 153.531 113.8C153.793 113.962 154.004 114.192 154.166 114.49C154.331 114.788 154.413 115.176 154.413 115.653V120H153.169V119.105H153.118C152.996 119.349 152.778 119.584 152.466 119.808C152.153 120.033 151.726 120.145 151.183 120.145ZM151.46 119.122C151.815 119.122 152.118 119.053 152.368 118.913C152.618 118.774 152.808 118.592 152.939 118.368C153.072 118.141 153.139 117.898 153.139 117.639V116.795C153.08 116.855 152.949 116.908 152.747 116.953C152.545 116.999 152.332 117.037 152.108 117.068C151.884 117.099 151.702 117.125 151.562 117.145C151.193 117.193 150.876 117.291 150.612 117.439C150.351 117.584 150.22 117.827 150.22 118.168C150.22 118.483 150.337 118.722 150.57 118.884C150.803 119.043 151.099 119.122 151.46 119.122ZM156.11 120V113.455H157.342V114.494H157.41C157.529 114.142 157.74 113.865 158.041 113.663C158.345 113.459 158.689 113.357 159.072 113.357C159.154 113.357 159.25 113.359 159.358 113.365C159.466 113.371 159.551 113.378 159.613 113.386V114.605C159.562 114.591 159.471 114.575 159.341 114.558C159.213 114.538 159.082 114.528 158.949 114.528C158.497 114.528 158.123 114.668 157.828 114.946C157.532 115.222 157.385 115.574 157.385 116.003V120H156.11ZM165.621 115.053L164.466 115.257C164.392 115.038 164.254 114.838 164.053 114.656C163.854 114.472 163.555 114.379 163.158 114.379C162.797 114.379 162.494 114.46 162.25 114.622C162.009 114.781 161.889 114.987 161.892 115.24C161.889 115.462 161.969 115.639 162.131 115.773C162.295 115.903 162.558 116.011 162.919 116.097L163.959 116.335C165.152 116.611 165.749 117.202 165.749 118.108C165.749 118.503 165.635 118.852 165.408 119.156C165.183 119.46 164.869 119.699 164.466 119.872C164.065 120.045 163.601 120.132 163.072 120.132C162.337 120.132 161.739 119.976 161.278 119.663C160.818 119.348 160.534 118.901 160.426 118.321L161.658 118.134C161.811 118.781 162.28 119.105 163.064 119.105C163.482 119.105 163.815 119.018 164.065 118.845C164.315 118.669 164.44 118.455 164.44 118.202C164.44 117.784 164.132 117.507 163.516 117.371L162.408 117.128C161.794 116.991 161.342 116.77 161.053 116.463C160.763 116.156 160.618 115.771 160.618 115.308C160.618 114.922 160.726 114.584 160.942 114.294C161.158 114.001 161.456 113.774 161.837 113.612C162.217 113.45 162.653 113.369 163.145 113.369C163.852 113.369 164.409 113.523 164.815 113.83C165.222 114.136 165.49 114.544 165.621 115.053ZM168.807 118.807L168.743 119.271C168.701 119.612 168.63 119.967 168.53 120.337C168.431 120.709 168.327 121.054 168.219 121.372C168.111 121.69 168.023 121.943 167.955 122.131H167.051C167.091 121.955 167.142 121.716 167.205 121.415C167.27 121.116 167.334 120.783 167.397 120.413C167.459 120.044 167.506 119.668 167.537 119.284L167.58 118.807H168.807ZM176.936 111.273V120H175.615V112.594H175.564L173.475 113.957V112.696L175.653 111.273H176.936ZM182.608 111.273V120H181.287V112.594H181.235L179.147 113.957V112.696L181.325 111.273H182.608ZM188.161 120V113.455H189.384V114.52H189.465C189.602 114.159 189.825 113.878 190.134 113.676C190.444 113.472 190.815 113.369 191.246 113.369C191.684 113.369 192.05 113.472 192.346 113.676C192.644 113.881 192.864 114.162 193.006 114.52H193.075C193.234 114.17 193.482 113.892 193.82 113.685C194.161 113.474 194.567 113.369 195.039 113.369C195.633 113.369 196.117 113.557 196.492 113.932C196.87 114.304 197.059 114.864 197.059 115.611V120H195.785V115.73C195.785 115.287 195.664 114.966 195.423 114.767C195.184 114.568 194.896 114.469 194.558 114.469C194.143 114.469 193.82 114.597 193.59 114.852C193.36 115.108 193.245 115.433 193.245 115.828V120H191.975V115.649C191.975 115.294 191.864 115.009 191.643 114.793C191.421 114.577 191.133 114.469 190.778 114.469C190.417 114.469 190.103 114.608 189.836 114.886C189.569 115.165 189.435 115.524 189.435 115.964V120H188.161ZM201.524 120.132C200.91 120.132 200.375 119.991 199.917 119.71C199.46 119.429 199.105 119.036 198.852 118.53C198.599 118.021 198.473 117.43 198.473 116.757C198.473 116.078 198.599 115.484 198.852 114.976C199.105 114.467 199.46 114.072 199.917 113.791C200.375 113.51 200.91 113.369 201.524 113.369C202.14 113.369 202.676 113.51 203.13 113.791C203.588 114.072 203.943 114.467 204.196 114.976C204.449 115.484 204.575 116.078 204.575 116.757C204.575 117.43 204.449 118.021 204.196 118.53C203.943 119.036 203.588 119.429 203.13 119.71C202.676 119.991 202.14 120.132 201.524 120.132ZM201.528 119.062C201.929 119.062 202.258 118.957 202.517 118.747C202.778 118.537 202.971 118.257 203.096 117.908C203.224 117.555 203.288 117.17 203.288 116.753C203.288 116.335 203.224 115.95 203.096 115.598C202.971 115.246 202.778 114.964 202.517 114.754C202.258 114.541 201.929 114.435 201.528 114.435C201.127 114.435 200.797 114.541 200.535 114.754C200.274 114.964 200.079 115.246 199.951 115.598C199.824 115.95 199.76 116.335 199.76 116.753C199.76 117.17 199.824 117.555 199.951 117.908C200.079 118.257 200.274 118.537 200.535 118.747C200.797 118.957 201.127 119.062 201.528 119.062ZM207.271 116.114V120H205.997V113.455H207.22V114.52H207.301C207.452 114.173 207.688 113.895 208.009 113.685C208.332 113.474 208.74 113.369 209.232 113.369C209.902 113.369 210.44 113.578 210.847 113.996C211.256 114.413 211.46 115.027 211.46 115.837V120H210.186V115.99C210.186 115.516 210.063 115.145 209.815 114.878C209.568 114.608 209.229 114.473 208.797 114.473C208.354 114.473 207.989 114.616 207.702 114.903C207.415 115.187 207.271 115.591 207.271 116.114ZM216.224 113.455V114.477H214.882V118.078C214.882 118.447 214.96 118.686 215.116 118.794C215.276 118.899 215.459 118.952 215.666 118.952C215.768 118.952 215.858 118.945 215.935 118.93C216.011 118.916 216.071 118.905 216.114 118.896L216.344 119.949C216.27 119.977 216.163 120.006 216.024 120.034C215.888 120.065 215.719 120.082 215.517 120.085C215.182 120.091 214.868 120.031 214.575 119.906C214.286 119.781 214.051 119.588 213.872 119.327C213.696 119.065 213.608 118.737 213.608 118.342V114.477H212.649V113.455H213.608V111.886H214.882V113.455H216.224ZM219.049 116.114V120H217.775V111.273H219.032V114.52H219.113C219.266 114.165 219.5 113.885 219.816 113.68C220.131 113.473 220.543 113.369 221.051 113.369C221.725 113.369 222.266 113.577 222.675 113.991C223.087 114.406 223.293 115.021 223.293 115.837V120H222.019V115.99C222.019 115.51 221.895 115.138 221.648 114.874C221.401 114.607 221.057 114.473 220.617 114.473C220.162 114.473 219.787 114.616 219.492 114.903C219.196 115.187 219.049 115.591 219.049 116.114ZM229.898 115.053L228.743 115.257C228.669 115.038 228.532 114.838 228.33 114.656C228.131 114.472 227.833 114.379 227.435 114.379C227.074 114.379 226.772 114.46 226.527 114.622C226.286 114.781 226.167 114.987 226.169 115.24C226.167 115.462 226.246 115.639 226.408 115.773C226.573 115.903 226.836 116.011 227.196 116.097L228.236 116.335C229.429 116.611 230.026 117.202 230.026 118.108C230.026 118.503 229.912 118.852 229.685 119.156C229.461 119.46 229.147 119.699 228.743 119.872C228.343 120.045 227.878 120.132 227.35 120.132C226.614 120.132 226.016 119.976 225.556 119.663C225.096 119.348 224.811 118.901 224.703 118.321L225.935 118.134C226.088 118.781 226.557 119.105 227.341 119.105C227.759 119.105 228.093 119.018 228.343 118.845C228.593 118.669 228.718 118.455 228.718 118.202C228.718 117.784 228.409 117.507 227.793 117.371L226.685 117.128C226.071 116.991 225.62 116.77 225.33 116.463C225.04 116.156 224.895 115.771 224.895 115.308C224.895 114.922 225.003 114.584 225.219 114.294C225.435 114.001 225.733 113.774 226.114 113.612C226.495 113.45 226.931 113.369 227.422 113.369C228.13 113.369 228.686 113.523 229.093 113.83C229.499 114.136 229.767 114.544 229.898 115.053Z" fill="#72C3DD"/>
<path d="M126.151 154.273V163H124.83V155.594H124.778L122.69 156.957V155.696L124.868 154.273H126.151ZM131.704 163V156.455H132.978V163H131.704ZM132.348 155.445C132.126 155.445 131.936 155.371 131.777 155.223C131.62 155.072 131.542 154.893 131.542 154.686C131.542 154.476 131.62 154.297 131.777 154.149C131.936 153.999 132.126 153.923 132.348 153.923C132.566 153.923 132.755 153.999 132.914 154.149C133.074 154.297 133.153 154.476 133.153 154.686C133.153 154.893 133.074 155.072 132.914 155.223C132.755 155.371 132.566 155.445 132.348 155.445ZM135.967 159.114V163H134.692V156.455H135.915V157.52H135.996C136.147 157.173 136.383 156.895 136.704 156.685C137.028 156.474 137.435 156.369 137.927 156.369C138.597 156.369 139.136 156.578 139.542 156.996C139.951 157.413 140.156 158.027 140.156 158.837V163H138.881V158.99C138.881 158.516 138.758 158.145 138.511 157.878C138.263 157.608 137.924 157.473 137.492 157.473C137.049 157.473 136.684 157.616 136.397 157.903C136.11 158.187 135.967 158.591 135.967 159.114ZM145.023 163V162.045L147.976 158.986C148.289 158.653 148.549 158.362 148.756 158.112C148.963 157.859 149.118 157.619 149.221 157.392C149.323 157.165 149.374 156.923 149.374 156.668C149.374 156.233 149.225 155.889 148.926 155.636C148.628 155.381 148.257 155.253 147.814 155.253C147.343 155.253 146.966 155.395 146.685 155.679C146.407 155.96 146.269 156.335 146.272 156.804H145.015C145.015 156.273 145.137 155.808 145.381 155.411C145.625 155.013 145.961 154.705 146.387 154.486C146.813 154.264 147.297 154.153 147.84 154.153C148.388 154.153 148.871 154.263 149.289 154.482C149.709 154.697 150.037 154.993 150.273 155.368C150.509 155.74 150.627 156.161 150.627 156.629C150.627 156.953 150.566 157.27 150.444 157.58C150.324 157.889 150.115 158.234 149.817 158.615C149.522 158.993 149.107 159.452 148.573 159.991L146.838 161.807V161.871H150.767V163H145.023ZM153.363 158.636V154.418H153.324L152.007 155.278V154.303L153.384 153.403H154.368V158.636H153.363ZM155.899 158.636V157.878L157.923 156.143C158.202 155.902 158.415 155.695 158.562 155.521C158.71 155.345 158.784 155.151 158.784 154.938C158.784 154.699 158.69 154.511 158.503 154.375C158.318 154.236 158.089 154.166 157.817 154.166C157.527 154.166 157.294 154.241 157.118 154.392C156.942 154.543 156.854 154.744 156.854 154.997H155.844C155.844 154.491 156.03 154.088 156.402 153.787C156.774 153.486 157.251 153.335 157.834 153.335C158.419 153.335 158.891 153.487 159.249 153.791C159.609 154.095 159.79 154.472 159.79 154.92C159.79 155.278 159.679 155.604 159.457 155.896C159.239 156.186 158.888 156.523 158.405 156.906L157.416 157.741V157.78H159.913V158.636H155.899ZM164.423 165.455V156.455H165.667V157.516H165.774C165.85 157.379 165.957 157.222 166.093 157.043C166.233 156.864 166.426 156.707 166.673 156.574C166.923 156.438 167.25 156.369 167.653 156.369C168.181 156.369 168.652 156.503 169.064 156.77C169.478 157.037 169.805 157.422 170.044 157.925C170.282 158.428 170.402 159.033 170.402 159.74C170.402 160.445 170.284 161.051 170.048 161.56C169.812 162.065 169.488 162.453 169.076 162.723C168.664 162.993 168.194 163.128 167.666 163.128C167.268 163.128 166.944 163.061 166.694 162.928C166.444 162.794 166.247 162.638 166.102 162.459C165.96 162.28 165.85 162.121 165.774 161.982H165.697V165.455H164.423ZM165.672 159.727C165.672 160.415 165.819 160.973 166.115 161.402C166.41 161.828 166.832 162.041 167.38 162.041C167.761 162.041 168.079 161.94 168.335 161.739C168.593 161.534 168.788 161.257 168.919 160.908C169.049 160.558 169.115 160.165 169.115 159.727C169.115 159.293 169.049 158.905 168.919 158.564C168.791 158.22 168.599 157.949 168.343 157.75C168.088 157.551 167.767 157.452 167.38 157.452C166.824 157.452 166.399 157.661 166.106 158.078C165.816 158.493 165.672 159.043 165.672 159.727ZM174.65 163.132C174.008 163.132 173.454 162.993 172.988 162.714C172.522 162.436 172.163 162.045 171.91 161.543C171.66 161.037 171.535 160.446 171.535 159.77C171.535 159.099 171.66 158.509 171.91 157.997C172.163 157.486 172.515 157.087 172.967 156.8C173.422 156.513 173.953 156.369 174.561 156.369C175.055 156.369 175.522 156.48 175.963 156.702C176.406 156.92 176.765 157.271 177.041 157.754C177.319 158.234 177.458 158.869 177.458 159.659V160.111H172.805C172.822 160.741 173 161.227 173.338 161.568C173.676 161.909 174.118 162.08 174.663 162.08C175.027 162.08 175.341 162.001 175.605 161.845C175.869 161.689 176.058 161.456 176.172 161.146L177.377 161.364C177.233 161.895 176.92 162.322 176.44 162.646C175.96 162.97 175.363 163.132 174.65 163.132ZM172.809 159.156H176.21C176.207 158.656 176.056 158.243 175.758 157.916C175.46 157.587 175.064 157.422 174.569 157.422C174.225 157.422 173.924 157.503 173.666 157.665C173.41 157.824 173.207 158.036 173.056 158.3C172.909 158.561 172.826 158.847 172.809 159.156ZM181.629 163.132C181.016 163.132 180.48 162.991 180.023 162.71C179.565 162.429 179.21 162.036 178.957 161.53C178.705 161.021 178.578 160.43 178.578 159.757C178.578 159.078 178.705 158.484 178.957 157.976C179.21 157.467 179.565 157.072 180.023 156.791C180.48 156.51 181.016 156.369 181.629 156.369C182.246 156.369 182.781 156.51 183.236 156.791C183.693 157.072 184.048 157.467 184.301 157.976C184.554 158.484 184.68 159.078 184.68 159.757C184.68 160.43 184.554 161.021 184.301 161.53C184.048 162.036 183.693 162.429 183.236 162.71C182.781 162.991 182.246 163.132 181.629 163.132ZM181.634 162.062C182.034 162.062 182.364 161.957 182.622 161.747C182.884 161.537 183.077 161.257 183.202 160.908C183.33 160.555 183.393 160.17 183.393 159.753C183.393 159.335 183.33 158.95 183.202 158.598C183.077 158.246 182.884 157.964 182.622 157.754C182.364 157.541 182.034 157.435 181.634 157.435C181.233 157.435 180.902 157.541 180.641 157.754C180.379 157.964 180.185 158.246 180.057 158.598C179.929 158.95 179.865 159.335 179.865 159.753C179.865 160.17 179.929 160.555 180.057 160.908C180.185 161.257 180.379 161.537 180.641 161.747C180.902 161.957 181.233 162.062 181.634 162.062ZM186.103 165.455V156.455H187.347V157.516H187.453C187.53 157.379 187.637 157.222 187.773 157.043C187.912 156.864 188.105 156.707 188.353 156.574C188.603 156.438 188.929 156.369 189.333 156.369C189.861 156.369 190.331 156.503 190.743 156.77C191.158 157.037 191.485 157.422 191.723 157.925C191.962 158.428 192.081 159.033 192.081 159.74C192.081 160.445 191.963 161.051 191.728 161.56C191.492 162.065 191.168 162.453 190.756 162.723C190.344 162.993 189.874 163.128 189.346 163.128C188.948 163.128 188.624 163.061 188.374 162.928C188.124 162.794 187.926 162.638 187.782 162.459C187.64 162.28 187.53 162.121 187.453 161.982H187.377V165.455H186.103ZM187.351 159.727C187.351 160.415 187.499 160.973 187.794 161.402C188.09 161.828 188.512 162.041 189.06 162.041C189.441 162.041 189.759 161.94 190.015 161.739C190.273 161.534 190.468 161.257 190.598 160.908C190.729 160.558 190.794 160.165 190.794 159.727C190.794 159.293 190.729 158.905 190.598 158.564C190.471 158.22 190.279 157.949 190.023 157.75C189.767 157.551 189.446 157.452 189.06 157.452C188.503 157.452 188.078 157.661 187.786 158.078C187.496 158.493 187.351 159.043 187.351 159.727ZM194.783 154.273V163H193.509V154.273H194.783ZM199.318 163.132C198.676 163.132 198.122 162.993 197.656 162.714C197.19 162.436 196.831 162.045 196.578 161.543C196.328 161.037 196.203 160.446 196.203 159.77C196.203 159.099 196.328 158.509 196.578 157.997C196.831 157.486 197.183 157.087 197.635 156.8C198.089 156.513 198.621 156.369 199.229 156.369C199.723 156.369 200.19 156.48 200.631 156.702C201.074 156.92 201.433 157.271 201.709 157.754C201.987 158.234 202.126 158.869 202.126 159.659V160.111H197.473C197.49 160.741 197.668 161.227 198.006 161.568C198.344 161.909 198.786 162.08 199.331 162.08C199.695 162.08 200.009 162.001 200.273 161.845C200.537 161.689 200.726 161.456 200.839 161.146L202.045 161.364C201.901 161.895 201.588 162.322 201.108 162.646C200.628 162.97 200.031 163.132 199.318 163.132ZM197.477 159.156H200.878C200.875 158.656 200.724 158.243 200.426 157.916C200.128 157.587 199.732 157.422 199.237 157.422C198.893 157.422 198.592 157.503 198.334 157.665C198.078 157.824 197.875 158.036 197.724 158.3C197.577 158.561 197.494 158.847 197.477 159.156Z" fill="#72C3DD"/>
<path d="M29.2074 158.111H27.8778C27.7699 157.545 27.5043 157.112 27.081 156.811C26.6605 156.507 26.1719 156.355 25.6151 156.355C25.1151 156.355 24.6662 156.482 24.2685 156.734C23.8707 156.987 23.5568 157.358 23.3267 157.847C23.0994 158.332 22.9858 158.929 22.9858 159.636C22.9858 160.347 23.1009 160.946 23.331 161.435C23.5611 161.923 23.8736 162.293 24.2685 162.543C24.6662 162.793 25.1136 162.918 25.6108 162.918C26.1619 162.918 26.6491 162.768 27.0724 162.47C27.4957 162.172 27.7642 161.744 27.8778 161.188L29.2074 161.192C29.1136 161.766 28.9034 162.273 28.5767 162.713C28.25 163.153 27.8324 163.499 27.3239 163.749C26.8153 163.996 26.2415 164.119 25.6023 164.119C24.8466 164.119 24.1733 163.94 23.5824 163.582C22.9915 163.222 22.5256 162.706 22.1847 162.036C21.8466 161.365 21.6776 160.565 21.6776 159.636C21.6776 158.705 21.848 157.905 22.1889 157.237C22.5298 156.567 22.9957 156.053 23.5866 155.695C24.1776 155.334 24.8494 155.153 25.6023 155.153C26.2188 155.153 26.7798 155.27 27.2855 155.503C27.794 155.736 28.2159 156.074 28.5511 156.517C28.8892 156.957 29.108 157.489 29.2074 158.111ZM33.4379 164.132C32.8242 164.132 32.2887 163.991 31.8313 163.71C31.3739 163.429 31.0188 163.036 30.766 162.53C30.5131 162.021 30.3867 161.43 30.3867 160.757C30.3867 160.078 30.5131 159.484 30.766 158.976C31.0188 158.467 31.3739 158.072 31.8313 157.791C32.2887 157.51 32.8242 157.369 33.4379 157.369C34.0543 157.369 34.5898 157.51 35.0444 157.791C35.5018 158.072 35.8569 158.467 36.1097 158.976C36.3626 159.484 36.489 160.078 36.489 160.757C36.489 161.43 36.3626 162.021 36.1097 162.53C35.8569 163.036 35.5018 163.429 35.0444 163.71C34.5898 163.991 34.0543 164.132 33.4379 164.132ZM33.4421 163.062C33.8427 163.062 34.1722 162.957 34.4308 162.747C34.6921 162.537 34.8853 162.257 35.0103 161.908C35.1381 161.555 35.2021 161.17 35.2021 160.753C35.2021 160.335 35.1381 159.95 35.0103 159.598C34.8853 159.246 34.6921 158.964 34.4308 158.754C34.1722 158.541 33.8427 158.435 33.4421 158.435C33.0415 158.435 32.7106 158.541 32.4492 158.754C32.1879 158.964 31.9933 159.246 31.8654 159.598C31.7376 159.95 31.6737 160.335 31.6737 160.753C31.6737 161.17 31.7376 161.555 31.8654 161.908C31.9933 162.257 32.1879 162.537 32.4492 162.747C32.7106 162.957 33.0415 163.062 33.4421 163.062ZM37.9112 164V157.455H39.1342V158.52H39.2152C39.3516 158.159 39.5746 157.878 39.8842 157.676C40.1939 157.472 40.5646 157.369 40.9964 157.369C41.4339 157.369 41.8004 157.472 42.0959 157.676C42.3942 157.881 42.6143 158.162 42.7564 158.52H42.8246C42.9837 158.17 43.2322 157.892 43.5703 157.685C43.9112 157.474 44.3175 157.369 44.7891 157.369C45.3828 157.369 45.8672 157.557 46.2422 157.932C46.62 158.304 46.8089 158.864 46.8089 159.611V164H45.5348V159.73C45.5348 159.287 45.4141 158.966 45.1726 158.767C44.9339 158.568 44.6456 158.469 44.3075 158.469C43.8928 158.469 43.5703 158.597 43.3402 158.852C43.1101 159.108 42.995 159.433 42.995 159.828V164H41.7251V159.649C41.7251 159.294 41.6143 159.009 41.3928 158.793C41.1712 158.577 40.8828 158.469 40.5277 158.469C40.1669 158.469 39.853 158.608 39.5859 158.886C39.3189 159.165 39.1854 159.524 39.1854 159.964V164H37.9112ZM48.5167 164V157.455H49.7397V158.52H49.8207C49.957 158.159 50.18 157.878 50.4897 157.676C50.7994 157.472 51.1701 157.369 51.6019 157.369C52.0394 157.369 52.4059 157.472 52.7013 157.676C52.9996 157.881 53.2198 158.162 53.3619 158.52H53.43C53.5891 158.17 53.8377 157.892 54.1758 157.685C54.5167 157.474 54.9229 157.369 55.3945 157.369C55.9883 157.369 56.4727 157.557 56.8477 157.932C57.2255 158.304 57.4144 158.864 57.4144 159.611V164H56.1403V159.73C56.1403 159.287 56.0195 158.966 55.7781 158.767C55.5394 158.568 55.2511 158.469 54.913 158.469C54.4982 158.469 54.1758 158.597 53.9457 158.852C53.7156 159.108 53.6005 159.433 53.6005 159.828V164H52.3306V159.649C52.3306 159.294 52.2198 159.009 51.9982 158.793C51.7766 158.577 51.4883 158.469 51.1332 158.469C50.7724 158.469 50.4585 158.608 50.1914 158.886C49.9244 159.165 49.7908 159.524 49.7908 159.964V164H48.5167ZM61.8793 164.132C61.2656 164.132 60.7301 163.991 60.2727 163.71C59.8153 163.429 59.4602 163.036 59.2074 162.53C58.9545 162.021 58.8281 161.43 58.8281 160.757C58.8281 160.078 58.9545 159.484 59.2074 158.976C59.4602 158.467 59.8153 158.072 60.2727 157.791C60.7301 157.51 61.2656 157.369 61.8793 157.369C62.4957 157.369 63.0313 157.51 63.4858 157.791C63.9432 158.072 64.2983 158.467 64.5511 158.976C64.804 159.484 64.9304 160.078 64.9304 160.757C64.9304 161.43 64.804 162.021 64.5511 162.53C64.2983 163.036 63.9432 163.429 63.4858 163.71C63.0313 163.991 62.4957 164.132 61.8793 164.132ZM61.8835 163.062C62.2841 163.062 62.6136 162.957 62.8722 162.747C63.1335 162.537 63.3267 162.257 63.4517 161.908C63.5795 161.555 63.6435 161.17 63.6435 160.753C63.6435 160.335 63.5795 159.95 63.4517 159.598C63.3267 159.246 63.1335 158.964 62.8722 158.754C62.6136 158.541 62.2841 158.435 61.8835 158.435C61.483 158.435 61.152 158.541 60.8906 158.754C60.6293 158.964 60.4347 159.246 60.3068 159.598C60.179 159.95 60.1151 160.335 60.1151 160.753C60.1151 161.17 60.179 161.555 60.3068 161.908C60.4347 162.257 60.6293 162.537 60.8906 162.747C61.152 162.957 61.483 163.062 61.8835 163.062ZM67.6268 160.114V164H66.3526V157.455H67.5756V158.52H67.6566C67.8072 158.173 68.043 157.895 68.364 157.685C68.6879 157.474 69.0955 157.369 69.587 157.369C70.2575 157.369 70.7958 157.578 71.2021 157.996C71.6112 158.413 71.8157 159.027 71.8157 159.837V164H70.5415V159.99C70.5415 159.516 70.418 159.145 70.1708 158.878C69.9237 158.608 69.5842 158.473 69.1523 158.473C68.7092 158.473 68.3441 158.616 68.0572 158.903C67.7702 159.187 67.6268 159.591 67.6268 160.114ZM74.7987 160.114V164H73.5245V157.455H74.7475V158.52H74.8285C74.979 158.173 75.2148 157.895 75.5359 157.685C75.8597 157.474 76.2674 157.369 76.7589 157.369C77.4293 157.369 77.9677 157.578 78.3739 157.996C78.783 158.413 78.9876 159.027 78.9876 159.837V164H77.7134V159.99C77.7134 159.516 77.5898 159.145 77.3427 158.878C77.0955 158.608 76.756 158.473 76.3242 158.473C75.881 158.473 75.516 158.616 75.229 158.903C74.9421 159.187 74.7987 159.591 74.7987 160.114ZM83.5174 164.132C82.8754 164.132 82.3214 163.993 81.8555 163.714C81.3896 163.436 81.0302 163.045 80.7773 162.543C80.5273 162.037 80.4023 161.446 80.4023 160.77C80.4023 160.099 80.5273 159.509 80.7773 158.997C81.0302 158.486 81.3825 158.087 81.8342 157.8C82.2887 157.513 82.82 157.369 83.4279 157.369C83.9222 157.369 84.3896 157.48 84.8299 157.702C85.2731 157.92 85.6325 158.271 85.908 158.754C86.1864 159.234 86.3256 159.869 86.3256 160.659V161.111H81.6722C81.6893 161.741 81.8668 162.227 82.2049 162.568C82.543 162.909 82.9847 163.08 83.5302 163.08C83.8938 163.08 84.2077 163.001 84.4719 162.845C84.7362 162.689 84.9251 162.456 85.0387 162.146L86.2447 162.364C86.0998 162.895 85.7873 163.322 85.3072 163.646C84.8271 163.97 84.2305 164.132 83.5174 164.132ZM81.6765 160.156H85.0771C85.0742 159.656 84.9237 159.243 84.6254 158.916C84.3271 158.587 83.9308 158.422 83.4364 158.422C83.0927 158.422 82.7915 158.503 82.533 158.665C82.2773 158.824 82.0742 159.036 81.9237 159.3C81.7759 159.561 81.6935 159.847 81.6765 160.156ZM92.6442 159.053L91.4893 159.257C91.4155 159.038 91.2777 158.838 91.076 158.656C90.8771 158.472 90.5788 158.379 90.1811 158.379C89.8203 158.379 89.5178 158.46 89.2734 158.622C89.032 158.781 88.9126 158.987 88.9155 159.24C88.9126 159.462 88.9922 159.639 89.1541 159.773C89.3189 159.903 89.5817 160.011 89.9425 160.097L90.9822 160.335C92.1754 160.611 92.772 161.202 92.772 162.108C92.772 162.503 92.6584 162.852 92.4311 163.156C92.2067 163.46 91.8928 163.699 91.4893 163.872C91.0888 164.045 90.6243 164.132 90.0959 164.132C89.3601 164.132 88.7621 163.976 88.3018 163.663C87.8416 163.348 87.5575 162.901 87.4496 162.321L88.6811 162.134C88.8345 162.781 89.3033 163.105 90.0874 163.105C90.505 163.105 90.8388 163.018 91.0888 162.845C91.3388 162.669 91.4638 162.455 91.4638 162.202C91.4638 161.784 91.1555 161.507 90.5391 161.371L89.4311 161.128C88.8175 160.991 88.3658 160.77 88.076 160.463C87.7862 160.156 87.6413 159.771 87.6413 159.308C87.6413 158.922 87.7493 158.584 87.9652 158.294C88.1811 158.001 88.4794 157.774 88.8601 157.612C89.2408 157.45 89.6768 157.369 90.1683 157.369C90.8757 157.369 91.4325 157.523 91.8388 157.83C92.245 158.136 92.5135 158.544 92.6442 159.053ZM99.0778 159.053L97.9229 159.257C97.8491 159.038 97.7113 158.838 97.5096 158.656C97.3107 158.472 97.0124 158.379 96.6147 158.379C96.2539 158.379 95.9513 158.46 95.707 158.622C95.4656 158.781 95.3462 158.987 95.3491 159.24C95.3462 159.462 95.4258 159.639 95.5877 159.773C95.7525 159.903 96.0153 160.011 96.3761 160.097L97.4158 160.335C98.609 160.611 99.2056 161.202 99.2056 162.108C99.2056 162.503 99.092 162.852 98.8647 163.156C98.6403 163.46 98.3263 163.699 97.9229 163.872C97.5224 164.045 97.0579 164.132 96.5295 164.132C95.7937 164.132 95.1957 163.976 94.7354 163.663C94.2752 163.348 93.9911 162.901 93.8832 162.321L95.1147 162.134C95.2681 162.781 95.7369 163.105 96.521 163.105C96.9386 163.105 97.2724 163.018 97.5224 162.845C97.7724 162.669 97.8974 162.455 97.8974 162.202C97.8974 161.784 97.5891 161.507 96.9727 161.371L95.8647 161.128C95.2511 160.991 94.7994 160.77 94.5096 160.463C94.2198 160.156 94.0749 159.771 94.0749 159.308C94.0749 158.922 94.1829 158.584 94.3988 158.294C94.6147 158.001 94.913 157.774 95.2937 157.612C95.6744 157.45 96.1104 157.369 96.6019 157.369C97.3093 157.369 97.8661 157.523 98.2724 157.83C98.6786 158.136 98.9471 158.544 99.0778 159.053Z" fill="#72C3DD"/>
<rect x="23" y="198" width="244" height="12" rx="1" stroke="#72C3DD" stroke-width="2"/>
<path d="M23 199C23 198.448 23.4477 198 24 198H215V210H24C23.4477 210 23 209.552 23 209V199Z" stroke="#72C3DD" stroke-width="2"/>
<path d="M18.1122 19.5455L18.2067 17.4474L16.4368 18.5859L15.8949 17.6413L17.7741 16.6818L15.8949 15.7223L16.4368 14.7777L18.2067 15.9162L18.1122 13.8182H19.1911L19.0966 15.9162L20.8665 14.7777L21.4084 15.7223L19.5291 16.6818L21.4084 17.6413L20.8665 18.5859L19.0966 17.4474L19.1911 19.5455H18.1122ZM25.413 19.5455L25.5075 17.4474L23.7376 18.5859L23.1957 17.6413L25.0749 16.6818L23.1957 15.7223L23.7376 14.7777L25.5075 15.9162L25.413 13.8182H26.4918L26.3974 15.9162L28.1673 14.7777L28.7092 15.7223L26.8299 16.6818L28.7092 17.6413L28.1673 18.5859L26.3974 17.4474L26.4918 19.5455H25.413ZM32.7138 19.5455L32.8082 17.4474L31.0384 18.5859L30.4964 17.6413L32.3757 16.6818L30.4964 15.7223L31.0384 14.7777L32.8082 15.9162L32.7138 13.8182H33.7926L33.6982 15.9162L35.468 14.7777L36.0099 15.7223L34.1307 16.6818L36.0099 17.6413L35.468 18.5859L33.6982 17.4474L33.7926 19.5455H32.7138ZM40.0146 19.5455L40.109 17.4474L38.3391 18.5859L37.7972 17.6413L39.6765 16.6818L37.7972 15.7223L38.3391 14.7777L40.109 15.9162L40.0146 13.8182H41.0934L40.9989 15.9162L42.7688 14.7777L43.3107 15.7223L41.4315 16.6818L43.3107 17.6413L42.7688 18.5859L40.9989 17.4474L41.0934 19.5455H40.0146ZM47.3153 19.5455L47.4098 17.4474L45.6399 18.5859L45.098 17.6413L46.9773 16.6818L45.098 15.7223L45.6399 14.7777L47.4098 15.9162L47.3153 13.8182H48.3942L48.2997 15.9162L50.0696 14.7777L50.6115 15.7223L48.7322 16.6818L50.6115 17.6413L50.0696 18.5859L48.2997 17.4474L48.3942 19.5455H47.3153ZM54.6161 19.5455L54.7106 17.4474L52.9407 18.5859L52.3988 17.6413L54.2781 16.6818L52.3988 15.7223L52.9407 14.7777L54.7106 15.9162L54.6161 13.8182H55.695L55.6005 15.9162L57.3704 14.7777L57.9123 15.7223L56.033 16.6818L57.9123 17.6413L57.3704 18.5859L55.6005 17.4474L55.695 19.5455H54.6161ZM61.9169 19.5455L62.0114 17.4474L60.2415 18.5859L59.6996 17.6413L61.5788 16.6818L59.6996 15.7223L60.2415 14.7777L62.0114 15.9162L61.9169 13.8182H62.9957L62.9013 15.9162L64.6712 14.7777L65.2131 15.7223L63.3338 16.6818L65.2131 17.6413L64.6712 18.5859L62.9013 17.4474L62.9957 19.5455H61.9169ZM69.2177 19.5455L69.3121 17.4474L67.5423 18.5859L67.0004 17.6413L68.8796 16.6818L67.0004 15.7223L67.5423 14.7777L69.3121 15.9162L69.2177 13.8182H70.2965L70.2021 15.9162L71.9719 14.7777L72.5138 15.7223L70.6346 16.6818L72.5138 17.6413L71.9719 18.5859L70.2021 17.4474L70.2965 19.5455H69.2177ZM76.5185 19.5455L76.6129 17.4474L74.843 18.5859L74.3011 17.6413L76.1804 16.6818L74.3011 15.7223L74.843 14.7777L76.6129 15.9162L76.5185 13.8182H77.5973L77.5028 15.9162L79.2727 14.7777L79.8146 15.7223L77.9354 16.6818L79.8146 17.6413L79.2727 18.5859L77.5028 17.4474L77.5973 19.5455H76.5185ZM83.8192 19.5455L83.9137 17.4474L82.1438 18.5859L81.6019 17.6413L83.4812 16.6818L81.6019 15.7223L82.1438 14.7777L83.9137 15.9162L83.8192 13.8182H84.8981L84.8036 15.9162L86.5735 14.7777L87.1154 15.7223L85.2362 16.6818L87.1154 17.6413L86.5735 18.5859L84.8036 17.4474L84.8981 19.5455H83.8192ZM91.12 19.5455L91.2145 17.4474L89.4446 18.5859L88.9027 17.6413L90.782 16.6818L88.9027 15.7223L89.4446 14.7777L91.2145 15.9162L91.12 13.8182H92.1989L92.1044 15.9162L93.8743 14.7777L94.4162 15.7223L92.5369 16.6818L94.4162 17.6413L93.8743 18.5859L92.1044 17.4474L92.1989 19.5455H91.12ZM98.4208 19.5455L98.5153 17.4474L96.7454 18.5859L96.2035 17.6413L98.0827 16.6818L96.2035 15.7223L96.7454 14.7777L98.5153 15.9162L98.4208 13.8182H99.4996L99.4052 15.9162L101.175 14.7777L101.717 15.7223L99.8377 16.6818L101.717 17.6413L101.175 18.5859L99.4052 17.4474L99.4996 19.5455H98.4208ZM105.722 19.5455L105.816 17.4474L104.046 18.5859L103.504 17.6413L105.384 16.6818L103.504 15.7223L104.046 14.7777L105.816 15.9162L105.722 13.8182H106.8L106.706 15.9162L108.476 14.7777L109.018 15.7223L107.138 16.6818L109.018 17.6413L108.476 18.5859L106.706 17.4474L106.8 19.5455H105.722ZM113.022 19.5455L113.117 17.4474L111.347 18.5859L110.805 17.6413L112.684 16.6818L110.805 15.7223L111.347 14.7777L113.117 15.9162L113.022 13.8182H114.101L114.007 15.9162L115.777 14.7777L116.319 15.7223L114.439 16.6818L116.319 17.6413L115.777 18.5859L114.007 17.4474L114.101 19.5455H113.022ZM120.323 19.5455L120.418 17.4474L118.648 18.5859L118.106 17.6413L119.985 16.6818L118.106 15.7223L118.648 14.7777L120.418 15.9162L120.323 13.8182H121.402L121.308 15.9162L123.077 14.7777L123.619 15.7223L121.74 16.6818L123.619 17.6413L123.077 18.5859L121.308 17.4474L121.402 19.5455H120.323ZM127.624 19.5455L127.718 17.4474L125.949 18.5859L125.407 17.6413L127.286 16.6818L125.407 15.7223L125.949 14.7777L127.718 15.9162L127.624 13.8182H128.703L128.608 15.9162L130.378 14.7777L130.92 15.7223L129.041 16.6818L130.92 17.6413L130.378 18.5859L128.608 17.4474L128.703 19.5455H127.624ZM134.925 19.5455L135.019 17.4474L133.249 18.5859L132.707 17.6413L134.587 16.6818L132.707 15.7223L133.249 14.7777L135.019 15.9162L134.925 13.8182H136.004L135.909 15.9162L137.679 14.7777L138.221 15.7223L136.342 16.6818L138.221 17.6413L137.679 18.5859L135.909 17.4474L136.004 19.5455H134.925ZM142.225 19.5455L142.32 17.4474L140.55 18.5859L140.008 17.6413L141.887 16.6818L140.008 15.7223L140.55 14.7777L142.32 15.9162L142.225 13.8182H143.304L143.21 15.9162L144.98 14.7777L145.522 15.7223L143.642 16.6818L145.522 17.6413L144.98 18.5859L143.21 17.4474L143.304 19.5455H142.225Z" fill="#2CC1F0"/>
<path d="M267 12C262.909 12 259.415 14.6953 258 18.5C259.415 22.3047 262.909 25 267 25C271.091 25 274.585 22.3047 276 18.5C274.585 14.6953 271.091 12 267 12ZM267 22.8333C264.742 22.8333 262.909 20.892 262.909 18.5C262.909 16.108 264.742 14.1667 267 14.1667C269.258 14.1667 271.091 16.108 271.091 18.5C271.091 20.892 269.258 22.8333 267 22.8333ZM267 15.9C265.642 15.9 264.545 17.0613 264.545 18.5C264.545 19.9387 265.642 21.1 267 21.1C268.358 21.1 269.455 19.9387 269.455 18.5C269.455 17.0613 268.358 15.9 267 15.9Z" fill="#72C3DD"/>
<rect x="254" y="68" width="18" height="18" rx="3" fill="#72C3DD"/>
<path d="M264.467 76.4962L267.8 73.1628C267.925 73.0344 267.993 72.8623 267.992 72.6837C267.99 72.5051 267.918 72.3343 267.792 72.208C267.666 72.0817 267.495 72.01 267.316 72.0085C267.138 72.0069 266.966 72.0756 266.837 72.1997L263.504 75.533L260.171 72.1997C260.108 72.1364 260.033 72.0862 259.95 72.0519C259.867 72.0176 259.779 72 259.689 72C259.6 72 259.511 72.0176 259.429 72.0519C259.346 72.0862 259.271 72.1364 259.208 72.1997C259.144 72.2629 259.094 72.3379 259.06 72.4206C259.026 72.5032 259.008 72.5918 259.008 72.6812C259.008 72.7707 259.026 72.8593 259.06 72.9419C259.094 73.0245 259.144 73.0996 259.208 73.1628L262.541 76.4962L259.2 79.8374C259.105 79.9326 259.04 80.0539 259.013 80.1861C258.987 80.3183 259 80.4554 259.052 80.5799C259.103 80.7044 259.191 80.8109 259.303 80.8856C259.415 80.9604 259.547 81.0002 259.682 81C259.856 81 260.03 80.9335 260.163 80.8006L263.504 77.4593L266.837 80.7927C266.901 80.856 266.976 80.9062 267.058 80.9404C267.141 80.9747 267.23 80.9922 267.319 80.9921C267.454 80.9921 267.585 80.9521 267.697 80.8773C267.809 80.8024 267.897 80.6961 267.948 80.5717C268 80.4472 268.013 80.3103 267.987 80.1782C267.961 80.0461 267.896 79.9248 267.801 79.8295L264.467 76.4962Z" fill="white"/>
</svg>
