<svg width="321" height="257" viewBox="0 0 321 257" fill="none" xmlns="http://www.w3.org/2000/svg">
<rect x="19" y="4" width="283" height="35" rx="3" fill="white"/>
<rect x="17.25" y="2.25" width="286.5" height="38.5" rx="4.75" stroke="#65BEFF" stroke-opacity="0.6" stroke-width="3.5"/>
<g filter="url(#filter0_d)">
<rect x="15" y="63" width="291" height="177" rx="8" fill="#F7F7F7"/>
</g>
<rect x="24.35" y="94.35" width="272.3" height="134.3" rx="5.65" fill="white" fill-opacity="0.78" stroke="#D8D8D8" stroke-width="0.7"/>
<line x1="24" y1="139.65" x2="297" y2="139.65" stroke="#D8D8D8" stroke-width="0.7"/>
<line x1="24" y1="183.65" x2="297" y2="183.65" stroke="#D8D8D8" stroke-width="0.7"/>
<path d="M36.5284 106.406V105.273H43.2827V106.406H40.5597V114H39.2472V106.406H36.5284ZM44.6729 114V107.455H45.9471V114H44.6729ZM45.3164 106.445C45.0948 106.445 44.9045 106.371 44.7454 106.223C44.5891 106.072 44.511 105.893 44.511 105.686C44.511 105.476 44.5891 105.297 44.7454 105.149C44.9045 104.999 45.0948 104.923 45.3164 104.923C45.5352 104.923 45.7241 104.999 45.8832 105.149C46.0423 105.297 46.1218 105.476 46.1218 105.686C46.1218 105.893 46.0423 106.072 45.8832 106.223C45.7241 106.371 45.5352 106.445 45.3164 106.445ZM47.6612 114V107.455H48.8842V108.52H48.9652C49.1016 108.159 49.3246 107.878 49.6342 107.676C49.9439 107.472 50.3146 107.369 50.7464 107.369C51.1839 107.369 51.5504 107.472 51.8459 107.676C52.1442 107.881 52.3643 108.162 52.5064 108.52H52.5746C52.7337 108.17 52.9822 107.892 53.3203 107.685C53.6612 107.474 54.0675 107.369 54.5391 107.369C55.1328 107.369 55.6172 107.557 55.9922 107.932C56.37 108.304 56.5589 108.864 56.5589 109.611V114H55.2848V109.73C55.2848 109.287 55.1641 108.966 54.9226 108.767C54.6839 108.568 54.3956 108.469 54.0575 108.469C53.6428 108.469 53.3203 108.597 53.0902 108.852C52.8601 109.108 52.745 109.433 52.745 109.828V114H51.4751V109.649C51.4751 109.294 51.3643 109.009 51.1428 108.793C50.9212 108.577 50.6328 108.469 50.2777 108.469C49.9169 108.469 49.603 108.608 49.3359 108.886C49.0689 109.165 48.9354 109.524 48.9354 109.964V114H47.6612ZM61.0877 114.132C60.4457 114.132 59.8917 113.993 59.4258 113.714C58.9599 113.436 58.6005 113.045 58.3477 112.543C58.0977 112.037 57.9727 111.446 57.9727 110.77C57.9727 110.099 58.0977 109.509 58.3477 108.997C58.6005 108.486 58.9528 108.087 59.4045 107.8C59.859 107.513 60.3903 107.369 60.9982 107.369C61.4925 107.369 61.9599 107.48 62.4002 107.702C62.8434 107.92 63.2028 108.271 63.4783 108.754C63.7567 109.234 63.896 109.869 63.896 110.659V111.111H59.2425C59.2596 111.741 59.4371 112.227 59.7752 112.568C60.1133 112.909 60.555 113.08 61.1005 113.08C61.4641 113.08 61.7781 113.001 62.0423 112.845C62.3065 112.689 62.4954 112.456 62.609 112.146L63.815 112.364C63.6701 112.895 63.3576 113.322 62.8775 113.646C62.3974 113.97 61.8008 114.132 61.0877 114.132ZM59.2468 110.156H62.6474C62.6445 109.656 62.494 109.243 62.1957 108.916C61.8974 108.587 61.5011 108.422 61.0067 108.422C60.663 108.422 60.3619 108.503 60.1033 108.665C59.8477 108.824 59.6445 109.036 59.494 109.3C59.3462 109.561 59.2638 109.847 59.2468 110.156ZM71.5408 107.455V108.477H70.1985V112.078C70.1985 112.447 70.2766 112.686 70.4329 112.794C70.592 112.899 70.7752 112.952 70.9826 112.952C71.0849 112.952 71.1744 112.945 71.2511 112.93C71.3278 112.916 71.3874 112.905 71.43 112.896L71.6602 113.949C71.5863 113.977 71.4798 114.006 71.3406 114.034C71.2042 114.065 71.0352 114.082 70.8335 114.085C70.4982 114.091 70.1843 114.031 69.8917 113.906C69.6019 113.781 69.3675 113.588 69.1886 113.327C69.0124 113.065 68.9244 112.737 68.9244 112.342V108.477H67.9656V107.455H68.9244V105.886H70.1985V107.455H71.5408ZM75.6371 114.132C75.0234 114.132 74.4879 113.991 74.0305 113.71C73.5732 113.429 73.218 113.036 72.9652 112.53C72.7124 112.021 72.5859 111.43 72.5859 110.757C72.5859 110.078 72.7124 109.484 72.9652 108.976C73.218 108.467 73.5732 108.072 74.0305 107.791C74.4879 107.51 75.0234 107.369 75.6371 107.369C76.2536 107.369 76.7891 107.51 77.2436 107.791C77.701 108.072 78.0561 108.467 78.3089 108.976C78.5618 109.484 78.6882 110.078 78.6882 110.757C78.6882 111.43 78.5618 112.021 78.3089 112.53C78.0561 113.036 77.701 113.429 77.2436 113.71C76.7891 113.991 76.2536 114.132 75.6371 114.132ZM75.6413 113.062C76.0419 113.062 76.3714 112.957 76.63 112.747C76.8913 112.537 77.0845 112.257 77.2095 111.908C77.3374 111.555 77.4013 111.17 77.4013 110.753C77.4013 110.335 77.3374 109.95 77.2095 109.598C77.0845 109.246 76.8913 108.964 76.63 108.754C76.3714 108.541 76.0419 108.435 75.6413 108.435C75.2408 108.435 74.9098 108.541 74.6484 108.754C74.3871 108.964 74.1925 109.246 74.0646 109.598C73.9368 109.95 73.8729 110.335 73.8729 110.753C73.8729 111.17 73.9368 111.555 74.0646 111.908C74.1925 112.257 74.3871 112.537 74.6484 112.747C74.9098 112.957 75.2408 113.062 75.6413 113.062ZM86.0433 114.132C85.4098 114.132 84.8643 113.989 84.407 113.702C83.9524 113.412 83.603 113.013 83.3587 112.504C83.1143 111.996 82.9922 111.413 82.9922 110.757C82.9922 110.089 83.1172 109.501 83.3672 108.993C83.6172 108.484 83.9695 108.087 84.424 107.8C84.8814 107.513 85.4169 107.369 86.0305 107.369C86.5277 107.369 86.9709 107.462 87.3601 107.646C87.7493 107.828 88.0632 108.084 88.3018 108.413C88.5433 108.743 88.6868 109.128 88.7322 109.568H87.4922C87.424 109.261 87.2678 108.997 87.0234 108.776C86.782 108.554 86.4581 108.443 86.0518 108.443C85.5206 108.443 85.0916 108.649 84.7649 109.061C84.4411 109.47 84.2791 110.026 84.2791 110.727C84.2791 111.44 84.4396 112.007 84.7607 112.428C85.0817 112.845 85.5121 113.054 86.0518 113.054C86.4155 113.054 86.7266 112.955 86.9851 112.756C87.2436 112.557 87.4126 112.281 87.4922 111.929H88.7322C88.6868 112.352 88.549 112.73 88.3189 113.062C88.0888 113.395 87.7805 113.656 87.3942 113.847C87.0107 114.037 86.5604 114.132 86.0433 114.132ZM90.0948 114V107.455H91.3263V108.494H91.3945C91.5138 108.142 91.7241 107.865 92.0252 107.663C92.3292 107.459 92.6729 107.357 93.0565 107.357C93.1388 107.357 93.234 107.359 93.342 107.365C93.4499 107.371 93.5352 107.378 93.5977 107.386V108.605C93.5465 108.591 93.4556 108.575 93.3249 108.558C93.1971 108.538 93.0664 108.528 92.9329 108.528C92.4812 108.528 92.1076 108.668 91.8121 108.946C91.5167 109.222 91.369 109.574 91.369 110.003V114H90.0948ZM96.5465 114.145C96.1317 114.145 95.7567 114.068 95.4215 113.915C95.0891 113.761 94.8249 113.537 94.6289 113.241C94.4329 112.943 94.3349 112.58 94.3349 112.151C94.3349 111.778 94.4059 111.473 94.5479 111.234C94.6928 110.996 94.8846 110.807 95.1232 110.668C95.3647 110.528 95.6346 110.425 95.9329 110.357C96.2312 110.286 96.5352 110.232 96.8448 110.195C97.2369 110.149 97.5536 110.112 97.7951 110.084C98.0394 110.053 98.217 110.003 98.3278 109.935C98.4414 109.866 98.4982 109.756 98.4982 109.602V109.572C98.4982 109.2 98.3931 108.912 98.1829 108.707C97.9755 108.503 97.6658 108.401 97.2539 108.401C96.8249 108.401 96.4869 108.494 96.2397 108.682C95.9954 108.869 95.8263 109.08 95.7326 109.312L94.5352 109.04C94.7482 108.443 95.1033 108.016 95.6005 107.757C96.1005 107.499 96.646 107.369 97.2369 107.369C97.4982 107.369 97.7752 107.401 98.0678 107.463C98.3604 107.523 98.636 107.635 98.8945 107.8C99.1559 107.962 99.3675 108.192 99.5295 108.49C99.6942 108.788 99.7766 109.176 99.7766 109.653V114H98.5323V113.105H98.4812C98.359 113.349 98.1417 113.584 97.8292 113.808C97.5167 114.033 97.0891 114.145 96.5465 114.145ZM96.8235 113.122C97.1786 113.122 97.4812 113.053 97.7312 112.913C97.9812 112.774 98.1715 112.592 98.3022 112.368C98.4357 112.141 98.5025 111.898 98.5025 111.639V110.795C98.4428 110.855 98.3121 110.908 98.1104 110.953C97.9087 110.999 97.6957 111.037 97.4712 111.068C97.2468 111.099 97.065 111.125 96.9258 111.145C96.5565 111.193 96.2397 111.291 95.9755 111.439C95.7141 111.584 95.5835 111.827 95.5835 112.168C95.5835 112.483 95.6999 112.722 95.9329 112.884C96.1658 113.043 96.4627 113.122 96.8235 113.122ZM104.231 114.132C103.597 114.132 103.052 113.989 102.594 113.702C102.14 113.412 101.79 113.013 101.546 112.504C101.302 111.996 101.18 111.413 101.18 110.757C101.18 110.089 101.305 109.501 101.555 108.993C101.805 108.484 102.157 108.087 102.612 107.8C103.069 107.513 103.604 107.369 104.218 107.369C104.715 107.369 105.158 107.462 105.548 107.646C105.937 107.828 106.251 108.084 106.489 108.413C106.731 108.743 106.874 109.128 106.92 109.568H105.68C105.612 109.261 105.455 108.997 105.211 108.776C104.969 108.554 104.646 108.443 104.239 108.443C103.708 108.443 103.279 108.649 102.952 109.061C102.629 109.47 102.467 110.026 102.467 110.727C102.467 111.44 102.627 112.007 102.948 112.428C103.269 112.845 103.7 113.054 104.239 113.054C104.603 113.054 104.914 112.955 105.173 112.756C105.431 112.557 105.6 112.281 105.68 111.929H106.92C106.874 112.352 106.737 112.73 106.506 113.062C106.276 113.395 105.968 113.656 105.582 113.847C105.198 114.037 104.748 114.132 104.231 114.132ZM108.282 114V105.273H109.556V110.224H109.667L112.275 107.455H113.801L111.15 110.263L113.98 114H112.416L110.191 111.043L109.556 111.678V114H108.282ZM36.9588 129V120.273H40.0696C40.7457 120.273 41.3068 120.396 41.7528 120.643C42.2017 120.891 42.5369 121.227 42.7585 121.653C42.9801 122.08 43.0909 122.561 43.0909 123.098C43.0909 123.635 42.9787 124.118 42.7543 124.547C42.5327 124.973 42.1974 125.311 41.7486 125.561C41.3026 125.808 40.7415 125.932 40.0653 125.932H38.2756V129H36.9588ZM38.2756 124.815H39.946C40.5909 124.815 41.0554 124.653 41.3395 124.33C41.6236 124.003 41.7656 123.592 41.7656 123.098C41.7656 122.604 41.6222 122.197 41.3352 121.879C41.0511 121.561 40.5824 121.402 39.929 121.402H38.2756V124.815ZM46.3786 129.145C45.9638 129.145 45.5888 129.068 45.2536 128.915C44.9212 128.761 44.657 128.537 44.4609 128.241C44.2649 127.943 44.1669 127.58 44.1669 127.151C44.1669 126.778 44.2379 126.473 44.38 126.234C44.5249 125.996 44.7166 125.807 44.9553 125.668C45.1967 125.528 45.4666 125.425 45.7649 125.357C46.0632 125.286 46.3672 125.232 46.6768 125.195C47.0689 125.149 47.3857 125.112 47.6271 125.084C47.8714 125.053 48.049 125.003 48.1598 124.935C48.2734 124.866 48.3303 124.756 48.3303 124.602V124.572C48.3303 124.2 48.2251 123.912 48.0149 123.707C47.8075 123.503 47.4979 123.401 47.0859 123.401C46.657 123.401 46.3189 123.494 46.0717 123.682C45.8274 123.869 45.6584 124.08 45.5646 124.312L44.3672 124.04C44.5803 123.443 44.9354 123.016 45.4325 122.757C45.9325 122.499 46.478 122.369 47.0689 122.369C47.3303 122.369 47.6072 122.401 47.8999 122.463C48.1925 122.523 48.468 122.635 48.7266 122.8C48.9879 122.962 49.1996 123.192 49.3615 123.49C49.5263 123.788 49.6087 124.176 49.6087 124.653V129H48.3643V128.105H48.3132C48.1911 128.349 47.9737 128.584 47.6612 128.808C47.3487 129.033 46.9212 129.145 46.3786 129.145ZM46.6555 128.122C47.0107 128.122 47.3132 128.053 47.5632 127.913C47.8132 127.774 48.0036 127.592 48.1342 127.368C48.2678 127.141 48.3345 126.898 48.3345 126.639V125.795C48.2749 125.855 48.1442 125.908 47.9425 125.953C47.7408 125.999 47.5277 126.037 47.3033 126.068C47.0788 126.099 46.897 126.125 46.7578 126.145C46.3885 126.193 46.0717 126.291 45.8075 126.439C45.5462 126.584 45.4155 126.827 45.4155 127.168C45.4155 127.483 45.532 127.722 45.7649 127.884C45.9979 128.043 46.2947 128.122 46.6555 128.122ZM56.2106 124.053L55.0558 124.257C54.9819 124.038 54.8441 123.838 54.6424 123.656C54.4435 123.472 54.1452 123.379 53.7475 123.379C53.3867 123.379 53.0842 123.46 52.8398 123.622C52.5984 123.781 52.479 123.987 52.4819 124.24C52.479 124.462 52.5586 124.639 52.7205 124.773C52.8853 124.903 53.1481 125.011 53.5089 125.097L54.5487 125.335C55.7418 125.611 56.3384 126.202 56.3384 127.108C56.3384 127.503 56.2248 127.852 55.9975 128.156C55.7731 128.46 55.4592 128.699 55.0558 128.872C54.6552 129.045 54.1907 129.132 53.6623 129.132C52.9265 129.132 52.3285 128.976 51.8683 128.663C51.408 128.348 51.1239 127.901 51.016 127.321L52.2475 127.134C52.4009 127.781 52.8697 128.105 53.6538 128.105C54.0714 128.105 54.4052 128.018 54.6552 127.845C54.9052 127.669 55.0302 127.455 55.0302 127.202C55.0302 126.784 54.7219 126.507 54.1055 126.371L52.9975 126.128C52.3839 125.991 51.9322 125.77 51.6424 125.463C51.3526 125.156 51.2077 124.771 51.2077 124.308C51.2077 123.922 51.3157 123.584 51.5316 123.294C51.7475 123.001 52.0458 122.774 52.4265 122.612C52.8072 122.45 53.2433 122.369 53.7347 122.369C54.4421 122.369 54.9989 122.523 55.4052 122.83C55.8114 123.136 56.0799 123.544 56.2106 124.053ZM62.6442 124.053L61.4893 124.257C61.4155 124.038 61.2777 123.838 61.076 123.656C60.8771 123.472 60.5788 123.379 60.1811 123.379C59.8203 123.379 59.5178 123.46 59.2734 123.622C59.032 123.781 58.9126 123.987 58.9155 124.24C58.9126 124.462 58.9922 124.639 59.1541 124.773C59.3189 124.903 59.5817 125.011 59.9425 125.097L60.9822 125.335C62.1754 125.611 62.772 126.202 62.772 127.108C62.772 127.503 62.6584 127.852 62.4311 128.156C62.2067 128.46 61.8928 128.699 61.4893 128.872C61.0888 129.045 60.6243 129.132 60.0959 129.132C59.3601 129.132 58.7621 128.976 58.3018 128.663C57.8416 128.348 57.5575 127.901 57.4496 127.321L58.6811 127.134C58.8345 127.781 59.3033 128.105 60.0874 128.105C60.505 128.105 60.8388 128.018 61.0888 127.845C61.3388 127.669 61.4638 127.455 61.4638 127.202C61.4638 126.784 61.1555 126.507 60.5391 126.371L59.4311 126.128C58.8175 125.991 58.3658 125.77 58.076 125.463C57.7862 125.156 57.6413 124.771 57.6413 124.308C57.6413 123.922 57.7493 123.584 57.9652 123.294C58.1811 123.001 58.4794 122.774 58.8601 122.612C59.2408 122.45 59.6768 122.369 60.1683 122.369C60.8757 122.369 61.4325 122.523 61.8388 122.83C62.245 123.136 62.5135 123.544 62.6442 124.053ZM65.592 129L63.6658 122.455H64.9826L66.2653 127.261H66.3292L67.6161 122.455H68.9329L70.2113 127.24H70.2752L71.5494 122.455H72.8661L70.9442 129H69.6445L68.315 124.274H68.217L66.8874 129H65.592ZM76.6332 129.132C76.0195 129.132 75.484 128.991 75.0266 128.71C74.5692 128.429 74.2141 128.036 73.9613 127.53C73.7085 127.021 73.582 126.43 73.582 125.757C73.582 125.078 73.7085 124.484 73.9613 123.976C74.2141 123.467 74.5692 123.072 75.0266 122.791C75.484 122.51 76.0195 122.369 76.6332 122.369C77.2496 122.369 77.7852 122.51 78.2397 122.791C78.6971 123.072 79.0522 123.467 79.305 123.976C79.5579 124.484 79.6843 125.078 79.6843 125.757C79.6843 126.43 79.5579 127.021 79.305 127.53C79.0522 128.036 78.6971 128.429 78.2397 128.71C77.7852 128.991 77.2496 129.132 76.6332 129.132ZM76.6374 128.062C77.038 128.062 77.3675 127.957 77.6261 127.747C77.8874 127.537 78.0806 127.257 78.2056 126.908C78.3335 126.555 78.3974 126.17 78.3974 125.753C78.3974 125.335 78.3335 124.95 78.2056 124.598C78.0806 124.246 77.8874 123.964 77.6261 123.754C77.3675 123.541 77.038 123.435 76.6374 123.435C76.2369 123.435 75.9059 123.541 75.6445 123.754C75.3832 123.964 75.1886 124.246 75.0607 124.598C74.9329 124.95 74.869 125.335 74.869 125.753C74.869 126.17 74.9329 126.555 75.0607 126.908C75.1886 127.257 75.3832 127.537 75.6445 127.747C75.9059 127.957 76.2369 128.062 76.6374 128.062ZM81.1065 129V122.455H82.3381V123.494H82.4062C82.5256 123.142 82.7358 122.865 83.0369 122.663C83.3409 122.459 83.6847 122.357 84.0682 122.357C84.1506 122.357 84.2457 122.359 84.3537 122.365C84.4616 122.371 84.5469 122.378 84.6094 122.386V123.605C84.5582 123.591 84.4673 123.575 84.3366 123.558C84.2088 123.538 84.0781 123.528 83.9446 123.528C83.4929 123.528 83.1193 123.668 82.8239 123.946C82.5284 124.222 82.3807 124.574 82.3807 125.003V129H81.1065ZM87.9279 129.128C87.3995 129.128 86.9293 128.993 86.5174 128.723C86.1055 128.453 85.7816 128.065 85.5458 127.56C85.31 127.051 85.1921 126.445 85.1921 125.74C85.1921 125.033 85.31 124.428 85.5458 123.925C85.7844 123.422 86.1112 123.037 86.5259 122.77C86.9407 122.503 87.4109 122.369 87.9364 122.369C88.3427 122.369 88.6694 122.438 88.9165 122.574C89.1665 122.707 89.3597 122.864 89.4961 123.043C89.6353 123.222 89.7433 123.379 89.82 123.516H89.8967V120.273H91.1708V129H89.9265V127.982H89.82C89.7433 128.121 89.6325 128.28 89.4876 128.459C89.3455 128.638 89.1495 128.794 88.8995 128.928C88.6495 129.061 88.3256 129.128 87.9279 129.128ZM88.2092 128.041C88.7603 128.041 89.1822 127.828 89.4748 127.402C89.7702 126.973 89.918 126.415 89.918 125.727C89.918 125.043 89.7717 124.493 89.479 124.078C89.1893 123.661 88.766 123.452 88.2092 123.452C87.8256 123.452 87.506 123.551 87.2504 123.75C86.9947 123.949 86.8015 124.22 86.6708 124.564C86.543 124.905 86.479 125.293 86.479 125.727C86.479 126.165 86.5444 126.558 86.6751 126.908C86.8058 127.257 86.9989 127.534 87.2546 127.739C87.5131 127.94 87.8313 128.041 88.2092 128.041Z" fill="#979797"/>
<path d="M142.886 122.119C142.5 122.116 142.118 122.047 141.74 121.911C141.362 121.771 141.02 121.543 140.713 121.224C140.406 120.906 140.161 120.479 139.976 119.942C139.794 119.405 139.703 118.734 139.703 117.93C139.703 116.911 139.837 116.044 140.104 115.331C140.371 114.615 140.75 114.07 141.241 113.695C141.736 113.32 142.321 113.132 142.997 113.132C143.517 113.132 143.979 113.236 144.382 113.443C144.786 113.648 145.114 113.932 145.366 114.295C145.619 114.656 145.778 115.071 145.844 115.54H144.544C144.456 115.168 144.281 114.866 144.02 114.636C143.759 114.403 143.418 114.287 142.997 114.287C142.358 114.287 141.859 114.565 141.501 115.122C141.146 115.679 140.967 116.459 140.964 117.462H141.028C141.253 117.092 141.554 116.804 141.932 116.597C142.312 116.386 142.733 116.281 143.193 116.281C143.699 116.281 144.158 116.405 144.57 116.652C144.982 116.896 145.31 117.234 145.554 117.666C145.798 118.098 145.919 118.592 145.916 119.149C145.919 119.706 145.794 120.21 145.541 120.662C145.288 121.114 144.935 121.472 144.48 121.736C144.026 121.997 143.494 122.125 142.886 122.119ZM142.882 121.011C143.214 121.011 143.513 120.929 143.777 120.764C144.044 120.599 144.254 120.378 144.408 120.099C144.564 119.821 144.641 119.51 144.638 119.166C144.641 118.828 144.567 118.523 144.416 118.25C144.266 117.974 144.06 117.756 143.798 117.594C143.54 117.432 143.244 117.351 142.912 117.351C142.577 117.351 142.274 117.436 142.004 117.607C141.737 117.774 141.524 117.997 141.365 118.276C141.209 118.551 141.129 118.852 141.126 119.179C141.126 119.506 141.202 119.808 141.352 120.087C141.506 120.365 141.714 120.589 141.979 120.76C142.243 120.928 142.544 121.011 142.882 121.011ZM151.467 124.438C151.276 124.438 151.103 124.423 150.947 124.395C150.79 124.366 150.674 124.334 150.597 124.297L150.904 123.253C151.254 123.349 151.546 123.357 151.782 123.274C152.021 123.195 152.221 122.943 152.383 122.52L152.54 122.085L150.146 115.455H151.509L153.167 120.534H153.235L154.893 115.455L156.269 115.467L153.563 122.874C153.376 123.379 153.11 123.766 152.766 124.033C152.425 124.303 151.992 124.438 151.467 124.438ZM160.056 122.132C159.414 122.132 158.86 121.993 158.395 121.714C157.929 121.436 157.569 121.045 157.316 120.543C157.066 120.037 156.941 119.446 156.941 118.77C156.941 118.099 157.066 117.509 157.316 116.997C157.569 116.486 157.922 116.087 158.373 115.8C158.828 115.513 159.359 115.369 159.967 115.369C160.461 115.369 160.929 115.48 161.369 115.702C161.812 115.92 162.172 116.271 162.447 116.754C162.725 117.234 162.865 117.869 162.865 118.659V119.111H158.211C158.228 119.741 158.406 120.227 158.744 120.568C159.082 120.909 159.524 121.08 160.069 121.08C160.433 121.08 160.747 121.001 161.011 120.845C161.275 120.689 161.464 120.456 161.578 120.146L162.784 120.364C162.639 120.895 162.326 121.322 161.846 121.646C161.366 121.97 160.77 122.132 160.056 122.132ZM158.216 118.156H161.616C161.613 117.656 161.463 117.243 161.164 116.916C160.866 116.587 160.47 116.422 159.975 116.422C159.632 116.422 159.331 116.503 159.072 116.665C158.816 116.824 158.613 117.036 158.463 117.3C158.315 117.561 158.233 117.847 158.216 118.156ZM166.183 122.145C165.768 122.145 165.393 122.068 165.058 121.915C164.726 121.761 164.462 121.537 164.266 121.241C164.07 120.943 163.972 120.58 163.972 120.151C163.972 119.778 164.043 119.473 164.185 119.234C164.33 118.996 164.521 118.807 164.76 118.668C165.001 118.528 165.271 118.425 165.57 118.357C165.868 118.286 166.172 118.232 166.482 118.195C166.874 118.149 167.19 118.112 167.432 118.084C167.676 118.053 167.854 118.003 167.964 117.935C168.078 117.866 168.135 117.756 168.135 117.602V117.572C168.135 117.2 168.03 116.912 167.82 116.707C167.612 116.503 167.303 116.401 166.891 116.401C166.462 116.401 166.124 116.494 165.876 116.682C165.632 116.869 165.463 117.08 165.369 117.312L164.172 117.04C164.385 116.443 164.74 116.016 165.237 115.757C165.737 115.499 166.283 115.369 166.874 115.369C167.135 115.369 167.412 115.401 167.705 115.463C167.997 115.523 168.273 115.635 168.531 115.8C168.793 115.962 169.004 116.192 169.166 116.49C169.331 116.788 169.413 117.176 169.413 117.653V122H168.169V121.105H168.118C167.996 121.349 167.778 121.584 167.466 121.808C167.153 122.033 166.726 122.145 166.183 122.145ZM166.46 121.122C166.815 121.122 167.118 121.053 167.368 120.913C167.618 120.774 167.808 120.592 167.939 120.368C168.072 120.141 168.139 119.898 168.139 119.639V118.795C168.08 118.855 167.949 118.908 167.747 118.953C167.545 118.999 167.332 119.037 167.108 119.068C166.884 119.099 166.702 119.125 166.562 119.145C166.193 119.193 165.876 119.291 165.612 119.439C165.351 119.584 165.22 119.827 165.22 120.168C165.22 120.483 165.337 120.722 165.57 120.884C165.803 121.043 166.099 121.122 166.46 121.122ZM171.11 122V115.455H172.342V116.494H172.41C172.529 116.142 172.74 115.865 173.041 115.663C173.345 115.459 173.689 115.357 174.072 115.357C174.154 115.357 174.25 115.359 174.358 115.365C174.466 115.371 174.551 115.378 174.613 115.386V116.605C174.562 116.591 174.471 116.575 174.341 116.558C174.213 116.538 174.082 116.528 173.949 116.528C173.497 116.528 173.123 116.668 172.828 116.946C172.532 117.222 172.385 117.574 172.385 118.003V122H171.11ZM180.621 117.053L179.466 117.257C179.392 117.038 179.254 116.838 179.053 116.656C178.854 116.472 178.555 116.379 178.158 116.379C177.797 116.379 177.494 116.46 177.25 116.622C177.009 116.781 176.889 116.987 176.892 117.24C176.889 117.462 176.969 117.639 177.131 117.773C177.295 117.903 177.558 118.011 177.919 118.097L178.959 118.335C180.152 118.611 180.749 119.202 180.749 120.108C180.749 120.503 180.635 120.852 180.408 121.156C180.183 121.46 179.869 121.699 179.466 121.872C179.065 122.045 178.601 122.132 178.072 122.132C177.337 122.132 176.739 121.976 176.278 121.663C175.818 121.348 175.534 120.901 175.426 120.321L176.658 120.134C176.811 120.781 177.28 121.105 178.064 121.105C178.482 121.105 178.815 121.018 179.065 120.845C179.315 120.669 179.44 120.455 179.44 120.202C179.44 119.784 179.132 119.507 178.516 119.371L177.408 119.128C176.794 118.991 176.342 118.77 176.053 118.463C175.763 118.156 175.618 117.771 175.618 117.308C175.618 116.922 175.726 116.584 175.942 116.294C176.158 116.001 176.456 115.774 176.837 115.612C177.217 115.45 177.653 115.369 178.145 115.369C178.852 115.369 179.409 115.523 179.815 115.83C180.222 116.136 180.49 116.544 180.621 117.053ZM183.807 120.807L183.743 121.271C183.701 121.612 183.63 121.967 183.53 122.337C183.431 122.709 183.327 123.054 183.219 123.372C183.111 123.69 183.023 123.943 182.955 124.131H182.051C182.091 123.955 182.142 123.716 182.205 123.415C182.27 123.116 182.334 122.783 182.397 122.413C182.459 122.044 182.506 121.668 182.537 121.284L182.58 120.807H183.807ZM191.936 113.273V122H190.615V114.594H190.564L188.475 115.957V114.696L190.653 113.273H191.936ZM197.608 113.273V122H196.287V114.594H196.235L194.147 115.957V114.696L196.325 113.273H197.608ZM203.161 122V115.455H204.384V116.52H204.465C204.602 116.159 204.825 115.878 205.134 115.676C205.444 115.472 205.815 115.369 206.246 115.369C206.684 115.369 207.05 115.472 207.346 115.676C207.644 115.881 207.864 116.162 208.006 116.52H208.075C208.234 116.17 208.482 115.892 208.82 115.685C209.161 115.474 209.567 115.369 210.039 115.369C210.633 115.369 211.117 115.557 211.492 115.932C211.87 116.304 212.059 116.864 212.059 117.611V122H210.785V117.73C210.785 117.287 210.664 116.966 210.423 116.767C210.184 116.568 209.896 116.469 209.558 116.469C209.143 116.469 208.82 116.597 208.59 116.852C208.36 117.108 208.245 117.433 208.245 117.828V122H206.975V117.649C206.975 117.294 206.864 117.009 206.643 116.793C206.421 116.577 206.133 116.469 205.778 116.469C205.417 116.469 205.103 116.608 204.836 116.886C204.569 117.165 204.435 117.524 204.435 117.964V122H203.161ZM216.524 122.132C215.91 122.132 215.375 121.991 214.917 121.71C214.46 121.429 214.105 121.036 213.852 120.53C213.599 120.021 213.473 119.43 213.473 118.757C213.473 118.078 213.599 117.484 213.852 116.976C214.105 116.467 214.46 116.072 214.917 115.791C215.375 115.51 215.91 115.369 216.524 115.369C217.14 115.369 217.676 115.51 218.13 115.791C218.588 116.072 218.943 116.467 219.196 116.976C219.449 117.484 219.575 118.078 219.575 118.757C219.575 119.43 219.449 120.021 219.196 120.53C218.943 121.036 218.588 121.429 218.13 121.71C217.676 121.991 217.14 122.132 216.524 122.132ZM216.528 121.062C216.929 121.062 217.258 120.957 217.517 120.747C217.778 120.537 217.971 120.257 218.096 119.908C218.224 119.555 218.288 119.17 218.288 118.753C218.288 118.335 218.224 117.95 218.096 117.598C217.971 117.246 217.778 116.964 217.517 116.754C217.258 116.541 216.929 116.435 216.528 116.435C216.127 116.435 215.797 116.541 215.535 116.754C215.274 116.964 215.079 117.246 214.951 117.598C214.824 117.95 214.76 118.335 214.76 118.753C214.76 119.17 214.824 119.555 214.951 119.908C215.079 120.257 215.274 120.537 215.535 120.747C215.797 120.957 216.127 121.062 216.528 121.062ZM222.271 118.114V122H220.997V115.455H222.22V116.52H222.301C222.452 116.173 222.688 115.895 223.009 115.685C223.332 115.474 223.74 115.369 224.232 115.369C224.902 115.369 225.44 115.578 225.847 115.996C226.256 116.413 226.46 117.027 226.46 117.837V122H225.186V117.99C225.186 117.516 225.063 117.145 224.815 116.878C224.568 116.608 224.229 116.473 223.797 116.473C223.354 116.473 222.989 116.616 222.702 116.903C222.415 117.187 222.271 117.591 222.271 118.114ZM231.224 115.455V116.477H229.882V120.078C229.882 120.447 229.96 120.686 230.116 120.794C230.276 120.899 230.459 120.952 230.666 120.952C230.768 120.952 230.858 120.945 230.935 120.93C231.011 120.916 231.071 120.905 231.114 120.896L231.344 121.949C231.27 121.977 231.163 122.006 231.024 122.034C230.888 122.065 230.719 122.082 230.517 122.085C230.182 122.091 229.868 122.031 229.575 121.906C229.286 121.781 229.051 121.588 228.872 121.327C228.696 121.065 228.608 120.737 228.608 120.342V116.477H227.649V115.455H228.608V113.886H229.882V115.455H231.224ZM234.049 118.114V122H232.775V113.273H234.032V116.52H234.113C234.266 116.165 234.5 115.885 234.816 115.68C235.131 115.473 235.543 115.369 236.051 115.369C236.725 115.369 237.266 115.577 237.675 115.991C238.087 116.406 238.293 117.021 238.293 117.837V122H237.019V117.99C237.019 117.51 236.895 117.138 236.648 116.874C236.401 116.607 236.057 116.473 235.617 116.473C235.162 116.473 234.787 116.616 234.492 116.903C234.196 117.187 234.049 117.591 234.049 118.114ZM244.898 117.053L243.743 117.257C243.669 117.038 243.532 116.838 243.33 116.656C243.131 116.472 242.833 116.379 242.435 116.379C242.074 116.379 241.772 116.46 241.527 116.622C241.286 116.781 241.167 116.987 241.169 117.24C241.167 117.462 241.246 117.639 241.408 117.773C241.573 117.903 241.836 118.011 242.196 118.097L243.236 118.335C244.429 118.611 245.026 119.202 245.026 120.108C245.026 120.503 244.912 120.852 244.685 121.156C244.461 121.46 244.147 121.699 243.743 121.872C243.343 122.045 242.878 122.132 242.35 122.132C241.614 122.132 241.016 121.976 240.556 121.663C240.096 121.348 239.811 120.901 239.703 120.321L240.935 120.134C241.088 120.781 241.557 121.105 242.341 121.105C242.759 121.105 243.093 121.018 243.343 120.845C243.593 120.669 243.718 120.455 243.718 120.202C243.718 119.784 243.409 119.507 242.793 119.371L241.685 119.128C241.071 118.991 240.62 118.77 240.33 118.463C240.04 118.156 239.895 117.771 239.895 117.308C239.895 116.922 240.003 116.584 240.219 116.294C240.435 116.001 240.733 115.774 241.114 115.612C241.495 115.45 241.931 115.369 242.422 115.369C243.13 115.369 243.686 115.523 244.093 115.83C244.499 116.136 244.767 116.544 244.898 117.053Z" fill="#4D4D4D"/>
<path d="M141.151 156.273V165H139.83V157.594H139.778L137.69 158.957V157.696L139.868 156.273H141.151ZM146.704 165V158.455H147.978V165H146.704ZM147.348 157.445C147.126 157.445 146.936 157.371 146.777 157.223C146.62 157.072 146.542 156.893 146.542 156.686C146.542 156.476 146.62 156.297 146.777 156.149C146.936 155.999 147.126 155.923 147.348 155.923C147.566 155.923 147.755 155.999 147.914 156.149C148.074 156.297 148.153 156.476 148.153 156.686C148.153 156.893 148.074 157.072 147.914 157.223C147.755 157.371 147.566 157.445 147.348 157.445ZM150.967 161.114V165H149.692V158.455H150.915V159.52H150.996C151.147 159.173 151.383 158.895 151.704 158.685C152.028 158.474 152.435 158.369 152.927 158.369C153.597 158.369 154.136 158.578 154.542 158.996C154.951 159.413 155.156 160.027 155.156 160.837V165H153.881V160.99C153.881 160.516 153.758 160.145 153.511 159.878C153.263 159.608 152.924 159.473 152.492 159.473C152.049 159.473 151.684 159.616 151.397 159.903C151.11 160.187 150.967 160.591 150.967 161.114ZM160.023 165V164.045L162.976 160.986C163.289 160.653 163.549 160.362 163.756 160.112C163.963 159.859 164.118 159.619 164.221 159.392C164.323 159.165 164.374 158.923 164.374 158.668C164.374 158.233 164.225 157.889 163.926 157.636C163.628 157.381 163.257 157.253 162.814 157.253C162.343 157.253 161.966 157.395 161.685 157.679C161.407 157.96 161.269 158.335 161.272 158.804H160.015C160.015 158.273 160.137 157.808 160.381 157.411C160.625 157.013 160.961 156.705 161.387 156.486C161.813 156.264 162.297 156.153 162.84 156.153C163.388 156.153 163.871 156.263 164.289 156.482C164.709 156.697 165.037 156.993 165.273 157.368C165.509 157.74 165.627 158.161 165.627 158.629C165.627 158.953 165.566 159.27 165.444 159.58C165.324 159.889 165.115 160.234 164.817 160.615C164.522 160.993 164.107 161.452 163.573 161.991L161.838 163.807V163.871H165.767V165H160.023ZM168.363 160.636V156.418H168.324L167.007 157.278V156.303L168.384 155.403H169.368V160.636H168.363ZM170.899 160.636V159.878L172.923 158.143C173.202 157.902 173.415 157.695 173.562 157.521C173.71 157.345 173.784 157.151 173.784 156.938C173.784 156.699 173.69 156.511 173.503 156.375C173.318 156.236 173.089 156.166 172.817 156.166C172.527 156.166 172.294 156.241 172.118 156.392C171.942 156.543 171.854 156.744 171.854 156.997H170.844C170.844 156.491 171.03 156.088 171.402 155.787C171.774 155.486 172.251 155.335 172.834 155.335C173.419 155.335 173.891 155.487 174.249 155.791C174.609 156.095 174.79 156.472 174.79 156.92C174.79 157.278 174.679 157.604 174.457 157.896C174.239 158.186 173.888 158.523 173.405 158.906L172.416 159.741V159.78H174.913V160.636H170.899ZM179.423 167.455V158.455H180.667V159.516H180.774C180.85 159.379 180.957 159.222 181.093 159.043C181.233 158.864 181.426 158.707 181.673 158.574C181.923 158.438 182.25 158.369 182.653 158.369C183.181 158.369 183.652 158.503 184.064 158.77C184.478 159.037 184.805 159.422 185.044 159.925C185.282 160.428 185.402 161.033 185.402 161.74C185.402 162.445 185.284 163.051 185.048 163.56C184.812 164.065 184.488 164.453 184.076 164.723C183.664 164.993 183.194 165.128 182.666 165.128C182.268 165.128 181.944 165.061 181.694 164.928C181.444 164.794 181.247 164.638 181.102 164.459C180.96 164.28 180.85 164.121 180.774 163.982H180.697V167.455H179.423ZM180.672 161.727C180.672 162.415 180.819 162.973 181.115 163.402C181.41 163.828 181.832 164.041 182.38 164.041C182.761 164.041 183.079 163.94 183.335 163.739C183.593 163.534 183.788 163.257 183.919 162.908C184.049 162.558 184.115 162.165 184.115 161.727C184.115 161.293 184.049 160.905 183.919 160.564C183.791 160.22 183.599 159.949 183.343 159.75C183.088 159.551 182.767 159.452 182.38 159.452C181.824 159.452 181.399 159.661 181.106 160.078C180.816 160.493 180.672 161.043 180.672 161.727ZM189.65 165.132C189.008 165.132 188.454 164.993 187.988 164.714C187.522 164.436 187.163 164.045 186.91 163.543C186.66 163.037 186.535 162.446 186.535 161.77C186.535 161.099 186.66 160.509 186.91 159.997C187.163 159.486 187.515 159.087 187.967 158.8C188.422 158.513 188.953 158.369 189.561 158.369C190.055 158.369 190.522 158.48 190.963 158.702C191.406 158.92 191.765 159.271 192.041 159.754C192.319 160.234 192.458 160.869 192.458 161.659V162.111H187.805C187.822 162.741 188 163.227 188.338 163.568C188.676 163.909 189.118 164.08 189.663 164.08C190.027 164.08 190.341 164.001 190.605 163.845C190.869 163.689 191.058 163.456 191.172 163.146L192.377 163.364C192.233 163.895 191.92 164.322 191.44 164.646C190.96 164.97 190.363 165.132 189.65 165.132ZM187.809 161.156H191.21C191.207 160.656 191.056 160.243 190.758 159.916C190.46 159.587 190.064 159.422 189.569 159.422C189.225 159.422 188.924 159.503 188.666 159.665C188.41 159.824 188.207 160.036 188.056 160.3C187.909 160.561 187.826 160.847 187.809 161.156ZM196.629 165.132C196.016 165.132 195.48 164.991 195.023 164.71C194.565 164.429 194.21 164.036 193.957 163.53C193.705 163.021 193.578 162.43 193.578 161.757C193.578 161.078 193.705 160.484 193.957 159.976C194.21 159.467 194.565 159.072 195.023 158.791C195.48 158.51 196.016 158.369 196.629 158.369C197.246 158.369 197.781 158.51 198.236 158.791C198.693 159.072 199.048 159.467 199.301 159.976C199.554 160.484 199.68 161.078 199.68 161.757C199.68 162.43 199.554 163.021 199.301 163.53C199.048 164.036 198.693 164.429 198.236 164.71C197.781 164.991 197.246 165.132 196.629 165.132ZM196.634 164.062C197.034 164.062 197.364 163.957 197.622 163.747C197.884 163.537 198.077 163.257 198.202 162.908C198.33 162.555 198.393 162.17 198.393 161.753C198.393 161.335 198.33 160.95 198.202 160.598C198.077 160.246 197.884 159.964 197.622 159.754C197.364 159.541 197.034 159.435 196.634 159.435C196.233 159.435 195.902 159.541 195.641 159.754C195.379 159.964 195.185 160.246 195.057 160.598C194.929 160.95 194.865 161.335 194.865 161.753C194.865 162.17 194.929 162.555 195.057 162.908C195.185 163.257 195.379 163.537 195.641 163.747C195.902 163.957 196.233 164.062 196.634 164.062ZM201.103 167.455V158.455H202.347V159.516H202.453C202.53 159.379 202.637 159.222 202.773 159.043C202.912 158.864 203.105 158.707 203.353 158.574C203.603 158.438 203.929 158.369 204.333 158.369C204.861 158.369 205.331 158.503 205.743 158.77C206.158 159.037 206.485 159.422 206.723 159.925C206.962 160.428 207.081 161.033 207.081 161.74C207.081 162.445 206.963 163.051 206.728 163.56C206.492 164.065 206.168 164.453 205.756 164.723C205.344 164.993 204.874 165.128 204.346 165.128C203.948 165.128 203.624 165.061 203.374 164.928C203.124 164.794 202.926 164.638 202.782 164.459C202.64 164.28 202.53 164.121 202.453 163.982H202.377V167.455H201.103ZM202.351 161.727C202.351 162.415 202.499 162.973 202.794 163.402C203.09 163.828 203.512 164.041 204.06 164.041C204.441 164.041 204.759 163.94 205.015 163.739C205.273 163.534 205.468 163.257 205.598 162.908C205.729 162.558 205.794 162.165 205.794 161.727C205.794 161.293 205.729 160.905 205.598 160.564C205.471 160.22 205.279 159.949 205.023 159.75C204.767 159.551 204.446 159.452 204.06 159.452C203.503 159.452 203.078 159.661 202.786 160.078C202.496 160.493 202.351 161.043 202.351 161.727ZM209.783 156.273V165H208.509V156.273H209.783ZM214.318 165.132C213.676 165.132 213.122 164.993 212.656 164.714C212.19 164.436 211.831 164.045 211.578 163.543C211.328 163.037 211.203 162.446 211.203 161.77C211.203 161.099 211.328 160.509 211.578 159.997C211.831 159.486 212.183 159.087 212.635 158.8C213.089 158.513 213.621 158.369 214.229 158.369C214.723 158.369 215.19 158.48 215.631 158.702C216.074 158.92 216.433 159.271 216.709 159.754C216.987 160.234 217.126 160.869 217.126 161.659V162.111H212.473C212.49 162.741 212.668 163.227 213.006 163.568C213.344 163.909 213.786 164.08 214.331 164.08C214.695 164.08 215.009 164.001 215.273 163.845C215.537 163.689 215.726 163.456 215.839 163.146L217.045 163.364C216.901 163.895 216.588 164.322 216.108 164.646C215.628 164.97 215.031 165.132 214.318 165.132ZM212.477 161.156H215.878C215.875 160.656 215.724 160.243 215.426 159.916C215.128 159.587 214.732 159.422 214.237 159.422C213.893 159.422 213.592 159.503 213.334 159.665C213.078 159.824 212.875 160.036 212.724 160.3C212.577 160.561 212.494 160.847 212.477 161.156Z" fill="#4D4D4D"/>
<path d="M44.2074 160.111H42.8778C42.7699 159.545 42.5043 159.112 42.081 158.811C41.6605 158.507 41.1719 158.355 40.6151 158.355C40.1151 158.355 39.6662 158.482 39.2685 158.734C38.8707 158.987 38.5568 159.358 38.3267 159.847C38.0994 160.332 37.9858 160.929 37.9858 161.636C37.9858 162.347 38.1009 162.946 38.331 163.435C38.5611 163.923 38.8736 164.293 39.2685 164.543C39.6662 164.793 40.1136 164.918 40.6108 164.918C41.1619 164.918 41.6491 164.768 42.0724 164.47C42.4957 164.172 42.7642 163.744 42.8778 163.188L44.2074 163.192C44.1136 163.766 43.9034 164.273 43.5767 164.713C43.25 165.153 42.8324 165.499 42.3239 165.749C41.8153 165.996 41.2415 166.119 40.6023 166.119C39.8466 166.119 39.1733 165.94 38.5824 165.582C37.9915 165.222 37.5256 164.706 37.1847 164.036C36.8466 163.365 36.6776 162.565 36.6776 161.636C36.6776 160.705 36.848 159.905 37.1889 159.237C37.5298 158.567 37.9957 158.053 38.5866 157.695C39.1776 157.334 39.8494 157.153 40.6023 157.153C41.2188 157.153 41.7798 157.27 42.2855 157.503C42.794 157.736 43.2159 158.074 43.5511 158.517C43.8892 158.957 44.108 159.489 44.2074 160.111ZM48.4379 166.132C47.8242 166.132 47.2887 165.991 46.8313 165.71C46.3739 165.429 46.0188 165.036 45.766 164.53C45.5131 164.021 45.3867 163.43 45.3867 162.757C45.3867 162.078 45.5131 161.484 45.766 160.976C46.0188 160.467 46.3739 160.072 46.8313 159.791C47.2887 159.51 47.8242 159.369 48.4379 159.369C49.0543 159.369 49.5898 159.51 50.0444 159.791C50.5018 160.072 50.8569 160.467 51.1097 160.976C51.3626 161.484 51.489 162.078 51.489 162.757C51.489 163.43 51.3626 164.021 51.1097 164.53C50.8569 165.036 50.5018 165.429 50.0444 165.71C49.5898 165.991 49.0543 166.132 48.4379 166.132ZM48.4421 165.062C48.8427 165.062 49.1722 164.957 49.4308 164.747C49.6921 164.537 49.8853 164.257 50.0103 163.908C50.1381 163.555 50.2021 163.17 50.2021 162.753C50.2021 162.335 50.1381 161.95 50.0103 161.598C49.8853 161.246 49.6921 160.964 49.4308 160.754C49.1722 160.541 48.8427 160.435 48.4421 160.435C48.0415 160.435 47.7106 160.541 47.4492 160.754C47.1879 160.964 46.9933 161.246 46.8654 161.598C46.7376 161.95 46.6737 162.335 46.6737 162.753C46.6737 163.17 46.7376 163.555 46.8654 163.908C46.9933 164.257 47.1879 164.537 47.4492 164.747C47.7106 164.957 48.0415 165.062 48.4421 165.062ZM52.9112 166V159.455H54.1342V160.52H54.2152C54.3516 160.159 54.5746 159.878 54.8842 159.676C55.1939 159.472 55.5646 159.369 55.9964 159.369C56.4339 159.369 56.8004 159.472 57.0959 159.676C57.3942 159.881 57.6143 160.162 57.7564 160.52H57.8246C57.9837 160.17 58.2322 159.892 58.5703 159.685C58.9112 159.474 59.3175 159.369 59.7891 159.369C60.3828 159.369 60.8672 159.557 61.2422 159.932C61.62 160.304 61.8089 160.864 61.8089 161.611V166H60.5348V161.73C60.5348 161.287 60.4141 160.966 60.1726 160.767C59.9339 160.568 59.6456 160.469 59.3075 160.469C58.8928 160.469 58.5703 160.597 58.3402 160.852C58.1101 161.108 57.995 161.433 57.995 161.828V166H56.7251V161.649C56.7251 161.294 56.6143 161.009 56.3928 160.793C56.1712 160.577 55.8828 160.469 55.5277 160.469C55.1669 160.469 54.853 160.608 54.5859 160.886C54.3189 161.165 54.1854 161.524 54.1854 161.964V166H52.9112ZM63.5167 166V159.455H64.7397V160.52H64.8207C64.957 160.159 65.18 159.878 65.4897 159.676C65.7994 159.472 66.1701 159.369 66.6019 159.369C67.0394 159.369 67.4059 159.472 67.7013 159.676C67.9996 159.881 68.2198 160.162 68.3619 160.52H68.43C68.5891 160.17 68.8377 159.892 69.1758 159.685C69.5167 159.474 69.9229 159.369 70.3945 159.369C70.9883 159.369 71.4727 159.557 71.8477 159.932C72.2255 160.304 72.4144 160.864 72.4144 161.611V166H71.1403V161.73C71.1403 161.287 71.0195 160.966 70.7781 160.767C70.5394 160.568 70.2511 160.469 69.913 160.469C69.4982 160.469 69.1758 160.597 68.9457 160.852C68.7156 161.108 68.6005 161.433 68.6005 161.828V166H67.3306V161.649C67.3306 161.294 67.2198 161.009 66.9982 160.793C66.7766 160.577 66.4883 160.469 66.1332 160.469C65.7724 160.469 65.4585 160.608 65.1914 160.886C64.9244 161.165 64.7908 161.524 64.7908 161.964V166H63.5167ZM76.8793 166.132C76.2656 166.132 75.7301 165.991 75.2727 165.71C74.8153 165.429 74.4602 165.036 74.2074 164.53C73.9545 164.021 73.8281 163.43 73.8281 162.757C73.8281 162.078 73.9545 161.484 74.2074 160.976C74.4602 160.467 74.8153 160.072 75.2727 159.791C75.7301 159.51 76.2656 159.369 76.8793 159.369C77.4957 159.369 78.0313 159.51 78.4858 159.791C78.9432 160.072 79.2983 160.467 79.5511 160.976C79.804 161.484 79.9304 162.078 79.9304 162.757C79.9304 163.43 79.804 164.021 79.5511 164.53C79.2983 165.036 78.9432 165.429 78.4858 165.71C78.0313 165.991 77.4957 166.132 76.8793 166.132ZM76.8835 165.062C77.2841 165.062 77.6136 164.957 77.8722 164.747C78.1335 164.537 78.3267 164.257 78.4517 163.908C78.5795 163.555 78.6435 163.17 78.6435 162.753C78.6435 162.335 78.5795 161.95 78.4517 161.598C78.3267 161.246 78.1335 160.964 77.8722 160.754C77.6136 160.541 77.2841 160.435 76.8835 160.435C76.483 160.435 76.152 160.541 75.8906 160.754C75.6293 160.964 75.4347 161.246 75.3068 161.598C75.179 161.95 75.1151 162.335 75.1151 162.753C75.1151 163.17 75.179 163.555 75.3068 163.908C75.4347 164.257 75.6293 164.537 75.8906 164.747C76.152 164.957 76.483 165.062 76.8835 165.062ZM82.6268 162.114V166H81.3526V159.455H82.5756V160.52H82.6566C82.8072 160.173 83.043 159.895 83.364 159.685C83.6879 159.474 84.0955 159.369 84.587 159.369C85.2575 159.369 85.7958 159.578 86.2021 159.996C86.6112 160.413 86.8157 161.027 86.8157 161.837V166H85.5415V161.99C85.5415 161.516 85.418 161.145 85.1708 160.878C84.9237 160.608 84.5842 160.473 84.1523 160.473C83.7092 160.473 83.3441 160.616 83.0572 160.903C82.7702 161.187 82.6268 161.591 82.6268 162.114ZM89.7987 162.114V166H88.5245V159.455H89.7475V160.52H89.8285C89.979 160.173 90.2148 159.895 90.5359 159.685C90.8597 159.474 91.2674 159.369 91.7589 159.369C92.4293 159.369 92.9677 159.578 93.3739 159.996C93.783 160.413 93.9876 161.027 93.9876 161.837V166H92.7134V161.99C92.7134 161.516 92.5898 161.145 92.3427 160.878C92.0955 160.608 91.756 160.473 91.3242 160.473C90.881 160.473 90.516 160.616 90.229 160.903C89.9421 161.187 89.7987 161.591 89.7987 162.114ZM98.5174 166.132C97.8754 166.132 97.3214 165.993 96.8555 165.714C96.3896 165.436 96.0302 165.045 95.7773 164.543C95.5273 164.037 95.4023 163.446 95.4023 162.77C95.4023 162.099 95.5273 161.509 95.7773 160.997C96.0302 160.486 96.3825 160.087 96.8342 159.8C97.2887 159.513 97.82 159.369 98.4279 159.369C98.9222 159.369 99.3896 159.48 99.8299 159.702C100.273 159.92 100.632 160.271 100.908 160.754C101.186 161.234 101.326 161.869 101.326 162.659V163.111H96.6722C96.6893 163.741 96.8668 164.227 97.2049 164.568C97.543 164.909 97.9847 165.08 98.5302 165.08C98.8938 165.08 99.2077 165.001 99.4719 164.845C99.7362 164.689 99.9251 164.456 100.039 164.146L101.245 164.364C101.1 164.895 100.787 165.322 100.307 165.646C99.8271 165.97 99.2305 166.132 98.5174 166.132ZM96.6765 162.156H100.077C100.074 161.656 99.9237 161.243 99.6254 160.916C99.3271 160.587 98.9308 160.422 98.4364 160.422C98.0927 160.422 97.7915 160.503 97.533 160.665C97.2773 160.824 97.0742 161.036 96.9237 161.3C96.7759 161.561 96.6935 161.847 96.6765 162.156ZM107.644 161.053L106.489 161.257C106.415 161.038 106.278 160.838 106.076 160.656C105.877 160.472 105.579 160.379 105.181 160.379C104.82 160.379 104.518 160.46 104.273 160.622C104.032 160.781 103.913 160.987 103.915 161.24C103.913 161.462 103.992 161.639 104.154 161.773C104.319 161.903 104.582 162.011 104.942 162.097L105.982 162.335C107.175 162.611 107.772 163.202 107.772 164.108C107.772 164.503 107.658 164.852 107.431 165.156C107.207 165.46 106.893 165.699 106.489 165.872C106.089 166.045 105.624 166.132 105.096 166.132C104.36 166.132 103.762 165.976 103.302 165.663C102.842 165.348 102.558 164.901 102.45 164.321L103.681 164.134C103.835 164.781 104.303 165.105 105.087 165.105C105.505 165.105 105.839 165.018 106.089 164.845C106.339 164.669 106.464 164.455 106.464 164.202C106.464 163.784 106.156 163.507 105.539 163.371L104.431 163.128C103.817 162.991 103.366 162.77 103.076 162.463C102.786 162.156 102.641 161.771 102.641 161.308C102.641 160.922 102.749 160.584 102.965 160.294C103.181 160.001 103.479 159.774 103.86 159.612C104.241 159.45 104.677 159.369 105.168 159.369C105.876 159.369 106.433 159.523 106.839 159.83C107.245 160.136 107.513 160.544 107.644 161.053ZM114.078 161.053L112.923 161.257C112.849 161.038 112.711 160.838 112.51 160.656C112.311 160.472 112.012 160.379 111.615 160.379C111.254 160.379 110.951 160.46 110.707 160.622C110.466 160.781 110.346 160.987 110.349 161.24C110.346 161.462 110.426 161.639 110.588 161.773C110.752 161.903 111.015 162.011 111.376 162.097L112.416 162.335C113.609 162.611 114.206 163.202 114.206 164.108C114.206 164.503 114.092 164.852 113.865 165.156C113.64 165.46 113.326 165.699 112.923 165.872C112.522 166.045 112.058 166.132 111.529 166.132C110.794 166.132 110.196 165.976 109.735 165.663C109.275 165.348 108.991 164.901 108.883 164.321L110.115 164.134C110.268 164.781 110.737 165.105 111.521 165.105C111.939 165.105 112.272 165.018 112.522 164.845C112.772 164.669 112.897 164.455 112.897 164.202C112.897 163.784 112.589 163.507 111.973 163.371L110.865 163.128C110.251 162.991 109.799 162.77 109.51 162.463C109.22 162.156 109.075 161.771 109.075 161.308C109.075 160.922 109.183 160.584 109.399 160.294C109.615 160.001 109.913 159.774 110.294 159.612C110.674 159.45 111.11 159.369 111.602 159.369C112.309 159.369 112.866 159.523 113.272 159.83C113.679 160.136 113.947 160.544 114.078 161.053Z" fill="#979797"/>
<rect x="37" y="199" width="246" height="14" rx="2" fill="#F5F5F5"/>
<path d="M37 201C37 199.895 37.8954 199 39 199H231V213H39C37.8954 213 37 212.105 37 211V201Z" fill="#82D881"/>
<path d="M33.1122 21.5455L33.2067 19.4474L31.4368 20.5859L30.8949 19.6413L32.7741 18.6818L30.8949 17.7223L31.4368 16.7777L33.2067 17.9162L33.1122 15.8182H34.1911L34.0966 17.9162L35.8665 16.7777L36.4084 17.7223L34.5291 18.6818L36.4084 19.6413L35.8665 20.5859L34.0966 19.4474L34.1911 21.5455H33.1122ZM40.413 21.5455L40.5075 19.4474L38.7376 20.5859L38.1957 19.6413L40.0749 18.6818L38.1957 17.7223L38.7376 16.7777L40.5075 17.9162L40.413 15.8182H41.4918L41.3974 17.9162L43.1673 16.7777L43.7092 17.7223L41.8299 18.6818L43.7092 19.6413L43.1673 20.5859L41.3974 19.4474L41.4918 21.5455H40.413ZM47.7138 21.5455L47.8082 19.4474L46.0384 20.5859L45.4964 19.6413L47.3757 18.6818L45.4964 17.7223L46.0384 16.7777L47.8082 17.9162L47.7138 15.8182H48.7926L48.6982 17.9162L50.468 16.7777L51.0099 17.7223L49.1307 18.6818L51.0099 19.6413L50.468 20.5859L48.6982 19.4474L48.7926 21.5455H47.7138ZM55.0146 21.5455L55.109 19.4474L53.3391 20.5859L52.7972 19.6413L54.6765 18.6818L52.7972 17.7223L53.3391 16.7777L55.109 17.9162L55.0146 15.8182H56.0934L55.9989 17.9162L57.7688 16.7777L58.3107 17.7223L56.4315 18.6818L58.3107 19.6413L57.7688 20.5859L55.9989 19.4474L56.0934 21.5455H55.0146ZM62.3153 21.5455L62.4098 19.4474L60.6399 20.5859L60.098 19.6413L61.9773 18.6818L60.098 17.7223L60.6399 16.7777L62.4098 17.9162L62.3153 15.8182H63.3942L63.2997 17.9162L65.0696 16.7777L65.6115 17.7223L63.7322 18.6818L65.6115 19.6413L65.0696 20.5859L63.2997 19.4474L63.3942 21.5455H62.3153ZM69.6161 21.5455L69.7106 19.4474L67.9407 20.5859L67.3988 19.6413L69.2781 18.6818L67.3988 17.7223L67.9407 16.7777L69.7106 17.9162L69.6161 15.8182H70.695L70.6005 17.9162L72.3704 16.7777L72.9123 17.7223L71.033 18.6818L72.9123 19.6413L72.3704 20.5859L70.6005 19.4474L70.695 21.5455H69.6161ZM76.9169 21.5455L77.0114 19.4474L75.2415 20.5859L74.6996 19.6413L76.5788 18.6818L74.6996 17.7223L75.2415 16.7777L77.0114 17.9162L76.9169 15.8182H77.9957L77.9013 17.9162L79.6712 16.7777L80.2131 17.7223L78.3338 18.6818L80.2131 19.6413L79.6712 20.5859L77.9013 19.4474L77.9957 21.5455H76.9169ZM84.2177 21.5455L84.3121 19.4474L82.5423 20.5859L82.0004 19.6413L83.8796 18.6818L82.0004 17.7223L82.5423 16.7777L84.3121 17.9162L84.2177 15.8182H85.2965L85.2021 17.9162L86.9719 16.7777L87.5138 17.7223L85.6346 18.6818L87.5138 19.6413L86.9719 20.5859L85.2021 19.4474L85.2965 21.5455H84.2177ZM91.5185 21.5455L91.6129 19.4474L89.843 20.5859L89.3011 19.6413L91.1804 18.6818L89.3011 17.7223L89.843 16.7777L91.6129 17.9162L91.5185 15.8182H92.5973L92.5028 17.9162L94.2727 16.7777L94.8146 17.7223L92.9354 18.6818L94.8146 19.6413L94.2727 20.5859L92.5028 19.4474L92.5973 21.5455H91.5185ZM98.8192 21.5455L98.9137 19.4474L97.1438 20.5859L96.6019 19.6413L98.4812 18.6818L96.6019 17.7223L97.1438 16.7777L98.9137 17.9162L98.8192 15.8182H99.8981L99.8036 17.9162L101.574 16.7777L102.115 17.7223L100.236 18.6818L102.115 19.6413L101.574 20.5859L99.8036 19.4474L99.8981 21.5455H98.8192ZM106.12 21.5455L106.214 19.4474L104.445 20.5859L103.903 19.6413L105.782 18.6818L103.903 17.7223L104.445 16.7777L106.214 17.9162L106.12 15.8182H107.199L107.104 17.9162L108.874 16.7777L109.416 17.7223L107.537 18.6818L109.416 19.6413L108.874 20.5859L107.104 19.4474L107.199 21.5455H106.12ZM113.421 21.5455L113.515 19.4474L111.745 20.5859L111.203 19.6413L113.083 18.6818L111.203 17.7223L111.745 16.7777L113.515 17.9162L113.421 15.8182H114.5L114.405 17.9162L116.175 16.7777L116.717 17.7223L114.838 18.6818L116.717 19.6413L116.175 20.5859L114.405 19.4474L114.5 21.5455H113.421ZM120.722 21.5455L120.816 19.4474L119.046 20.5859L118.504 19.6413L120.384 18.6818L118.504 17.7223L119.046 16.7777L120.816 17.9162L120.722 15.8182H121.8L121.706 17.9162L123.476 16.7777L124.018 17.7223L122.138 18.6818L124.018 19.6413L123.476 20.5859L121.706 19.4474L121.8 21.5455H120.722ZM128.022 21.5455L128.117 19.4474L126.347 20.5859L125.805 19.6413L127.684 18.6818L125.805 17.7223L126.347 16.7777L128.117 17.9162L128.022 15.8182H129.101L129.007 17.9162L130.777 16.7777L131.319 17.7223L129.439 18.6818L131.319 19.6413L130.777 20.5859L129.007 19.4474L129.101 21.5455H128.022ZM135.323 21.5455L135.418 19.4474L133.648 20.5859L133.106 19.6413L134.985 18.6818L133.106 17.7223L133.648 16.7777L135.418 17.9162L135.323 15.8182H136.402L136.308 17.9162L138.077 16.7777L138.619 17.7223L136.74 18.6818L138.619 19.6413L138.077 20.5859L136.308 19.4474L136.402 21.5455H135.323ZM142.624 21.5455L142.718 19.4474L140.949 20.5859L140.407 19.6413L142.286 18.6818L140.407 17.7223L140.949 16.7777L142.718 17.9162L142.624 15.8182H143.703L143.608 17.9162L145.378 16.7777L145.92 17.7223L144.041 18.6818L145.92 19.6413L145.378 20.5859L143.608 19.4474L143.703 21.5455H142.624ZM149.925 21.5455L150.019 19.4474L148.249 20.5859L147.707 19.6413L149.587 18.6818L147.707 17.7223L148.249 16.7777L150.019 17.9162L149.925 15.8182H151.004L150.909 17.9162L152.679 16.7777L153.221 17.7223L151.342 18.6818L153.221 19.6413L152.679 20.5859L150.909 19.4474L151.004 21.5455H149.925ZM157.225 21.5455L157.32 19.4474L155.55 20.5859L155.008 19.6413L156.887 18.6818L155.008 17.7223L155.55 16.7777L157.32 17.9162L157.225 15.8182H158.304L158.21 17.9162L159.98 16.7777L160.522 17.7223L158.642 18.6818L160.522 19.6413L159.98 20.5859L158.21 19.4474L158.304 21.5455H157.225Z" fill="black" fill-opacity="0.54"/>
<path d="M282 14C277.909 14 274.415 16.6953 273 20.5C274.415 24.3047 277.909 27 282 27C286.091 27 289.585 24.3047 291 20.5C289.585 16.6953 286.091 14 282 14ZM282 24.8333C279.742 24.8333 277.909 22.892 277.909 20.5C277.909 18.108 279.742 16.1667 282 16.1667C284.258 16.1667 286.091 18.108 286.091 20.5C286.091 22.892 284.258 24.8333 282 24.8333ZM282 17.9C280.642 17.9 279.545 19.0613 279.545 20.5C279.545 21.9387 280.642 23.1 282 23.1C283.358 23.1 284.455 21.9387 284.455 20.5C284.455 19.0613 283.358 17.9 282 17.9Z" fill="#A3A3A3" fill-opacity="0.58"/>
<rect x="269" y="70" width="18" height="18" rx="3" fill="#E8C3C3" fill-opacity="0.54"/>
<path d="M279.467 78.4962L282.8 75.1628C282.925 75.0344 282.993 74.8623 282.992 74.6837C282.99 74.5051 282.918 74.3343 282.792 74.208C282.666 74.0817 282.495 74.01 282.316 74.0085C282.138 74.0069 281.966 74.0756 281.837 74.1997L278.504 77.533L275.171 74.1997C275.108 74.1364 275.033 74.0862 274.95 74.0519C274.867 74.0176 274.779 74 274.689 74C274.6 74 274.511 74.0176 274.429 74.0519C274.346 74.0862 274.271 74.1364 274.208 74.1997C274.144 74.2629 274.094 74.3379 274.06 74.4206C274.026 74.5032 274.008 74.5918 274.008 74.6812C274.008 74.7707 274.026 74.8593 274.06 74.9419C274.094 75.0245 274.144 75.0996 274.208 75.1628L277.541 78.4962L274.2 81.8374C274.105 81.9326 274.04 82.0539 274.013 82.1861C273.987 82.3183 274 82.4554 274.052 82.5799C274.103 82.7044 274.191 82.8109 274.303 82.8856C274.415 82.9604 274.547 83.0002 274.682 83C274.856 83 275.03 82.9335 275.163 82.8006L278.504 79.4593L281.837 82.7927C281.901 82.856 281.976 82.9062 282.058 82.9404C282.141 82.9747 282.23 82.9922 282.319 82.9921C282.454 82.9921 282.585 82.9521 282.697 82.8773C282.809 82.8024 282.897 82.6961 282.948 82.5717C283 82.4472 283.013 82.3103 282.987 82.1782C282.961 82.0461 282.896 81.9248 282.801 81.8295L279.467 78.4962Z" fill="#DD2E44" fill-opacity="0.75"/>
<defs>
<filter id="filter0_d" x="0" y="50" width="321" height="207" filterUnits="userSpaceOnUse" color-interpolation-filters="sRGB">
<feFlood flood-opacity="0" result="BackgroundImageFix"/>
<feColorMatrix in="SourceAlpha" type="matrix" values="0 0 0 0 0 0 0 0 0 0 0 0 0 0 0 0 0 0 127 0"/>
<feOffset dy="2"/>
<feGaussianBlur stdDeviation="7.5"/>
<feColorMatrix type="matrix" values="0 0 0 0 0 0 0 0 0 0 0 0 0 0 0 0 0 0 0.71 0"/>
<feBlend mode="normal" in2="BackgroundImageFix" result="effect1_dropShadow"/>
<feBlend mode="normal" in="SourceGraphic" in2="effect1_dropShadow" result="shape"/>
</filter>
</defs>
</svg>
