<svg width="320" height="143" viewBox="0 0 320 143" fill="none" xmlns="http://www.w3.org/2000/svg">
<rect x="4" y="108" width="312" height="31" rx="3" fill="white"/>
<rect x="2.25" y="106.25" width="315.5" height="34.5" rx="4.75" stroke="#65BEFF" stroke-opacity="0.6" stroke-width="3.5"/>
<path d="M18.4858 124.466V129H16.9993V118.818H18.4659V122.607H18.5604C18.7393 122.192 19.0128 121.866 19.3807 121.627C19.7486 121.385 20.2292 121.264 20.8224 121.264C21.608 121.264 22.2393 121.506 22.7166 121.99C23.1972 122.474 23.4375 123.192 23.4375 124.143V129H21.951V124.322C21.951 123.762 21.8068 123.327 21.5185 123.019C21.2301 122.708 20.8291 122.552 20.3153 122.552C19.785 122.552 19.3475 122.719 19.0028 123.054C18.6581 123.385 18.4858 123.856 18.4858 124.466ZM28.7124 129.154C27.9633 129.154 27.317 128.992 26.7734 128.667C26.2299 128.342 25.8106 127.886 25.5156 127.3C25.224 126.71 25.0781 126.02 25.0781 125.232C25.0781 124.449 25.224 123.76 25.5156 123.163C25.8106 122.567 26.2216 122.101 26.7486 121.766C27.2789 121.432 27.8987 121.264 28.608 121.264C29.1847 121.264 29.7299 121.393 30.2436 121.652C30.7607 121.907 31.1799 122.317 31.5014 122.88C31.8262 123.44 31.9886 124.181 31.9886 125.102V125.629H26.5597C26.5795 126.365 26.7867 126.932 27.1811 127.33C27.5755 127.727 28.0909 127.926 28.7273 127.926C29.1515 127.926 29.5178 127.835 29.826 127.653C30.1342 127.47 30.3546 127.199 30.4872 126.837L31.8942 127.091C31.7251 127.711 31.3606 128.21 30.8004 128.587C30.2403 128.965 29.5443 129.154 28.7124 129.154ZM26.5646 124.516H30.532C30.5286 123.932 30.353 123.45 30.005 123.069C29.657 122.684 29.1946 122.492 28.6179 122.492C28.2169 122.492 27.8655 122.587 27.5639 122.776C27.2656 122.961 27.0286 123.208 26.853 123.516C26.6806 123.821 26.5845 124.154 26.5646 124.516ZM35.1245 118.818V129H33.638V118.818H35.1245ZM38.6108 118.818V129H37.1243V118.818H38.6108ZM43.8272 129.154C43.1113 129.154 42.4866 128.99 41.9529 128.662C41.4193 128.334 41.005 127.875 40.71 127.285C40.4151 126.692 40.2676 126.002 40.2676 125.217C40.2676 124.424 40.4151 123.732 40.71 123.138C41.005 122.545 41.4193 122.085 41.9529 121.756C42.4866 121.428 43.1113 121.264 43.8272 121.264C44.5465 121.264 45.1712 121.428 45.7015 121.756C46.2351 122.085 46.6494 122.545 46.9444 123.138C47.2394 123.732 47.3869 124.424 47.3869 125.217C47.3869 126.002 47.2394 126.692 46.9444 127.285C46.6494 127.875 46.2351 128.334 45.7015 128.662C45.1712 128.99 44.5465 129.154 43.8272 129.154ZM43.8322 127.906C44.2995 127.906 44.684 127.784 44.9856 127.538C45.2905 127.293 45.5159 126.967 45.6618 126.559C45.8109 126.148 45.8855 125.699 45.8855 125.212C45.8855 124.724 45.8109 124.275 45.6618 123.864C45.5159 123.453 45.2905 123.125 44.9856 122.88C44.684 122.631 44.2995 122.507 43.8322 122.507C43.3649 122.507 42.9788 122.631 42.6738 122.88C42.3689 123.125 42.1419 123.453 41.9927 123.864C41.8436 124.275 41.769 124.724 41.769 125.212C41.769 125.699 41.8436 126.148 41.9927 126.559C42.1419 126.967 42.3689 127.293 42.6738 127.538C42.9788 127.784 43.3649 127.906 43.8322 127.906ZM52.8892 118.818V129H51.348V120.359H51.2884L48.8523 121.95V120.479L51.3928 118.818H52.8892ZM55.6435 129V127.886L59.0888 124.317C59.4534 123.929 59.7566 123.589 59.9986 123.298C60.2405 123.003 60.4212 122.723 60.5405 122.457C60.6598 122.192 60.7195 121.911 60.7195 121.612C60.7195 121.105 60.5455 120.704 60.1974 120.409C59.8494 120.111 59.4169 119.962 58.8999 119.962C58.3497 119.962 57.9105 120.127 57.5824 120.459C57.2576 120.787 57.0968 121.224 57.1001 121.771H55.6335C55.6335 121.152 55.776 120.61 56.0611 120.146C56.3461 119.682 56.7372 119.322 57.2344 119.067C57.7315 118.808 58.2966 118.679 58.9297 118.679C59.5694 118.679 60.1328 118.807 60.62 119.062C61.1106 119.314 61.4934 119.658 61.7685 120.096C62.0436 120.53 62.1811 121.021 62.1811 121.567C62.1811 121.945 62.1098 122.315 61.9673 122.676C61.8281 123.037 61.5845 123.44 61.2365 123.884C60.8918 124.325 60.4079 124.86 59.7848 125.49L57.7614 127.608V127.683H62.3452V129H55.6435ZM67.7741 129.139C67.0881 129.139 66.4782 129.022 65.9446 128.786C65.411 128.551 64.9884 128.224 64.6768 127.807C64.3686 127.386 64.2029 126.899 64.1797 126.345H65.7408C65.7706 126.796 65.9777 127.154 66.3622 127.419C66.7467 127.684 67.214 127.817 67.7642 127.817C68.3641 127.817 68.8563 127.664 69.2408 127.359C69.6286 127.051 69.8224 126.65 69.8224 126.156C69.8224 125.643 69.6269 125.225 69.2358 124.903C68.848 124.579 68.3011 124.416 67.5952 124.416H66.7351V123.163H67.5952C68.1586 123.163 68.6193 123.014 68.9773 122.716C69.3352 122.418 69.5125 122.023 69.5092 121.533C69.5125 121.062 69.3568 120.683 69.0419 120.394C68.7304 120.106 68.3144 119.962 67.794 119.962C67.2936 119.962 66.8527 120.096 66.4716 120.364C66.0938 120.629 65.8965 120.996 65.88 121.463H64.3935C64.41 120.91 64.5724 120.424 64.8807 120.006C65.1922 119.589 65.6032 119.264 66.1136 119.032C66.6241 118.797 67.1908 118.679 67.8139 118.679C68.4669 118.679 69.032 118.807 69.5092 119.062C69.9865 119.317 70.3544 119.655 70.6129 120.076C70.8714 120.494 70.9991 120.953 70.9957 121.453C70.9991 122.023 70.8416 122.507 70.5234 122.905C70.2053 123.303 69.7794 123.569 69.2457 123.705V123.785C69.9219 123.888 70.4455 124.156 70.8168 124.59C71.1913 125.024 71.3769 125.563 71.3736 126.206C71.3769 126.769 71.2228 127.273 70.9112 127.717C70.5997 128.158 70.1721 128.506 69.6286 128.761C69.085 129.013 68.4669 129.139 67.7741 129.139ZM75.495 129.169C75.0111 129.169 74.5736 129.08 74.1825 128.901C73.7947 128.722 73.4865 128.46 73.2578 128.115C73.0291 127.767 72.9148 127.343 72.9148 126.842C72.9148 126.408 72.9976 126.052 73.1634 125.773C73.3324 125.495 73.5561 125.275 73.8345 125.112C74.1162 124.95 74.4311 124.829 74.7791 124.749C75.1271 124.666 75.4818 124.603 75.843 124.56C76.3004 124.507 76.67 124.464 76.9517 124.431C77.2367 124.395 77.4439 124.337 77.5732 124.257C77.7057 124.178 77.772 124.048 77.772 123.869V123.835C77.772 123.4 77.6494 123.064 77.4041 122.825C77.1622 122.587 76.8009 122.467 76.3203 122.467C75.8198 122.467 75.4254 122.577 75.1371 122.795C74.852 123.014 74.6548 123.259 74.5455 123.531L73.1484 123.213C73.397 122.517 73.8113 122.018 74.3913 121.717C74.9747 121.415 75.611 121.264 76.3004 121.264C76.6054 121.264 76.9285 121.301 77.2699 121.374C77.6113 121.443 77.9328 121.574 78.2344 121.766C78.5393 121.955 78.7862 122.224 78.9751 122.572C79.1674 122.92 79.2635 123.372 79.2635 123.929V129H77.8118V127.956H77.7521C77.6096 128.241 77.3561 128.514 76.9915 128.776C76.6269 129.038 76.1281 129.169 75.495 129.169ZM75.8182 127.976C76.2325 127.976 76.5855 127.895 76.8771 127.732C77.1688 127.57 77.3909 127.358 77.5433 127.096C77.6991 126.831 77.777 126.547 77.777 126.246V125.261C77.7074 125.331 77.5549 125.392 77.3196 125.445C77.0843 125.498 76.8357 125.543 76.5739 125.58C76.312 125.616 76.0999 125.646 75.9375 125.669C75.5066 125.725 75.1371 125.84 74.8288 126.012C74.5239 126.181 74.3714 126.464 74.3714 126.862C74.3714 127.23 74.5073 127.509 74.7791 127.697C75.0509 127.883 75.3973 127.976 75.8182 127.976ZM81.3627 129V118.818H82.8493V122.602H82.9387C83.0282 122.442 83.1525 122.259 83.3116 122.05C83.474 121.841 83.6994 121.659 83.9877 121.503C84.2794 121.344 84.6606 121.264 85.1312 121.264C85.7477 121.264 86.2962 121.42 86.7768 121.732C87.2607 122.043 87.6419 122.492 87.9203 123.079C88.1987 123.665 88.3379 124.371 88.3379 125.197C88.3379 126.019 88.2003 126.726 87.9252 127.32C87.6502 127.91 87.2723 128.362 86.7917 128.677C86.3111 128.992 85.7626 129.149 85.1461 129.149C84.6821 129.149 84.3043 129.071 84.0126 128.915C83.7209 128.76 83.4906 128.577 83.3216 128.369C83.1558 128.16 83.0282 127.974 82.9387 127.812H82.8145V129H81.3627ZM82.8194 125.182C82.8194 125.984 82.9918 126.635 83.3365 127.136C83.6812 127.633 84.1734 127.881 84.813 127.881C85.2572 127.881 85.6284 127.764 85.9267 127.528C86.2283 127.29 86.4553 126.967 86.6078 126.559C86.7602 126.151 86.8365 125.692 86.8365 125.182C86.8365 124.675 86.7602 124.222 86.6078 123.825C86.4586 123.424 86.2349 123.107 85.9366 122.875C85.6383 122.643 85.2638 122.527 84.813 122.527C84.1634 122.527 83.6679 122.771 83.3265 123.258C82.9885 123.742 82.8194 124.383 82.8194 125.182ZM93.2237 129.154C92.4846 129.154 91.8482 128.987 91.3146 128.652C90.7843 128.314 90.3767 127.848 90.0916 127.255C89.8066 126.662 89.6641 125.982 89.6641 125.217C89.6641 124.438 89.8099 123.752 90.1016 123.158C90.3932 122.565 90.8042 122.101 91.3345 121.766C91.8681 121.432 92.4929 121.264 93.2088 121.264C93.7888 121.264 94.3059 121.372 94.7599 121.587C95.214 121.799 95.5803 122.098 95.8587 122.482C96.1404 122.867 96.3078 123.316 96.3608 123.83H94.9141C94.8345 123.472 94.6522 123.163 94.3672 122.905C94.0855 122.646 93.7076 122.517 93.2337 122.517C92.6139 122.517 92.1134 122.757 91.7322 123.238C91.3544 123.715 91.1655 124.363 91.1655 125.182C91.1655 126.014 91.3527 126.675 91.7273 127.165C92.1018 127.653 92.6039 127.896 93.2337 127.896C93.6579 127.896 94.0208 127.78 94.3224 127.548C94.6241 127.316 94.8213 126.995 94.9141 126.584H96.3608C96.3078 127.078 96.147 127.518 95.8786 127.906C95.6101 128.294 95.2505 128.599 94.7997 128.821C94.3523 129.043 93.8269 129.154 93.2237 129.154ZM100.809 129.149C100.193 129.149 99.6441 128.992 99.1635 128.677C98.6829 128.362 98.3051 127.91 98.03 127.32C97.7549 126.726 97.6174 126.019 97.6174 125.197C97.6174 124.371 97.7549 123.665 98.03 123.079C98.3084 122.492 98.6896 122.043 99.1735 121.732C99.6574 121.42 100.206 121.264 100.819 121.264C101.293 121.264 101.674 121.344 101.963 121.503C102.254 121.659 102.48 121.841 102.639 122.05C102.801 122.259 102.927 122.442 103.017 122.602H103.106V118.818H104.593V129H103.141V127.812H103.017C102.927 127.974 102.798 128.16 102.629 128.369C102.463 128.577 102.234 128.76 101.943 128.915C101.651 129.071 101.273 129.149 100.809 129.149ZM101.137 127.881C101.78 127.881 102.272 127.633 102.614 127.136C102.959 126.635 103.131 125.984 103.131 125.182C103.131 124.383 102.96 123.742 102.619 123.258C102.281 122.771 101.787 122.527 101.137 122.527C100.69 122.527 100.317 122.643 100.019 122.875C99.7203 123.107 99.495 123.424 99.3425 123.825C99.1934 124.222 99.1188 124.675 99.1188 125.182C99.1188 125.692 99.195 126.151 99.3475 126.559C99.4999 126.967 99.7253 127.29 100.024 127.528C100.325 127.764 100.696 127.881 101.137 127.881ZM110.005 129.154C109.256 129.154 108.61 128.992 108.066 128.667C107.523 128.342 107.104 127.886 106.809 127.3C106.517 126.71 106.371 126.02 106.371 125.232C106.371 124.449 106.517 123.76 106.809 123.163C107.104 122.567 107.515 122.101 108.042 121.766C108.572 121.432 109.192 121.264 109.901 121.264C110.478 121.264 111.023 121.393 111.537 121.652C112.054 121.907 112.473 122.317 112.794 122.88C113.119 123.44 113.282 124.181 113.282 125.102V125.629H107.853C107.873 126.365 108.08 126.932 108.474 127.33C108.868 127.727 109.384 127.926 110.02 127.926C110.444 127.926 110.811 127.835 111.119 127.653C111.427 127.47 111.648 127.199 111.78 126.837L113.187 127.091C113.018 127.711 112.654 128.21 112.093 128.587C111.533 128.965 110.837 129.154 110.005 129.154ZM107.858 124.516H111.825C111.822 123.932 111.646 123.45 111.298 123.069C110.95 122.684 110.488 122.492 109.911 122.492C109.51 122.492 109.158 122.587 108.857 122.776C108.559 122.961 108.322 123.208 108.146 123.516C107.974 123.821 107.877 124.154 107.858 124.516ZM118.565 121.364V122.557H116.92V129H115.428V122.557H114.25V121.364H115.428V120.479C115.428 120.001 115.532 119.605 115.741 119.29C115.953 118.972 116.232 118.735 116.577 118.58C116.921 118.42 117.294 118.341 117.695 118.341C117.997 118.341 118.254 118.366 118.466 118.415C118.678 118.462 118.835 118.505 118.938 118.545L118.59 119.748C118.52 119.725 118.431 119.7 118.322 119.673C118.212 119.647 118.08 119.634 117.924 119.634C117.563 119.634 117.304 119.723 117.148 119.902C116.996 120.081 116.92 120.339 116.92 120.678V121.364H118.565Z" fill="black" fill-opacity="0.54"/>
<path d="M289.5 117C285.182 117 281.494 119.695 280 123.5C281.494 127.305 285.182 130 289.5 130C293.818 130 297.506 127.305 299 123.5C297.506 119.695 293.818 117 289.5 117ZM289.5 127.833C287.116 127.833 285.182 125.892 285.182 123.5C285.182 121.108 287.116 119.167 289.5 119.167C291.884 119.167 293.818 121.108 293.818 123.5C293.818 125.892 291.884 127.833 289.5 127.833ZM289.5 120.9C288.066 120.9 286.909 122.061 286.909 123.5C286.909 124.939 288.066 126.1 289.5 126.1C290.934 126.1 292.091 124.939 292.091 123.5C292.091 122.061 290.934 120.9 289.5 120.9Z" fill="#A3A3A3" fill-opacity="0.58"/>
<g filter="url(#filter0_d)">
<path fill-rule="evenodd" clip-rule="evenodd" d="M23 12C21.3431 12 20 13.3431 20 15V69C20 70.6569 21.3431 72 23 72H217.561C218.379 72 219.115 72.4979 219.418 73.2572L226.555 91.099C227.255 92.8492 229.766 92.7477 230.323 90.9468L235.743 73.4094C236.002 72.5714 236.777 72 237.654 72H297C298.657 72 300 70.6569 300 69V15C300 13.3431 298.657 12 297 12H23Z" fill="url(#paint0_linear)"/>
</g>
<path d="M41.0234 21H42.2344V26.2617C42.2344 26.8216 42.1029 27.3177 41.8398 27.75C41.5768 28.1823 41.207 28.5208 40.7305 28.7656C40.2539 29.0104 39.6953 29.1328 39.0547 29.1328C38.4167 29.1328 37.8594 29.0104 37.3828 28.7656C36.9063 28.5208 36.5365 28.1823 36.2734 27.75C36.0104 27.3177 35.8789 26.8216 35.8789 26.2617V21H37.0859V26.1641C37.0859 26.7057 37.2617 27.1523 37.6133 27.5039C37.9674 27.8555 38.4479 28.0312 39.0547 28.0312C39.6641 28.0312 40.1445 27.8555 40.4961 27.5039C40.8477 27.1523 41.0234 26.7057 41.0234 26.1641V21ZM48.3916 24.4648L47.333 24.6523C47.2653 24.4518 47.139 24.2682 46.9541 24.1016C46.7718 23.9323 46.4984 23.8477 46.1338 23.8477C45.8031 23.8477 45.5257 23.9219 45.3018 24.0703C45.0804 24.2161 44.971 24.4049 44.9736 24.6367C44.971 24.8398 45.0439 25.0026 45.1924 25.125C45.3434 25.2448 45.5843 25.3437 45.915 25.4219L46.8682 25.6406C47.9619 25.8932 48.5088 26.4349 48.5088 27.2656C48.5088 27.6276 48.4046 27.9479 48.1963 28.2266C47.9906 28.5052 47.7028 28.724 47.333 28.8828C46.9658 29.0417 46.54 29.1211 46.0557 29.1211C45.3812 29.1211 44.833 28.9779 44.4111 28.6914C43.9893 28.4023 43.7288 27.9922 43.6299 27.4609L44.7588 27.2891C44.8994 27.8828 45.3291 28.1797 46.0479 28.1797C46.4307 28.1797 46.7367 28.1003 46.9658 27.9414C47.195 27.7799 47.3096 27.5833 47.3096 27.3516C47.3096 26.9687 47.027 26.7148 46.4619 26.5898L45.4463 26.3672C44.8838 26.2422 44.4697 26.0391 44.2041 25.7578C43.9385 25.4766 43.8057 25.1237 43.8057 24.6992C43.8057 24.3451 43.9046 24.0352 44.1025 23.7695C44.3005 23.5013 44.5739 23.293 44.9229 23.1445C45.2718 22.9961 45.6715 22.9219 46.1221 22.9219C46.7705 22.9219 47.2809 23.0625 47.6533 23.3437C48.0257 23.625 48.2718 23.9987 48.3916 24.4648ZM52.3789 29.1211C51.7904 29.1211 51.2826 28.9935 50.8555 28.7383C50.4284 28.4831 50.099 28.125 49.8672 27.6641C49.638 27.2005 49.5234 26.6589 49.5234 26.0391C49.5234 25.4245 49.638 24.8828 49.8672 24.4141C50.099 23.9453 50.4219 23.5794 50.8359 23.3164C51.2526 23.0534 51.7396 22.9219 52.2969 22.9219C52.75 22.9219 53.1784 23.0234 53.582 23.2266C53.9883 23.4271 54.3177 23.7487 54.5703 24.1914C54.8255 24.6315 54.9531 25.2135 54.9531 25.9375V26.3516H50.6875C50.7031 26.9297 50.8659 27.375 51.1758 27.6875C51.4857 28 51.8906 28.1562 52.3906 28.1562C52.724 28.1562 53.0117 28.0846 53.2539 27.9414C53.4961 27.7982 53.6693 27.5846 53.7734 27.3008L54.8789 27.5C54.7461 27.987 54.4596 28.3789 54.0195 28.6758C53.5794 28.9727 53.0326 29.1211 52.3789 29.1211ZM50.6914 25.4766H53.8086C53.806 25.0182 53.668 24.6393 53.3945 24.3398C53.1211 24.0378 52.7578 23.8867 52.3047 23.8867C51.9896 23.8867 51.7135 23.9609 51.4766 24.1094C51.2422 24.2552 51.056 24.4492 50.918 24.6914C50.7826 24.931 50.707 25.1927 50.6914 25.4766ZM63.6563 24.4648L62.5977 24.6523C62.5299 24.4518 62.4036 24.2682 62.2188 24.1016C62.0365 23.9323 61.763 23.8477 61.3984 23.8477C61.0677 23.8477 60.7904 23.9219 60.5664 24.0703C60.3451 24.2161 60.2357 24.4049 60.2383 24.6367C60.2357 24.8398 60.3086 25.0026 60.457 25.125C60.6081 25.2448 60.849 25.3437 61.1797 25.4219L62.1328 25.6406C63.2266 25.8932 63.7734 26.4349 63.7734 27.2656C63.7734 27.6276 63.6693 27.9479 63.4609 28.2266C63.2552 28.5052 62.9674 28.724 62.5977 28.8828C62.2305 29.0417 61.8047 29.1211 61.3203 29.1211C60.6458 29.1211 60.0977 28.9779 59.6758 28.6914C59.2539 28.4023 58.9935 27.9922 58.8945 27.4609L60.0234 27.2891C60.1641 27.8828 60.5938 28.1797 61.3125 28.1797C61.6953 28.1797 62.0013 28.1003 62.2305 27.9414C62.4596 27.7799 62.5742 27.5833 62.5742 27.3516C62.5742 26.9687 62.2917 26.7148 61.7266 26.5898L60.7109 26.3672C60.1484 26.2422 59.7344 26.0391 59.4688 25.7578C59.2031 25.4766 59.0703 25.1237 59.0703 24.6992C59.0703 24.3451 59.1693 24.0352 59.3672 23.7695C59.5651 23.5013 59.8385 23.293 60.1875 23.1445C60.5365 22.9961 60.9362 22.9219 61.3867 22.9219C62.0352 22.9219 62.5456 23.0625 62.918 23.3437C63.2904 23.625 63.5365 23.9987 63.6563 24.4648ZM68.8584 26.5117V23H70.0303V29H68.8818V27.9609H68.8193C68.6813 28.2813 68.46 28.5482 68.1553 28.7617C67.8532 28.9727 67.4769 29.0781 67.0264 29.0781C66.4508 29.0781 65.9782 28.888 65.6084 28.5078C65.2412 28.125 65.0576 27.5612 65.0576 26.8164V23H66.2256V26.6758C66.2256 27.0846 66.3389 27.4102 66.5654 27.6523C66.792 27.8945 67.0863 28.0156 67.4482 28.0156C67.667 28.0156 67.8844 27.9609 68.1006 27.8516C68.3193 27.7422 68.5003 27.5768 68.6436 27.3555C68.7894 27.1315 68.861 26.8503 68.8584 26.5117ZM74.1152 31.3633C73.3991 31.3633 72.834 31.2292 72.4199 30.9609C72.0085 30.6927 71.7233 30.3776 71.5645 30.0156L72.5684 29.6016C72.6387 29.7109 72.7324 29.8294 72.8496 29.957C72.9694 30.0846 73.1309 30.194 73.334 30.2852C73.5397 30.3763 73.804 30.4219 74.127 30.4219C74.5697 30.4219 74.9355 30.3151 75.2246 30.1016C75.5137 29.888 75.6582 29.5495 75.6582 29.0859V27.9062H75.584C75.5137 28.0339 75.4134 28.1758 75.2832 28.332C75.153 28.4883 74.972 28.6237 74.7402 28.7383C74.5111 28.8529 74.2129 28.9102 73.8457 28.9102C73.3743 28.9102 72.9486 28.7995 72.5684 28.5781C72.1908 28.3542 71.8913 28.0247 71.6699 27.5898C71.4486 27.1523 71.3379 26.6146 71.3379 25.9766C71.3379 25.3385 71.446 24.7917 71.6621 24.3359C71.8809 23.8802 72.1803 23.5312 72.5605 23.2891C72.9408 23.0443 73.3717 22.9219 73.8535 22.9219C74.2259 22.9219 74.5267 22.9844 74.7559 23.1094C74.9876 23.2318 75.1673 23.375 75.2949 23.5391C75.4251 23.7031 75.5241 23.8477 75.5918 23.9727H75.6777V23H76.8223V29.1328C76.8223 29.6432 76.7025 30.0625 76.4629 30.3906C76.2233 30.7214 75.8991 30.9661 75.4902 31.125C75.084 31.2839 74.6257 31.3633 74.1152 31.3633ZM74.1035 27.9414C74.6087 27.9414 74.9954 27.7669 75.2637 27.418C75.5345 27.0664 75.6699 26.5807 75.6699 25.9609C75.6699 25.3542 75.5358 24.862 75.2676 24.4844C75.002 24.1042 74.6139 23.9141 74.1035 23.9141C73.752 23.9141 73.459 24.0052 73.2246 24.1875C72.9902 24.3672 72.8132 24.612 72.6934 24.9219C72.5762 25.2292 72.5176 25.5755 72.5176 25.9609C72.5176 26.5495 72.6517 27.0273 72.9199 27.3945C73.1882 27.7591 73.5827 27.9414 74.1035 27.9414ZM80.9043 31.3633C80.1882 31.3633 79.623 31.2292 79.209 30.9609C78.7975 30.6927 78.5124 30.3776 78.3535 30.0156L79.3574 29.6016C79.4277 29.7109 79.5215 29.8294 79.6387 29.957C79.7585 30.0846 79.9199 30.194 80.123 30.2852C80.3288 30.3763 80.5931 30.4219 80.916 30.4219C81.3587 30.4219 81.7246 30.3151 82.0137 30.1016C82.3027 29.888 82.4473 29.5495 82.4473 29.0859V27.9062H82.373C82.3027 28.0339 82.2025 28.1758 82.0723 28.332C81.9421 28.4883 81.7611 28.6237 81.5293 28.7383C81.3001 28.8529 81.002 28.9102 80.6348 28.9102C80.1634 28.9102 79.7376 28.7995 79.3574 28.5781C78.9798 28.3542 78.6803 28.0247 78.459 27.5898C78.2376 27.1523 78.127 26.6146 78.127 25.9766C78.127 25.3385 78.235 24.7917 78.4512 24.3359C78.6699 23.8802 78.9694 23.5312 79.3496 23.2891C79.7298 23.0443 80.1608 22.9219 80.6426 22.9219C81.015 22.9219 81.3158 22.9844 81.5449 23.1094C81.7767 23.2318 81.9564 23.375 82.084 23.5391C82.2142 23.7031 82.3132 23.8477 82.3809 23.9727H82.4668V23H83.6113V29.1328C83.6113 29.6432 83.4915 30.0625 83.252 30.3906C83.0124 30.7214 82.6882 30.9661 82.2793 31.125C81.873 31.2839 81.4147 31.3633 80.9043 31.3633ZM80.8926 27.9414C81.3978 27.9414 81.7845 27.7669 82.0527 27.418C82.3236 27.0664 82.459 26.5807 82.459 25.9609C82.459 25.3542 82.3249 24.862 82.0566 24.4844C81.791 24.1042 81.403 23.9141 80.8926 23.9141C80.541 23.9141 80.248 24.0052 80.0137 24.1875C79.7793 24.3672 79.6022 24.612 79.4824 24.9219C79.3652 25.2292 79.3066 25.5755 79.3066 25.9609C79.3066 26.5495 79.4408 27.0273 79.709 27.3945C79.9772 27.7591 80.3717 27.9414 80.8926 27.9414ZM87.7637 29.1211C87.1751 29.1211 86.6673 28.9935 86.2402 28.7383C85.8132 28.4831 85.4837 28.125 85.252 27.6641C85.0228 27.2005 84.9082 26.6589 84.9082 26.0391C84.9082 25.4245 85.0228 24.8828 85.252 24.4141C85.4837 23.9453 85.8066 23.5794 86.2207 23.3164C86.6374 23.0534 87.1243 22.9219 87.6816 22.9219C88.1348 22.9219 88.5632 23.0234 88.9668 23.2266C89.373 23.4271 89.7025 23.7487 89.9551 24.1914C90.2103 24.6315 90.3379 25.2135 90.3379 25.9375V26.3516H86.0723C86.0879 26.9297 86.2507 27.375 86.5605 27.6875C86.8704 28 87.2754 28.1562 87.7754 28.1562C88.1087 28.1562 88.3965 28.0846 88.6387 27.9414C88.8809 27.7982 89.054 27.5846 89.1582 27.3008L90.2637 27.5C90.1309 27.987 89.8444 28.3789 89.4043 28.6758C88.9642 28.9727 88.4173 29.1211 87.7637 29.1211ZM86.0762 25.4766H89.1934C89.1908 25.0182 89.0527 24.6393 88.7793 24.3398C88.5059 24.0378 88.1426 23.8867 87.6895 23.8867C87.3743 23.8867 87.0983 23.9609 86.8613 24.1094C86.627 24.2552 86.4408 24.4492 86.3027 24.6914C86.1673 24.931 86.0918 25.1927 86.0762 25.4766ZM96.1299 24.4648L95.0713 24.6523C95.0036 24.4518 94.8773 24.2682 94.6924 24.1016C94.5101 23.9323 94.2367 23.8477 93.8721 23.8477C93.5413 23.8477 93.264 23.9219 93.04 24.0703C92.8187 24.2161 92.7093 24.4049 92.7119 24.6367C92.7093 24.8398 92.7822 25.0026 92.9307 25.125C93.0817 25.2448 93.3226 25.3437 93.6533 25.4219L94.6064 25.6406C95.7002 25.8932 96.2471 26.4349 96.2471 27.2656C96.2471 27.6276 96.1429 27.9479 95.9346 28.2266C95.7288 28.5052 95.4411 28.724 95.0713 28.8828C94.7041 29.0417 94.2783 29.1211 93.7939 29.1211C93.1195 29.1211 92.5713 28.9779 92.1494 28.6914C91.7275 28.4023 91.4671 27.9922 91.3682 27.4609L92.4971 27.2891C92.6377 27.8828 93.0674 28.1797 93.7861 28.1797C94.1689 28.1797 94.4749 28.1003 94.7041 27.9414C94.9333 27.7799 95.0479 27.5833 95.0479 27.3516C95.0479 26.9687 94.7653 26.7148 94.2002 26.5898L93.1846 26.3672C92.6221 26.2422 92.208 26.0391 91.9424 25.7578C91.6768 25.4766 91.5439 25.1237 91.5439 24.6992C91.5439 24.3451 91.6429 24.0352 91.8408 23.7695C92.0387 23.5013 92.3122 23.293 92.6611 23.1445C93.0101 22.9961 93.4098 22.9219 93.8604 22.9219C94.5088 22.9219 95.0192 23.0625 95.3916 23.3437C95.764 23.625 96.0101 23.9987 96.1299 24.4648ZM100.332 23V23.9375H99.1016V27.2383C99.1016 27.5768 99.1732 27.7956 99.3164 27.8945C99.4622 27.9909 99.6302 28.0391 99.8203 28.0391C99.9141 28.0391 99.9961 28.0326 100.066 28.0195C100.137 28.0065 100.191 27.9961 100.23 27.9883L100.441 28.9531C100.374 28.9792 100.276 29.0052 100.148 29.0313C100.023 29.0599 99.8685 29.0755 99.6836 29.0781C99.3763 29.0833 99.0885 29.0286 98.8203 28.9141C98.5547 28.7995 98.3398 28.6224 98.1758 28.3828C98.0143 28.1432 97.9336 27.8424 97.9336 27.4805V23.9375H97.0547V23H97.9336V21.5625H99.1016V23H100.332ZM104.146 29.1211C103.557 29.1211 103.049 28.9935 102.622 28.7383C102.195 28.4831 101.866 28.125 101.634 27.6641C101.405 27.2005 101.29 26.6589 101.29 26.0391C101.29 25.4245 101.405 24.8828 101.634 24.4141C101.866 23.9453 102.188 23.5794 102.603 23.3164C103.019 23.0534 103.506 22.9219 104.063 22.9219C104.517 22.9219 104.945 23.0234 105.349 23.2266C105.755 23.4271 106.084 23.7487 106.337 24.1914C106.592 24.6315 106.72 25.2135 106.72 25.9375V26.3516H102.454C102.47 26.9297 102.632 27.375 102.942 27.6875C103.252 28 103.657 28.1562 104.157 28.1562C104.491 28.1562 104.778 28.0846 105.021 27.9414C105.263 27.7982 105.436 27.5846 105.54 27.3008L106.646 27.5C106.513 27.987 106.226 28.3789 105.786 28.6758C105.346 28.9727 104.799 29.1211 104.146 29.1211ZM102.458 25.4766H105.575C105.573 25.0182 105.435 24.6393 105.161 24.3398C104.888 24.0378 104.524 23.8867 104.071 23.8867C103.756 23.8867 103.48 23.9609 103.243 24.1094C103.009 24.2552 102.823 24.4492 102.685 24.6914C102.549 24.931 102.474 25.1927 102.458 25.4766ZM110.262 29.1172C109.777 29.1172 109.346 28.9935 108.969 28.7461C108.591 28.4987 108.294 28.1432 108.078 27.6797C107.862 27.2135 107.754 26.6576 107.754 26.0117C107.754 25.3633 107.862 24.8086 108.078 24.3477C108.297 23.8867 108.596 23.5339 108.977 23.2891C109.357 23.0443 109.788 22.9219 110.27 22.9219C110.642 22.9219 110.941 22.9844 111.168 23.1094C111.397 23.2318 111.574 23.375 111.699 23.5391C111.827 23.7031 111.926 23.8477 111.996 23.9727H112.066V21H113.234V29H112.094V28.0664H111.996C111.926 28.194 111.824 28.3398 111.691 28.5039C111.561 28.668 111.382 28.8112 111.152 28.9336C110.923 29.056 110.626 29.1172 110.262 29.1172ZM110.52 28.1211C111.025 28.1211 111.411 27.9258 111.68 27.5352C111.951 27.1419 112.086 26.6302 112.086 26C112.086 25.3724 111.952 24.8685 111.684 24.4883C111.418 24.1055 111.03 23.9141 110.52 23.9141C110.168 23.9141 109.875 24.0052 109.641 24.1875C109.406 24.3698 109.229 24.6185 109.109 24.9336C108.992 25.2461 108.934 25.6016 108.934 26C108.934 26.401 108.993 26.7617 109.113 27.082C109.233 27.4023 109.41 27.6562 109.645 27.8437C109.882 28.0286 110.173 28.1211 110.52 28.1211ZM117.813 31.25V23H118.953V23.9727H119.051C119.121 23.8477 119.219 23.7031 119.344 23.5391C119.471 23.375 119.648 23.2318 119.875 23.1094C120.104 22.9844 120.404 22.9219 120.773 22.9219C121.258 22.9219 121.689 23.0443 122.066 23.2891C122.447 23.5339 122.746 23.8867 122.965 24.3477C123.184 24.8086 123.293 25.3633 123.293 26.0117C123.293 26.6576 123.185 27.2135 122.969 27.6797C122.753 28.1432 122.456 28.4987 122.078 28.7461C121.701 28.9935 121.27 29.1172 120.785 29.1172C120.421 29.1172 120.124 29.056 119.895 28.9336C119.665 28.8112 119.484 28.668 119.352 28.5039C119.221 28.3398 119.121 28.194 119.051 28.0664H118.98V31.25H117.813ZM118.957 26C118.957 26.6302 119.092 27.1419 119.363 27.5352C119.634 27.9258 120.021 28.1211 120.523 28.1211C120.872 28.1211 121.164 28.0286 121.398 27.8437C121.635 27.6562 121.814 27.4023 121.934 27.082C122.053 26.7617 122.113 26.401 122.113 26C122.113 25.6016 122.053 25.2461 121.934 24.9336C121.816 24.6185 121.641 24.3698 121.406 24.1875C121.172 24.0052 120.878 23.9141 120.523 23.9141C120.013 23.9141 119.624 24.1055 119.355 24.4883C119.09 24.8685 118.957 25.3724 118.957 26ZM126.348 29.1328C125.967 29.1328 125.624 29.0625 125.316 28.9219C125.012 28.7812 124.77 28.5755 124.59 28.3047C124.41 28.0312 124.32 27.6979 124.32 27.3047C124.32 26.9635 124.385 26.6836 124.516 26.4648C124.648 26.2461 124.824 26.0729 125.043 25.9453C125.264 25.8177 125.512 25.7227 125.785 25.6602C126.059 25.5951 126.337 25.5456 126.621 25.5117C126.98 25.4701 127.271 25.4362 127.492 25.4102C127.716 25.3815 127.879 25.3359 127.98 25.2734C128.085 25.2109 128.137 25.1094 128.137 24.9687V24.9414C128.137 24.6003 128.04 24.3359 127.848 24.1484C127.658 23.9609 127.374 23.8672 126.996 23.8672C126.603 23.8672 126.293 23.9531 126.066 24.125C125.842 24.2969 125.688 24.4896 125.602 24.7031L124.504 24.4531C124.699 23.9062 125.025 23.5143 125.48 23.2773C125.939 23.0404 126.439 22.9219 126.98 22.9219C127.22 22.9219 127.474 22.9505 127.742 23.0078C128.01 23.0625 128.263 23.1654 128.5 23.3164C128.74 23.4648 128.934 23.6758 129.082 23.9492C129.233 24.2227 129.309 24.5781 129.309 25.0156V29H128.168V28.1797H128.121C128.009 28.4036 127.81 28.6185 127.523 28.8242C127.237 29.0299 126.845 29.1328 126.348 29.1328ZM126.602 28.1953C126.927 28.1953 127.204 28.1315 127.434 28.0039C127.663 27.8763 127.837 27.7096 127.957 27.5039C128.079 27.2956 128.141 27.0729 128.141 26.8359V26.0625C128.086 26.1172 127.966 26.1654 127.781 26.207C127.596 26.2487 127.401 26.2839 127.195 26.3125C126.99 26.3411 126.823 26.3646 126.695 26.3828C126.357 26.4271 126.066 26.5169 125.824 26.6523C125.585 26.7852 125.465 27.0078 125.465 27.3203C125.465 27.6094 125.572 27.8281 125.785 27.9766C125.999 28.1224 126.271 28.1953 126.602 28.1953ZM135.36 24.4648L134.302 24.6523C134.234 24.4518 134.108 24.2682 133.923 24.1016C133.741 23.9323 133.467 23.8477 133.103 23.8477C132.772 23.8477 132.494 23.9219 132.271 24.0703C132.049 24.2161 131.94 24.4049 131.942 24.6367C131.94 24.8398 132.013 25.0026 132.161 25.125C132.312 25.2448 132.553 25.3437 132.884 25.4219L133.837 25.6406C134.931 25.8932 135.478 26.4349 135.478 27.2656C135.478 27.6276 135.373 27.9479 135.165 28.2266C134.959 28.5052 134.672 28.724 134.302 28.8828C133.935 29.0417 133.509 29.1211 133.024 29.1211C132.35 29.1211 131.802 28.9779 131.38 28.6914C130.958 28.4023 130.698 27.9922 130.599 27.4609L131.728 27.2891C131.868 27.8828 132.298 28.1797 133.017 28.1797C133.399 28.1797 133.705 28.1003 133.935 27.9414C134.164 27.7799 134.278 27.5833 134.278 27.3516C134.278 26.9687 133.996 26.7148 133.431 26.5898L132.415 26.3672C131.853 26.2422 131.438 26.0391 131.173 25.7578C130.907 25.4766 130.774 25.1237 130.774 24.6992C130.774 24.3451 130.873 24.0352 131.071 23.7695C131.269 23.5013 131.543 23.293 131.892 23.1445C132.241 22.9961 132.64 22.9219 133.091 22.9219C133.739 22.9219 134.25 23.0625 134.622 23.3437C134.994 23.625 135.241 23.9987 135.36 24.4648ZM141.258 24.4648L140.199 24.6523C140.132 24.4518 140.005 24.2682 139.82 24.1016C139.638 23.9323 139.365 23.8477 139 23.8477C138.669 23.8477 138.392 23.9219 138.168 24.0703C137.947 24.2161 137.837 24.4049 137.84 24.6367C137.837 24.8398 137.91 25.0026 138.059 25.125C138.21 25.2448 138.451 25.3437 138.781 25.4219L139.734 25.6406C140.828 25.8932 141.375 26.4349 141.375 27.2656C141.375 27.6276 141.271 27.9479 141.063 28.2266C140.857 28.5052 140.569 28.724 140.199 28.8828C139.832 29.0417 139.406 29.1211 138.922 29.1211C138.247 29.1211 137.699 28.9779 137.277 28.6914C136.855 28.4023 136.595 27.9922 136.496 27.4609L137.625 27.2891C137.766 27.8828 138.195 28.1797 138.914 28.1797C139.297 28.1797 139.603 28.1003 139.832 27.9414C140.061 27.7799 140.176 27.5833 140.176 27.3516C140.176 26.9687 139.893 26.7148 139.328 26.5898L138.313 26.3672C137.75 26.2422 137.336 26.0391 137.07 25.7578C136.805 25.4766 136.672 25.1237 136.672 24.6992C136.672 24.3451 136.771 24.0352 136.969 23.7695C137.167 23.5013 137.44 23.293 137.789 23.1445C138.138 22.9961 138.538 22.9219 138.988 22.9219C139.637 22.9219 140.147 23.0625 140.52 23.3437C140.892 23.625 141.138 23.9987 141.258 24.4648ZM143.96 29L142.194 23H143.401L144.577 27.4062H144.636L145.815 23H147.022L148.194 27.3867H148.253L149.421 23H150.628L148.866 29H147.675L146.456 24.668H146.366L145.147 29H143.96ZM154.081 29.1211C153.519 29.1211 153.028 28.9922 152.608 28.7344C152.189 28.4766 151.864 28.1159 151.632 27.6523C151.4 27.1862 151.284 26.6445 151.284 26.0273C151.284 25.4049 151.4 24.8607 151.632 24.3945C151.864 23.9284 152.189 23.5664 152.608 23.3086C153.028 23.0508 153.519 22.9219 154.081 22.9219C154.646 22.9219 155.137 23.0508 155.554 23.3086C155.973 23.5664 156.299 23.9284 156.53 24.3945C156.762 24.8607 156.878 25.4049 156.878 26.0273C156.878 26.6445 156.762 27.1862 156.53 27.6523C156.299 28.1159 155.973 28.4766 155.554 28.7344C155.137 28.9922 154.646 29.1211 154.081 29.1211ZM154.085 28.1406C154.452 28.1406 154.754 28.0443 154.991 27.8516C155.231 27.6589 155.408 27.4023 155.522 27.082C155.64 26.7591 155.698 26.4062 155.698 26.0234C155.698 25.6406 155.64 25.2878 155.522 24.9648C155.408 24.6419 155.231 24.3841 154.991 24.1914C154.754 23.9961 154.452 23.8984 154.085 23.8984C153.718 23.8984 153.414 23.9961 153.175 24.1914C152.935 24.3841 152.757 24.6419 152.64 24.9648C152.522 25.2878 152.464 25.6406 152.464 26.0234C152.464 26.4062 152.522 26.7591 152.64 27.082C152.757 27.4023 152.935 27.6589 153.175 27.8516C153.414 28.0443 153.718 28.1406 154.085 28.1406ZM158.182 29V23H159.311V23.9531H159.373C159.482 23.6302 159.675 23.3763 159.951 23.1914C160.23 23.0039 160.545 22.9102 160.896 22.9102C160.972 22.9102 161.059 22.9128 161.158 22.918C161.257 22.9232 161.335 22.9297 161.393 22.9375V24.0547C161.346 24.0417 161.262 24.0273 161.143 24.0117C161.025 23.9935 160.906 23.9844 160.783 23.9844C160.369 23.9844 160.027 24.112 159.756 24.3672C159.485 24.6198 159.35 24.9427 159.35 25.3359V29H158.182ZM164.435 29.1172C163.95 29.1172 163.519 28.9935 163.142 28.7461C162.764 28.4987 162.467 28.1432 162.251 27.6797C162.035 27.2135 161.927 26.6576 161.927 26.0117C161.927 25.3633 162.035 24.8086 162.251 24.3477C162.47 23.8867 162.769 23.5339 163.149 23.2891C163.53 23.0443 163.961 22.9219 164.442 22.9219C164.815 22.9219 165.114 22.9844 165.341 23.1094C165.57 23.2318 165.747 23.375 165.872 23.5391C166 23.7031 166.099 23.8477 166.169 23.9727H166.239V21H167.407V29H166.267V28.0664H166.169C166.099 28.194 165.997 28.3398 165.864 28.5039C165.734 28.668 165.554 28.8112 165.325 28.9336C165.096 29.056 164.799 29.1172 164.435 29.1172ZM164.692 28.1211C165.198 28.1211 165.584 27.9258 165.853 27.5352C166.123 27.1419 166.259 26.6302 166.259 26C166.259 25.3724 166.125 24.8685 165.856 24.4883C165.591 24.1055 165.203 23.9141 164.692 23.9141C164.341 23.9141 164.048 24.0052 163.813 24.1875C163.579 24.3698 163.402 24.6185 163.282 24.9336C163.165 25.2461 163.106 25.6016 163.106 26C163.106 26.401 163.166 26.7617 163.286 27.082C163.406 27.4023 163.583 27.6562 163.817 27.8437C164.054 28.0286 164.346 28.1211 164.692 28.1211Z" fill="#277525" fill-opacity="0.6"/>
<g filter="url(#filter1_d)">
<rect x="30" y="38" width="261" height="25" rx="2" fill="white"/>
</g>
<path d="M42.0533 45.3931C42.4749 45.3962 42.8888 45.4731 43.2951 45.6239C43.7044 45.7717 44.0753 46.0179 44.4077 46.3626C44.7431 46.7073 45.0094 47.172 45.2063 47.7567C45.4064 48.3384 45.5064 49.0632 45.5064 49.9311C45.5064 51.0329 45.3602 51.9716 45.0678 52.7472C44.7785 53.5227 44.3661 54.1136 43.8306 54.5199C43.2982 54.9261 42.6657 55.1293 41.9332 55.1293C41.37 55.1293 40.8699 55.0185 40.4329 54.7969C39.9959 54.5722 39.6404 54.2644 39.3665 53.8736C39.0956 53.4796 38.9248 53.0288 38.854 52.521H40.2621C40.3544 52.9241 40.5421 53.2519 40.8253 53.5043C41.1115 53.7566 41.4808 53.8828 41.9332 53.8828C42.6257 53.8828 43.1658 53.5812 43.5536 52.978C43.9414 52.3717 44.1368 51.5253 44.1399 50.4389H44.0661C43.8229 50.8359 43.4967 51.1499 43.0874 51.3807C42.678 51.6084 42.2225 51.7223 41.7209 51.7223C41.1761 51.7223 40.6806 51.5884 40.2344 51.3207C39.7881 51.0529 39.4326 50.6851 39.168 50.2173C38.9033 49.7495 38.771 49.214 38.771 48.6108C38.771 48.0076 38.9064 47.4628 39.1772 46.9766C39.448 46.4872 39.8297 46.0994 40.3221 45.8132C40.8145 45.527 41.3916 45.387 42.0533 45.3931ZM42.0579 46.5934C41.6978 46.5934 41.3731 46.6826 41.0838 46.8612C40.7976 47.0397 40.5714 47.2797 40.4052 47.5813C40.239 47.8829 40.1559 48.2199 40.1559 48.5923C40.1559 48.9586 40.2359 49.291 40.396 49.5895C40.5591 49.8849 40.7822 50.1204 41.0653 50.2958C41.3485 50.4712 41.6701 50.5589 42.0302 50.5589C42.3903 50.5589 42.7165 50.4682 43.0089 50.2866C43.3013 50.1019 43.5321 49.8588 43.7013 49.5572C43.8737 49.2556 43.9599 48.9293 43.9599 48.5785C43.9599 48.2246 43.8768 47.8983 43.7106 47.5998C43.5475 47.2982 43.3228 47.055 43.0366 46.8704C42.7504 46.6857 42.4241 46.5934 42.0579 46.5934ZM47.3034 55V45.5455H48.6837V49.0586H48.7668C48.8499 48.9109 48.9653 48.7401 49.113 48.5462C49.2638 48.3523 49.4731 48.183 49.7409 48.0384C50.0117 47.8906 50.3656 47.8168 50.8026 47.8168C51.3751 47.8168 51.8844 47.9614 52.3307 48.2507C52.78 48.54 53.134 48.957 53.3925 49.5018C53.651 50.0465 53.7803 50.7021 53.7803 51.4684C53.7803 52.2317 53.6526 52.8887 53.3971 53.4396C53.1417 53.9875 52.7908 54.4076 52.3445 54.6999C51.8983 54.9923 51.3889 55.1385 50.8165 55.1385C50.3856 55.1385 50.0348 55.0662 49.7639 54.9215C49.4931 54.7769 49.2792 54.6076 49.1222 54.4137C48.9684 54.2198 48.8499 54.0475 48.7668 53.8967H48.6514V55H47.3034ZM48.656 51.4545C48.656 52.1993 48.816 52.8041 49.1361 53.2688C49.4562 53.7305 49.9132 53.9613 50.5072 53.9613C50.9196 53.9613 51.2643 53.852 51.5413 53.6335C51.8213 53.4119 52.0322 53.1119 52.1737 52.7333C52.3153 52.3548 52.3861 51.9285 52.3861 51.4545C52.3861 50.9837 52.3153 50.5636 52.1737 50.1942C52.0352 49.8219 51.8275 49.5279 51.5505 49.3125C51.2735 49.0971 50.9258 48.9893 50.5072 48.9893C49.904 48.9893 49.4439 49.2156 49.1269 49.668C48.8129 50.1173 48.656 50.7128 48.656 51.4545ZM58.6033 55.157C57.5108 55.1539 56.6598 54.7261 56.0504 53.8736C55.4411 53.0211 55.1364 51.8223 55.1364 50.2773C55.1394 48.7385 55.4472 47.5444 56.0597 46.695C56.6721 45.8424 57.52 45.4162 58.6033 45.4162C59.6867 45.4162 60.5346 45.8424 61.147 46.695C61.7595 47.5444 62.0657 48.7385 62.0657 50.2773C62.0657 51.8254 61.761 53.0257 61.1516 53.8782C60.5453 54.7307 59.6959 55.157 58.6033 55.157ZM58.6033 53.9244C59.2404 53.9244 59.7405 53.612 60.1037 52.9872C60.4669 52.3625 60.6484 51.4592 60.6484 50.2773C60.6484 49.0986 60.4653 48.1953 60.0991 47.5675C59.7359 46.9396 59.2373 46.6257 58.6033 46.6257C57.9663 46.6257 57.4661 46.9396 57.103 47.5675C56.7398 48.1953 56.5567 49.0986 56.5536 50.2773C56.5536 51.4592 56.7352 52.3625 57.0984 52.9872C57.4615 53.612 57.9632 53.9244 58.6033 53.9244ZM63.768 55L67.8952 46.8381V46.7688H63.1217V45.5455H69.3724V46.8104L65.2591 55H63.768ZM70.0176 53.1534V51.9993L74.1032 45.5455H75.862V51.9439H77.1131V53.1534H75.862V55H74.5002V53.1534H70.0176ZM74.5094 51.9439V47.2443H74.4355L71.5133 51.87V51.9439H74.5094ZM82.1151 47.9091V49.017H80.587V55H79.2021V49.017H78.108V47.9091H79.2021V47.0874C79.2021 46.6442 79.299 46.2764 79.4929 45.984C79.6899 45.6886 79.9484 45.4685 80.2685 45.3239C80.5885 45.1761 80.9348 45.1023 81.3072 45.1023C81.5872 45.1023 81.8258 45.1254 82.0227 45.1715C82.2197 45.2146 82.3659 45.2546 82.4613 45.2915L82.1381 46.4087C82.0735 46.3872 81.9904 46.3641 81.8888 46.3395C81.7873 46.3149 81.6642 46.3026 81.5195 46.3026C81.1841 46.3026 80.944 46.3857 80.7994 46.5518C80.6578 46.718 80.587 46.9581 80.587 47.272V47.9091H82.1151ZM83.5208 55V53.9659L86.72 50.6513C87.0585 50.2912 87.3401 49.9757 87.5648 49.7049C87.7895 49.431 87.9572 49.1709 88.068 48.9247C88.1788 48.6785 88.2342 48.4169 88.2342 48.1399C88.2342 47.669 88.0726 47.2966 87.7495 47.0227C87.4263 46.7457 87.0247 46.6072 86.5446 46.6072C86.0337 46.6072 85.6259 46.7611 85.3212 47.0689C85.0196 47.3736 84.8703 47.7798 84.8734 48.2876H83.5115C83.5115 47.7121 83.6439 47.2089 83.9086 46.7781C84.1732 46.3472 84.5364 46.0133 84.998 45.7763C85.4597 45.5362 85.9844 45.4162 86.5723 45.4162C87.1663 45.4162 87.6895 45.5347 88.1419 45.7717C88.5974 46.0056 88.9528 46.3256 89.2083 46.7319C89.4637 47.1351 89.5914 47.5906 89.5914 48.0984C89.5914 48.4492 89.5253 48.7924 89.3929 49.1278C89.2637 49.4633 89.0375 49.8372 88.7143 50.2496C88.3942 50.659 87.9449 51.156 87.3663 51.7408L85.4874 53.7074V53.7766H89.7438V55H83.5208ZM97.6795 57.6591V47.9091H96.3315V49.0586H96.2161C96.133 48.9109 96.016 48.7401 95.8652 48.5462C95.7175 48.3523 95.5082 48.183 95.2374 48.0384C94.9696 47.8906 94.6172 47.8168 94.1802 47.8168C93.6078 47.8168 93.0969 47.9614 92.6475 48.2507C92.2013 48.54 91.8489 48.957 91.5904 49.5018C91.3319 50.0465 91.2026 50.7021 91.2026 51.4684C91.2026 52.2317 91.3303 52.8887 91.5858 53.4396C91.8412 53.9875 92.1921 54.4076 92.6383 54.6999C93.0846 54.9923 93.5939 55.1385 94.1664 55.1385C94.5972 55.1385 94.9481 55.0662 95.2189 54.9215C95.4898 54.7769 95.7021 54.6076 95.856 54.4137C96.013 54.2198 96.133 54.0475 96.2161 53.8967H96.2992V57.6591H97.6795ZM96.3269 51.4545C96.3269 52.1993 96.1668 52.8041 95.8468 53.2688C95.5267 53.7305 95.0697 53.9613 94.4757 53.9613C94.0633 53.9613 93.717 53.852 93.437 53.6335C93.16 53.4119 92.9507 53.1119 92.8091 52.7333C92.6676 52.3548 92.5968 51.9285 92.5968 51.4545C92.5968 50.9837 92.666 50.5636 92.8045 50.1942C92.9461 49.8219 93.1554 49.5279 93.4324 49.3125C93.7093 49.0971 94.0571 48.9893 94.4757 48.9893C95.0789 48.9893 95.5375 49.2156 95.8514 49.668C96.1684 50.1173 96.3269 50.7128 96.3269 51.4545ZM99.5169 55V53.9659L102.716 50.6513C103.055 50.2912 103.336 49.9757 103.561 49.7049C103.786 49.431 103.953 49.1709 104.064 48.9247C104.175 48.6785 104.23 48.4169 104.23 48.1399C104.23 47.669 104.069 47.2966 103.746 47.0227C103.422 46.7457 103.021 46.6072 102.541 46.6072C102.03 46.6072 101.622 46.7611 101.317 47.0689C101.016 47.3736 100.866 47.7798 100.869 48.2876H99.5076C99.5076 47.7121 99.64 47.2089 99.9047 46.7781C100.169 46.3472 100.532 46.0133 100.994 45.7763C101.456 45.5362 101.981 45.4162 102.568 45.4162C103.162 45.4162 103.686 45.5347 104.138 45.7717C104.593 46.0056 104.949 46.3256 105.204 46.7319C105.46 47.1351 105.588 47.5906 105.588 48.0984C105.588 48.4492 105.521 48.7924 105.389 49.1278C105.26 49.4633 105.034 49.8372 104.71 50.2496C104.39 50.659 103.941 51.156 103.362 51.7408L101.483 53.7074V53.7766H105.74V55H99.5169ZM109.47 50.8636L109.558 48.9155L107.914 49.9727L107.411 49.0955L109.156 48.2045L107.411 47.3136L107.914 46.4364L109.558 47.4936L109.47 45.5455H110.472L110.384 47.4936L112.028 46.4364L112.531 47.3136L110.786 48.2045L112.531 49.0955L112.028 49.9727L110.384 48.9155L110.472 50.8636H109.47ZM116.594 55.1339C115.96 55.1339 115.414 55.02 114.956 54.7923C114.5 54.5614 114.149 54.246 113.903 53.8459C113.657 53.4458 113.534 52.9934 113.534 52.4886C113.534 51.9254 113.701 51.4499 114.037 51.0621C114.372 50.6713 114.809 50.2897 115.348 49.9173C115.049 49.5541 114.802 49.1955 114.605 48.8416C114.408 48.4877 114.309 48.0999 114.309 47.6783C114.309 47.2412 114.408 46.855 114.605 46.5195C114.805 46.1841 115.083 45.9209 115.44 45.7301C115.797 45.5393 116.216 45.4439 116.696 45.4439C117.182 45.4439 117.599 45.5393 117.947 45.7301C118.298 45.9179 118.567 46.1687 118.755 46.4826C118.946 46.7934 119.041 47.1335 119.041 47.5028C119.041 47.9522 118.93 48.3492 118.709 48.6939C118.487 49.0355 118.179 49.3494 117.785 49.6357L117.139 50.1112L119.032 52.3732C119.155 52.1362 119.25 51.8793 119.318 51.6023C119.389 51.3222 119.424 51.0237 119.424 50.7067H120.671C120.671 51.3622 120.589 51.907 120.426 52.3409C120.266 52.7749 120.086 53.1257 119.886 53.3935L121.229 55H119.669L119.032 54.2521C118.712 54.5507 118.332 54.7723 117.892 54.9169C117.451 55.0616 117.019 55.1339 116.594 55.1339ZM118.256 53.3381L116.137 50.8498L115.888 51.0344C115.519 51.3053 115.262 51.573 115.117 51.8377C114.976 52.1024 114.905 52.3071 114.905 52.4517C114.905 52.861 115.059 53.2165 115.366 53.5181C115.677 53.8166 116.088 53.9659 116.599 53.9659C117.199 53.9659 117.752 53.7566 118.256 53.3381ZM116.377 49.1925L116.959 48.7816C117.215 48.6123 117.415 48.4338 117.559 48.2461C117.707 48.0553 117.781 47.8198 117.781 47.5398C117.781 47.3182 117.685 47.1058 117.495 46.9027C117.304 46.6996 117.048 46.598 116.728 46.598C116.396 46.598 116.127 46.7134 115.92 46.9442C115.714 47.1751 115.611 47.4274 115.611 47.7013C115.611 47.9414 115.685 48.1845 115.833 48.4308C115.98 48.6739 116.162 48.9278 116.377 49.1925ZM122.712 50.2727C122.712 49.1155 122.865 48.0507 123.169 47.0781C123.474 46.1056 123.919 45.2085 124.504 44.3867H125.768C125.467 44.793 125.193 45.3177 124.947 45.9609C124.701 46.6042 124.505 47.3013 124.36 48.0522C124.216 48.8001 124.143 49.5402 124.143 50.2727C124.143 51.0052 124.216 51.7469 124.36 52.4979C124.505 53.2488 124.701 53.9459 124.947 54.5891C125.193 55.2324 125.467 55.7571 125.768 56.1634H124.504C123.919 55.3416 123.474 54.4445 123.169 53.4719C122.865 52.4963 122.712 51.4299 122.712 50.2727ZM129.186 50.8636L129.274 48.9155L127.63 49.9727L127.127 49.0955L128.872 48.2045L127.127 47.3136L127.63 46.4364L129.274 47.4936L129.186 45.5455H130.188L130.1 47.4936L131.743 46.4364L132.247 47.3136L130.502 48.2045L132.247 49.0955L131.743 49.9727L130.1 48.9155L130.188 50.8636H129.186ZM136.31 55.1339C135.676 55.1339 135.13 55.02 134.671 54.7923C134.216 54.5614 133.865 54.246 133.619 53.8459C133.373 53.4458 133.249 52.9934 133.249 52.4886C133.249 51.9254 133.417 51.4499 133.753 51.0621C134.088 50.6713 134.525 50.2897 135.064 49.9173C134.765 49.5541 134.517 49.1955 134.32 48.8416C134.124 48.4877 134.025 48.0999 134.025 47.6783C134.025 47.2412 134.124 46.855 134.32 46.5195C134.521 46.1841 134.799 45.9209 135.156 45.7301C135.513 45.5393 135.932 45.4439 136.412 45.4439C136.898 45.4439 137.315 45.5393 137.663 45.7301C138.014 45.9179 138.283 46.1687 138.471 46.4826C138.662 46.7934 138.757 47.1335 138.757 47.5028C138.757 47.9522 138.646 48.3492 138.425 48.6939C138.203 49.0355 137.895 49.3494 137.501 49.6357L136.855 50.1112L138.748 52.3732C138.871 52.1362 138.966 51.8793 139.034 51.6023C139.105 51.3222 139.14 51.0237 139.14 50.7067H140.387C140.387 51.3622 140.305 51.907 140.142 52.3409C139.982 52.7749 139.802 53.1257 139.602 53.3935L140.945 55H139.385L138.748 54.2521C138.428 54.5507 138.048 54.7723 137.607 54.9169C137.167 55.0616 136.735 55.1339 136.31 55.1339ZM137.972 53.3381L135.853 50.8498L135.604 51.0344C135.235 51.3053 134.978 51.573 134.833 51.8377C134.691 52.1024 134.621 52.3071 134.621 52.4517C134.621 52.861 134.774 53.2165 135.082 53.5181C135.393 53.8166 135.804 53.9659 136.315 53.9659C136.915 53.9659 137.467 53.7566 137.972 53.3381ZM136.093 49.1925L136.675 48.7816C136.93 48.6123 137.13 48.4338 137.275 48.2461C137.423 48.0553 137.497 47.8198 137.497 47.5398C137.497 47.3182 137.401 47.1058 137.21 46.9027C137.02 46.6996 136.764 46.598 136.444 46.598C136.112 46.598 135.842 46.7134 135.636 46.9442C135.43 47.1751 135.327 47.4274 135.327 47.7013C135.327 47.9414 135.401 48.1845 135.548 48.4308C135.696 48.6739 135.878 48.9278 136.093 49.1925ZM148.434 55H141.971V53.772H142.419C142.588 53.7628 142.716 53.6781 142.802 53.5181C142.891 53.3581 142.951 53.1703 142.982 52.9549C143.013 52.7364 143.025 52.5394 143.019 52.364L142.982 51.2976H141.939V50.0696H142.941L142.885 48.343C142.864 47.6967 142.985 47.1566 143.25 46.7227C143.515 46.2887 143.869 45.9625 144.312 45.744C144.755 45.5254 145.232 45.4162 145.743 45.4162C146.349 45.4162 146.874 45.547 147.317 45.8086C147.763 46.0671 148.093 46.4072 148.305 46.8288C148.52 47.2505 148.585 47.706 148.499 48.1953L147.165 47.983C147.195 47.6813 147.148 47.4305 147.022 47.2305C146.895 47.0304 146.722 46.8796 146.5 46.7781C146.281 46.6765 146.046 46.6257 145.794 46.6257C145.532 46.6257 145.284 46.6873 145.05 46.8104C144.816 46.9304 144.626 47.1181 144.478 47.3736C144.33 47.6259 144.256 47.9491 144.256 48.343L144.321 50.0696H146.495V51.2976H144.367L144.404 52.3271C144.416 52.6164 144.393 52.8841 144.335 53.1303C144.279 53.3735 144.178 53.5874 144.03 53.772H148.434V55ZM154.146 55L158.273 46.8381V46.7688H153.5V45.5455H159.75V46.8104L155.637 55H154.146ZM167.542 57.6591V47.9091H166.194V49.0586H166.078C165.995 48.9109 165.878 48.7401 165.728 48.5462C165.58 48.3523 165.371 48.183 165.1 48.0384C164.832 47.8906 164.48 47.8168 164.043 47.8168C163.47 47.8168 162.959 47.9614 162.51 48.2507C162.064 48.54 161.711 48.957 161.453 49.5018C161.194 50.0465 161.065 50.7021 161.065 51.4684C161.065 52.2317 161.193 52.8887 161.448 53.4396C161.704 53.9875 162.054 54.4076 162.501 54.6999C162.947 54.9923 163.456 55.1385 164.029 55.1385C164.46 55.1385 164.81 55.0662 165.081 54.9215C165.352 54.7769 165.564 54.6076 165.718 54.4137C165.875 54.2198 165.995 54.0475 166.078 53.8967H166.161V57.6591H167.542ZM166.189 51.4545C166.189 52.1993 166.029 52.8041 165.709 53.2688C165.389 53.7305 164.932 53.9613 164.338 53.9613C163.926 53.9613 163.579 53.852 163.299 53.6335C163.022 53.4119 162.813 53.1119 162.671 52.7333C162.53 52.3548 162.459 51.9285 162.459 51.4545C162.459 50.9837 162.528 50.5636 162.667 50.1942C162.808 49.8219 163.018 49.5279 163.295 49.3125C163.572 49.0971 163.919 48.9893 164.338 48.9893C164.941 48.9893 165.4 49.2156 165.714 49.668C166.031 50.1173 166.189 50.7128 166.189 51.4545ZM172.454 55.1431C171.758 55.1431 171.158 54.9923 170.653 54.6907C170.149 54.3891 169.759 53.9659 169.485 53.4212C169.215 52.8733 169.079 52.2332 169.079 51.5007C169.079 50.7744 169.215 50.1342 169.485 49.5803C169.759 49.0263 170.141 48.5939 170.63 48.283C171.123 47.9722 171.698 47.8168 172.357 47.8168C172.892 47.8168 173.399 47.9368 173.876 48.1768C174.356 48.4138 174.745 48.7939 175.044 49.3171C175.345 49.8372 175.496 50.5251 175.496 51.3807V51.87H170.455C170.473 52.5533 170.666 53.0795 171.032 53.4489C171.398 53.8182 171.877 54.0028 172.468 54.0028C172.862 54.0028 173.202 53.9182 173.488 53.7489C173.774 53.5797 173.979 53.3273 174.102 52.9918L175.408 53.2273C175.251 53.8028 174.913 54.266 174.393 54.6168C173.873 54.9677 173.226 55.1431 172.454 55.1431ZM170.459 50.8359H174.143C174.14 50.2943 173.977 49.8465 173.654 49.4925C173.331 49.1355 172.902 48.957 172.366 48.957C171.994 48.957 171.667 49.0447 171.387 49.2202C171.11 49.3925 170.89 49.6218 170.727 49.908C170.567 50.1912 170.478 50.5005 170.459 50.8359ZM180.014 55.1431C179.328 55.1431 178.737 54.9877 178.242 54.6768C177.749 54.3629 177.371 53.9305 177.106 53.3796C176.841 52.8287 176.709 52.1978 176.709 51.4869C176.709 50.7636 176.844 50.1265 177.115 49.5756C177.386 49.0247 177.768 48.5939 178.26 48.283C178.756 47.9722 179.336 47.8168 180.001 47.8168C180.539 47.8168 181.019 47.9168 181.441 48.1168C181.863 48.3138 182.203 48.5908 182.461 48.9478C182.723 49.3048 182.878 49.7218 182.927 50.1989H181.584C181.51 49.8665 181.341 49.5803 181.076 49.3402C180.815 49.1001 180.464 48.9801 180.024 48.9801C179.448 48.9801 178.983 49.2032 178.629 49.6495C178.279 50.0927 178.103 50.6944 178.103 51.4545C178.103 52.227 178.277 52.841 178.625 53.2965C178.973 53.7489 179.439 53.9751 180.024 53.9751C180.418 53.9751 180.755 53.8674 181.035 53.652C181.315 53.4366 181.498 53.138 181.584 52.7564H182.927C182.878 53.215 182.729 53.6243 182.48 53.9844C182.23 54.3445 181.896 54.6276 181.478 54.8338C181.062 55.04 180.575 55.1431 180.014 55.1431ZM185.941 55L183.854 47.9091H185.281L186.67 53.1165H186.739L188.134 47.9091H189.56L190.945 53.0934H191.014L192.395 47.9091H193.821L191.739 55H190.331L188.891 49.8803H188.785L187.344 55H185.941ZM198.256 45.3931C198.678 45.3962 199.092 45.4731 199.498 45.6239C199.908 45.7717 200.278 46.0179 200.611 46.3626C200.946 46.7073 201.212 47.172 201.409 47.7567C201.609 48.3384 201.71 49.0632 201.71 49.9311C201.71 51.0329 201.563 51.9716 201.271 52.7472C200.982 53.5227 200.569 54.1136 200.034 54.5199C199.501 54.9261 198.869 55.1293 198.136 55.1293C197.573 55.1293 197.073 55.0185 196.636 54.7969C196.199 54.5722 195.844 54.2644 195.57 53.8736C195.299 53.4796 195.128 53.0288 195.057 52.521H196.465C196.558 52.9241 196.745 53.2519 197.028 53.5043C197.315 53.7566 197.684 53.8828 198.136 53.8828C198.829 53.8828 199.369 53.5812 199.757 52.978C200.145 52.3717 200.34 51.5253 200.343 50.4389H200.269C200.026 50.8359 199.7 51.1499 199.29 51.3807C198.881 51.6084 198.426 51.7223 197.924 51.7223C197.379 51.7223 196.884 51.5884 196.438 51.3207C195.991 51.0529 195.636 50.6851 195.371 50.2173C195.106 49.7495 194.974 49.214 194.974 48.6108C194.974 48.0076 195.109 47.4628 195.38 46.9766C195.651 46.4872 196.033 46.0994 196.525 45.8132C197.018 45.527 197.595 45.387 198.256 45.3931ZM198.261 46.5934C197.901 46.5934 197.576 46.6826 197.287 46.8612C197.001 47.0397 196.775 47.2797 196.608 47.5813C196.442 47.8829 196.359 48.2199 196.359 48.5923C196.359 48.9586 196.439 49.291 196.599 49.5895C196.762 49.8849 196.985 50.1204 197.268 50.2958C197.552 50.4712 197.873 50.5589 198.233 50.5589C198.593 50.5589 198.92 50.4682 199.212 50.2866C199.504 50.1019 199.735 49.8588 199.904 49.5572C200.077 49.2556 200.163 48.9293 200.163 48.5785C200.163 48.2246 200.08 47.8983 199.914 47.5998C199.751 47.2982 199.526 47.055 199.24 46.8704C198.953 46.6857 198.627 46.5934 198.261 46.5934ZM205.358 50.8636L205.445 48.9155L203.802 49.9727L203.299 49.0955L205.044 48.2045L203.299 47.3136L203.802 46.4364L205.445 47.4936L205.358 45.5455H206.359L206.272 47.4936L207.915 46.4364L208.418 47.3136L206.673 48.2045L208.418 49.0955L207.915 49.9727L206.272 48.9155L206.359 50.8636H205.358ZM210.577 51.076C210.577 49.9188 210.729 48.8539 211.034 47.8814C211.338 46.9089 211.783 46.0117 212.368 45.19H213.633C213.331 45.5962 213.057 46.121 212.811 46.7642C212.565 47.4074 212.369 48.1045 212.225 48.8555C212.08 49.6033 212.008 50.3435 212.008 51.076C212.008 51.8085 212.08 52.5502 212.225 53.3011C212.369 54.0521 212.565 54.7492 212.811 55.3924C213.057 56.0356 213.331 56.5604 213.633 56.9666H212.368C211.783 56.1449 211.338 55.2478 211.034 54.2752C210.729 53.2996 210.577 52.2332 210.577 51.076Z" fill="#737373"/>
<rect x="256" y="40" width="33" height="21" rx="1.5" fill="#9DAF9D"/>
<path d="M269.25 45.5V43.25C269.25 43.0511 269.329 42.8603 269.47 42.7197C269.61 42.579 269.801 42.5 270 42.5H279C279.199 42.5 279.39 42.579 279.53 42.7197C279.671 42.8603 279.75 43.0511 279.75 43.25V53.75C279.75 53.9489 279.671 54.1397 279.53 54.2803C279.39 54.421 279.199 54.5 279 54.5H276.75V56.75C276.75 57.164 276.413 57.5 275.995 57.5H267.005C266.906 57.5006 266.808 57.4816 266.717 57.4442C266.625 57.4068 266.542 57.3517 266.472 57.282C266.402 57.2123 266.346 57.1294 266.308 57.0381C266.27 56.9468 266.25 56.8489 266.25 56.75L266.252 46.25C266.252 45.836 266.59 45.5 267.008 45.5H269.25ZM270.75 45.5H276.75V53H278.25V44H270.75V45.5ZM269.25 49.25V50.75H273.75V49.25H269.25ZM269.25 52.25V53.75H273.75V52.25H269.25Z" fill="white"/>
<defs>
<filter id="filter0_d" x="5" y="0" width="310" height="110.356" filterUnits="userSpaceOnUse" color-interpolation-filters="sRGB">
<feFlood flood-opacity="0" result="BackgroundImageFix"/>
<feColorMatrix in="SourceAlpha" type="matrix" values="0 0 0 0 0 0 0 0 0 0 0 0 0 0 0 0 0 0 127 0"/>
<feOffset dy="3"/>
<feGaussianBlur stdDeviation="7.5"/>
<feColorMatrix type="matrix" values="0 0 0 0 0 0 0 0 0 0 0 0 0 0 0 0 0 0 0.63 0"/>
<feBlend mode="normal" in2="BackgroundImageFix" result="effect1_dropShadow"/>
<feBlend mode="normal" in="SourceGraphic" in2="effect1_dropShadow" result="shape"/>
</filter>
<filter id="filter1_d" x="25" y="35" width="271" height="35" filterUnits="userSpaceOnUse" color-interpolation-filters="sRGB">
<feFlood flood-opacity="0" result="BackgroundImageFix"/>
<feColorMatrix in="SourceAlpha" type="matrix" values="0 0 0 0 0 0 0 0 0 0 0 0 0 0 0 0 0 0 127 0"/>
<feOffset dy="2"/>
<feGaussianBlur stdDeviation="2.5"/>
<feColorMatrix type="matrix" values="0 0 0 0 0.327469 0 0 0 0 0.525 0 0 0 0 0.295312 0 0 0 0.25 0"/>
<feBlend mode="normal" in2="BackgroundImageFix" result="effect1_dropShadow"/>
<feBlend mode="normal" in="SourceGraphic" in2="effect1_dropShadow" result="shape"/>
</filter>
<linearGradient id="paint0_linear" x1="160" y1="12" x2="160" y2="92.3563" gradientUnits="userSpaceOnUse">
<stop stop-color="#D1F9D0"/>
<stop offset="1" stop-color="#96DD94"/>
</linearGradient>
</defs>
</svg>
